<?xml version="1.0" standalone="no"?>
<!DOCTYPE svg PUBLIC "-//W3C//DTD SVG 1.1//EN" "http://www.w3.org/Graphics/SVG/1.1/DTD/svg11.dtd" >
<svg xmlns="http://www.w3.org/2000/svg" xmlns:xlink="http://www.w3.org/1999/xlink" version="1.1">
<metadata>
Created by FontForge 20190801 at Fri Oct  6 08:10:52 2017
 By www-data
Copyright 2017 The Coca-Cola Company. All Rights Reserved.
</metadata>
<defs>
<font id="TCCC-UnityHeadline-Medium" horiz-adv-x="708" >
  <font-face 
    font-family="TCCC-UnityHeadline"
    font-weight="600"
    font-stretch="normal"
    units-per-em="1000"
    panose-1="0 0 7 0 0 0 0 0 0 0"
    ascent="800"
    descent="-200"
    x-height="548"
    cap-height="720"
    bbox="-580 -281 1438 1246"
    underline-thickness="50"
    underline-position="-100"
    unicode-range="U+0020-FB02"
  />
<missing-glyph horiz-adv-x="821" 
d="M88 720h645v-720h-645v720zM643 90v539h-465v-539h465z" />
    <glyph glyph-name="f_f" unicode="ff" horiz-adv-x="769" 
d="M614 634.5q-26 -20.5 -26 -56.5v-30h154v-108h-153v-440h-127v440h-222v-440h-127v440h-93v108h93v36q0 48 24 87t64.5 61.5t88.5 22.5q49 0 85 -11v-106q-35 8 -63 8q-32 0 -52.5 -19.5t-20.5 -48.5v-30h223v39q0 51 25.5 91.5t73 63.5t110.5 23q23 0 49.5 -3.5
t42.5 -9.5v-107q-39 10 -76 10q-47 0 -73 -20.5z" />
    <glyph glyph-name="f_f_i" unicode="ffi" horiz-adv-x="1065" 
d="M979 0h-128v440h-249v-440h-127v440h-235v-440h-127v440h-93v108h93v36q0 48 24 87t64.5 61.5t88.5 22.5q49 0 85 -11v-106q-35 8 -63 8q-32 0 -52.5 -19.5t-20.5 -48.5v-30h236v43q0 49 24.5 89t67.5 62.5t94 22.5t85 -11v-106q-33 8 -63 8q-35 0 -58.5 -20.5
t-23.5 -51.5v-36h378v-548zM859 635q-22 21 -22 54q0 32 22 53t56 21t56 -21t22 -53q0 -33 -22 -54t-56 -21t-56 21z" />
    <glyph glyph-name="f_f_l" unicode="ffl" horiz-adv-x="1070" 
d="M500.5 680q24.5 40 67.5 62.5t94 22.5t85 -11v-106q-33 8 -63 8q-35 0 -58.5 -20.5t-23.5 -51.5v-36h130v-108h-129v-440h-127v440h-236v-440h-127v440h-93v108h93v36q0 48 24 87t64.5 61.5t88.5 22.5q49 0 85 -11v-106q-35 8 -63 8q-32 0 -52.5 -19.5t-20.5 -48.5v-30
h237v43q0 49 24.5 89zM1051 115v-112q-31 -12 -75 -12q-67 0 -107 36.5t-40 99.5v625h128v-599q0 -47 50 -47q19 0 44 9z" />
    <glyph glyph-name="fi" unicode="fi" horiz-adv-x="700" 
d="M617 0h-128v440h-249v-440h-127v440h-93v108h93v43q0 49 24.5 89t67.5 62.5t94 22.5t85 -11v-106q-33 8 -63 8q-35 0 -58.5 -20.5t-23.5 -51.5v-36h378v-548zM497 635q-22 21 -22 54q0 32 22 53t56 21t56 -21t22 -53q0 -33 -22 -54t-56 -21t-56 21z" />
    <glyph glyph-name="fl" unicode="fl" horiz-adv-x="707" 
d="M137.5 680q24.5 40 67.5 62.5t94 22.5t85 -11v-106q-33 8 -63 8q-35 0 -58.5 -20.5t-23.5 -51.5v-36h130v-108h-129v-440h-127v440h-93v108h93v43q0 49 24.5 89zM688 115v-112q-31 -12 -75 -12q-67 0 -107 36.5t-40 99.5v625h128v-599q0 -47 50 -47q19 0 44 9z" />
    <glyph glyph-name=".notdef" horiz-adv-x="821" 
d="M88 720h645v-720h-645v720zM643 90v539h-465v-539h465z" />
    <glyph glyph-name="space" unicode=" " horiz-adv-x="304" 
 />
    <glyph glyph-name="A" unicode="A" horiz-adv-x="785" 
d="M560 173h-336l-68 -173h-138l293 720h163l293 -720h-140zM515 288l-123 318l-124 -318h247z" />
    <glyph glyph-name="Aacute" unicode="&#xc1;" horiz-adv-x="785" 
d="M560 173h-336l-68 -173h-138l293 720h163l293 -720h-140zM515 288l-123 318l-124 -318h247zM433 778h-119l113 168h147v-10z" />
    <glyph glyph-name="Abreve" unicode="&#x102;" horiz-adv-x="785" 
d="M560 173h-336l-68 -173h-138l293 720h163l293 -720h-140zM515 288l-123 318l-124 -318h247zM267.5 821q-48.5 46 -48.5 125h91q1 -36 24.5 -57t57.5 -21t57.5 21t24.5 57h92q0 -79 -49 -125t-125 -46t-124.5 46z" />
    <glyph glyph-name="uni1EAE" unicode="&#x1eae;" horiz-adv-x="785" 
d="M438 948h-102l90 150h127v-9zM268 819.5q-49 44.5 -49 117.5h91q1 -30 25 -50t57 -20t57 20t25 50h92q0 -72 -49.5 -117t-124.5 -45t-124 44.5zM560 173h-336l-68 -173h-138l293 720h163l293 -720h-140zM515 288l-123 318l-124 -318h247z" />
    <glyph glyph-name="uni1EB6" unicode="&#x1eb6;" horiz-adv-x="785" 
d="M560 173h-336l-68 -173h-138l293 720h163l293 -720h-140zM515 288l-123 318l-124 -318h247zM336 -188q-22 21 -22 54q0 32 22 53t56 21t56 -21t22 -53q0 -33 -22 -54t-56 -21t-56 21zM267.5 821q-48.5 46 -48.5 125h91q1 -36 24.5 -57t57.5 -21t57.5 21t24.5 57h92
q0 -79 -49 -125t-125 -46t-124.5 46z" />
    <glyph glyph-name="uni1EB0" unicode="&#x1eb0;" horiz-adv-x="785" 
d="M345 948l-114 141v9h127l90 -150h-103zM268 819.5q-49 44.5 -49 117.5h91q1 -30 25 -50t57 -20t57 20t25 50h92q0 -72 -49.5 -117t-124.5 -45t-124 44.5zM560 173h-336l-68 -173h-138l293 720h163l293 -720h-140zM515 288l-123 318l-124 -318h247z" />
    <glyph glyph-name="uni1EB2" unicode="&#x1eb2;" horiz-adv-x="785" 
d="M361 1088.5q-12 -10.5 -13 -28.5h-79q1 49 35.5 78.5t93.5 29.5q51 0 84.5 -26.5t33.5 -67.5q0 -23 -11 -41.5t-35 -39.5q-29 -26 -36.5 -34.5t-7.5 -18.5v-6h-78v13q0 24 13.5 42t38.5 39q15 14 22.5 24t7.5 19q0 14 -10.5 21t-27.5 7q-19 0 -31 -10.5zM268 819.5
q-49 44.5 -49 117.5h91q1 -30 25 -50t57 -20t57 20t25 50h92q0 -72 -49.5 -117t-124.5 -45t-124 44.5zM560 173h-336l-68 -173h-138l293 720h163l293 -720h-140zM515 288l-123 318l-124 -318h247z" />
    <glyph glyph-name="uni1EB4" unicode="&#x1eb4;" horiz-adv-x="785" 
d="M298.5 1024.5q-9.5 -17.5 -10.5 -49.5h-87q3 72 33 114t86 42q32 0 54 -13t45 -36q15 -14 23.5 -20t17.5 -6q14 0 23.5 17.5t11.5 49.5h86q-2 -72 -32 -114t-86 -42q-32 0 -54 13t-46 36q-15 14 -23 20t-17 6q-15 0 -24.5 -17.5zM449 887q24 20 25 50h92
q0 -72 -49.5 -117t-124.5 -45t-124 44.5t-49 117.5h91q1 -30 25 -50t57 -20t57 20zM560 173h-336l-68 -173h-138l293 720h163l293 -720h-140zM515 288l-123 318l-124 -318h247z" />
    <glyph glyph-name="Acircumflex" unicode="&#xc2;" horiz-adv-x="785" 
d="M560 173h-336l-68 -173h-138l293 720h163l293 -720h-140zM515 288l-123 318l-124 -318h247zM467 784l-75 84l-76 -84h-111l119 162h135l119 -162h-111z" />
    <glyph glyph-name="uni1EA4" unicode="&#x1ea4;" horiz-adv-x="785" 
d="M616 893h-102l90 150h127v-9zM316 784h-111l119 153h135l119 -153h-111l-75 82zM560 173h-336l-68 -173h-138l293 720h163l293 -720h-140zM515 288l-123 318l-124 -318h247z" />
    <glyph glyph-name="uni1EAC" unicode="&#x1eac;" horiz-adv-x="785" 
d="M560 173h-336l-68 -173h-138l293 720h163l293 -720h-140zM515 288l-123 318l-124 -318h247zM336 -188q-22 21 -22 54q0 32 22 53t56 21t56 -21t22 -53q0 -33 -22 -54t-56 -21t-56 21zM467 784l-75 84l-76 -84h-111l119 162h135l119 -162h-111z" />
    <glyph glyph-name="uni1EA6" unicode="&#x1ea6;" horiz-adv-x="785" 
d="M583 893l-114 141v9h127l90 -150h-103zM316 784h-111l119 153h135l119 -153h-111l-75 82zM560 173h-336l-68 -173h-138l293 720h163l293 -720h-140zM515 288l-123 318l-124 -318h247z" />
    <glyph glyph-name="uni1EA8" unicode="&#x1ea8;" horiz-adv-x="785" 
d="M553 1027.5q-12 -10.5 -13 -28.5h-79q1 49 35.5 78.5t93.5 29.5q51 0 84.5 -26.5t33.5 -67.5q0 -23 -11 -41.5t-35 -39.5q-29 -26 -36.5 -34.5t-7.5 -18.5v-6h-78v13q0 24 13.5 42t38.5 39q15 14 22.5 24t7.5 19q0 14 -10.5 21t-27.5 7q-19 0 -31 -10.5zM316 784h-111
l119 153h135l119 -153h-111l-75 82zM560 173h-336l-68 -173h-138l293 720h163l293 -720h-140zM515 288l-123 318l-124 -318h247z" />
    <glyph glyph-name="uni1EAA" unicode="&#x1eaa;" horiz-adv-x="785" 
d="M298.5 1023.5q-9.5 -17.5 -10.5 -49.5h-87q3 72 33 114t86 42q32 0 54 -13t45 -36q15 -14 23.5 -20t17.5 -6q14 0 23.5 17.5t11.5 49.5h86q-2 -72 -32 -114t-86 -42q-32 0 -54 13t-46 36q-15 14 -23 20t-17 6q-15 0 -24.5 -17.5zM459 937l119 -153h-111l-75 82l-76 -82
h-111l119 153h135zM560 173h-336l-68 -173h-138l293 720h163l293 -720h-140zM515 288l-123 318l-124 -318h247z" />
    <glyph glyph-name="uni0200" unicode="&#x200;" horiz-adv-x="785" 
d="M560 173h-336l-68 -173h-138l293 720h163l293 -720h-140zM515 288l-123 318l-124 -318h247zM152 946h126l83 -168h-98l-111 158v10zM341 946h125l67 -168h-98l-94 158v10z" />
    <glyph glyph-name="Adieresis" unicode="&#xc4;" horiz-adv-x="785" 
d="M560 173h-336l-68 -173h-138l293 720h163l293 -720h-140zM515 288l-123 318l-124 -318h247zM220 809q-22 20 -22 52q0 31 22 51.5t55 20.5q32 0 54 -20.5t22 -51.5q0 -32 -21.5 -52t-54.5 -20t-55 20zM454 809q-22 20 -22 52q0 31 22 51.5t55 20.5q32 0 54 -20.5
t22 -51.5q0 -32 -21.5 -52t-54.5 -20t-55 20z" />
    <glyph glyph-name="uni1EA0" unicode="&#x1ea0;" horiz-adv-x="785" 
d="M560 173h-336l-68 -173h-138l293 720h163l293 -720h-140zM515 288l-123 318l-124 -318h247zM336 -188q-22 21 -22 54q0 32 22 53t56 21t56 -21t22 -53q0 -33 -22 -54t-56 -21t-56 21z" />
    <glyph glyph-name="Agrave" unicode="&#xc0;" horiz-adv-x="785" 
d="M560 173h-336l-68 -173h-138l293 720h163l293 -720h-140zM515 288l-123 318l-124 -318h247zM356 940l103 -156h-118l-132 146v10h147z" />
    <glyph glyph-name="uni1EA2" unicode="&#x1ea2;" horiz-adv-x="785" 
d="M560 173h-336l-68 -173h-138l293 720h163l293 -720h-140zM515 288l-123 318l-124 -318h247zM341 791q0 27 15 48t43 45q19 15 28 26.5t9 22.5q0 15 -13 23t-33 8q-24 0 -38 -12t-15 -32h-89q2 56 41.5 89.5t107.5 33.5q58 0 96 -30t38 -77q0 -26 -13 -46.5t-41 -46.5
q-33 -30 -41.5 -39.5t-8.5 -20.5v-7h-86v15z" />
    <glyph glyph-name="uni0202" unicode="&#x202;" horiz-adv-x="785" 
d="M560 173h-336l-68 -173h-138l293 720h163l293 -720h-140zM515 288l-123 318l-124 -318h247zM517 903q49 -46 49 -125h-92q-1 36 -24.5 57t-57.5 21t-57.5 -21t-24.5 -57h-91q0 79 48.5 125t124.5 46t125 -46z" />
    <glyph glyph-name="Amacron" unicode="&#x100;" horiz-adv-x="785" 
d="M560 173h-336l-68 -173h-138l293 720h163l293 -720h-140zM515 288l-123 318l-124 -318h247zM226 901h332v-98h-332v98z" />
    <glyph glyph-name="Aogonek" unicode="&#x104;" horiz-adv-x="775" 
d="M693 -90l34 -74q-42 -34 -113 -34q-61 0 -98 29t-37 79q0 40 31 79t98 60l-48 124h-336l-68 -173h-138l293 720h163l289 -711q-96 -13 -135.5 -36t-39.5 -48q0 -15 12.5 -24.5t31.5 -9.5q29 0 61 19zM515 288l-123 318l-124 -318h247z" />
    <glyph glyph-name="Aring" unicode="&#xc5;" horiz-adv-x="785" 
d="M560 173h-336l-68 -173h-138l293 720h163l293 -720h-140zM515 288l-123 318l-124 -318h247zM287.5 815.5q-40.5 37.5 -40.5 95.5t40.5 95.5t102.5 37.5q63 0 103.5 -37.5t40.5 -95.5t-40.5 -95.5t-103.5 -37.5q-62 0 -102.5 37.5zM435 866.5q18 17.5 18 44.5t-18 44.5
t-45 17.5t-44.5 -17.5t-17.5 -44.5t18 -44.5t44 -17.5q27 0 45 17.5z" />
    <glyph glyph-name="Aringacute" unicode="&#x1fa;" horiz-adv-x="785" 
d="M560 173h-336l-68 -173h-138l293 720h163l293 -720h-140zM515 288l-123 318l-124 -318h247zM287.5 815.5q-40.5 37.5 -40.5 95.5t40.5 95.5t102.5 37.5q63 0 103.5 -37.5t40.5 -95.5t-40.5 -95.5t-103.5 -37.5q-62 0 -102.5 37.5zM435 866.5q18 17.5 18 44.5t-18 44.5
t-45 17.5t-44.5 -17.5t-17.5 -44.5t18 -44.5t44 -17.5q27 0 45 17.5zM432 1078h-119l113 168h147v-10z" />
    <glyph glyph-name="Atilde" unicode="&#xc3;" horiz-adv-x="785" 
d="M560 173h-336l-68 -173h-138l293 720h163l293 -720h-140zM515 288l-123 318l-124 -318h247zM411.5 792q-23.5 12 -50.5 34q-17 13 -27 19t-20 6q-17 0 -26 -15.5t-11 -48.5h-96q2 72 35.5 114.5t95.5 42.5q34 0 58.5 -12.5t50.5 -34.5q16 -13 25.5 -19t19.5 -6
q36 0 39 65h96q-2 -73 -35.5 -115t-96.5 -42q-34 0 -57.5 12z" />
    <glyph glyph-name="AE" unicode="&#xc6;" horiz-adv-x="1106" 
d="M640 0h-130v172h-281l-110 -172h-144l464 720l627 1l-19 -117h-407v-171h275v-117l-275 -1v-199l417 1l19 -116zM510 286v326l-208 -326h208z" />
    <glyph glyph-name="AEacute" unicode="&#x1fc;" horiz-adv-x="1106" 
d="M640 0h-130v172h-281l-110 -172h-144l464 720l627 1l-19 -117h-407v-171h275v-117l-275 -1v-199l417 1l19 -116zM510 286v326l-208 -326h208zM614 778h-119l113 168h147v-10z" />
    <glyph glyph-name="B" unicode="B" horiz-adv-x="769" 
d="M694.5 316.5q32.5 -49.5 32.5 -111.5q0 -60 -29.5 -106t-85.5 -72.5t-135 -26.5h-389v720h359q71 0 121 -25t76 -68t26 -97q0 -43 -17.5 -80.5t-59.5 -62.5q69 -21 101.5 -70.5zM219 607v-185h218q49 0 75 26t26 67q0 42 -27.5 67t-79.5 25h-212zM559.5 139.5
q32.5 26.5 32.5 73.5q0 45 -30 71.5t-83 26.5h-260v-198h248q60 0 92.5 26.5z" />
    <glyph glyph-name="C" unicode="C" horiz-adv-x="762" 
d="M243 35.5q-92 48.5 -144 134t-52 190.5t52 190.5t143 134t204 48.5q86 0 160.5 -28.5t120.5 -81.5l-83 -93q-82 82 -195 82q-74 0 -134 -33t-95 -90.5t-35 -128.5t35 -128.5t96 -90.5t136 -33q118 0 197 80l84 -91q-48 -55 -123 -82.5t-160 -27.5q-115 0 -207 48.5z" />
    <glyph glyph-name="Cacute" unicode="&#x106;" horiz-adv-x="762" 
d="M243 35.5q-92 48.5 -144 134t-52 190.5t52 190.5t143 134t204 48.5q86 0 160.5 -28.5t120.5 -81.5l-83 -93q-82 82 -195 82q-74 0 -134 -33t-95 -90.5t-35 -128.5t35 -128.5t96 -90.5t136 -33q118 0 197 80l84 -91q-48 -55 -123 -82.5t-160 -27.5q-115 0 -207 48.5z
M465 778h-119l113 168h147v-10z" />
    <glyph glyph-name="Ccaron" unicode="&#x10c;" horiz-adv-x="762" 
d="M243 35.5q-92 48.5 -144 134t-52 190.5t52 190.5t143 134t204 48.5q86 0 160.5 -28.5t120.5 -81.5l-83 -93q-82 82 -195 82q-74 0 -134 -33t-95 -90.5t-35 -128.5t35 -128.5t96 -90.5t136 -33q118 0 197 80l84 -91q-48 -55 -123 -82.5t-160 -27.5q-115 0 -207 48.5z
M610 946l-119 -162h-135l-119 162h111l76 -84l75 84h111z" />
    <glyph glyph-name="Ccedilla" unicode="&#xc7;" horiz-adv-x="762" 
d="M243 35.5q-92 48.5 -144 134t-52 190.5t52 190.5t143 134t204 48.5q86 0 160.5 -28.5t120.5 -81.5l-83 -93q-82 82 -195 82q-74 0 -134 -33t-95 -90.5t-35 -128.5t35 -128.5t96 -90.5t136 -33q118 0 197 80l84 -91q-48 -55 -123 -82.5t-160 -27.5q-115 0 -207 48.5z
M539.5 -59q31.5 -26 31.5 -63q0 -43 -41 -69t-110 -26q-88 0 -148 35l33 55q34 -17 57.5 -23t52.5 -6q28 0 42.5 9t14.5 25q0 15 -15 24.5t-43 9.5q-26 0 -54 -7l-21 14l73 101h80l-49 -54q4 1 13 1q52 0 83.5 -26z" />
    <glyph glyph-name="uni1E08" unicode="&#x1e08;" horiz-adv-x="762" 
d="M243 35.5q-92 48.5 -144 134t-52 190.5t52 190.5t143 134t204 48.5q86 0 160.5 -28.5t120.5 -81.5l-83 -93q-82 82 -195 82q-74 0 -134 -33t-95 -90.5t-35 -128.5t35 -128.5t96 -90.5t136 -33q118 0 197 80l84 -91q-48 -55 -123 -82.5t-160 -27.5q-115 0 -207 48.5z
M539.5 -59q31.5 -26 31.5 -63q0 -43 -41 -69t-110 -26q-88 0 -148 35l33 55q34 -17 57.5 -23t52.5 -6q28 0 42.5 9t14.5 25q0 15 -15 24.5t-43 9.5q-26 0 -54 -7l-21 14l73 101h80l-49 -54q4 1 13 1q52 0 83.5 -26zM465 778h-119l113 168h147v-10z" />
    <glyph glyph-name="Ccircumflex" unicode="&#x108;" horiz-adv-x="762" 
d="M243 35.5q-92 48.5 -144 134t-52 190.5t52 190.5t143 134t204 48.5q86 0 160.5 -28.5t120.5 -81.5l-83 -93q-82 82 -195 82q-74 0 -134 -33t-95 -90.5t-35 -128.5t35 -128.5t96 -90.5t136 -33q118 0 197 80l84 -91q-48 -55 -123 -82.5t-160 -27.5q-115 0 -207 48.5z
M499 784l-75 84l-76 -84h-111l119 162h135l119 -162h-111z" />
    <glyph glyph-name="Cdotaccent" unicode="&#x10a;" horiz-adv-x="762" 
d="M243 35.5q-92 48.5 -144 134t-52 190.5t52 190.5t143 134t204 48.5q86 0 160.5 -28.5t120.5 -81.5l-83 -93q-82 82 -195 82q-74 0 -134 -33t-95 -90.5t-35 -128.5t35 -128.5t96 -90.5t136 -33q118 0 197 80l84 -91q-48 -55 -123 -82.5t-160 -27.5q-115 0 -207 48.5z
M368 807q-22 21 -22 54q0 32 22 53t56 21t56 -21t22 -53q0 -33 -22 -54t-56 -21t-56 21z" />
    <glyph glyph-name="D" unicode="D" horiz-adv-x="816" 
d="M593.5 673q85.5 -47 130.5 -129t45 -184t-45 -184t-130.5 -129t-202.5 -47h-303v720h303q117 0 202.5 -47zM520 148.5q54 31.5 82.5 86.5t28.5 125t-28.5 125t-82.5 86.5t-130 31.5h-169v-486h169q76 0 130 31.5z" />
    <glyph glyph-name="uni01C4" unicode="&#x1c4;" horiz-adv-x="1488" 
d="M593.5 673q85.5 -47 130.5 -129t45 -184t-45 -184t-130.5 -129t-202.5 -47h-303v720h303q117 0 202.5 -47zM520 148.5q54 31.5 82.5 86.5t28.5 125t-28.5 125t-82.5 86.5t-130 31.5h-169v-486h169q76 0 130 31.5zM1438 114v-114h-609v104l426 502h-405v114h573v-105
l-425 -501h440zM1330 946l-119 -162h-135l-119 162h111l76 -84l75 84h111z" />
    <glyph glyph-name="Eth" unicode="&#xd0;" horiz-adv-x="830" 
d="M607.5 673q85.5 -47 130.5 -129t45 -184t-45 -184t-130.5 -129t-202.5 -47h-303v324h-77v112h77v284h303q117 0 202.5 -47zM534 148.5q54 31.5 82.5 86.5t28.5 125t-28.5 125t-82.5 86.5t-130 31.5h-169v-167h243v-112h-243v-207h169q76 0 130 31.5z" />
    <glyph glyph-name="Dcaron" unicode="&#x10e;" horiz-adv-x="816" 
d="M593.5 673q85.5 -47 130.5 -129t45 -184t-45 -184t-130.5 -129t-202.5 -47h-303v720h303q117 0 202.5 -47zM520 148.5q54 31.5 82.5 86.5t28.5 125t-28.5 125t-82.5 86.5t-130 31.5h-169v-486h169q76 0 130 31.5zM593 946l-119 -162h-135l-119 162h111l76 -84l75 84h111z
" />
    <glyph glyph-name="Dcroat" unicode="&#x110;" horiz-adv-x="830" 
d="M607.5 673q85.5 -47 130.5 -129t45 -184t-45 -184t-130.5 -129t-202.5 -47h-303v324h-77v112h77v284h303q117 0 202.5 -47zM534 148.5q54 31.5 82.5 86.5t28.5 125t-28.5 125t-82.5 86.5t-130 31.5h-169v-167h243v-112h-243v-207h169q76 0 130 31.5z" />
    <glyph glyph-name="uni1E0C" unicode="&#x1e0c;" horiz-adv-x="816" 
d="M593.5 673q85.5 -47 130.5 -129t45 -184t-45 -184t-130.5 -129t-202.5 -47h-303v720h303q117 0 202.5 -47zM520 148.5q54 31.5 82.5 86.5t28.5 125t-28.5 125t-82.5 86.5t-130 31.5h-169v-486h169q76 0 130 31.5zM351 -188q-22 21 -22 54q0 32 22 53t56 21t56 -21t22 -53
q0 -33 -22 -54t-56 -21t-56 21z" />
    <glyph glyph-name="uni1E0E" unicode="&#x1e0e;" horiz-adv-x="816" 
d="M593.5 673q85.5 -47 130.5 -129t45 -184t-45 -184t-130.5 -129t-202.5 -47h-303v720h303q117 0 202.5 -47zM520 148.5q54 31.5 82.5 86.5t28.5 125t-28.5 125t-82.5 86.5t-130 31.5h-169v-486h169q76 0 130 31.5zM241 -85h332v-98h-332v98z" />
    <glyph glyph-name="uni01C5" unicode="&#x1c5;" horiz-adv-x="1366" 
d="M593.5 673q85.5 -47 130.5 -129t45 -184t-45 -184t-130.5 -129t-202.5 -47h-303v720h303q117 0 202.5 -47zM520 148.5q54 31.5 82.5 86.5t28.5 125t-28.5 125t-82.5 86.5t-130 31.5h-169v-486h169q76 0 130 31.5zM1331 107v-107h-490v93l313 349h-298v106h464v-93
l-312 -348h323zM1276 774l-119 -162h-135l-119 162h111l76 -84l75 84h111z" />
    <glyph glyph-name="E" unicode="E" 
d="M678 0h-590v720h580l-19 -116h-428v-171h295v-118h-295v-199h438z" />
    <glyph glyph-name="Eacute" unicode="&#xc9;" 
d="M678 0h-590v720h580l-19 -116h-428v-171h295v-118h-295v-199h438zM412 778h-119l113 168h147v-10z" />
    <glyph glyph-name="Ebreve" unicode="&#x114;" 
d="M678 0h-590v720h580l-19 -116h-428v-171h295v-118h-295v-199h438zM246.5 821q-48.5 46 -48.5 125h91q1 -36 24.5 -57t57.5 -21t57.5 21t24.5 57h92q0 -79 -49 -125t-125 -46t-124.5 46z" />
    <glyph glyph-name="Ecaron" unicode="&#x11a;" 
d="M678 0h-590v720h580l-19 -116h-428v-171h295v-118h-295v-199h438zM557 946l-119 -162h-135l-119 162h111l76 -84l75 84h111z" />
    <glyph glyph-name="uni1E1C" unicode="&#x1e1c;" 
d="M678 0h-590v720h580l-19 -116h-428v-171h295v-118h-295v-199h438zM486.5 -59q31.5 -26 31.5 -63q0 -43 -41 -69t-110 -26q-88 0 -148 35l33 55q34 -17 57.5 -23t52.5 -6q28 0 42.5 9t14.5 25q0 15 -15 24.5t-43 9.5q-26 0 -54 -7l-21 14l73 101h80l-49 -54q4 1 13 1
q52 0 83.5 -26zM246.5 821q-48.5 46 -48.5 125h91q1 -36 24.5 -57t57.5 -21t57.5 21t24.5 57h92q0 -79 -49 -125t-125 -46t-124.5 46z" />
    <glyph glyph-name="Ecircumflex" unicode="&#xca;" 
d="M678 0h-590v720h580l-19 -116h-428v-171h295v-118h-295v-199h438zM446 784l-75 84l-76 -84h-111l119 162h135l119 -162h-111z" />
    <glyph glyph-name="uni1EBE" unicode="&#x1ebe;" 
d="M710 1043v-9l-115 -141h-102l90 150h127zM295 784h-111l119 153h135l119 -153h-111l-75 82zM659 116l19 -116h-590v720h580l-19 -116h-428v-171h295v-118h-295v-199h438z" />
    <glyph glyph-name="uni1EC6" unicode="&#x1ec6;" 
d="M678 0h-590v720h580l-19 -116h-428v-171h295v-118h-295v-199h438zM315 -188q-22 21 -22 54q0 32 22 53t56 21t56 -21t22 -53q0 -33 -22 -54t-56 -21t-56 21zM446 784l-75 84l-76 -84h-111l119 162h135l119 -162h-111z" />
    <glyph glyph-name="uni1EC0" unicode="&#x1ec0;" 
d="M562 893l-114 141v9h127l90 -150h-103zM295 784h-111l119 153h135l119 -153h-111l-75 82zM678 0h-590v720h580l-19 -116h-428v-171h295v-118h-295v-199h438z" />
    <glyph glyph-name="uni1EC2" unicode="&#x1ec2;" 
d="M532 1027.5q-12 -10.5 -13 -28.5h-79q1 49 35.5 78.5t93.5 29.5q51 0 84.5 -26.5t33.5 -67.5q0 -23 -11 -41.5t-35 -39.5q-29 -26 -36.5 -34.5t-7.5 -18.5v-6h-78v13q0 24 13.5 42t38.5 39q15 14 22.5 24t7.5 19q0 14 -10.5 21t-27.5 7q-19 0 -31 -10.5zM295 784h-111
l119 153h135l119 -153h-111l-75 82zM659 116l19 -116h-590v720h580l-19 -116h-428v-171h295v-118h-295v-199h438z" />
    <glyph glyph-name="uni1EC4" unicode="&#x1ec4;" 
d="M277.5 1023.5q-9.5 -17.5 -10.5 -49.5h-87q3 72 33 114t86 42q32 0 54 -13t45 -36q15 -14 23.5 -20t17.5 -6q14 0 23.5 17.5t11.5 49.5h86q-2 -72 -32 -114t-86 -42q-32 0 -54 13t-46 36q-15 14 -23 20t-17 6q-15 0 -24.5 -17.5zM438 937l119 -153h-111l-75 82l-76 -82
h-111l119 153h135zM678 0h-590v720h580l-19 -116h-428v-171h295v-118h-295v-199h438z" />
    <glyph glyph-name="uni0204" unicode="&#x204;" 
d="M678 0h-590v720h580l-19 -116h-428v-171h295v-118h-295v-199h438zM131 946h126l83 -168h-98l-111 158v10zM320 946h125l67 -168h-98l-94 158v10z" />
    <glyph glyph-name="Edieresis" unicode="&#xcb;" 
d="M678 0h-590v720h580l-19 -116h-428v-171h295v-118h-295v-199h438zM199 809q-22 20 -22 52q0 31 22 51.5t55 20.5q32 0 54 -20.5t22 -51.5q0 -32 -21.5 -52t-54.5 -20t-55 20zM433 809q-22 20 -22 52q0 31 22 51.5t55 20.5q32 0 54 -20.5t22 -51.5q0 -32 -21.5 -52
t-54.5 -20t-55 20z" />
    <glyph glyph-name="Edotaccent" unicode="&#x116;" 
d="M678 0h-590v720h580l-19 -116h-428v-171h295v-118h-295v-199h438zM315 807q-22 21 -22 54q0 32 22 53t56 21t56 -21t22 -53q0 -33 -22 -54t-56 -21t-56 21z" />
    <glyph glyph-name="uni1EB8" unicode="&#x1eb8;" 
d="M678 0h-590v720h580l-19 -116h-428v-171h295v-118h-295v-199h438zM315 -188q-22 21 -22 54q0 32 22 53t56 21t56 -21t22 -53q0 -33 -22 -54t-56 -21t-56 21z" />
    <glyph glyph-name="Egrave" unicode="&#xc8;" 
d="M678 0h-590v720h580l-19 -116h-428v-171h295v-118h-295v-199h438zM335 940l103 -156h-118l-132 146v10h147z" />
    <glyph glyph-name="uni1EBA" unicode="&#x1eba;" 
d="M678 0h-590v720h580l-19 -116h-428v-171h295v-118h-295v-199h438zM320 791q0 27 15 48t43 45q19 15 28 26.5t9 22.5q0 15 -13 23t-33 8q-24 0 -38 -12t-15 -32h-89q2 56 41.5 89.5t107.5 33.5q58 0 96 -30t38 -77q0 -26 -13 -46.5t-41 -46.5q-33 -30 -41.5 -39.5
t-8.5 -20.5v-7h-86v15z" />
    <glyph glyph-name="uni0206" unicode="&#x206;" 
d="M678 0h-590v720h580l-19 -116h-428v-171h295v-118h-295v-199h438zM496 903q49 -46 49 -125h-92q-1 36 -24.5 57t-57.5 21t-57.5 -21t-24.5 -57h-91q0 79 48.5 125t124.5 46t125 -46z" />
    <glyph glyph-name="Emacron" unicode="&#x112;" 
d="M678 0h-590v720h580l-19 -116h-428v-171h295v-118h-295v-199h438zM205 901h332v-98h-332v98z" />
    <glyph glyph-name="uni1E16" unicode="&#x1e16;" 
d="M678 0h-590v720h580l-19 -116h-428v-171h295v-118h-295v-199h438zM205 901h332v-98h-332v98zM412 959h-119l113 168h147v-10z" />
    <glyph glyph-name="uni1E14" unicode="&#x1e14;" 
d="M678 0h-590v720h580l-19 -116h-428v-171h295v-118h-295v-199h438zM205 901h332v-98h-332v98zM335 1121l103 -156h-118l-132 146v10h147z" />
    <glyph glyph-name="Eogonek" unicode="&#x118;" horiz-adv-x="706" 
d="M622 -90l35 -74q-43 -34 -114 -34q-60 0 -97 28t-37 76q0 25 12.5 49.5t39.5 44.5h-373v720h580l-19 -116h-428v-171h296v-118h-296v-199h438l17 -110h-3q-80 -8 -117.5 -31.5t-37.5 -50.5q0 -15 12 -24t31 -9q29 0 61 19z" />
    <glyph glyph-name="uni1EBC" unicode="&#x1ebc;" 
d="M678 0h-590v720h580l-19 -116h-428v-171h295v-118h-295v-199h438zM390.5 792q-23.5 12 -50.5 34q-17 13 -27 19t-20 6q-17 0 -26 -15.5t-11 -48.5h-96q2 72 35.5 114.5t95.5 42.5q34 0 58.5 -12.5t50.5 -34.5q16 -13 25.5 -19t19.5 -6q36 0 39 65h96q-2 -73 -35.5 -115
t-96.5 -42q-34 0 -57.5 12z" />
    <glyph glyph-name="F" unicode="F" horiz-adv-x="680" 
d="M221 602v-177h294v-118h-294v-307h-133v720h560v-118h-427z" />
    <glyph glyph-name="G" unicode="G" horiz-adv-x="824" 
d="M758 73q-113 -86 -298 -86q-119 0 -213.5 47.5t-147 132t-52.5 191.5q0 108 52 193.5t143.5 133.5t205.5 48q91 0 166 -26.5t124 -72.5l-77 -97q-40 35 -93.5 55t-119.5 20q-73 0 -133 -32t-95 -89.5t-35 -130.5t35.5 -130.5t99 -89.5t144.5 -32q50 0 88 8t75 26v157
h-207v116h338v-342z" />
    <glyph glyph-name="Gbreve" unicode="&#x11e;" horiz-adv-x="824" 
d="M758 73q-113 -86 -298 -86q-119 0 -213.5 47.5t-147 132t-52.5 191.5q0 108 52 193.5t143.5 133.5t205.5 48q91 0 166 -26.5t124 -72.5l-77 -97q-40 35 -93.5 55t-119.5 20q-73 0 -133 -32t-95 -89.5t-35 -130.5t35.5 -130.5t99 -89.5t144.5 -32q50 0 88 8t75 26v157
h-207v116h338v-342zM309.5 821q-48.5 46 -48.5 125h91q1 -36 24.5 -57t57.5 -21t57.5 21t24.5 57h92q0 -79 -49 -125t-125 -46t-124.5 46z" />
    <glyph glyph-name="Gcaron" unicode="&#x1e6;" horiz-adv-x="824" 
d="M758 73q-113 -86 -298 -86q-119 0 -213.5 47.5t-147 132t-52.5 191.5q0 108 52 193.5t143.5 133.5t205.5 48q91 0 166 -26.5t124 -72.5l-77 -97q-40 35 -93.5 55t-119.5 20q-73 0 -133 -32t-95 -89.5t-35 -130.5t35.5 -130.5t99 -89.5t144.5 -32q50 0 88 8t75 26v157
h-207v116h338v-342zM620 946l-119 -162h-135l-119 162h111l76 -84l75 84h111z" />
    <glyph glyph-name="Gcircumflex" unicode="&#x11c;" horiz-adv-x="824" 
d="M758 73q-113 -86 -298 -86q-119 0 -213.5 47.5t-147 132t-52.5 191.5q0 108 52 193.5t143.5 133.5t205.5 48q91 0 166 -26.5t124 -72.5l-77 -97q-40 35 -93.5 55t-119.5 20q-73 0 -133 -32t-95 -89.5t-35 -130.5t35.5 -130.5t99 -89.5t144.5 -32q50 0 88 8t75 26v157
h-207v116h338v-342zM509 784l-75 84l-76 -84h-111l119 162h135l119 -162h-111z" />
    <glyph glyph-name="Gcommaaccent" unicode="&#x122;" horiz-adv-x="824" 
d="M758 73q-113 -86 -298 -86q-119 0 -213.5 47.5t-147 132t-52.5 191.5q0 108 52 193.5t143.5 133.5t205.5 48q91 0 166 -26.5t124 -72.5l-77 -97q-40 35 -93.5 55t-119.5 20q-73 0 -133 -32t-95 -89.5t-35 -130.5t35.5 -130.5t99 -89.5t144.5 -32q50 0 88 8t75 26v157
h-207v116h338v-342zM386 -54h137l-86 -161h-90z" />
    <glyph glyph-name="Gdotaccent" unicode="&#x120;" horiz-adv-x="824" 
d="M758 73q-113 -86 -298 -86q-119 0 -213.5 47.5t-147 132t-52.5 191.5q0 108 52 193.5t143.5 133.5t205.5 48q91 0 166 -26.5t124 -72.5l-77 -97q-40 35 -93.5 55t-119.5 20q-73 0 -133 -32t-95 -89.5t-35 -130.5t35.5 -130.5t99 -89.5t144.5 -32q50 0 88 8t75 26v157
h-207v116h338v-342zM378 807q-22 21 -22 54q0 32 22 53t56 21t56 -21t22 -53q0 -33 -22 -54t-56 -21t-56 21z" />
    <glyph glyph-name="uni1E20" unicode="&#x1e20;" horiz-adv-x="824" 
d="M758 73q-113 -86 -298 -86q-119 0 -213.5 47.5t-147 132t-52.5 191.5q0 108 52 193.5t143.5 133.5t205.5 48q91 0 166 -26.5t124 -72.5l-77 -97q-40 35 -93.5 55t-119.5 20q-73 0 -133 -32t-95 -89.5t-35 -130.5t35.5 -130.5t99 -89.5t144.5 -32q50 0 88 8t75 26v157
h-207v116h338v-342zM268 901h332v-98h-332v98z" />
    <glyph glyph-name="H" unicode="H" horiz-adv-x="844" 
d="M756 720v-720h-133v328h-402v-328h-133v720h133v-273h402v273h133z" />
    <glyph glyph-name="Hbar" unicode="&#x126;" horiz-adv-x="879" 
d="M854 520h-80v-520h-133v310h-403v-310h-133v520h-80v101h80v99h133v-99h403v99h133v-99h80v-101zM641 520h-403v-92h403v92z" />
    <glyph glyph-name="uni1E2A" unicode="&#x1e2a;" horiz-adv-x="844" 
d="M756 720v-720h-133v328h-402v-328h-133v720h133v-273h402v273h133zM297.5 -172q-48.5 46 -48.5 125h91q1 -36 24.5 -57t57.5 -21t57.5 21t24.5 57h92q0 -79 -49 -125t-125 -46t-124.5 46z" />
    <glyph glyph-name="Hcircumflex" unicode="&#x124;" horiz-adv-x="844" 
d="M756 720v-720h-133v328h-402v-328h-133v720h133v-273h402v273h133zM498 784l-75 84l-76 -84h-111l119 162h135l119 -162h-111z" />
    <glyph glyph-name="uni1E24" unicode="&#x1e24;" horiz-adv-x="844" 
d="M756 720v-720h-133v328h-402v-328h-133v720h133v-273h402v273h133zM367 -188q-22 21 -22 54q0 32 22 53t56 21t56 -21t22 -53q0 -33 -22 -54t-56 -21t-56 21z" />
    <glyph glyph-name="I" unicode="I" horiz-adv-x="321" 
d="M227 720v-720h-133v720h133z" />
    <glyph glyph-name="Iacute" unicode="&#xcd;" horiz-adv-x="321" 
d="M227 720v-720h-133v720h133zM202 778h-119l113 168h147v-10z" />
    <glyph glyph-name="Ibreve" unicode="&#x12c;" horiz-adv-x="321" 
d="M227 720v-720h-133v720h133zM36.5 821q-48.5 46 -48.5 125h91q1 -36 24.5 -57t57.5 -21t57.5 21t24.5 57h92q0 -79 -49 -125t-125 -46t-124.5 46z" />
    <glyph glyph-name="Icircumflex" unicode="&#xce;" horiz-adv-x="321" 
d="M227 720v-720h-133v720h133zM236 784l-75 84l-76 -84h-111l119 162h135l119 -162h-111z" />
    <glyph glyph-name="uni0208" unicode="&#x208;" horiz-adv-x="321" 
d="M227 720v-720h-133v720h133zM-79 946h126l83 -168h-98l-111 158v10zM110 946h125l67 -168h-98l-94 158v10z" />
    <glyph glyph-name="Idieresis" unicode="&#xcf;" horiz-adv-x="321" 
d="M0.5 809q-21.5 20 -21.5 52q0 31 21.5 51.5t54.5 20.5q32 0 54 -20.5t22 -51.5q0 -32 -21.5 -52t-54.5 -20t-54.5 20zM212 809q-22 20 -22 52q0 31 22 51.5t55 20.5q32 0 54 -20.5t22 -51.5q0 -32 -21.5 -52t-54.5 -20t-55 20zM227 720v-720h-133v720h133z" />
    <glyph glyph-name="uni1E2E" unicode="&#x1e2e;" horiz-adv-x="321" 
d="M202 992h-119l113 168h147v-10zM0.5 809q-21.5 20 -21.5 52q0 31 21.5 51.5t54.5 20.5q32 0 54 -20.5t22 -51.5q0 -32 -21.5 -52t-54.5 -20t-54.5 20zM212 809q-22 20 -22 52q0 31 22 51.5t55 20.5q32 0 54 -20.5t22 -51.5q0 -32 -21.5 -52t-54.5 -20t-55 20zM227 720
v-720h-133v720h133z" />
    <glyph glyph-name="Idotaccent" unicode="&#x130;" horiz-adv-x="321" 
d="M227 720v-720h-133v720h133zM105 807q-22 21 -22 54q0 32 22 53t56 21t56 -21t22 -53q0 -33 -22 -54t-56 -21t-56 21z" />
    <glyph glyph-name="uni1ECA" unicode="&#x1eca;" horiz-adv-x="321" 
d="M227 720v-720h-133v720h133zM105 -188q-22 21 -22 54q0 32 22 53t56 21t56 -21t22 -53q0 -33 -22 -54t-56 -21t-56 21z" />
    <glyph glyph-name="Igrave" unicode="&#xcc;" horiz-adv-x="321" 
d="M227 720v-720h-133v720h133zM125 940l103 -156h-118l-132 146v10h147z" />
    <glyph glyph-name="uni1EC8" unicode="&#x1ec8;" horiz-adv-x="321" 
d="M227 720v-720h-133v720h133zM110 791q0 27 15 48t43 45q19 15 28 26.5t9 22.5q0 15 -13 23t-33 8q-24 0 -38 -12t-15 -32h-89q2 56 41.5 89.5t107.5 33.5q58 0 96 -30t38 -77q0 -26 -13 -46.5t-41 -46.5q-33 -30 -41.5 -39.5t-8.5 -20.5v-7h-86v15z" />
    <glyph glyph-name="uni020A" unicode="&#x20a;" horiz-adv-x="321" 
d="M227 720v-720h-133v720h133zM286 903q49 -46 49 -125h-92q-1 36 -24.5 57t-57.5 21t-57.5 -21t-24.5 -57h-91q0 79 48.5 125t124.5 46t125 -46z" />
    <glyph glyph-name="Imacron" unicode="&#x12a;" horiz-adv-x="321" 
d="M227 720v-720h-133v720h133zM-5 901h332v-98h-332v98z" />
    <glyph glyph-name="Iogonek" unicode="&#x12e;" horiz-adv-x="320" 
d="M275 -165q-42 -33 -117 -33q-56 0 -94 26.5t-38 77.5q0 30 17.5 57.5t50.5 48.5v708h133v-720q-54 -23 -73 -40.5t-19 -35.5q0 -16 12.5 -24.5t32.5 -8.5q32 0 60 18z" />
    <glyph glyph-name="Itilde" unicode="&#x128;" horiz-adv-x="321" 
d="M168 792q-19 12 -37 34q-12 14 -19 19.5t-17 5.5q-33 0 -37 -64h-87q2 73 33.5 115t92.5 42q34 0 53 -12.5t38 -34.5q12 -14 19 -19.5t16 -5.5q35 0 38 65h88q-2 -73 -33.5 -115t-94.5 -42q-34 0 -53 12zM227 720v-720h-133v720h133z" />
    <glyph glyph-name="J" unicode="J" horiz-adv-x="602" 
d="M528 720v-489q0 -76 -33 -131t-91 -84t-132 -29t-131.5 29.5t-90.5 86t-33 136.5h129q2 -72 38.5 -101.5t88.5 -29.5q57 0 89.5 33t32.5 92v487h133z" />
    <glyph glyph-name="Jcircumflex" unicode="&#x134;" horiz-adv-x="602" 
d="M528 720v-489q0 -76 -33 -131t-91 -84t-132 -29t-131.5 29.5t-90.5 86t-33 136.5h129q2 -72 38.5 -101.5t88.5 -29.5q57 0 89.5 33t32.5 92v487h133zM537 784l-75 84l-76 -84h-111l119 162h135l119 -162h-111z" />
    <glyph glyph-name="K" unicode="K" horiz-adv-x="784" 
d="M377 347l-156 -152v-195h-133v720h133v-366l376 366h162l-289 -282l307 -438h-160z" />
    <glyph glyph-name="Kcommaaccent" unicode="&#x136;" horiz-adv-x="784" 
d="M377 347l-156 -152v-195h-133v720h133v-366l376 366h162l-289 -282l307 -438h-160zM335 -54h137l-86 -161h-90z" />
    <glyph glyph-name="L" unicode="L" horiz-adv-x="671" 
d="M639 119v-119h-551v720h133v-601h418z" />
    <glyph glyph-name="uni01C7" unicode="&#x1c7;" horiz-adv-x="1241" 
d="M221 119h388v-119h-521v720h133v-601zM1167 720v-489q0 -76 -33 -131t-91 -84t-132 -29t-131.5 29.5t-90.5 86t-33 136.5h129q2 -72 38.5 -101.5t88.5 -29.5q57 0 89.5 33t32.5 92v487h133z" />
    <glyph glyph-name="Lacute" unicode="&#x139;" horiz-adv-x="671" 
d="M639 119v-119h-551v720h133v-601h418zM195 778h-119l113 168h147v-10z" />
    <glyph glyph-name="Lcaron" unicode="&#x13d;" horiz-adv-x="671" 
d="M639 119v-119h-551v720h133v-601h418zM471 752l-52 -220h-84l22 220h114z" />
    <glyph glyph-name="Lcommaaccent" unicode="&#x13b;" horiz-adv-x="671" 
d="M639 119v-119h-551v720h133v-601h418zM316 -54h137l-86 -161h-90z" />
    <glyph glyph-name="Ldot" unicode="&#x13f;" horiz-adv-x="671" 
d="M639 119v-119h-551v720h133v-601h418zM471.5 399.5q-7.5 7.5 -7.5 18.5t7.5 18.5t19.5 7.5t19 -7.5t7 -18.5t-7 -18.5t-19 -7.5t-19.5 7.5z" />
    <glyph glyph-name="uni1E36" unicode="&#x1e36;" horiz-adv-x="671" 
d="M639 119v-119h-551v720h133v-601h418zM308 -188q-22 21 -22 54q0 32 22 53t56 21t56 -21t22 -53q0 -33 -22 -54t-56 -21t-56 21z" />
    <glyph glyph-name="uni01C8" unicode="&#x1c8;" horiz-adv-x="962" 
d="M639 119v-119h-551v720h133v-601h418zM639 -176v107q26 -7 45 -7q35 0 53.5 16.5t18.5 46.5v561h128v-573q0 -76 -46.5 -119t-126.5 -43q-37 0 -72 11zM764 635q-22 21 -22 54q0 32 22 53t56 21t56 -21t22 -53q0 -33 -22 -54t-56 -21t-56 21z" />
    <glyph glyph-name="uni1E3A" unicode="&#x1e3a;" horiz-adv-x="671" 
d="M639 119v-119h-551v720h133v-601h418zM198 -85h332v-98h-332v98z" />
    <glyph glyph-name="Lslash" unicode="&#x141;" horiz-adv-x="689" 
d="M657 119v-119h-551v236l-87 -40v114l87 40v370h133v-308l255 119v-115l-255 -118v-179h418z" />
    <glyph glyph-name="M" unicode="M" horiz-adv-x="1007" 
d="M919 0h-129v560l-243 -548h-90l-240 534v-546h-129v720h179l238 -531l235 531h179v-720z" />
    <glyph glyph-name="uni1E42" unicode="&#x1e42;" horiz-adv-x="1007" 
d="M919 0h-129v560l-243 -548h-90l-240 534v-546h-129v720h179l238 -531l235 531h179v-720zM448 -188q-22 21 -22 54q0 32 22 53t56 21t56 -21t22 -53q0 -33 -22 -54t-56 -21t-56 21z" />
    <glyph glyph-name="N" unicode="N" horiz-adv-x="825" 
d="M737 720v-720h-136l-384 532v-532h-129v720h139l380 -525v525h130z" />
    <glyph glyph-name="uni01CA" unicode="&#x1ca;" horiz-adv-x="1423" 
d="M737 720v-720h-136l-384 532v-532h-129v720h139l380 -525v525h130zM1349 720v-489q0 -76 -33 -131t-91 -84t-132 -29t-131.5 29.5t-90.5 86t-33 136.5h129q2 -72 38.5 -101.5t88.5 -29.5q57 0 89.5 33t32.5 92v487h133z" />
    <glyph glyph-name="Nacute" unicode="&#x143;" horiz-adv-x="825" 
d="M737 720v-720h-136l-384 532v-532h-129v720h139l380 -525v525h130zM454 778h-119l113 168h147v-10z" />
    <glyph glyph-name="Ncaron" unicode="&#x147;" horiz-adv-x="825" 
d="M737 720v-720h-136l-384 532v-532h-129v720h139l380 -525v525h130zM599 946l-119 -162h-135l-119 162h111l76 -84l75 84h111z" />
    <glyph glyph-name="Ncommaaccent" unicode="&#x145;" horiz-adv-x="825" 
d="M737 720v-720h-136l-384 532v-532h-129v720h139l380 -525v525h130zM365 -54h137l-86 -161h-90z" />
    <glyph glyph-name="uni1E44" unicode="&#x1e44;" horiz-adv-x="825" 
d="M737 720v-720h-136l-384 532v-532h-129v720h139l380 -525v525h130zM357 807q-22 21 -22 54q0 32 22 53t56 21t56 -21t22 -53q0 -33 -22 -54t-56 -21t-56 21z" />
    <glyph glyph-name="uni1E46" unicode="&#x1e46;" horiz-adv-x="825" 
d="M737 720v-720h-136l-384 532v-532h-129v720h139l380 -525v525h130zM357 -188q-22 21 -22 54q0 32 22 53t56 21t56 -21t22 -53q0 -33 -22 -54t-56 -21t-56 21z" />
    <glyph glyph-name="Eng" unicode="&#x14a;" horiz-adv-x="825" 
d="M737 720v-722q0 -87 -54 -136.5t-148 -49.5q-41 0 -84 13v117q32 -12 71 -12t61 20t23 53l-389 529v-532h-129v720h139l380 -518v518h130z" />
    <glyph glyph-name="uni01CB" unicode="&#x1cb;" horiz-adv-x="1116" 
d="M737 720v-720h-136l-384 532v-532h-129v720h139l380 -525v525h130zM793 -176v107q26 -7 45 -7q35 0 53.5 16.5t18.5 46.5v561h128v-573q0 -76 -46.5 -119t-126.5 -43q-37 0 -72 11zM918 635q-22 21 -22 54q0 32 22 53t56 21t56 -21t22 -53q0 -33 -22 -54t-56 -21t-56 21z
" />
    <glyph glyph-name="uni1E48" unicode="&#x1e48;" horiz-adv-x="825" 
d="M737 720v-720h-136l-384 532v-532h-129v720h139l380 -525v525h130zM247 -85h332v-98h-332v98z" />
    <glyph glyph-name="Ntilde" unicode="&#xd1;" horiz-adv-x="825" 
d="M737 720v-720h-136l-384 532v-532h-129v720h139l380 -525v525h130zM432.5 792q-23.5 12 -50.5 34q-17 13 -27 19t-20 6q-17 0 -26 -15.5t-11 -48.5h-96q2 72 35.5 114.5t95.5 42.5q34 0 58.5 -12.5t50.5 -34.5q16 -13 25.5 -19t19.5 -6q36 0 39 65h96q-2 -73 -35.5 -115
t-96.5 -42q-34 0 -57.5 12z" />
    <glyph glyph-name="O" unicode="O" horiz-adv-x="859" 
d="M232 34.5q-87 47.5 -136 132.5t-49 193t49 193t136 132.5t197 47.5t197 -47.5t136 -132.5t49 -193t-49 -193t-136 -132.5t-197 -47.5t-197 47.5zM555.5 140q55.5 32 86.5 89.5t31 130.5t-31 130.5t-86.5 89.5t-126.5 32q-70 0 -125.5 -32t-87 -89.5t-31.5 -130.5
t31.5 -130.5t87 -89.5t125.5 -32q71 0 126.5 32z" />
    <glyph glyph-name="Oacute" unicode="&#xd3;" horiz-adv-x="859" 
d="M232 34.5q-87 47.5 -136 132.5t-49 193t49 193t136 132.5t197 47.5t197 -47.5t136 -132.5t49 -193t-49 -193t-136 -132.5t-197 -47.5t-197 47.5zM555.5 140q55.5 32 86.5 89.5t31 130.5t-31 130.5t-86.5 89.5t-126.5 32q-70 0 -125.5 -32t-87 -89.5t-31.5 -130.5
t31.5 -130.5t87 -89.5t125.5 -32q71 0 126.5 32zM470 778h-119l113 168h147v-10z" />
    <glyph glyph-name="Obreve" unicode="&#x14e;" horiz-adv-x="859" 
d="M232 34.5q-87 47.5 -136 132.5t-49 193t49 193t136 132.5t197 47.5t197 -47.5t136 -132.5t49 -193t-49 -193t-136 -132.5t-197 -47.5t-197 47.5zM555.5 140q55.5 32 86.5 89.5t31 130.5t-31 130.5t-86.5 89.5t-126.5 32q-70 0 -125.5 -32t-87 -89.5t-31.5 -130.5
t31.5 -130.5t87 -89.5t125.5 -32q71 0 126.5 32zM304.5 821q-48.5 46 -48.5 125h91q1 -36 24.5 -57t57.5 -21t57.5 21t24.5 57h92q0 -79 -49 -125t-125 -46t-124.5 46z" />
    <glyph glyph-name="Ocircumflex" unicode="&#xd4;" horiz-adv-x="859" 
d="M232 34.5q-87 47.5 -136 132.5t-49 193t49 193t136 132.5t197 47.5t197 -47.5t136 -132.5t49 -193t-49 -193t-136 -132.5t-197 -47.5t-197 47.5zM555.5 140q55.5 32 86.5 89.5t31 130.5t-31 130.5t-86.5 89.5t-126.5 32q-70 0 -125.5 -32t-87 -89.5t-31.5 -130.5
t31.5 -130.5t87 -89.5t125.5 -32q71 0 126.5 32zM504 784l-75 84l-76 -84h-111l119 162h135l119 -162h-111z" />
    <glyph glyph-name="uni1ED0" unicode="&#x1ed0;" horiz-adv-x="859" 
d="M653 893h-102l90 150h127v-9zM353 784h-111l119 153h135l119 -153h-111l-75 82zM626 685.5q87 -47.5 136 -132.5t49 -193t-49 -193t-136 -132.5t-197 -47.5t-197 47.5t-136 132.5t-49 193t49 193t136 132.5t197 47.5t197 -47.5zM555.5 140q55.5 32 86.5 89.5t31 130.5
t-31 130.5t-86.5 89.5t-126.5 32q-70 0 -125.5 -32t-87 -89.5t-31.5 -130.5t31.5 -130.5t87 -89.5t125.5 -32q71 0 126.5 32z" />
    <glyph glyph-name="uni1ED8" unicode="&#x1ed8;" horiz-adv-x="859" 
d="M232 34.5q-87 47.5 -136 132.5t-49 193t49 193t136 132.5t197 47.5t197 -47.5t136 -132.5t49 -193t-49 -193t-136 -132.5t-197 -47.5t-197 47.5zM555.5 140q55.5 32 86.5 89.5t31 130.5t-31 130.5t-86.5 89.5t-126.5 32q-70 0 -125.5 -32t-87 -89.5t-31.5 -130.5
t31.5 -130.5t87 -89.5t125.5 -32q71 0 126.5 32zM373 -188q-22 21 -22 54q0 32 22 53t56 21t56 -21t22 -53q0 -33 -22 -54t-56 -21t-56 21zM504 784l-75 84l-76 -84h-111l119 162h135l119 -162h-111z" />
    <glyph glyph-name="uni1ED2" unicode="&#x1ed2;" horiz-adv-x="859" 
d="M620 893l-114 141v9h127l90 -150h-103zM353 784h-111l119 153h135l119 -153h-111l-75 82zM626 685.5q87 -47.5 136 -132.5t49 -193t-49 -193t-136 -132.5t-197 -47.5t-197 47.5t-136 132.5t-49 193t49 193t136 132.5t197 47.5t197 -47.5zM555.5 140q55.5 32 86.5 89.5
t31 130.5t-31 130.5t-86.5 89.5t-126.5 32q-70 0 -125.5 -32t-87 -89.5t-31.5 -130.5t31.5 -130.5t87 -89.5t125.5 -32q71 0 126.5 32z" />
    <glyph glyph-name="uni1ED4" unicode="&#x1ed4;" horiz-adv-x="859" 
d="M590 1027.5q-12 -10.5 -13 -28.5h-79q1 49 35.5 78.5t93.5 29.5q51 0 84.5 -26.5t33.5 -67.5q0 -23 -11 -41.5t-35 -39.5q-29 -26 -36.5 -34.5t-7.5 -18.5v-6h-78v13q0 24 13.5 42t38.5 39q15 14 22.5 24t7.5 19q0 14 -10.5 21t-27.5 7q-19 0 -31 -10.5zM353 784h-111
l119 153h135l119 -153h-111l-75 82zM626 685.5q87 -47.5 136 -132.5t49 -193t-49 -193t-136 -132.5t-197 -47.5t-197 47.5t-136 132.5t-49 193t49 193t136 132.5t197 47.5t197 -47.5zM555.5 140q55.5 32 86.5 89.5t31 130.5t-31 130.5t-86.5 89.5t-126.5 32
q-70 0 -125.5 -32t-87 -89.5t-31.5 -130.5t31.5 -130.5t87 -89.5t125.5 -32q71 0 126.5 32z" />
    <glyph glyph-name="uni1ED6" unicode="&#x1ed6;" horiz-adv-x="859" 
d="M335.5 1023.5q-9.5 -17.5 -10.5 -49.5h-87q3 72 33 114t86 42q32 0 54 -13t45 -36q15 -14 23.5 -20t17.5 -6q14 0 23.5 17.5t11.5 49.5h86q-2 -72 -32 -114t-86 -42q-32 0 -54 13t-46 36q-15 14 -23 20t-17 6q-15 0 -24.5 -17.5zM496 937l119 -153h-111l-75 82l-76 -82
h-111l119 153h135zM626 685.5q87 -47.5 136 -132.5t49 -193t-49 -193t-136 -132.5t-197 -47.5t-197 47.5t-136 132.5t-49 193t49 193t136 132.5t197 47.5t197 -47.5zM555.5 140q55.5 32 86.5 89.5t31 130.5t-31 130.5t-86.5 89.5t-126.5 32q-70 0 -125.5 -32t-87 -89.5
t-31.5 -130.5t31.5 -130.5t87 -89.5t125.5 -32q71 0 126.5 32z" />
    <glyph glyph-name="uni020C" unicode="&#x20c;" horiz-adv-x="859" 
d="M232 34.5q-87 47.5 -136 132.5t-49 193t49 193t136 132.5t197 47.5t197 -47.5t136 -132.5t49 -193t-49 -193t-136 -132.5t-197 -47.5t-197 47.5zM555.5 140q55.5 32 86.5 89.5t31 130.5t-31 130.5t-86.5 89.5t-126.5 32q-70 0 -125.5 -32t-87 -89.5t-31.5 -130.5
t31.5 -130.5t87 -89.5t125.5 -32q71 0 126.5 32zM189 946h126l83 -168h-98l-111 158v10zM378 946h125l67 -168h-98l-94 158v10z" />
    <glyph glyph-name="Odieresis" unicode="&#xd6;" horiz-adv-x="859" 
d="M232 34.5q-87 47.5 -136 132.5t-49 193t49 193t136 132.5t197 47.5t197 -47.5t136 -132.5t49 -193t-49 -193t-136 -132.5t-197 -47.5t-197 47.5zM555.5 140q55.5 32 86.5 89.5t31 130.5t-31 130.5t-86.5 89.5t-126.5 32q-70 0 -125.5 -32t-87 -89.5t-31.5 -130.5
t31.5 -130.5t87 -89.5t125.5 -32q71 0 126.5 32zM257 809q-22 20 -22 52q0 31 22 51.5t55 20.5q32 0 54 -20.5t22 -51.5q0 -32 -21.5 -52t-54.5 -20t-55 20zM491 809q-22 20 -22 52q0 31 22 51.5t55 20.5q32 0 54 -20.5t22 -51.5q0 -32 -21.5 -52t-54.5 -20t-55 20z" />
    <glyph glyph-name="uni022A" unicode="&#x22a;" horiz-adv-x="859" 
d="M232 34.5q-87 47.5 -136 132.5t-49 193t49 193t136 132.5t197 47.5t197 -47.5t136 -132.5t49 -193t-49 -193t-136 -132.5t-197 -47.5t-197 47.5zM555.5 140q55.5 32 86.5 89.5t31 130.5t-31 130.5t-86.5 89.5t-126.5 32q-70 0 -125.5 -32t-87 -89.5t-31.5 -130.5
t31.5 -130.5t87 -89.5t125.5 -32q71 0 126.5 32zM257 809q-22 20 -22 52q0 31 22 51.5t55 20.5q32 0 54 -20.5t22 -51.5q0 -32 -21.5 -52t-54.5 -20t-55 20zM491 809q-22 20 -22 52q0 31 22 51.5t55 20.5q32 0 54 -20.5t22 -51.5q0 -32 -21.5 -52t-54.5 -20t-55 20z
M263 1077h332v-98h-332v98z" />
    <glyph glyph-name="uni0230" unicode="&#x230;" horiz-adv-x="859" 
d="M232 34.5q-87 47.5 -136 132.5t-49 193t49 193t136 132.5t197 47.5t197 -47.5t136 -132.5t49 -193t-49 -193t-136 -132.5t-197 -47.5t-197 47.5zM555.5 140q55.5 32 86.5 89.5t31 130.5t-31 130.5t-86.5 89.5t-126.5 32q-70 0 -125.5 -32t-87 -89.5t-31.5 -130.5
t31.5 -130.5t87 -89.5t125.5 -32q71 0 126.5 32zM373 807q-22 21 -22 54q0 32 22 53t56 21t56 -21t22 -53q0 -33 -22 -54t-56 -21t-56 21zM263 1077h332v-98h-332v98z" />
    <glyph glyph-name="uni1ECC" unicode="&#x1ecc;" horiz-adv-x="859" 
d="M232 34.5q-87 47.5 -136 132.5t-49 193t49 193t136 132.5t197 47.5t197 -47.5t136 -132.5t49 -193t-49 -193t-136 -132.5t-197 -47.5t-197 47.5zM555.5 140q55.5 32 86.5 89.5t31 130.5t-31 130.5t-86.5 89.5t-126.5 32q-70 0 -125.5 -32t-87 -89.5t-31.5 -130.5
t31.5 -130.5t87 -89.5t125.5 -32q71 0 126.5 32zM373 -188q-22 21 -22 54q0 32 22 53t56 21t56 -21t22 -53q0 -33 -22 -54t-56 -21t-56 21z" />
    <glyph glyph-name="Ograve" unicode="&#xd2;" horiz-adv-x="859" 
d="M232 34.5q-87 47.5 -136 132.5t-49 193t49 193t136 132.5t197 47.5t197 -47.5t136 -132.5t49 -193t-49 -193t-136 -132.5t-197 -47.5t-197 47.5zM555.5 140q55.5 32 86.5 89.5t31 130.5t-31 130.5t-86.5 89.5t-126.5 32q-70 0 -125.5 -32t-87 -89.5t-31.5 -130.5
t31.5 -130.5t87 -89.5t125.5 -32q71 0 126.5 32zM393 940l103 -156h-118l-132 146v10h147z" />
    <glyph glyph-name="uni1ECE" unicode="&#x1ece;" horiz-adv-x="859" 
d="M232 34.5q-87 47.5 -136 132.5t-49 193t49 193t136 132.5t197 47.5t197 -47.5t136 -132.5t49 -193t-49 -193t-136 -132.5t-197 -47.5t-197 47.5zM555.5 140q55.5 32 86.5 89.5t31 130.5t-31 130.5t-86.5 89.5t-126.5 32q-70 0 -125.5 -32t-87 -89.5t-31.5 -130.5
t31.5 -130.5t87 -89.5t125.5 -32q71 0 126.5 32zM378 791q0 27 15 48t43 45q19 15 28 26.5t9 22.5q0 15 -13 23t-33 8q-24 0 -38 -12t-15 -32h-89q2 56 41.5 89.5t107.5 33.5q58 0 96 -30t38 -77q0 -26 -13 -46.5t-41 -46.5q-33 -30 -41.5 -39.5t-8.5 -20.5v-7h-86v15z" />
    <glyph glyph-name="Ohorn" unicode="&#x1a0;" horiz-adv-x="861" 
d="M812 672q-46 -39 -127 -39h-1q63 -47 96 -117t33 -156q0 -108 -49.5 -192.5t-136.5 -132.5t-197 -48t-197.5 47.5t-136.5 132.5t-49 193t49 193t136.5 132.5t197.5 47.5q67 0 149 -8q52 -5 82 -5q43 0 61 16.5t18 49.5q0 34 -18 76h119q17 -33 17 -78q0 -73 -46 -112z
M556.5 140q55.5 32 86.5 89.5t31 130.5t-31 130.5t-86.5 89.5t-126.5 32t-126.5 -32t-86.5 -89.5t-31 -130.5t31 -130.5t86.5 -89.5t126.5 -32t126.5 32z" />
    <glyph glyph-name="uni1EDA" unicode="&#x1eda;" horiz-adv-x="861" 
d="M812 672q-46 -39 -127 -39h-1q63 -47 96 -117t33 -156q0 -108 -49.5 -192.5t-136.5 -132.5t-197 -48t-197.5 47.5t-136.5 132.5t-49 193t49 193t136.5 132.5t197.5 47.5q67 0 149 -8q52 -5 82 -5q43 0 61 16.5t18 49.5q0 34 -18 76h119q17 -33 17 -78q0 -73 -46 -112z
M556.5 140q55.5 32 86.5 89.5t31 130.5t-31 130.5t-86.5 89.5t-126.5 32t-126.5 -32t-86.5 -89.5t-31 -130.5t31 -130.5t86.5 -89.5t126.5 -32t126.5 32zM471 778h-119l113 168h147v-10z" />
    <glyph glyph-name="uni1EE2" unicode="&#x1ee2;" horiz-adv-x="861" 
d="M812 672q-46 -39 -127 -39h-1q63 -47 96 -117t33 -156q0 -108 -49.5 -192.5t-136.5 -132.5t-197 -48t-197.5 47.5t-136.5 132.5t-49 193t49 193t136.5 132.5t197.5 47.5q67 0 149 -8q52 -5 82 -5q43 0 61 16.5t18 49.5q0 34 -18 76h119q17 -33 17 -78q0 -73 -46 -112z
M556.5 140q55.5 32 86.5 89.5t31 130.5t-31 130.5t-86.5 89.5t-126.5 32t-126.5 -32t-86.5 -89.5t-31 -130.5t31 -130.5t86.5 -89.5t126.5 -32t126.5 32zM374 -188q-22 21 -22 54q0 32 22 53t56 21t56 -21t22 -53q0 -33 -22 -54t-56 -21t-56 21z" />
    <glyph glyph-name="uni1EDC" unicode="&#x1edc;" horiz-adv-x="861" 
d="M812 672q-46 -39 -127 -39h-1q63 -47 96 -117t33 -156q0 -108 -49.5 -192.5t-136.5 -132.5t-197 -48t-197.5 47.5t-136.5 132.5t-49 193t49 193t136.5 132.5t197.5 47.5q67 0 149 -8q52 -5 82 -5q43 0 61 16.5t18 49.5q0 34 -18 76h119q17 -33 17 -78q0 -73 -46 -112z
M556.5 140q55.5 32 86.5 89.5t31 130.5t-31 130.5t-86.5 89.5t-126.5 32t-126.5 -32t-86.5 -89.5t-31 -130.5t31 -130.5t86.5 -89.5t126.5 -32t126.5 32zM394 940l103 -156h-118l-132 146v10h147z" />
    <glyph glyph-name="uni1EDE" unicode="&#x1ede;" horiz-adv-x="861" 
d="M812 672q-46 -39 -127 -39h-1q63 -47 96 -117t33 -156q0 -108 -49.5 -192.5t-136.5 -132.5t-197 -48t-197.5 47.5t-136.5 132.5t-49 193t49 193t136.5 132.5t197.5 47.5q67 0 149 -8q52 -5 82 -5q43 0 61 16.5t18 49.5q0 34 -18 76h119q17 -33 17 -78q0 -73 -46 -112z
M556.5 140q55.5 32 86.5 89.5t31 130.5t-31 130.5t-86.5 89.5t-126.5 32t-126.5 -32t-86.5 -89.5t-31 -130.5t31 -130.5t86.5 -89.5t126.5 -32t126.5 32zM379 791q0 27 15 48t43 45q19 15 28 26.5t9 22.5q0 15 -13 23t-33 8q-24 0 -38 -12t-15 -32h-89q2 56 41.5 89.5
t107.5 33.5q58 0 96 -30t38 -77q0 -26 -13 -46.5t-41 -46.5q-33 -30 -41.5 -39.5t-8.5 -20.5v-7h-86v15z" />
    <glyph glyph-name="uni1EE0" unicode="&#x1ee0;" horiz-adv-x="861" 
d="M812 672q-46 -39 -127 -39h-1q63 -47 96 -117t33 -156q0 -108 -49.5 -192.5t-136.5 -132.5t-197 -48t-197.5 47.5t-136.5 132.5t-49 193t49 193t136.5 132.5t197.5 47.5q67 0 149 -8q52 -5 82 -5q43 0 61 16.5t18 49.5q0 34 -18 76h119q17 -33 17 -78q0 -73 -46 -112z
M556.5 140q55.5 32 86.5 89.5t31 130.5t-31 130.5t-86.5 89.5t-126.5 32t-126.5 -32t-86.5 -89.5t-31 -130.5t31 -130.5t86.5 -89.5t126.5 -32t126.5 32zM449.5 792q-23.5 12 -50.5 34q-17 13 -27 19t-20 6q-17 0 -26 -15.5t-11 -48.5h-96q2 72 35.5 114.5t95.5 42.5
q34 0 58.5 -12.5t50.5 -34.5q16 -13 25.5 -19t19.5 -6q36 0 39 65h96q-2 -73 -35.5 -115t-96.5 -42q-34 0 -57.5 12z" />
    <glyph glyph-name="Ohungarumlaut" unicode="&#x150;" horiz-adv-x="859" 
d="M232 34.5q-87 47.5 -136 132.5t-49 193t49 193t136 132.5t197 47.5t197 -47.5t136 -132.5t49 -193t-49 -193t-136 -132.5t-197 -47.5t-197 47.5zM555.5 140q55.5 32 86.5 89.5t31 130.5t-31 130.5t-86.5 89.5t-126.5 32q-70 0 -125.5 -32t-87 -89.5t-31.5 -130.5
t31.5 -130.5t87 -89.5t125.5 -32q71 0 126.5 32zM377 778h-98l67 168h125v-10zM549 778h-98l83 168h126v-10z" />
    <glyph glyph-name="uni020E" unicode="&#x20e;" horiz-adv-x="859" 
d="M232 34.5q-87 47.5 -136 132.5t-49 193t49 193t136 132.5t197 47.5t197 -47.5t136 -132.5t49 -193t-49 -193t-136 -132.5t-197 -47.5t-197 47.5zM555.5 140q55.5 32 86.5 89.5t31 130.5t-31 130.5t-86.5 89.5t-126.5 32q-70 0 -125.5 -32t-87 -89.5t-31.5 -130.5
t31.5 -130.5t87 -89.5t125.5 -32q71 0 126.5 32zM554 903q49 -46 49 -125h-92q-1 36 -24.5 57t-57.5 21t-57.5 -21t-24.5 -57h-91q0 79 48.5 125t124.5 46t125 -46z" />
    <glyph glyph-name="Omacron" unicode="&#x14c;" horiz-adv-x="859" 
d="M232 34.5q-87 47.5 -136 132.5t-49 193t49 193t136 132.5t197 47.5t197 -47.5t136 -132.5t49 -193t-49 -193t-136 -132.5t-197 -47.5t-197 47.5zM555.5 140q55.5 32 86.5 89.5t31 130.5t-31 130.5t-86.5 89.5t-126.5 32q-70 0 -125.5 -32t-87 -89.5t-31.5 -130.5
t31.5 -130.5t87 -89.5t125.5 -32q71 0 126.5 32zM263 901h332v-98h-332v98z" />
    <glyph glyph-name="uni1E52" unicode="&#x1e52;" horiz-adv-x="859" 
d="M232 34.5q-87 47.5 -136 132.5t-49 193t49 193t136 132.5t197 47.5t197 -47.5t136 -132.5t49 -193t-49 -193t-136 -132.5t-197 -47.5t-197 47.5zM555.5 140q55.5 32 86.5 89.5t31 130.5t-31 130.5t-86.5 89.5t-126.5 32q-70 0 -125.5 -32t-87 -89.5t-31.5 -130.5
t31.5 -130.5t87 -89.5t125.5 -32q71 0 126.5 32zM263 901h332v-98h-332v98zM470 959h-119l113 168h147v-10z" />
    <glyph glyph-name="uni1E50" unicode="&#x1e50;" horiz-adv-x="859" 
d="M232 34.5q-87 47.5 -136 132.5t-49 193t49 193t136 132.5t197 47.5t197 -47.5t136 -132.5t49 -193t-49 -193t-136 -132.5t-197 -47.5t-197 47.5zM555.5 140q55.5 32 86.5 89.5t31 130.5t-31 130.5t-86.5 89.5t-126.5 32q-70 0 -125.5 -32t-87 -89.5t-31.5 -130.5
t31.5 -130.5t87 -89.5t125.5 -32q71 0 126.5 32zM263 901h332v-98h-332v98zM393 1121l103 -156h-118l-132 146v10h147z" />
    <glyph glyph-name="uni01EA" unicode="&#x1ea;" horiz-adv-x="858" 
d="M626 685.5q87 -47.5 136 -132.5t49 -193q0 -77 -26 -142.5t-69 -107.5q-36 -39 -78.5 -63t-101.5 -48q-52 -21 -75 -36.5t-23 -39.5q0 -16 13.5 -24t37.5 -8q31 0 63 19l34 -74q-42 -34 -123 -34q-57 0 -95.5 25.5t-38.5 74.5q0 50 52 88q-98 10 -173.5 60t-118 130.5
t-42.5 179.5q0 108 49 193t136 132.5t197 47.5t197 -47.5zM555.5 140q55.5 32 86.5 89.5t31 130.5t-31 130.5t-86.5 89.5t-126.5 32t-126.5 -32t-86.5 -89.5t-31 -130.5t31 -130.5t86.5 -89.5t126.5 -32t126.5 32z" />
    <glyph glyph-name="Oslash" unicode="&#xd8;" horiz-adv-x="857" 
d="M777.5 518q31.5 -72 31.5 -158q0 -108 -48.5 -193t-135.5 -132.5t-197 -47.5q-95 0 -175 37l-60 -86h-123l98 141q-58 50 -89.5 122.5t-31.5 158.5q0 108 49 193t135.5 132.5t196.5 47.5q97 0 176 -37l61 85h122l-98 -140q57 -51 88.5 -123zM300.5 582.5
q-55.5 -32.5 -86.5 -90.5t-31 -132q0 -106 61 -176l291 409q-50 22 -107 22q-72 0 -127.5 -32.5zM556 137.5q56 32.5 87 90.5t31 132q0 52 -16 97t-45 78l-291 -409q52 -21 106 -21q72 0 128 32.5z" />
    <glyph glyph-name="Oslashacute" unicode="&#x1fe;" horiz-adv-x="857" 
d="M777.5 518q31.5 -72 31.5 -158q0 -108 -48.5 -193t-135.5 -132.5t-197 -47.5q-95 0 -175 37l-60 -86h-123l98 141q-58 50 -89.5 122.5t-31.5 158.5q0 108 49 193t135.5 132.5t196.5 47.5q97 0 176 -37l61 85h122l-98 -140q57 -51 88.5 -123zM300.5 582.5
q-55.5 -32.5 -86.5 -90.5t-31 -132q0 -106 61 -176l291 409q-50 22 -107 22q-72 0 -127.5 -32.5zM556 137.5q56 32.5 87 90.5t31 132q0 52 -16 97t-45 78l-291 -409q52 -21 106 -21q72 0 128 32.5zM469 778h-119l113 168h147v-10z" />
    <glyph glyph-name="Otilde" unicode="&#xd5;" horiz-adv-x="859" 
d="M232 34.5q-87 47.5 -136 132.5t-49 193t49 193t136 132.5t197 47.5t197 -47.5t136 -132.5t49 -193t-49 -193t-136 -132.5t-197 -47.5t-197 47.5zM555.5 140q55.5 32 86.5 89.5t31 130.5t-31 130.5t-86.5 89.5t-126.5 32q-70 0 -125.5 -32t-87 -89.5t-31.5 -130.5
t31.5 -130.5t87 -89.5t125.5 -32q71 0 126.5 32zM448.5 792q-23.5 12 -50.5 34q-17 13 -27 19t-20 6q-17 0 -26 -15.5t-11 -48.5h-96q2 72 35.5 114.5t95.5 42.5q34 0 58.5 -12.5t50.5 -34.5q16 -13 25.5 -19t19.5 -6q36 0 39 65h96q-2 -73 -35.5 -115t-96.5 -42
q-34 0 -57.5 12z" />
    <glyph glyph-name="uni1E4C" unicode="&#x1e4c;" horiz-adv-x="859" 
d="M232 34.5q-87 47.5 -136 132.5t-49 193t49 193t136 132.5t197 47.5t197 -47.5t136 -132.5t49 -193t-49 -193t-136 -132.5t-197 -47.5t-197 47.5zM555.5 140q55.5 32 86.5 89.5t31 130.5t-31 130.5t-86.5 89.5t-126.5 32q-70 0 -125.5 -32t-87 -89.5t-31.5 -130.5
t31.5 -130.5t87 -89.5t125.5 -32q71 0 126.5 32zM448.5 792q-23.5 12 -50.5 34q-17 13 -27 19t-20 6q-17 0 -26 -15.5t-11 -48.5h-96q2 72 35.5 114.5t95.5 42.5q34 0 58.5 -12.5t50.5 -34.5q16 -13 25.5 -19t19.5 -6q36 0 39 65h96q-2 -73 -35.5 -115t-96.5 -42
q-34 0 -57.5 12zM470 995h-119l113 168h147v-10z" />
    <glyph glyph-name="uni1E4E" unicode="&#x1e4e;" horiz-adv-x="859" 
d="M232 34.5q-87 47.5 -136 132.5t-49 193t49 193t136 132.5t197 47.5t197 -47.5t136 -132.5t49 -193t-49 -193t-136 -132.5t-197 -47.5t-197 47.5zM555.5 140q55.5 32 86.5 89.5t31 130.5t-31 130.5t-86.5 89.5t-126.5 32q-70 0 -125.5 -32t-87 -89.5t-31.5 -130.5
t31.5 -130.5t87 -89.5t125.5 -32q71 0 126.5 32zM448.5 792q-23.5 12 -50.5 34q-17 13 -27 19t-20 6q-17 0 -26 -15.5t-11 -48.5h-96q2 72 35.5 114.5t95.5 42.5q34 0 58.5 -12.5t50.5 -34.5q16 -13 25.5 -19t19.5 -6q36 0 39 65h96q-2 -73 -35.5 -115t-96.5 -42
q-34 0 -57.5 12zM257 1026q-22 20 -22 52q0 31 22 51.5t55 20.5q32 0 54 -20.5t22 -51.5q0 -32 -21.5 -52t-54.5 -20t-55 20zM491 1026q-22 20 -22 52q0 31 22 51.5t55 20.5q32 0 54 -20.5t22 -51.5q0 -32 -21.5 -52t-54.5 -20t-55 20z" />
    <glyph glyph-name="uni022C" unicode="&#x22c;" horiz-adv-x="859" 
d="M232 34.5q-87 47.5 -136 132.5t-49 193t49 193t136 132.5t197 47.5t197 -47.5t136 -132.5t49 -193t-49 -193t-136 -132.5t-197 -47.5t-197 47.5zM555.5 140q55.5 32 86.5 89.5t31 130.5t-31 130.5t-86.5 89.5t-126.5 32q-70 0 -125.5 -32t-87 -89.5t-31.5 -130.5
t31.5 -130.5t87 -89.5t125.5 -32q71 0 126.5 32zM448.5 792q-23.5 12 -50.5 34q-17 13 -27 19t-20 6q-17 0 -26 -15.5t-11 -48.5h-96q2 72 35.5 114.5t95.5 42.5q34 0 58.5 -12.5t50.5 -34.5q16 -13 25.5 -19t19.5 -6q36 0 39 65h96q-2 -73 -35.5 -115t-96.5 -42
q-34 0 -57.5 12zM263 1093h332v-98h-332v98z" />
    <glyph glyph-name="OE" unicode="&#x152;" horiz-adv-x="1254" 
d="M1224 0h-564v100q-41 -54 -103 -83.5t-143 -29.5q-107 0 -190.5 47.5t-130 132.5t-46.5 193t46.5 193t130 132.5t190.5 47.5q81 0 143 -29.5t103 -83.5v100h554l-19 -116h-407v-171h276v-118h-276v-199h417zM546.5 140q54.5 32 85.5 89.5t31 130.5t-31 130.5t-85.5 89.5
t-123.5 32q-68 0 -122.5 -32t-85.5 -89.5t-31 -130.5t31 -130.5t85.5 -89.5t122.5 -32q69 0 123.5 32z" />
    <glyph glyph-name="P" unicode="P" horiz-adv-x="732" 
d="M585.5 691.5q55.5 -28.5 84 -79t28.5 -114.5t-28.5 -114.5t-84 -79.5t-135.5 -29h-229v-275h-133v720h362q80 0 135.5 -28.5zM533.5 420.5q30.5 27.5 30.5 77.5q0 49 -30.5 76.5t-87.5 27.5h-225v-209h225q57 0 87.5 27.5z" />
    <glyph glyph-name="Thorn" unicode="&#xde;" horiz-adv-x="729" 
d="M582 561q56 -29 84.5 -79t28.5 -114q0 -65 -28.5 -115.5t-84.5 -79.5t-136 -29h-225v-144h-133v720h133v-130h225q80 0 136 -29zM529.5 290q30.5 28 30.5 78q0 49 -30.5 76t-87.5 27h-221v-209h221q57 0 87.5 28z" />
    <glyph glyph-name="Q" unicode="Q" horiz-adv-x="868" 
d="M784 198.5q-34 -73.5 -95 -124.5l91 -115l-89 -70l-100 127q-73 -29 -159 -29q-110 0 -197.5 48t-137.5 133t-50 192t50 192t137.5 133t197.5 48t198 -48t138 -133t50 -192q0 -88 -34 -161.5zM510 119l-80 101l89 70l89 -113q34 34 53 81t19 102q0 73 -32 130.5
t-88.5 89.5t-127.5 32q-70 0 -126.5 -32t-88.5 -89.5t-32 -130.5t32 -130.5t88.5 -89.5t126.5 -32q39 0 78 11z" />
    <glyph glyph-name="R" unicode="R" horiz-adv-x="773" 
d="M407 288h-188v-288h-131v720h391q69 0 120 -28.5t78 -78t27 -109.5q0 -74 -41 -130.5t-113 -76.5l203 -297h-155zM219 405h238q53 0 83 27t30 72t-30 71.5t-83 26.5h-238v-197z" />
    <glyph glyph-name="Racute" unicode="&#x154;" horiz-adv-x="773" 
d="M407 288h-188v-288h-131v720h391q69 0 120 -28.5t78 -78t27 -109.5q0 -74 -41 -130.5t-113 -76.5l203 -297h-155zM219 405h238q53 0 83 27t30 72t-30 71.5t-83 26.5h-238v-197zM416 778h-119l113 168h147v-10z" />
    <glyph glyph-name="Rcaron" unicode="&#x158;" horiz-adv-x="773" 
d="M407 288h-188v-288h-131v720h391q69 0 120 -28.5t78 -78t27 -109.5q0 -74 -41 -130.5t-113 -76.5l203 -297h-155zM219 405h238q53 0 83 27t30 72t-30 71.5t-83 26.5h-238v-197zM561 946l-119 -162h-135l-119 162h111l76 -84l75 84h111z" />
    <glyph glyph-name="Rcommaaccent" unicode="&#x156;" horiz-adv-x="773" 
d="M407 288h-188v-288h-131v720h391q69 0 120 -28.5t78 -78t27 -109.5q0 -74 -41 -130.5t-113 -76.5l203 -297h-155zM219 405h238q53 0 83 27t30 72t-30 71.5t-83 26.5h-238v-197zM327 -54h137l-86 -161h-90z" />
    <glyph glyph-name="uni0210" unicode="&#x210;" horiz-adv-x="773" 
d="M407 288h-188v-288h-131v720h391q69 0 120 -28.5t78 -78t27 -109.5q0 -74 -41 -130.5t-113 -76.5l203 -297h-155zM219 405h238q53 0 83 27t30 72t-30 71.5t-83 26.5h-238v-197zM135 946h126l83 -168h-98l-111 158v10zM324 946h125l67 -168h-98l-94 158v10z" />
    <glyph glyph-name="uni1E5A" unicode="&#x1e5a;" horiz-adv-x="773" 
d="M407 288h-188v-288h-131v720h391q69 0 120 -28.5t78 -78t27 -109.5q0 -74 -41 -130.5t-113 -76.5l203 -297h-155zM219 405h238q53 0 83 27t30 72t-30 71.5t-83 26.5h-238v-197zM319 -188q-22 21 -22 54q0 32 22 53t56 21t56 -21t22 -53q0 -33 -22 -54t-56 -21t-56 21z
" />
    <glyph glyph-name="uni0212" unicode="&#x212;" horiz-adv-x="773" 
d="M407 288h-188v-288h-131v720h391q69 0 120 -28.5t78 -78t27 -109.5q0 -74 -41 -130.5t-113 -76.5l203 -297h-155zM219 405h238q53 0 83 27t30 72t-30 71.5t-83 26.5h-238v-197zM500 903q49 -46 49 -125h-92q-1 36 -24.5 57t-57.5 21t-57.5 -21t-24.5 -57h-91
q0 79 48.5 125t124.5 46t125 -46z" />
    <glyph glyph-name="uni1E5E" unicode="&#x1e5e;" horiz-adv-x="773" 
d="M407 288h-188v-288h-131v720h391q69 0 120 -28.5t78 -78t27 -109.5q0 -74 -41 -130.5t-113 -76.5l203 -297h-155zM219 405h238q53 0 83 27t30 72t-30 71.5t-83 26.5h-238v-197zM209 -85h332v-98h-332v98z" />
    <glyph glyph-name="S" unicode="S" 
d="M178 19.5q-89 29.5 -145 81.5l82 101q53 -47 117 -70.5t132 -23.5q71 0 116 28t45 72q0 32 -27.5 54.5t-90.5 34.5l-153 29q-98 18 -147.5 67t-49.5 122q0 66 39 115t107.5 75.5t155.5 26.5q80 0 155.5 -24t131.5 -75l-76 -98q-49 40 -104 60t-111 20q-69 0 -115.5 -25.5
t-46.5 -64.5q0 -27 25 -46t89 -31l145 -27q104 -20 157 -74t53 -130q0 -67 -36.5 -118.5t-102.5 -80t-153 -28.5q-103 0 -192 29.5z" />
    <glyph glyph-name="Sacute" unicode="&#x15a;" 
d="M178 19.5q-89 29.5 -145 81.5l82 101q53 -47 117 -70.5t132 -23.5q71 0 116 28t45 72q0 32 -27.5 54.5t-90.5 34.5l-153 29q-98 18 -147.5 67t-49.5 122q0 66 39 115t107.5 75.5t155.5 26.5q80 0 155.5 -24t131.5 -75l-76 -98q-49 40 -104 60t-111 20q-69 0 -115.5 -25.5
t-46.5 -64.5q0 -27 25 -46t89 -31l145 -27q104 -20 157 -74t53 -130q0 -67 -36.5 -118.5t-102.5 -80t-153 -28.5q-103 0 -192 29.5zM394 779h-119l113 168h147v-10z" />
    <glyph glyph-name="uni1E64" unicode="&#x1e64;" 
d="M178 19.5q-89 29.5 -145 81.5l82 101q53 -47 117 -70.5t132 -23.5q71 0 116 28t45 72q0 32 -27.5 54.5t-90.5 34.5l-153 29q-98 18 -147.5 67t-49.5 122q0 66 39 115t107.5 75.5t155.5 26.5q80 0 155.5 -24t131.5 -75l-76 -98q-49 40 -104 60t-111 20q-69 0 -115.5 -25.5
t-46.5 -64.5q0 -27 25 -46t89 -31l145 -27q104 -20 157 -74t53 -130q0 -67 -36.5 -118.5t-102.5 -80t-153 -28.5q-103 0 -192 29.5zM420 778h-119l113 168h147v-10zM202 931q-22 21 -22 54q0 32 22 53t56 21t56 -21t22 -53q0 -33 -22 -54t-56 -21t-56 21z" />
    <glyph glyph-name="Scaron" unicode="&#x160;" 
d="M178 19.5q-89 29.5 -145 81.5l82 101q53 -47 117 -70.5t132 -23.5q71 0 116 28t45 72q0 32 -27.5 54.5t-90.5 34.5l-153 29q-98 18 -147.5 67t-49.5 122q0 66 39 115t107.5 75.5t155.5 26.5q80 0 155.5 -24t131.5 -75l-76 -98q-49 40 -104 60t-111 20q-69 0 -115.5 -25.5
t-46.5 -64.5q0 -27 25 -46t89 -31l145 -27q104 -20 157 -74t53 -130q0 -67 -36.5 -118.5t-102.5 -80t-153 -28.5q-103 0 -192 29.5zM539 947l-119 -162h-135l-119 162h111l76 -84l75 84h111z" />
    <glyph glyph-name="uni1E66" unicode="&#x1e66;" 
d="M178 19.5q-89 29.5 -145 81.5l82 101q53 -47 117 -70.5t132 -23.5q71 0 116 28t45 72q0 32 -27.5 54.5t-90.5 34.5l-153 29q-98 18 -147.5 67t-49.5 122q0 66 39 115t107.5 75.5t155.5 26.5q80 0 155.5 -24t131.5 -75l-76 -98q-49 40 -104 60t-111 20q-69 0 -115.5 -25.5
t-46.5 -64.5q0 -27 25 -46t89 -31l145 -27q104 -20 157 -74t53 -130q0 -67 -36.5 -118.5t-102.5 -80t-153 -28.5q-103 0 -192 29.5zM539 947l-119 -162h-135l-119 162h111l76 -84l75 84h111zM297 1009q-22 21 -22 54q0 32 22 53t56 21t56 -21t22 -53q0 -33 -22 -54t-56 -21
t-56 21z" />
    <glyph glyph-name="Scedilla" unicode="&#x15e;" 
d="M178 19.5q-89 29.5 -145 81.5l82 101q53 -47 117 -70.5t132 -23.5q71 0 116 28t45 72q0 32 -27.5 54.5t-90.5 34.5l-153 29q-98 18 -147.5 67t-49.5 122q0 66 39 115t107.5 75.5t155.5 26.5q80 0 155.5 -24t131.5 -75l-76 -98q-49 40 -104 60t-111 20q-69 0 -115.5 -25.5
t-46.5 -64.5q0 -27 25 -46t89 -31l145 -27q104 -20 157 -74t53 -130q0 -67 -36.5 -118.5t-102.5 -80t-153 -28.5q-103 0 -192 29.5zM468.5 -58q31.5 -26 31.5 -63q0 -43 -41 -69t-110 -26q-88 0 -148 35l33 55q34 -17 57.5 -23t52.5 -6q28 0 42.5 9t14.5 25q0 15 -15 24.5
t-43 9.5q-26 0 -54 -7l-21 14l73 101h80l-49 -54q4 1 13 1q52 0 83.5 -26z" />
    <glyph glyph-name="Scircumflex" unicode="&#x15c;" 
d="M178 19.5q-89 29.5 -145 81.5l82 101q53 -47 117 -70.5t132 -23.5q71 0 116 28t45 72q0 32 -27.5 54.5t-90.5 34.5l-153 29q-98 18 -147.5 67t-49.5 122q0 66 39 115t107.5 75.5t155.5 26.5q80 0 155.5 -24t131.5 -75l-76 -98q-49 40 -104 60t-111 20q-69 0 -115.5 -25.5
t-46.5 -64.5q0 -27 25 -46t89 -31l145 -27q104 -20 157 -74t53 -130q0 -67 -36.5 -118.5t-102.5 -80t-153 -28.5q-103 0 -192 29.5zM428 785l-75 84l-76 -84h-111l119 162h135l119 -162h-111z" />
    <glyph glyph-name="Scommaaccent" unicode="&#x218;" 
d="M178 19.5q-89 29.5 -145 81.5l82 101q53 -47 117 -70.5t132 -23.5q71 0 116 28t45 72q0 32 -27.5 54.5t-90.5 34.5l-153 29q-98 18 -147.5 67t-49.5 122q0 66 39 115t107.5 75.5t155.5 26.5q80 0 155.5 -24t131.5 -75l-76 -98q-49 40 -104 60t-111 20q-69 0 -115.5 -25.5
t-46.5 -64.5q0 -27 25 -46t89 -31l145 -27q104 -20 157 -74t53 -130q0 -67 -36.5 -118.5t-102.5 -80t-153 -28.5q-103 0 -192 29.5zM305 -53h137l-86 -161h-90z" />
    <glyph glyph-name="uni1E60" unicode="&#x1e60;" 
d="M178 19.5q-89 29.5 -145 81.5l82 101q53 -47 117 -70.5t132 -23.5q71 0 116 28t45 72q0 32 -27.5 54.5t-90.5 34.5l-153 29q-98 18 -147.5 67t-49.5 122q0 66 39 115t107.5 75.5t155.5 26.5q80 0 155.5 -24t131.5 -75l-76 -98q-49 40 -104 60t-111 20q-69 0 -115.5 -25.5
t-46.5 -64.5q0 -27 25 -46t89 -31l145 -27q104 -20 157 -74t53 -130q0 -67 -36.5 -118.5t-102.5 -80t-153 -28.5q-103 0 -192 29.5zM297 808q-22 21 -22 54q0 32 22 53t56 21t56 -21t22 -53q0 -33 -22 -54t-56 -21t-56 21z" />
    <glyph glyph-name="uni1E62" unicode="&#x1e62;" 
d="M178 19.5q-89 29.5 -145 81.5l82 101q53 -47 117 -70.5t132 -23.5q71 0 116 28t45 72q0 32 -27.5 54.5t-90.5 34.5l-153 29q-98 18 -147.5 67t-49.5 122q0 66 39 115t107.5 75.5t155.5 26.5q80 0 155.5 -24t131.5 -75l-76 -98q-49 40 -104 60t-111 20q-69 0 -115.5 -25.5
t-46.5 -64.5q0 -27 25 -46t89 -31l145 -27q104 -20 157 -74t53 -130q0 -67 -36.5 -118.5t-102.5 -80t-153 -28.5q-103 0 -192 29.5zM297 -187q-22 21 -22 54q0 32 22 53t56 21t56 -21t22 -53q0 -33 -22 -54t-56 -21t-56 21z" />
    <glyph glyph-name="uni1E68" unicode="&#x1e68;" 
d="M178 19.5q-89 29.5 -145 81.5l82 101q53 -47 117 -70.5t132 -23.5q71 0 116 28t45 72q0 32 -27.5 54.5t-90.5 34.5l-153 29q-98 18 -147.5 67t-49.5 122q0 66 39 115t107.5 75.5t155.5 26.5q80 0 155.5 -24t131.5 -75l-76 -98q-49 40 -104 60t-111 20q-69 0 -115.5 -25.5
t-46.5 -64.5q0 -27 25 -46t89 -31l145 -27q104 -20 157 -74t53 -130q0 -67 -36.5 -118.5t-102.5 -80t-153 -28.5q-103 0 -192 29.5zM297 -187q-22 21 -22 54q0 32 22 53t56 21t56 -21t22 -53q0 -33 -22 -54t-56 -21t-56 21zM297 808q-22 21 -22 54q0 32 22 53t56 21t56 -21
t22 -53q0 -33 -22 -54t-56 -21t-56 21z" />
    <glyph glyph-name="uni1E9E" unicode="&#x1e9e;" horiz-adv-x="794" 
d="M574.5 251q54.5 -33 54.5 -68q0 -36 -36 -56t-101 -20q-99 0 -192 39v-125q51 -19 98 -26.5t105 -7.5q78 0 137.5 25t92.5 69.5t33 102.5q0 53 -23.5 91.5t-74 70.5t-137.5 66l197 225q-53 42 -134 69t-187 27q-103 0 -178.5 -34.5t-115 -99t-39.5 -151.5v-448h133v442
q0 80 53 125t148 45q72 0 130 -23l-153 -173v-89q135 -43 189.5 -76z" />
    <glyph glyph-name="uni018F" unicode="&#x18f;" horiz-adv-x="840" 
d="M612.5 684.5q87.5 -48.5 134 -133t46.5 -191.5q0 -103 -47 -188.5t-132 -135t-195 -49.5q-112 0 -196.5 50.5t-130 136.5t-45.5 191q0 19 5 46h600q-14 93 -80 148t-168 55q-68 0 -128.5 -22.5t-104.5 -62.5l-77 93q51 51 131 81t180 30q120 0 207.5 -48.5zM572.5 160
q62.5 53 78.5 144h-464q14 -88 76 -142.5t156 -54.5q91 0 153.5 53z" />
    <glyph glyph-name="T" unicode="T" horiz-adv-x="686" 
d="M656 600h-246v-600h-133v600h-246v120h625v-120z" />
    <glyph glyph-name="Tbar" unicode="&#x166;" horiz-adv-x="706" 
d="M420 600v-169h173v-109h-173v-322h-133v322h-174v109h174v169h-246v120h625v-120h-246z" />
    <glyph glyph-name="Tcaron" unicode="&#x164;" horiz-adv-x="686" 
d="M656 600h-246v-600h-133v600h-246v120h625v-120zM528 946l-119 -162h-135l-119 162h111l76 -84l75 84h111z" />
    <glyph glyph-name="uni0162" unicode="&#x162;" horiz-adv-x="662" 
d="M381 0l-31 -34q4 1 13 1q52 0 83.5 -26t31.5 -63q0 -43 -41 -69t-110 -26q-88 0 -148 35l34 55q33 -17 56.5 -23t52.5 -6q28 0 43 9t15 25q0 14 -15 24t-43 10q-27 0 -55 -7l-21 14l59 81h-28v600h-246v120h625v-120h-246v-600h-29z" />
    <glyph glyph-name="uni021A" unicode="&#x21a;" horiz-adv-x="686" 
d="M656 600h-246v-600h-133v600h-246v120h625v-120zM295 -54h137l-86 -161h-90z" />
    <glyph glyph-name="uni1E6C" unicode="&#x1e6c;" horiz-adv-x="686" 
d="M656 600h-246v-600h-133v600h-246v120h625v-120zM287 -188q-22 21 -22 54q0 32 22 53t56 21t56 -21t22 -53q0 -33 -22 -54t-56 -21t-56 21z" />
    <glyph glyph-name="uni1E6E" unicode="&#x1e6e;" horiz-adv-x="686" 
d="M656 600h-246v-600h-133v600h-246v120h625v-120zM177 -85h332v-98h-332v98z" />
    <glyph glyph-name="U" unicode="U" horiz-adv-x="781" 
d="M223.5 21q-71.5 34 -110.5 97.5t-39 149.5v452h133v-437q0 -83 48.5 -129t135.5 -46q86 0 134.5 46t48.5 129v437h133v-452q0 -86 -38.5 -149.5t-110 -97.5t-167.5 -34t-167.5 34z" />
    <glyph glyph-name="Uacute" unicode="&#xda;" horiz-adv-x="781" 
d="M223.5 21q-71.5 34 -110.5 97.5t-39 149.5v452h133v-437q0 -83 48.5 -129t135.5 -46q86 0 134.5 46t48.5 129v437h133v-452q0 -86 -38.5 -149.5t-110 -97.5t-167.5 -34t-167.5 34zM432 778h-119l113 168h147v-10z" />
    <glyph glyph-name="Ubreve" unicode="&#x16c;" horiz-adv-x="781" 
d="M223.5 21q-71.5 34 -110.5 97.5t-39 149.5v452h133v-437q0 -83 48.5 -129t135.5 -46q86 0 134.5 46t48.5 129v437h133v-452q0 -86 -38.5 -149.5t-110 -97.5t-167.5 -34t-167.5 34zM266.5 821q-48.5 46 -48.5 125h91q1 -36 24.5 -57t57.5 -21t57.5 21t24.5 57h92
q0 -79 -49 -125t-125 -46t-124.5 46z" />
    <glyph glyph-name="Ucircumflex" unicode="&#xdb;" horiz-adv-x="781" 
d="M223.5 21q-71.5 34 -110.5 97.5t-39 149.5v452h133v-437q0 -83 48.5 -129t135.5 -46q86 0 134.5 46t48.5 129v437h133v-452q0 -86 -38.5 -149.5t-110 -97.5t-167.5 -34t-167.5 34zM466 784l-75 84l-76 -84h-111l119 162h135l119 -162h-111z" />
    <glyph glyph-name="uni0214" unicode="&#x214;" horiz-adv-x="781" 
d="M223.5 21q-71.5 34 -110.5 97.5t-39 149.5v452h133v-437q0 -83 48.5 -129t135.5 -46q86 0 134.5 46t48.5 129v437h133v-452q0 -86 -38.5 -149.5t-110 -97.5t-167.5 -34t-167.5 34zM151 946h126l83 -168h-98l-111 158v10zM340 946h125l67 -168h-98l-94 158v10z" />
    <glyph glyph-name="Udieresis" unicode="&#xdc;" horiz-adv-x="781" 
d="M223.5 21q-71.5 34 -110.5 97.5t-39 149.5v452h133v-437q0 -83 48.5 -129t135.5 -46q86 0 134.5 46t48.5 129v437h133v-452q0 -86 -38.5 -149.5t-110 -97.5t-167.5 -34t-167.5 34zM219 809q-22 20 -22 52q0 31 22 51.5t55 20.5q32 0 54 -20.5t22 -51.5q0 -32 -21.5 -52
t-54.5 -20t-55 20zM453 809q-22 20 -22 52q0 31 22 51.5t55 20.5q32 0 54 -20.5t22 -51.5q0 -32 -21.5 -52t-54.5 -20t-55 20z" />
    <glyph glyph-name="uni1EE4" unicode="&#x1ee4;" horiz-adv-x="781" 
d="M223.5 21q-71.5 34 -110.5 97.5t-39 149.5v452h133v-437q0 -83 48.5 -129t135.5 -46q86 0 134.5 46t48.5 129v437h133v-452q0 -86 -38.5 -149.5t-110 -97.5t-167.5 -34t-167.5 34zM335 -188q-22 21 -22 54q0 32 22 53t56 21t56 -21t22 -53q0 -33 -22 -54t-56 -21t-56 21z
" />
    <glyph glyph-name="Ugrave" unicode="&#xd9;" horiz-adv-x="781" 
d="M223.5 21q-71.5 34 -110.5 97.5t-39 149.5v452h133v-437q0 -83 48.5 -129t135.5 -46q86 0 134.5 46t48.5 129v437h133v-452q0 -86 -38.5 -149.5t-110 -97.5t-167.5 -34t-167.5 34zM355 940l103 -156h-118l-132 146v10h147z" />
    <glyph glyph-name="uni1EE6" unicode="&#x1ee6;" horiz-adv-x="781" 
d="M223.5 21q-71.5 34 -110.5 97.5t-39 149.5v452h133v-437q0 -83 48.5 -129t135.5 -46q86 0 134.5 46t48.5 129v437h133v-452q0 -86 -38.5 -149.5t-110 -97.5t-167.5 -34t-167.5 34zM340 791q0 27 15 48t43 45q19 15 28 26.5t9 22.5q0 15 -13 23t-33 8q-24 0 -38 -12
t-15 -32h-89q2 56 41.5 89.5t107.5 33.5q58 0 96 -30t38 -77q0 -26 -13 -46.5t-41 -46.5q-33 -30 -41.5 -39.5t-8.5 -20.5v-7h-86v15z" />
    <glyph glyph-name="Uhorn" unicode="&#x1af;" horiz-adv-x="804" 
d="M823 675q-42 -39 -116 -42v-365q0 -86 -38.5 -149.5t-110 -97.5t-167.5 -34t-167.5 34t-110.5 97.5t-39 149.5v452h133v-437q0 -83 48.5 -129t135.5 -46q86 0 134.5 46t48.5 129v437h97q77 0 77 66q0 34 -18 76h119q16 -31 16 -78q0 -70 -42 -109z" />
    <glyph glyph-name="uni1EE8" unicode="&#x1ee8;" horiz-adv-x="804" 
d="M823 675q-42 -39 -116 -42v-365q0 -86 -38.5 -149.5t-110 -97.5t-167.5 -34t-167.5 34t-110.5 97.5t-39 149.5v452h133v-437q0 -83 48.5 -129t135.5 -46q86 0 134.5 46t48.5 129v437h97q77 0 77 66q0 34 -18 76h119q16 -31 16 -78q0 -70 -42 -109zM432 778h-119l113 168
h147v-10z" />
    <glyph glyph-name="uni1EF0" unicode="&#x1ef0;" horiz-adv-x="804" 
d="M823 675q-42 -39 -116 -42v-365q0 -86 -38.5 -149.5t-110 -97.5t-167.5 -34t-167.5 34t-110.5 97.5t-39 149.5v452h133v-437q0 -83 48.5 -129t135.5 -46q86 0 134.5 46t48.5 129v437h97q77 0 77 66q0 34 -18 76h119q16 -31 16 -78q0 -70 -42 -109zM335 -188
q-22 21 -22 54q0 32 22 53t56 21t56 -21t22 -53q0 -33 -22 -54t-56 -21t-56 21z" />
    <glyph glyph-name="uni1EEA" unicode="&#x1eea;" horiz-adv-x="804" 
d="M823 675q-42 -39 -116 -42v-365q0 -86 -38.5 -149.5t-110 -97.5t-167.5 -34t-167.5 34t-110.5 97.5t-39 149.5v452h133v-437q0 -83 48.5 -129t135.5 -46q86 0 134.5 46t48.5 129v437h97q77 0 77 66q0 34 -18 76h119q16 -31 16 -78q0 -70 -42 -109zM355 940l103 -156h-118
l-132 146v10h147z" />
    <glyph glyph-name="uni1EEC" unicode="&#x1eec;" horiz-adv-x="804" 
d="M823 675q-42 -39 -116 -42v-365q0 -86 -38.5 -149.5t-110 -97.5t-167.5 -34t-167.5 34t-110.5 97.5t-39 149.5v452h133v-437q0 -83 48.5 -129t135.5 -46q86 0 134.5 46t48.5 129v437h97q77 0 77 66q0 34 -18 76h119q16 -31 16 -78q0 -70 -42 -109zM340 791q0 27 15 48
t43 45q19 15 28 26.5t9 22.5q0 15 -13 23t-33 8q-24 0 -38 -12t-15 -32h-89q2 56 41.5 89.5t107.5 33.5q58 0 96 -30t38 -77q0 -26 -13 -46.5t-41 -46.5q-33 -30 -41.5 -39.5t-8.5 -20.5v-7h-86v15z" />
    <glyph glyph-name="uni1EEE" unicode="&#x1eee;" horiz-adv-x="804" 
d="M823 675q-42 -39 -116 -42v-365q0 -86 -38.5 -149.5t-110 -97.5t-167.5 -34t-167.5 34t-110.5 97.5t-39 149.5v452h133v-437q0 -83 48.5 -129t135.5 -46q86 0 134.5 46t48.5 129v437h97q77 0 77 66q0 34 -18 76h119q16 -31 16 -78q0 -70 -42 -109zM410.5 792
q-23.5 12 -50.5 34q-17 13 -27 19t-20 6q-17 0 -26 -15.5t-11 -48.5h-96q2 72 35.5 114.5t95.5 42.5q34 0 58.5 -12.5t50.5 -34.5q16 -13 25.5 -19t19.5 -6q36 0 39 65h96q-2 -73 -35.5 -115t-96.5 -42q-34 0 -57.5 12z" />
    <glyph glyph-name="Uhungarumlaut" unicode="&#x170;" horiz-adv-x="781" 
d="M223.5 21q-71.5 34 -110.5 97.5t-39 149.5v452h133v-437q0 -83 48.5 -129t135.5 -46q86 0 134.5 46t48.5 129v437h133v-452q0 -86 -38.5 -149.5t-110 -97.5t-167.5 -34t-167.5 34zM339 778h-98l67 168h125v-10zM511 778h-98l83 168h126v-10z" />
    <glyph glyph-name="uni0216" unicode="&#x216;" horiz-adv-x="781" 
d="M223.5 21q-71.5 34 -110.5 97.5t-39 149.5v452h133v-437q0 -83 48.5 -129t135.5 -46q86 0 134.5 46t48.5 129v437h133v-452q0 -86 -38.5 -149.5t-110 -97.5t-167.5 -34t-167.5 34zM516 903q49 -46 49 -125h-92q-1 36 -24.5 57t-57.5 21t-57.5 -21t-24.5 -57h-91
q0 79 48.5 125t124.5 46t125 -46z" />
    <glyph glyph-name="Umacron" unicode="&#x16a;" horiz-adv-x="781" 
d="M223.5 21q-71.5 34 -110.5 97.5t-39 149.5v452h133v-437q0 -83 48.5 -129t135.5 -46q86 0 134.5 46t48.5 129v437h133v-452q0 -86 -38.5 -149.5t-110 -97.5t-167.5 -34t-167.5 34zM225 901h332v-98h-332v98z" />
    <glyph glyph-name="uni1E7A" unicode="&#x1e7a;" horiz-adv-x="781" 
d="M223.5 21q-71.5 34 -110.5 97.5t-39 149.5v452h133v-437q0 -83 48.5 -129t135.5 -46q86 0 134.5 46t48.5 129v437h133v-452q0 -86 -38.5 -149.5t-110 -97.5t-167.5 -34t-167.5 34zM225 901h332v-98h-332v98zM219 990q-22 20 -22 52q0 31 22 51.5t55 20.5q32 0 54 -20.5
t22 -51.5q0 -32 -21.5 -52t-54.5 -20t-55 20zM453 990q-22 20 -22 52q0 31 22 51.5t55 20.5q32 0 54 -20.5t22 -51.5q0 -32 -21.5 -52t-54.5 -20t-55 20z" />
    <glyph glyph-name="Uogonek" unicode="&#x172;" horiz-adv-x="781" 
d="M684 153q-23 -49 -54 -81t-76 -67q-37 -31 -52 -47t-15 -35q0 -15 13 -23.5t36 -8.5q32 0 62 19l35 -74q-42 -34 -121 -34q-57 0 -96 25.5t-39 74.5q0 45 47 86q-10 -1 -32 -1q-96 0 -168 34t-111 97.5t-39 149.5v452h133v-437q0 -83 49 -129t136 -46t134.5 45.5
t47.5 129.5v437h133v-452v-1q0 -65 -23 -114z" />
    <glyph glyph-name="Uring" unicode="&#x16e;" horiz-adv-x="781" 
d="M223.5 21q-71.5 34 -110.5 97.5t-39 149.5v452h133v-437q0 -83 48.5 -129t135.5 -46q86 0 134.5 46t48.5 129v437h133v-452q0 -86 -38.5 -149.5t-110 -97.5t-167.5 -34t-167.5 34zM286.5 815.5q-40.5 37.5 -40.5 95.5t40.5 95.5t102.5 37.5q63 0 103.5 -37.5t40.5 -95.5
t-40.5 -95.5t-103.5 -37.5q-62 0 -102.5 37.5zM434 866.5q18 17.5 18 44.5t-18 44.5t-45 17.5t-44.5 -17.5t-17.5 -44.5t18 -44.5t44 -17.5q27 0 45 17.5z" />
    <glyph glyph-name="Utilde" unicode="&#x168;" horiz-adv-x="781" 
d="M223.5 21q-71.5 34 -110.5 97.5t-39 149.5v452h133v-437q0 -83 48.5 -129t135.5 -46q86 0 134.5 46t48.5 129v437h133v-452q0 -86 -38.5 -149.5t-110 -97.5t-167.5 -34t-167.5 34zM410.5 792q-23.5 12 -50.5 34q-17 13 -27 19t-20 6q-17 0 -26 -15.5t-11 -48.5h-96
q2 72 35.5 114.5t95.5 42.5q34 0 58.5 -12.5t50.5 -34.5q16 -13 25.5 -19t19.5 -6q36 0 39 65h96q-2 -73 -35.5 -115t-96.5 -42q-34 0 -57.5 12z" />
    <glyph glyph-name="uni1E78" unicode="&#x1e78;" horiz-adv-x="781" 
d="M223.5 21q-71.5 34 -110.5 97.5t-39 149.5v452h133v-437q0 -83 48.5 -129t135.5 -46q86 0 134.5 46t48.5 129v437h133v-452q0 -86 -38.5 -149.5t-110 -97.5t-167.5 -34t-167.5 34zM410.5 792q-23.5 12 -50.5 34q-17 13 -27 19t-20 6q-17 0 -26 -15.5t-11 -48.5h-96
q2 72 35.5 114.5t95.5 42.5q34 0 58.5 -12.5t50.5 -34.5q16 -13 25.5 -19t19.5 -6q36 0 39 65h96q-2 -73 -35.5 -115t-96.5 -42q-34 0 -57.5 12zM432 995h-119l113 168h147v-10z" />
    <glyph glyph-name="V" unicode="V" horiz-adv-x="756" 
d="M740 720l-280 -720h-163l-280 720h144l220 -588l219 588h140z" />
    <glyph glyph-name="W" unicode="W" horiz-adv-x="1147" 
d="M1123 720l-240 -720h-161l-149 527l-148 -527h-161l-240 720h140l183 -579l160 576h137l161 -573l183 576h135z" />
    <glyph glyph-name="Wacute" unicode="&#x1e82;" horiz-adv-x="1147" 
d="M1123 720l-240 -720h-161l-149 527l-148 -527h-161l-240 720h140l183 -579l160 576h137l161 -573l183 576h135zM614 778h-119l113 168h147v-10z" />
    <glyph glyph-name="Wcircumflex" unicode="&#x174;" horiz-adv-x="1147" 
d="M1123 720l-240 -720h-161l-149 527l-148 -527h-161l-240 720h140l183 -579l160 576h137l161 -573l183 576h135zM648 784l-75 84l-76 -84h-111l119 162h135l119 -162h-111z" />
    <glyph glyph-name="Wdieresis" unicode="&#x1e84;" horiz-adv-x="1147" 
d="M1123 720l-240 -720h-161l-149 527l-148 -527h-161l-240 720h140l183 -579l160 576h137l161 -573l183 576h135zM401 809q-22 20 -22 52q0 31 22 51.5t55 20.5q32 0 54 -20.5t22 -51.5q0 -32 -21.5 -52t-54.5 -20t-55 20zM635 809q-22 20 -22 52q0 31 22 51.5t55 20.5
q32 0 54 -20.5t22 -51.5q0 -32 -21.5 -52t-54.5 -20t-55 20z" />
    <glyph glyph-name="Wgrave" unicode="&#x1e80;" horiz-adv-x="1147" 
d="M1123 720l-240 -720h-161l-149 527l-148 -527h-161l-240 720h140l183 -579l160 576h137l161 -573l183 576h135zM537 940l103 -156h-118l-132 146v10h147z" />
    <glyph glyph-name="X" unicode="X" horiz-adv-x="733" 
d="M561 0l-194 277l-197 -277h-154l271 371l-258 349h158l183 -251l178 251h153l-253 -345l271 -375h-158z" />
    <glyph glyph-name="Y" unicode="Y" horiz-adv-x="724" 
d="M430 244v-244h-133v241l-292 479h151l208 -353l207 353h147z" />
    <glyph glyph-name="Yacute" unicode="&#xdd;" horiz-adv-x="724" 
d="M430 244v-244h-133v241l-292 479h151l208 -353l207 353h147zM401 778h-119l113 168h147v-10z" />
    <glyph glyph-name="Ycircumflex" unicode="&#x176;" horiz-adv-x="724" 
d="M430 244v-244h-133v241l-292 479h151l208 -353l207 353h147zM435 784l-75 84l-76 -84h-111l119 162h135l119 -162h-111z" />
    <glyph glyph-name="Ydieresis" unicode="&#x178;" horiz-adv-x="724" 
d="M430 244v-244h-133v241l-292 479h151l208 -353l207 353h147zM188 809q-22 20 -22 52q0 31 22 51.5t55 20.5q32 0 54 -20.5t22 -51.5q0 -32 -21.5 -52t-54.5 -20t-55 20zM422 809q-22 20 -22 52q0 31 22 51.5t55 20.5q32 0 54 -20.5t22 -51.5q0 -32 -21.5 -52t-54.5 -20
t-55 20z" />
    <glyph glyph-name="uni1E8E" unicode="&#x1e8e;" horiz-adv-x="724" 
d="M430 244v-244h-133v241l-292 479h151l208 -353l207 353h147zM304 807q-22 21 -22 54q0 32 22 53t56 21t56 -21t22 -53q0 -33 -22 -54t-56 -21t-56 21z" />
    <glyph glyph-name="uni1EF4" unicode="&#x1ef4;" horiz-adv-x="724" 
d="M430 244v-244h-133v241l-292 479h151l208 -353l207 353h147zM306 -188q-22 21 -22 54q0 32 22 53t56 21t56 -21t22 -53q0 -33 -22 -54t-56 -21t-56 21z" />
    <glyph glyph-name="Ygrave" unicode="&#x1ef2;" horiz-adv-x="724" 
d="M430 244v-244h-133v241l-292 479h151l208 -353l207 353h147zM324 940l103 -156h-118l-132 146v10h147z" />
    <glyph glyph-name="uni1EF6" unicode="&#x1ef6;" horiz-adv-x="724" 
d="M430 244v-244h-133v241l-292 479h151l208 -353l207 353h147zM309 791q0 27 15 48t43 45q19 15 28 26.5t9 22.5q0 15 -13 23t-33 8q-24 0 -38 -12t-15 -32h-89q2 56 41.5 89.5t107.5 33.5q58 0 96 -30t38 -77q0 -26 -13 -46.5t-41 -46.5q-33 -30 -41.5 -39.5t-8.5 -20.5
v-7h-86v15z" />
    <glyph glyph-name="uni0232" unicode="&#x232;" horiz-adv-x="724" 
d="M430 244v-244h-133v241l-292 479h151l208 -353l207 353h147zM194 901h332v-98h-332v98z" />
    <glyph glyph-name="uni1EF8" unicode="&#x1ef8;" horiz-adv-x="724" 
d="M430 244v-244h-133v241l-292 479h151l208 -353l207 353h147zM379.5 792q-23.5 12 -50.5 34q-17 13 -27 19t-20 6q-17 0 -26 -15.5t-11 -48.5h-96q2 72 35.5 114.5t95.5 42.5q34 0 58.5 -12.5t50.5 -34.5q16 -13 25.5 -19t19.5 -6q36 0 39 65h96q-2 -73 -35.5 -115
t-96.5 -42q-34 0 -57.5 12z" />
    <glyph glyph-name="Z" unicode="Z" 
d="M658 114v-114h-609v104l426 502h-405v114h573v-105l-425 -501h440z" />
    <glyph glyph-name="Zacute" unicode="&#x179;" 
d="M658 114v-114h-609v104l426 502h-405v114h573v-105l-425 -501h440zM405 778h-119l113 168h147v-10z" />
    <glyph glyph-name="Zcaron" unicode="&#x17d;" 
d="M658 114v-114h-609v104l426 502h-405v114h573v-105l-425 -501h440zM550 946l-119 -162h-135l-119 162h111l76 -84l75 84h111z" />
    <glyph glyph-name="Zdotaccent" unicode="&#x17b;" 
d="M658 114v-114h-609v104l426 502h-405v114h573v-105l-425 -501h440zM308 807q-22 21 -22 54q0 32 22 53t56 21t56 -21t22 -53q0 -33 -22 -54t-56 -21t-56 21z" />
    <glyph glyph-name="uni1E92" unicode="&#x1e92;" 
d="M658 114v-114h-609v104l426 502h-405v114h573v-105l-425 -501h440zM308 -188q-22 21 -22 54q0 32 22 53t56 21t56 -21t22 -53q0 -33 -22 -54t-56 -21t-56 21z" />
    <glyph glyph-name="a" unicode="a" horiz-adv-x="647" 
d="M632 106v-101q-19 -9 -52 -9q-45 0 -80.5 20t-47.5 60q-33 -46 -85 -67t-117 -21q-59 0 -109.5 19t-80.5 57t-30 91q0 86 78.5 134t226.5 48h106q-1 53 -38 82.5t-100 29.5q-41 0 -85.5 -13.5t-82.5 -41.5l-64 94q47 37 110 54.5t128 17.5q120 0 188 -58t68 -162v-197
q0 -21 11.5 -31t30.5 -10q14 0 25 4zM382.5 128q51.5 36 57.5 114h-102q-97 0 -138.5 -22.5t-41.5 -58.5q0 -30 27.5 -49.5t76.5 -19.5q69 0 120.5 36z" />
    <glyph glyph-name="aacute" unicode="&#xe1;" horiz-adv-x="647" 
d="M632 106v-101q-19 -9 -52 -9q-45 0 -80.5 20t-47.5 60q-33 -46 -85 -67t-117 -21q-59 0 -109.5 19t-80.5 57t-30 91q0 86 78.5 134t226.5 48h106q-1 53 -38 82.5t-100 29.5q-41 0 -85.5 -13.5t-82.5 -41.5l-64 94q47 37 110 54.5t128 17.5q120 0 188 -58t68 -162v-197
q0 -21 11.5 -31t30.5 -10q14 0 25 4zM382.5 128q51.5 36 57.5 114h-102q-97 0 -138.5 -22.5t-41.5 -58.5q0 -30 27.5 -49.5t76.5 -19.5q69 0 120.5 36zM357 606h-119l113 168h147v-10z" />
    <glyph glyph-name="abreve" unicode="&#x103;" horiz-adv-x="647" 
d="M632 106v-101q-19 -9 -52 -9q-45 0 -80.5 20t-47.5 60q-33 -46 -85 -67t-117 -21q-59 0 -109.5 19t-80.5 57t-30 91q0 86 78.5 134t226.5 48h106q-1 53 -38 82.5t-100 29.5q-41 0 -85.5 -13.5t-82.5 -41.5l-64 94q47 37 110 54.5t128 17.5q120 0 188 -58t68 -162v-197
q0 -21 11.5 -31t30.5 -10q14 0 25 4zM382.5 128q51.5 36 57.5 114h-102q-97 0 -138.5 -22.5t-41.5 -58.5q0 -30 27.5 -49.5t76.5 -19.5q69 0 120.5 36zM191.5 649q-48.5 46 -48.5 125h91q1 -36 24.5 -57t57.5 -21t57.5 21t24.5 57h92q0 -79 -49 -125t-125 -46t-124.5 46z
" />
    <glyph glyph-name="uni1EAF" unicode="&#x1eaf;" horiz-adv-x="647" 
d="M362 776h-102l90 150h127v-9zM192 647.5q-49 44.5 -49 117.5h91q1 -30 25 -50t57 -20t57 20t25 50h92q0 -72 -49.5 -117t-124.5 -45t-124 44.5zM632 106v-101q-19 -9 -52 -9q-45 0 -80.5 20t-47.5 60q-33 -46 -85 -67t-117 -21q-59 0 -109.5 19t-80.5 57t-30 91
q0 86 78.5 134t226.5 48h106q-1 53 -38 82.5t-100 29.5q-41 0 -85.5 -13.5t-82.5 -41.5l-64 94q47 37 110 54.5t128 17.5q120 0 188 -58t68 -162v-197q0 -21 11.5 -31t30.5 -10q14 0 25 4zM382.5 128q51.5 36 57.5 114h-102q-97 0 -138.5 -22.5t-41.5 -58.5
q0 -30 27.5 -49.5t76.5 -19.5q69 0 120.5 36z" />
    <glyph glyph-name="uni1EB7" unicode="&#x1eb7;" horiz-adv-x="647" 
d="M632 106v-101q-19 -9 -52 -9q-45 0 -80.5 20t-47.5 60q-33 -46 -85 -67t-117 -21q-59 0 -109.5 19t-80.5 57t-30 91q0 86 78.5 134t226.5 48h106q-1 53 -38 82.5t-100 29.5q-41 0 -85.5 -13.5t-82.5 -41.5l-64 94q47 37 110 54.5t128 17.5q120 0 188 -58t68 -162v-197
q0 -21 11.5 -31t30.5 -10q14 0 25 4zM382.5 128q51.5 36 57.5 114h-102q-97 0 -138.5 -22.5t-41.5 -58.5q0 -30 27.5 -49.5t76.5 -19.5q69 0 120.5 36zM268 -188q-22 21 -22 54q0 32 22 53t56 21t56 -21t22 -53q0 -33 -22 -54t-56 -21t-56 21zM191.5 649q-48.5 46 -48.5 125
h91q1 -36 24.5 -57t57.5 -21t57.5 21t24.5 57h92q0 -79 -49 -125t-125 -46t-124.5 46z" />
    <glyph glyph-name="uni1EB1" unicode="&#x1eb1;" horiz-adv-x="647" 
d="M269 776l-114 141v9h127l90 -150h-103zM192 647.5q-49 44.5 -49 117.5h91q1 -30 25 -50t57 -20t57 20t25 50h92q0 -72 -49.5 -117t-124.5 -45t-124 44.5zM632 106v-101q-19 -9 -52 -9q-45 0 -80.5 20t-47.5 60q-33 -46 -85 -67t-117 -21q-59 0 -109.5 19t-80.5 57t-30 91
q0 86 78.5 134t226.5 48h106q-1 53 -38 82.5t-100 29.5q-41 0 -85.5 -13.5t-82.5 -41.5l-64 94q47 37 110 54.5t128 17.5q120 0 188 -58t68 -162v-197q0 -21 11.5 -31t30.5 -10q14 0 25 4zM382.5 128q51.5 36 57.5 114h-102q-97 0 -138.5 -22.5t-41.5 -58.5
q0 -30 27.5 -49.5t76.5 -19.5q69 0 120.5 36z" />
    <glyph glyph-name="uni1EB3" unicode="&#x1eb3;" horiz-adv-x="647" 
d="M285 916.5q-12 -10.5 -13 -28.5h-79q1 49 35.5 78.5t93.5 29.5q51 0 84.5 -26.5t33.5 -67.5q0 -23 -11 -41.5t-35 -39.5q-29 -26 -36.5 -34.5t-7.5 -18.5v-6h-78v13q0 24 13.5 42t38.5 39q15 14 22.5 24t7.5 19q0 14 -10.5 21t-27.5 7q-19 0 -31 -10.5zM192 647.5
q-49 44.5 -49 117.5h91q1 -30 25 -50t57 -20t57 20t25 50h92q0 -72 -49.5 -117t-124.5 -45t-124 44.5zM632 106v-101q-19 -9 -52 -9q-45 0 -80.5 20t-47.5 60q-33 -46 -85 -67t-117 -21q-59 0 -109.5 19t-80.5 57t-30 91q0 86 78.5 134t226.5 48h106q-1 53 -38 82.5
t-100 29.5q-41 0 -85.5 -13.5t-82.5 -41.5l-64 94q47 37 110 54.5t128 17.5q120 0 188 -58t68 -162v-197q0 -21 11.5 -31t30.5 -10q14 0 25 4zM382.5 128q51.5 36 57.5 114h-102q-97 0 -138.5 -22.5t-41.5 -58.5q0 -30 27.5 -49.5t76.5 -19.5q69 0 120.5 36z" />
    <glyph glyph-name="uni1EB5" unicode="&#x1eb5;" horiz-adv-x="647" 
d="M222.5 852.5q-9.5 -17.5 -10.5 -49.5h-87q3 72 33 114t86 42q32 0 54 -13t45 -36q15 -14 23.5 -20t17.5 -6q14 0 23.5 17.5t11.5 49.5h86q-2 -72 -32 -114t-86 -42q-32 0 -54 13t-46 36q-15 14 -23 20t-17 6q-15 0 -24.5 -17.5zM373 715q24 20 25 50h92q0 -72 -49.5 -117
t-124.5 -45t-124 44.5t-49 117.5h91q1 -30 25 -50t57 -20t57 20zM632 106v-101q-19 -9 -52 -9q-45 0 -80.5 20t-47.5 60q-33 -46 -85 -67t-117 -21q-59 0 -109.5 19t-80.5 57t-30 91q0 86 78.5 134t226.5 48h106q-1 53 -38 82.5t-100 29.5q-41 0 -85.5 -13.5t-82.5 -41.5
l-64 94q47 37 110 54.5t128 17.5q120 0 188 -58t68 -162v-197q0 -21 11.5 -31t30.5 -10q14 0 25 4zM382.5 128q51.5 36 57.5 114h-102q-97 0 -138.5 -22.5t-41.5 -58.5q0 -30 27.5 -49.5t76.5 -19.5q69 0 120.5 36z" />
    <glyph glyph-name="acircumflex" unicode="&#xe2;" horiz-adv-x="647" 
d="M632 106v-101q-19 -9 -52 -9q-45 0 -80.5 20t-47.5 60q-33 -46 -85 -67t-117 -21q-59 0 -109.5 19t-80.5 57t-30 91q0 86 78.5 134t226.5 48h106q-1 53 -38 82.5t-100 29.5q-41 0 -85.5 -13.5t-82.5 -41.5l-64 94q47 37 110 54.5t128 17.5q120 0 188 -58t68 -162v-197
q0 -21 11.5 -31t30.5 -10q14 0 25 4zM382.5 128q51.5 36 57.5 114h-102q-97 0 -138.5 -22.5t-41.5 -58.5q0 -30 27.5 -49.5t76.5 -19.5q69 0 120.5 36zM391 612l-75 84l-76 -84h-111l119 162h135l119 -162h-111z" />
    <glyph glyph-name="uni1EA5" unicode="&#x1ea5;" horiz-adv-x="647" 
d="M655 871v-9l-115 -141h-102l90 150h127zM240 612h-111l119 153h135l119 -153h-111l-75 82zM576.5 112q11.5 -10 30.5 -10q14 0 25 4v-101q-19 -9 -52 -9q-45 0 -80.5 20t-47.5 60q-33 -46 -85 -67t-117 -21q-59 0 -109.5 19t-80.5 57t-30 91q0 86 78.5 134t226.5 48h106
q-1 53 -38 82.5t-100 29.5q-41 0 -85.5 -13.5t-82.5 -41.5l-64 94q47 37 110 54.5t128 17.5q120 0 188 -58t68 -162v-197q0 -21 11.5 -31zM382.5 128q51.5 36 57.5 114h-102q-97 0 -138.5 -22.5t-41.5 -58.5q0 -30 27.5 -49.5t76.5 -19.5q69 0 120.5 36z" />
    <glyph glyph-name="uni1EAD" unicode="&#x1ead;" horiz-adv-x="647" 
d="M632 106v-101q-19 -9 -52 -9q-45 0 -80.5 20t-47.5 60q-33 -46 -85 -67t-117 -21q-59 0 -109.5 19t-80.5 57t-30 91q0 86 78.5 134t226.5 48h106q-1 53 -38 82.5t-100 29.5q-41 0 -85.5 -13.5t-82.5 -41.5l-64 94q47 37 110 54.5t128 17.5q120 0 188 -58t68 -162v-197
q0 -21 11.5 -31t30.5 -10q14 0 25 4zM382.5 128q51.5 36 57.5 114h-102q-97 0 -138.5 -22.5t-41.5 -58.5q0 -30 27.5 -49.5t76.5 -19.5q69 0 120.5 36zM268 -188q-22 21 -22 54q0 32 22 53t56 21t56 -21t22 -53q0 -33 -22 -54t-56 -21t-56 21zM391 612l-75 84l-76 -84h-111
l119 162h135l119 -162h-111z" />
    <glyph glyph-name="uni1EA7" unicode="&#x1ea7;" horiz-adv-x="647" 
d="M507 721l-114 141v9h127l90 -150h-103zM240 612h-111l119 153h135l119 -153h-111l-75 82zM632 106v-101q-19 -9 -52 -9q-45 0 -80.5 20t-47.5 60q-33 -46 -85 -67t-117 -21q-59 0 -109.5 19t-80.5 57t-30 91q0 86 78.5 134t226.5 48h106q-1 53 -38 82.5t-100 29.5
q-41 0 -85.5 -13.5t-82.5 -41.5l-64 94q47 37 110 54.5t128 17.5q120 0 188 -58t68 -162v-197q0 -21 11.5 -31t30.5 -10q14 0 25 4zM382.5 128q51.5 36 57.5 114h-102q-97 0 -138.5 -22.5t-41.5 -58.5q0 -30 27.5 -49.5t76.5 -19.5q69 0 120.5 36z" />
    <glyph glyph-name="uni1EA9" unicode="&#x1ea9;" horiz-adv-x="647" 
d="M477 855.5q-12 -10.5 -13 -28.5h-79q1 49 35.5 78.5t93.5 29.5q51 0 84.5 -26.5t33.5 -67.5q0 -23 -11 -41.5t-35 -39.5q-29 -26 -36.5 -34.5t-7.5 -18.5v-6h-78v13q0 24 13.5 42t38.5 39q15 14 22.5 24t7.5 19q0 14 -10.5 21t-27.5 7q-19 0 -31 -10.5zM240 612h-111
l119 153h135l119 -153h-111l-75 82zM576.5 112q11.5 -10 30.5 -10q14 0 25 4v-101q-19 -9 -52 -9q-45 0 -80.5 20t-47.5 60q-33 -46 -85 -67t-117 -21q-59 0 -109.5 19t-80.5 57t-30 91q0 86 78.5 134t226.5 48h106q-1 53 -38 82.5t-100 29.5q-41 0 -85.5 -13.5t-82.5 -41.5
l-64 94q47 37 110 54.5t128 17.5q120 0 188 -58t68 -162v-197q0 -21 11.5 -31zM382.5 128q51.5 36 57.5 114h-102q-97 0 -138.5 -22.5t-41.5 -58.5q0 -30 27.5 -49.5t76.5 -19.5q69 0 120.5 36z" />
    <glyph glyph-name="uni1EAB" unicode="&#x1eab;" horiz-adv-x="647" 
d="M222.5 851.5q-9.5 -17.5 -10.5 -49.5h-87q3 72 33 114t86 42q32 0 54 -13t45 -36q15 -14 23.5 -20t17.5 -6q14 0 23.5 17.5t11.5 49.5h86q-2 -72 -32 -114t-86 -42q-32 0 -54 13t-46 36q-15 14 -23 20t-17 6q-15 0 -24.5 -17.5zM383 765l119 -153h-111l-75 82l-76 -82
h-111l119 153h135zM632 106v-101q-19 -9 -52 -9q-45 0 -80.5 20t-47.5 60q-33 -46 -85 -67t-117 -21q-59 0 -109.5 19t-80.5 57t-30 91q0 86 78.5 134t226.5 48h106q-1 53 -38 82.5t-100 29.5q-41 0 -85.5 -13.5t-82.5 -41.5l-64 94q47 37 110 54.5t128 17.5q120 0 188 -58
t68 -162v-197q0 -21 11.5 -31t30.5 -10q14 0 25 4zM382.5 128q51.5 36 57.5 114h-102q-97 0 -138.5 -22.5t-41.5 -58.5q0 -30 27.5 -49.5t76.5 -19.5q69 0 120.5 36z" />
    <glyph glyph-name="uni0201" unicode="&#x201;" horiz-adv-x="647" 
d="M632 106v-101q-19 -9 -52 -9q-45 0 -80.5 20t-47.5 60q-33 -46 -85 -67t-117 -21q-59 0 -109.5 19t-80.5 57t-30 91q0 86 78.5 134t226.5 48h106q-1 53 -38 82.5t-100 29.5q-41 0 -85.5 -13.5t-82.5 -41.5l-64 94q47 37 110 54.5t128 17.5q120 0 188 -58t68 -162v-197
q0 -21 11.5 -31t30.5 -10q14 0 25 4zM382.5 128q51.5 36 57.5 114h-102q-97 0 -138.5 -22.5t-41.5 -58.5q0 -30 27.5 -49.5t76.5 -19.5q69 0 120.5 36zM76 774h126l83 -168h-98l-111 158v10zM265 774h125l67 -168h-98l-94 158v10z" />
    <glyph glyph-name="adieresis" unicode="&#xe4;" horiz-adv-x="647" 
d="M632 106v-101q-19 -9 -52 -9q-45 0 -80.5 20t-47.5 60q-33 -46 -85 -67t-117 -21q-59 0 -109.5 19t-80.5 57t-30 91q0 86 78.5 134t226.5 48h106q-1 53 -38 82.5t-100 29.5q-41 0 -85.5 -13.5t-82.5 -41.5l-64 94q47 37 110 54.5t128 17.5q120 0 188 -58t68 -162v-197
q0 -21 11.5 -31t30.5 -10q14 0 25 4zM382.5 128q51.5 36 57.5 114h-102q-97 0 -138.5 -22.5t-41.5 -58.5q0 -30 27.5 -49.5t76.5 -19.5q69 0 120.5 36zM144 637q-22 20 -22 52q0 31 22 51.5t55 20.5q32 0 54 -20.5t22 -51.5q0 -32 -21.5 -52t-54.5 -20t-55 20zM378 637
q-22 20 -22 52q0 31 22 51.5t55 20.5q32 0 54 -20.5t22 -51.5q0 -32 -21.5 -52t-54.5 -20t-55 20z" />
    <glyph glyph-name="uni1EA1" unicode="&#x1ea1;" horiz-adv-x="647" 
d="M632 106v-101q-19 -9 -52 -9q-45 0 -80.5 20t-47.5 60q-33 -46 -85 -67t-117 -21q-59 0 -109.5 19t-80.5 57t-30 91q0 86 78.5 134t226.5 48h106q-1 53 -38 82.5t-100 29.5q-41 0 -85.5 -13.5t-82.5 -41.5l-64 94q47 37 110 54.5t128 17.5q120 0 188 -58t68 -162v-197
q0 -21 11.5 -31t30.5 -10q14 0 25 4zM382.5 128q51.5 36 57.5 114h-102q-97 0 -138.5 -22.5t-41.5 -58.5q0 -30 27.5 -49.5t76.5 -19.5q69 0 120.5 36zM268 -188q-22 21 -22 54q0 32 22 53t56 21t56 -21t22 -53q0 -33 -22 -54t-56 -21t-56 21z" />
    <glyph glyph-name="agrave" unicode="&#xe0;" horiz-adv-x="647" 
d="M632 106v-101q-19 -9 -52 -9q-45 0 -80.5 20t-47.5 60q-33 -46 -85 -67t-117 -21q-59 0 -109.5 19t-80.5 57t-30 91q0 86 78.5 134t226.5 48h106q-1 53 -38 82.5t-100 29.5q-41 0 -85.5 -13.5t-82.5 -41.5l-64 94q47 37 110 54.5t128 17.5q120 0 188 -58t68 -162v-197
q0 -21 11.5 -31t30.5 -10q14 0 25 4zM382.5 128q51.5 36 57.5 114h-102q-97 0 -138.5 -22.5t-41.5 -58.5q0 -30 27.5 -49.5t76.5 -19.5q69 0 120.5 36zM280 768l103 -156h-118l-132 146v10h147z" />
    <glyph glyph-name="uni1EA3" unicode="&#x1ea3;" horiz-adv-x="647" 
d="M632 106v-101q-19 -9 -52 -9q-45 0 -80.5 20t-47.5 60q-33 -46 -85 -67t-117 -21q-59 0 -109.5 19t-80.5 57t-30 91q0 86 78.5 134t226.5 48h106q-1 53 -38 82.5t-100 29.5q-41 0 -85.5 -13.5t-82.5 -41.5l-64 94q47 37 110 54.5t128 17.5q120 0 188 -58t68 -162v-197
q0 -21 11.5 -31t30.5 -10q14 0 25 4zM382.5 128q51.5 36 57.5 114h-102q-97 0 -138.5 -22.5t-41.5 -58.5q0 -30 27.5 -49.5t76.5 -19.5q69 0 120.5 36zM265 619q0 27 15 48t43 45q19 15 28 26.5t9 22.5q0 15 -13 23t-33 8q-24 0 -38 -12t-15 -32h-89q2 56 41.5 89.5
t107.5 33.5q58 0 96 -30t38 -77q0 -26 -13 -46.5t-41 -46.5q-33 -30 -41.5 -39.5t-8.5 -20.5v-7h-86v15z" />
    <glyph glyph-name="uni0203" unicode="&#x203;" horiz-adv-x="647" 
d="M632 106v-101q-19 -9 -52 -9q-45 0 -80.5 20t-47.5 60q-33 -46 -85 -67t-117 -21q-59 0 -109.5 19t-80.5 57t-30 91q0 86 78.5 134t226.5 48h106q-1 53 -38 82.5t-100 29.5q-41 0 -85.5 -13.5t-82.5 -41.5l-64 94q47 37 110 54.5t128 17.5q120 0 188 -58t68 -162v-197
q0 -21 11.5 -31t30.5 -10q14 0 25 4zM382.5 128q51.5 36 57.5 114h-102q-97 0 -138.5 -22.5t-41.5 -58.5q0 -30 27.5 -49.5t76.5 -19.5q69 0 120.5 36zM441 731q49 -46 49 -125h-92q-1 36 -24.5 57t-57.5 21t-57.5 -21t-24.5 -57h-91q0 79 48.5 125t124.5 46t125 -46z" />
    <glyph glyph-name="amacron" unicode="&#x101;" horiz-adv-x="647" 
d="M632 106v-101q-19 -9 -52 -9q-45 0 -80.5 20t-47.5 60q-33 -46 -85 -67t-117 -21q-59 0 -109.5 19t-80.5 57t-30 91q0 86 78.5 134t226.5 48h106q-1 53 -38 82.5t-100 29.5q-41 0 -85.5 -13.5t-82.5 -41.5l-64 94q47 37 110 54.5t128 17.5q120 0 188 -58t68 -162v-197
q0 -21 11.5 -31t30.5 -10q14 0 25 4zM382.5 128q51.5 36 57.5 114h-102q-97 0 -138.5 -22.5t-41.5 -58.5q0 -30 27.5 -49.5t76.5 -19.5q69 0 120.5 36zM150 729h332v-98h-332v98z" />
    <glyph glyph-name="aogonek" unicode="&#x105;" horiz-adv-x="646" 
d="M635 -166q-41 -32 -112 -32q-57 0 -95.5 26.5t-38.5 77.5q0 32 25.5 62.5t78.5 51.5q-30 21 -42 56q-33 -45 -87.5 -66.5t-115.5 -21.5q-59 0 -108.5 19t-79.5 57t-30 91q0 85 79.5 133.5t227.5 48.5h104q-1 54 -39 83t-101 29q-40 0 -84 -13.5t-82 -41.5l-64 94
q47 37 110 54.5t128 17.5q118 0 187 -58t69 -162v-197q0 -21 11.5 -31t29.5 -10q15 0 26 5v-103q-77 -25 -105.5 -44t-28.5 -37q0 -15 13 -23.5t34 -8.5q25 0 56 18zM379 130q53 36 61 112h-100q-98 0 -141 -23t-43 -60q0 -29 28 -47t76 -18q66 0 119 36z" />
    <glyph glyph-name="aring" unicode="&#xe5;" horiz-adv-x="647" 
d="M632 106v-101q-19 -9 -52 -9q-45 0 -80.5 20t-47.5 60q-33 -46 -85 -67t-117 -21q-59 0 -109.5 19t-80.5 57t-30 91q0 86 78.5 134t226.5 48h106q-1 53 -38 82.5t-100 29.5q-41 0 -85.5 -13.5t-82.5 -41.5l-64 94q47 37 110 54.5t128 17.5q120 0 188 -58t68 -162v-197
q0 -21 11.5 -31t30.5 -10q14 0 25 4zM382.5 128q51.5 36 57.5 114h-102q-97 0 -138.5 -22.5t-41.5 -58.5q0 -30 27.5 -49.5t76.5 -19.5q69 0 120.5 36zM211.5 643.5q-40.5 37.5 -40.5 95.5t40.5 95.5t102.5 37.5q63 0 103.5 -37.5t40.5 -95.5t-40.5 -95.5t-103.5 -37.5
q-62 0 -102.5 37.5zM359 694.5q18 17.5 18 44.5t-18 44.5t-45 17.5t-44.5 -17.5t-17.5 -44.5t18 -44.5t44 -17.5q27 0 45 17.5z" />
    <glyph glyph-name="aringacute" unicode="&#x1fb;" horiz-adv-x="647" 
d="M361 906h-102l90 150h127v-9zM211.5 643.5q-40.5 37.5 -40.5 95.5t40.5 95.5t102.5 37.5q63 0 103.5 -37.5t40.5 -95.5t-40.5 -95.5t-103.5 -37.5q-62 0 -102.5 37.5zM269.5 783.5q-17.5 -17.5 -17.5 -44.5t18 -44.5t44 -17.5q27 0 45 17.5t18 44.5t-18 44.5t-45 17.5
t-44.5 -17.5zM632 106v-101q-19 -9 -52 -9q-45 0 -80.5 20t-47.5 60q-33 -46 -85 -67t-117 -21q-59 0 -109.5 19t-80.5 57t-30 91q0 86 78.5 134t226.5 48h106q-1 53 -38 82.5t-100 29.5q-41 0 -85.5 -13.5t-82.5 -41.5l-64 94q47 37 110 54.5t128 17.5q120 0 188 -58
t68 -162v-197q0 -21 11.5 -31t30.5 -10q14 0 25 4zM382.5 128q51.5 36 57.5 114h-102q-97 0 -138.5 -22.5t-41.5 -58.5q0 -30 27.5 -49.5t76.5 -19.5q69 0 120.5 36z" />
    <glyph glyph-name="atilde" unicode="&#xe3;" horiz-adv-x="647" 
d="M632 106v-101q-19 -9 -52 -9q-45 0 -80.5 20t-47.5 60q-33 -46 -85 -67t-117 -21q-59 0 -109.5 19t-80.5 57t-30 91q0 86 78.5 134t226.5 48h106q-1 53 -38 82.5t-100 29.5q-41 0 -85.5 -13.5t-82.5 -41.5l-64 94q47 37 110 54.5t128 17.5q120 0 188 -58t68 -162v-197
q0 -21 11.5 -31t30.5 -10q14 0 25 4zM382.5 128q51.5 36 57.5 114h-102q-97 0 -138.5 -22.5t-41.5 -58.5q0 -30 27.5 -49.5t76.5 -19.5q69 0 120.5 36zM335.5 620q-23.5 12 -50.5 34q-17 13 -27 19t-20 6q-17 0 -26 -15.5t-11 -48.5h-96q2 72 35.5 114.5t95.5 42.5
q34 0 58.5 -12.5t50.5 -34.5q16 -13 25.5 -19t19.5 -6q36 0 39 65h96q-2 -73 -35.5 -115t-96.5 -42q-34 0 -57.5 12z" />
    <glyph glyph-name="ae" unicode="&#xe6;" horiz-adv-x="1052" 
d="M1015 230h-445q14 -62 63.5 -97.5t125.5 -35.5q86 0 155 60l71 -87q-35 -37 -94 -60.5t-134 -23.5q-93 0 -157.5 34.5t-98.5 96.5q-31 -66 -101 -97.5t-148 -31.5q-61 0 -111.5 19t-80.5 57t-30 91q0 86 81.5 131.5t236.5 45.5l97 1q0 56 -37.5 86.5t-104.5 30.5
q-42 0 -86.5 -13.5t-82.5 -42.5l-63 94q47 37 110 54.5t129 17.5q77 0 130 -24.5t81 -71.5q34 46 87 71t123 25q87 0 152.5 -39t100.5 -105t35 -145q0 -17 -4 -41zM628.5 416q-43.5 -33 -56.5 -91h318q-12 56 -54.5 90t-103.5 34q-60 0 -103.5 -33zM379 128.5
q52 34.5 63 108.5l-97 1q-96 0 -142.5 -22t-46.5 -57q0 -29 27.5 -47t77.5 -18q66 0 118 34.5z" />
    <glyph glyph-name="aeacute" unicode="&#x1fd;" horiz-adv-x="1052" 
d="M1015 230h-445q14 -62 63.5 -97.5t125.5 -35.5q86 0 155 60l71 -87q-35 -37 -94 -60.5t-134 -23.5q-93 0 -157.5 34.5t-98.5 96.5q-31 -66 -101 -97.5t-148 -31.5q-61 0 -111.5 19t-80.5 57t-30 91q0 86 81.5 131.5t236.5 45.5l97 1q0 56 -37.5 86.5t-104.5 30.5
q-42 0 -86.5 -13.5t-82.5 -42.5l-63 94q47 37 110 54.5t129 17.5q77 0 130 -24.5t81 -71.5q34 46 87 71t123 25q87 0 152.5 -39t100.5 -105t35 -145q0 -17 -4 -41zM628.5 416q-43.5 -33 -56.5 -91h318q-12 56 -54.5 90t-103.5 34q-60 0 -103.5 -33zM379 128.5
q52 34.5 63 108.5l-97 1q-96 0 -142.5 -22t-46.5 -57q0 -29 27.5 -47t77.5 -18q66 0 118 34.5zM567 606h-119l113 168h147v-10z" />
    <glyph glyph-name="b" unicode="b" horiz-adv-x="712" 
d="M537.5 523q63.5 -38 99 -103.5t35.5 -145.5t-35.5 -145.5t-99 -103.5t-145.5 -38q-121 0 -193 87v-74h-121v752h128v-270q69 79 186 79q82 0 145.5 -38zM461.5 125q38.5 22 60 61t21.5 88t-21.5 88t-60 61t-87.5 22t-88 -21.5t-61.5 -60.5t-22.5 -89t22.5 -89t61.5 -60.5
t88 -21.5t87.5 22z" />
    <glyph glyph-name="c" unicode="c" horiz-adv-x="598" 
d="M188 25q-71 38 -109.5 103.5t-38.5 145.5t40 145.5t111.5 103.5t160.5 38q135 0 221 -84l-75 -92q-63 61 -146 61q-48 0 -90 -21t-67 -60.5t-25 -90.5t25 -90t67 -60t90 -21q46 0 84 15t66 43l74 -91q-36 -38 -92 -60.5t-132 -22.5q-93 0 -164 38z" />
    <glyph glyph-name="cacute" unicode="&#x107;" horiz-adv-x="598" 
d="M188 25q-71 38 -109.5 103.5t-38.5 145.5t40 145.5t111.5 103.5t160.5 38q135 0 221 -84l-75 -92q-63 61 -146 61q-48 0 -90 -21t-67 -60.5t-25 -90.5t25 -90t67 -60t90 -21q46 0 84 15t66 43l74 -91q-36 -38 -92 -60.5t-132 -22.5q-93 0 -164 38zM373 606h-119l113 168
h147v-10z" />
    <glyph glyph-name="ccaron" unicode="&#x10d;" horiz-adv-x="598" 
d="M188 25q-71 38 -109.5 103.5t-38.5 145.5t40 145.5t111.5 103.5t160.5 38q135 0 221 -84l-75 -92q-63 61 -146 61q-48 0 -90 -21t-67 -60.5t-25 -90.5t25 -90t67 -60t90 -21q46 0 84 15t66 43l74 -91q-36 -38 -92 -60.5t-132 -22.5q-93 0 -164 38zM518 774l-119 -162
h-135l-119 162h111l76 -84l75 84h111z" />
    <glyph glyph-name="ccedilla" unicode="&#xe7;" horiz-adv-x="598" 
d="M188 25q-71 38 -109.5 103.5t-38.5 145.5t40 145.5t111.5 103.5t160.5 38q135 0 221 -84l-75 -92q-63 61 -146 61q-48 0 -90 -21t-67 -60.5t-25 -90.5t25 -90t67 -60t90 -21q46 0 84 15t66 43l74 -91q-36 -38 -92 -60.5t-132 -22.5q-93 0 -164 38zM448.5 -59
q31.5 -26 31.5 -63q0 -43 -41 -69t-110 -26q-88 0 -148 35l33 55q34 -17 57.5 -23t52.5 -6q28 0 42.5 9t14.5 25q0 15 -15 24.5t-43 9.5q-26 0 -54 -7l-21 14l73 101h80l-49 -54q4 1 13 1q52 0 83.5 -26z" />
    <glyph glyph-name="uni1E09" unicode="&#x1e09;" horiz-adv-x="598" 
d="M188 25q-71 38 -109.5 103.5t-38.5 145.5t40 145.5t111.5 103.5t160.5 38q135 0 221 -84l-75 -92q-63 61 -146 61q-48 0 -90 -21t-67 -60.5t-25 -90.5t25 -90t67 -60t90 -21q46 0 84 15t66 43l74 -91q-36 -38 -92 -60.5t-132 -22.5q-93 0 -164 38zM448.5 -59
q31.5 -26 31.5 -63q0 -43 -41 -69t-110 -26q-88 0 -148 35l33 55q34 -17 57.5 -23t52.5 -6q28 0 42.5 9t14.5 25q0 15 -15 24.5t-43 9.5q-26 0 -54 -7l-21 14l73 101h80l-49 -54q4 1 13 1q52 0 83.5 -26zM373 606h-119l113 168h147v-10z" />
    <glyph glyph-name="ccircumflex" unicode="&#x109;" horiz-adv-x="598" 
d="M188 25q-71 38 -109.5 103.5t-38.5 145.5t40 145.5t111.5 103.5t160.5 38q135 0 221 -84l-75 -92q-63 61 -146 61q-48 0 -90 -21t-67 -60.5t-25 -90.5t25 -90t67 -60t90 -21q46 0 84 15t66 43l74 -91q-36 -38 -92 -60.5t-132 -22.5q-93 0 -164 38zM407 612l-75 84
l-76 -84h-111l119 162h135l119 -162h-111z" />
    <glyph glyph-name="cdotaccent" unicode="&#x10b;" horiz-adv-x="598" 
d="M188 25q-71 38 -109.5 103.5t-38.5 145.5t40 145.5t111.5 103.5t160.5 38q135 0 221 -84l-75 -92q-63 61 -146 61q-48 0 -90 -21t-67 -60.5t-25 -90.5t25 -90t67 -60t90 -21q46 0 84 15t66 43l74 -91q-36 -38 -92 -60.5t-132 -22.5q-93 0 -164 38zM276 635q-22 21 -22 54
q0 32 22 53t56 21t56 -21t22 -53q0 -33 -22 -54t-56 -21t-56 21z" />
    <glyph glyph-name="d" unicode="d" horiz-adv-x="712" 
d="M634 752v-752h-121v74q-72 -87 -193 -87q-82 0 -145.5 38t-99 103.5t-35.5 145.5t35.5 145.5t99 103.5t145.5 38q117 0 186 -79v270h128zM426 124.5q39 21.5 61.5 60.5t22.5 89t-22.5 89t-61.5 60.5t-88 21.5t-87.5 -22t-60 -61t-21.5 -88t21.5 -88t60 -61t87.5 -22
t88 21.5z" />
    <glyph glyph-name="eth" unicode="&#xf0;" horiz-adv-x="671" 
d="M590 470q46 -97 46 -188q0 -84 -36.5 -151t-104.5 -105.5t-157 -38.5t-156.5 37.5t-104.5 100t-37 136.5t37 136.5t101.5 99.5t141.5 37q47 0 79.5 -15t57.5 -44q-42 70 -121 134l-158 -59l-23 63l116 43q-44 29 -88 50l50 82q82 -36 155 -88l149 56l23 -63l-111 -42
q95 -84 141 -181zM425 124.5q39 21.5 60.5 58t21.5 79.5t-21.5 79t-60.5 57t-87 21q-49 0 -88 -21t-60.5 -57.5t-21.5 -79.5t21.5 -79t60.5 -57.5t88 -21.5q48 0 87 21.5z" />
    <glyph glyph-name="dcaron" unicode="&#x10f;" horiz-adv-x="712" 
d="M634 752v-752h-121v74q-72 -87 -193 -87q-82 0 -145.5 38t-99 103.5t-35.5 145.5t35.5 145.5t99 103.5t145.5 38q117 0 186 -79v270h128zM426 124.5q39 21.5 61.5 60.5t22.5 89t-22.5 89t-61.5 60.5t-88 21.5t-87.5 -22t-60 -61t-21.5 -88t21.5 -88t60 -61t87.5 -22
t88 21.5zM810 752l-52 -220h-84l22 220h114z" />
    <glyph glyph-name="dcroat" unicode="&#x111;" horiz-adv-x="713" 
d="M709 599h-77v-599h-121v75q-70 -88 -192 -88q-82 0 -145.5 38t-98.5 102.5t-35 143.5t35 143.5t98.5 102.5t145.5 38q115 0 186 -81v125h-187v85h187v68h127v-68h77v-85zM423 126q39 21 61.5 59t22.5 86t-22.5 86t-61.5 59t-86 21q-48 0 -86.5 -21.5t-60.5 -59.5t-22 -85
q0 -48 22 -85.5t60.5 -59t86.5 -21.5q47 0 86 21z" />
    <glyph glyph-name="uni1E0D" unicode="&#x1e0d;" horiz-adv-x="712" 
d="M634 752v-752h-121v74q-72 -87 -193 -87q-82 0 -145.5 38t-99 103.5t-35.5 145.5t35.5 145.5t99 103.5t145.5 38q117 0 186 -79v270h128zM426 124.5q39 21.5 61.5 60.5t22.5 89t-22.5 89t-61.5 60.5t-88 21.5t-87.5 -22t-60 -61t-21.5 -88t21.5 -88t60 -61t87.5 -22
t88 21.5zM294 -188q-22 21 -22 54q0 32 22 53t56 21t56 -21t22 -53q0 -33 -22 -54t-56 -21t-56 21z" />
    <glyph glyph-name="uni1E0F" unicode="&#x1e0f;" horiz-adv-x="712" 
d="M634 752v-752h-121v74q-72 -87 -193 -87q-82 0 -145.5 38t-99 103.5t-35.5 145.5t35.5 145.5t99 103.5t145.5 38q117 0 186 -79v270h128zM426 124.5q39 21.5 61.5 60.5t22.5 89t-22.5 89t-61.5 60.5t-88 21.5t-87.5 -22t-60 -61t-21.5 -88t21.5 -88t60 -61t87.5 -22
t88 21.5zM184 -85h332v-98h-332v98z" />
    <glyph glyph-name="uni01C6" unicode="&#x1c6;" horiz-adv-x="1281" 
d="M634 752v-752h-121v74q-72 -87 -193 -87q-82 0 -145.5 38t-99 103.5t-35.5 145.5t35.5 145.5t99 103.5t145.5 38q117 0 186 -79v270h128zM426 124.5q39 21.5 61.5 60.5t22.5 89t-22.5 89t-61.5 60.5t-88 21.5t-87.5 -22t-60 -61t-21.5 -88t21.5 -88t60 -61t87.5 -22
t88 21.5zM1246 107v-107h-490v93l313 349h-298v106h464v-93l-312 -348h323zM1191 774l-119 -162h-135l-119 162h111l76 -84l75 84h111z" />
    <glyph glyph-name="e" unicode="e" horiz-adv-x="656" 
d="M619 227h-446q14 -60 62 -94.5t120 -34.5q50 0 88 14.5t73 45.5l71 -87q-35 -37 -94.5 -60.5t-138.5 -23.5q-96 0 -166.5 37.5t-108 103t-37.5 146.5q0 79 36 144.5t102 104t154 38.5t153.5 -39t100.5 -105.5t35 -147.5q0 -23 -4 -42zM229.5 415.5
q-42.5 -33.5 -56.5 -92.5h322q-11 57 -54 91.5t-107 34.5q-62 0 -104.5 -33.5z" />
    <glyph glyph-name="eacute" unicode="&#xe9;" horiz-adv-x="656" 
d="M619 227h-446q14 -60 62 -94.5t120 -34.5q50 0 88 14.5t73 45.5l71 -87q-35 -37 -94.5 -60.5t-138.5 -23.5q-96 0 -166.5 37.5t-108 103t-37.5 146.5q0 79 36 144.5t102 104t154 38.5t153.5 -39t100.5 -105.5t35 -147.5q0 -23 -4 -42zM229.5 415.5
q-42.5 -33.5 -56.5 -92.5h322q-11 57 -54 91.5t-107 34.5q-62 0 -104.5 -33.5zM378 606h-119l113 168h147v-10z" />
    <glyph glyph-name="ebreve" unicode="&#x115;" horiz-adv-x="656" 
d="M619 227h-446q14 -60 62 -94.5t120 -34.5q50 0 88 14.5t73 45.5l71 -87q-35 -37 -94.5 -60.5t-138.5 -23.5q-96 0 -166.5 37.5t-108 103t-37.5 146.5q0 79 36 144.5t102 104t154 38.5t153.5 -39t100.5 -105.5t35 -147.5q0 -23 -4 -42zM229.5 415.5
q-42.5 -33.5 -56.5 -92.5h322q-11 57 -54 91.5t-107 34.5q-62 0 -104.5 -33.5zM212.5 649q-48.5 46 -48.5 125h91q1 -36 24.5 -57t57.5 -21t57.5 21t24.5 57h92q0 -79 -49 -125t-125 -46t-124.5 46z" />
    <glyph glyph-name="ecaron" unicode="&#x11b;" horiz-adv-x="656" 
d="M619 227h-446q14 -60 62 -94.5t120 -34.5q50 0 88 14.5t73 45.5l71 -87q-35 -37 -94.5 -60.5t-138.5 -23.5q-96 0 -166.5 37.5t-108 103t-37.5 146.5q0 79 36 144.5t102 104t154 38.5t153.5 -39t100.5 -105.5t35 -147.5q0 -23 -4 -42zM229.5 415.5
q-42.5 -33.5 -56.5 -92.5h322q-11 57 -54 91.5t-107 34.5q-62 0 -104.5 -33.5zM523 774l-119 -162h-135l-119 162h111l76 -84l75 84h111z" />
    <glyph glyph-name="uni1E1D" unicode="&#x1e1d;" horiz-adv-x="656" 
d="M619 227h-446q14 -60 62 -94.5t120 -34.5q50 0 88 14.5t73 45.5l71 -87q-35 -37 -94.5 -60.5t-138.5 -23.5q-96 0 -166.5 37.5t-108 103t-37.5 146.5q0 79 36 144.5t102 104t154 38.5t153.5 -39t100.5 -105.5t35 -147.5q0 -23 -4 -42zM229.5 415.5
q-42.5 -33.5 -56.5 -92.5h322q-11 57 -54 91.5t-107 34.5q-62 0 -104.5 -33.5zM452.5 -59q31.5 -26 31.5 -63q0 -43 -41 -69t-110 -26q-88 0 -148 35l33 55q34 -17 57.5 -23t52.5 -6q28 0 42.5 9t14.5 25q0 15 -15 24.5t-43 9.5q-26 0 -54 -7l-21 14l73 101h80l-49 -54
q4 1 13 1q52 0 83.5 -26zM212.5 649q-48.5 46 -48.5 125h91q1 -36 24.5 -57t57.5 -21t57.5 21t24.5 57h92q0 -79 -49 -125t-125 -46t-124.5 46z" />
    <glyph glyph-name="ecircumflex" unicode="&#xea;" horiz-adv-x="656" 
d="M619 227h-446q14 -60 62 -94.5t120 -34.5q50 0 88 14.5t73 45.5l71 -87q-35 -37 -94.5 -60.5t-138.5 -23.5q-96 0 -166.5 37.5t-108 103t-37.5 146.5q0 79 36 144.5t102 104t154 38.5t153.5 -39t100.5 -105.5t35 -147.5q0 -23 -4 -42zM229.5 415.5
q-42.5 -33.5 -56.5 -92.5h322q-11 57 -54 91.5t-107 34.5q-62 0 -104.5 -33.5zM412 612l-75 84l-76 -84h-111l119 162h135l119 -162h-111z" />
    <glyph glyph-name="uni1EBF" unicode="&#x1ebf;" horiz-adv-x="656" 
d="M676 871v-9l-115 -141h-102l90 150h127zM261 612h-111l119 153h135l119 -153h-111l-75 82zM487.5 522q65.5 -39 100.5 -105.5t35 -147.5q0 -23 -4 -42h-446q14 -60 62 -94.5t120 -34.5q50 0 88 14.5t73 45.5l71 -87q-35 -37 -94.5 -60.5t-138.5 -23.5q-96 0 -166.5 37.5
t-108 103t-37.5 146.5q0 79 36 144.5t102 104t154 38.5t153.5 -39zM229.5 415.5q-42.5 -33.5 -56.5 -92.5h322q-11 57 -54 91.5t-107 34.5q-62 0 -104.5 -33.5z" />
    <glyph glyph-name="uni1EC7" unicode="&#x1ec7;" horiz-adv-x="656" 
d="M619 227h-446q14 -60 62 -94.5t120 -34.5q50 0 88 14.5t73 45.5l71 -87q-35 -37 -94.5 -60.5t-138.5 -23.5q-96 0 -166.5 37.5t-108 103t-37.5 146.5q0 79 36 144.5t102 104t154 38.5t153.5 -39t100.5 -105.5t35 -147.5q0 -23 -4 -42zM229.5 415.5
q-42.5 -33.5 -56.5 -92.5h322q-11 57 -54 91.5t-107 34.5q-62 0 -104.5 -33.5zM281 -188q-22 21 -22 54q0 32 22 53t56 21t56 -21t22 -53q0 -33 -22 -54t-56 -21t-56 21zM412 612l-75 84l-76 -84h-111l119 162h135l119 -162h-111z" />
    <glyph glyph-name="uni1EC1" unicode="&#x1ec1;" horiz-adv-x="656" 
d="M528 721l-114 141v9h127l90 -150h-103zM261 612h-111l119 153h135l119 -153h-111l-75 82zM487.5 522q65.5 -39 100.5 -105.5t35 -147.5q0 -23 -4 -42h-446q14 -60 62 -94.5t120 -34.5q50 0 88 14.5t73 45.5l71 -87q-35 -37 -94.5 -60.5t-138.5 -23.5q-96 0 -166.5 37.5
t-108 103t-37.5 146.5q0 79 36 144.5t102 104t154 38.5t153.5 -39zM229.5 415.5q-42.5 -33.5 -56.5 -92.5h322q-11 57 -54 91.5t-107 34.5q-62 0 -104.5 -33.5z" />
    <glyph glyph-name="uni1EC3" unicode="&#x1ec3;" horiz-adv-x="656" 
d="M498 855.5q-12 -10.5 -13 -28.5h-79q1 49 35.5 78.5t93.5 29.5q51 0 84.5 -26.5t33.5 -67.5q0 -23 -11 -41.5t-35 -39.5q-29 -26 -36.5 -34.5t-7.5 -18.5v-6h-78v13q0 24 13.5 42t38.5 39q15 14 22.5 24t7.5 19q0 14 -10.5 21t-27.5 7q-19 0 -31 -10.5zM261 612h-111
l119 153h135l119 -153h-111l-75 82zM487.5 522q65.5 -39 100.5 -105.5t35 -147.5q0 -23 -4 -42h-446q14 -60 62 -94.5t120 -34.5q50 0 88 14.5t73 45.5l71 -87q-35 -37 -94.5 -60.5t-138.5 -23.5q-96 0 -166.5 37.5t-108 103t-37.5 146.5q0 79 36 144.5t102 104t154 38.5
t153.5 -39zM229.5 415.5q-42.5 -33.5 -56.5 -92.5h322q-11 57 -54 91.5t-107 34.5q-62 0 -104.5 -33.5z" />
    <glyph glyph-name="uni1EC5" unicode="&#x1ec5;" horiz-adv-x="656" 
d="M243.5 851.5q-9.5 -17.5 -10.5 -49.5h-87q3 72 33 114t86 42q32 0 54 -13t45 -36q15 -14 23.5 -20t17.5 -6q14 0 23.5 17.5t11.5 49.5h86q-2 -72 -32 -114t-86 -42q-32 0 -54 13t-46 36q-15 14 -23 20t-17 6q-15 0 -24.5 -17.5zM404 765l119 -153h-111l-75 82l-76 -82
h-111l119 153h135zM619 227h-446q14 -60 62 -94.5t120 -34.5q50 0 88 14.5t73 45.5l71 -87q-35 -37 -94.5 -60.5t-138.5 -23.5q-96 0 -166.5 37.5t-108 103t-37.5 146.5q0 79 36 144.5t102 104t154 38.5t153.5 -39t100.5 -105.5t35 -147.5q0 -23 -4 -42zM229.5 415.5
q-42.5 -33.5 -56.5 -92.5h322q-11 57 -54 91.5t-107 34.5q-62 0 -104.5 -33.5z" />
    <glyph glyph-name="uni0205" unicode="&#x205;" horiz-adv-x="656" 
d="M619 227h-446q14 -60 62 -94.5t120 -34.5q50 0 88 14.5t73 45.5l71 -87q-35 -37 -94.5 -60.5t-138.5 -23.5q-96 0 -166.5 37.5t-108 103t-37.5 146.5q0 79 36 144.5t102 104t154 38.5t153.5 -39t100.5 -105.5t35 -147.5q0 -23 -4 -42zM229.5 415.5
q-42.5 -33.5 -56.5 -92.5h322q-11 57 -54 91.5t-107 34.5q-62 0 -104.5 -33.5zM97 774h126l83 -168h-98l-111 158v10zM286 774h125l67 -168h-98l-94 158v10z" />
    <glyph glyph-name="edieresis" unicode="&#xeb;" horiz-adv-x="656" 
d="M619 227h-446q14 -60 62 -94.5t120 -34.5q50 0 88 14.5t73 45.5l71 -87q-35 -37 -94.5 -60.5t-138.5 -23.5q-96 0 -166.5 37.5t-108 103t-37.5 146.5q0 79 36 144.5t102 104t154 38.5t153.5 -39t100.5 -105.5t35 -147.5q0 -23 -4 -42zM229.5 415.5
q-42.5 -33.5 -56.5 -92.5h322q-11 57 -54 91.5t-107 34.5q-62 0 -104.5 -33.5zM165 637q-22 20 -22 52q0 31 22 51.5t55 20.5q32 0 54 -20.5t22 -51.5q0 -32 -21.5 -52t-54.5 -20t-55 20zM399 637q-22 20 -22 52q0 31 22 51.5t55 20.5q32 0 54 -20.5t22 -51.5
q0 -32 -21.5 -52t-54.5 -20t-55 20z" />
    <glyph glyph-name="edotaccent" unicode="&#x117;" horiz-adv-x="656" 
d="M619 227h-446q14 -60 62 -94.5t120 -34.5q50 0 88 14.5t73 45.5l71 -87q-35 -37 -94.5 -60.5t-138.5 -23.5q-96 0 -166.5 37.5t-108 103t-37.5 146.5q0 79 36 144.5t102 104t154 38.5t153.5 -39t100.5 -105.5t35 -147.5q0 -23 -4 -42zM229.5 415.5
q-42.5 -33.5 -56.5 -92.5h322q-11 57 -54 91.5t-107 34.5q-62 0 -104.5 -33.5zM281 635q-22 21 -22 54q0 32 22 53t56 21t56 -21t22 -53q0 -33 -22 -54t-56 -21t-56 21z" />
    <glyph glyph-name="uni1EB9" unicode="&#x1eb9;" horiz-adv-x="656" 
d="M619 227h-446q14 -60 62 -94.5t120 -34.5q50 0 88 14.5t73 45.5l71 -87q-35 -37 -94.5 -60.5t-138.5 -23.5q-96 0 -166.5 37.5t-108 103t-37.5 146.5q0 79 36 144.5t102 104t154 38.5t153.5 -39t100.5 -105.5t35 -147.5q0 -23 -4 -42zM229.5 415.5
q-42.5 -33.5 -56.5 -92.5h322q-11 57 -54 91.5t-107 34.5q-62 0 -104.5 -33.5zM281 -188q-22 21 -22 54q0 32 22 53t56 21t56 -21t22 -53q0 -33 -22 -54t-56 -21t-56 21z" />
    <glyph glyph-name="egrave" unicode="&#xe8;" horiz-adv-x="656" 
d="M619 227h-446q14 -60 62 -94.5t120 -34.5q50 0 88 14.5t73 45.5l71 -87q-35 -37 -94.5 -60.5t-138.5 -23.5q-96 0 -166.5 37.5t-108 103t-37.5 146.5q0 79 36 144.5t102 104t154 38.5t153.5 -39t100.5 -105.5t35 -147.5q0 -23 -4 -42zM229.5 415.5
q-42.5 -33.5 -56.5 -92.5h322q-11 57 -54 91.5t-107 34.5q-62 0 -104.5 -33.5zM301 768l103 -156h-118l-132 146v10h147z" />
    <glyph glyph-name="uni1EBB" unicode="&#x1ebb;" horiz-adv-x="656" 
d="M619 227h-446q14 -60 62 -94.5t120 -34.5q50 0 88 14.5t73 45.5l71 -87q-35 -37 -94.5 -60.5t-138.5 -23.5q-96 0 -166.5 37.5t-108 103t-37.5 146.5q0 79 36 144.5t102 104t154 38.5t153.5 -39t100.5 -105.5t35 -147.5q0 -23 -4 -42zM229.5 415.5
q-42.5 -33.5 -56.5 -92.5h322q-11 57 -54 91.5t-107 34.5q-62 0 -104.5 -33.5zM286 619q0 27 15 48t43 45q19 15 28 26.5t9 22.5q0 15 -13 23t-33 8q-24 0 -38 -12t-15 -32h-89q2 56 41.5 89.5t107.5 33.5q58 0 96 -30t38 -77q0 -26 -13 -46.5t-41 -46.5
q-33 -30 -41.5 -39.5t-8.5 -20.5v-7h-86v15z" />
    <glyph glyph-name="uni0207" unicode="&#x207;" horiz-adv-x="656" 
d="M619 227h-446q14 -60 62 -94.5t120 -34.5q50 0 88 14.5t73 45.5l71 -87q-35 -37 -94.5 -60.5t-138.5 -23.5q-96 0 -166.5 37.5t-108 103t-37.5 146.5q0 79 36 144.5t102 104t154 38.5t153.5 -39t100.5 -105.5t35 -147.5q0 -23 -4 -42zM229.5 415.5
q-42.5 -33.5 -56.5 -92.5h322q-11 57 -54 91.5t-107 34.5q-62 0 -104.5 -33.5zM462 731q49 -46 49 -125h-92q-1 36 -24.5 57t-57.5 21t-57.5 -21t-24.5 -57h-91q0 79 48.5 125t124.5 46t125 -46z" />
    <glyph glyph-name="emacron" unicode="&#x113;" horiz-adv-x="656" 
d="M619 227h-446q14 -60 62 -94.5t120 -34.5q50 0 88 14.5t73 45.5l71 -87q-35 -37 -94.5 -60.5t-138.5 -23.5q-96 0 -166.5 37.5t-108 103t-37.5 146.5q0 79 36 144.5t102 104t154 38.5t153.5 -39t100.5 -105.5t35 -147.5q0 -23 -4 -42zM229.5 415.5
q-42.5 -33.5 -56.5 -92.5h322q-11 57 -54 91.5t-107 34.5q-62 0 -104.5 -33.5zM171 729h332v-98h-332v98z" />
    <glyph glyph-name="uni1E17" unicode="&#x1e17;" horiz-adv-x="656" 
d="M619 227h-446q14 -60 62 -94.5t120 -34.5q50 0 88 14.5t73 45.5l71 -87q-35 -37 -94.5 -60.5t-138.5 -23.5q-96 0 -166.5 37.5t-108 103t-37.5 146.5q0 79 36 144.5t102 104t154 38.5t153.5 -39t100.5 -105.5t35 -147.5q0 -23 -4 -42zM229.5 415.5
q-42.5 -33.5 -56.5 -92.5h322q-11 57 -54 91.5t-107 34.5q-62 0 -104.5 -33.5zM171 729h332v-98h-332v98zM378 787h-119l113 168h147v-10z" />
    <glyph glyph-name="uni1E15" unicode="&#x1e15;" horiz-adv-x="656" 
d="M619 227h-446q14 -60 62 -94.5t120 -34.5q50 0 88 14.5t73 45.5l71 -87q-35 -37 -94.5 -60.5t-138.5 -23.5q-96 0 -166.5 37.5t-108 103t-37.5 146.5q0 79 36 144.5t102 104t154 38.5t153.5 -39t100.5 -105.5t35 -147.5q0 -23 -4 -42zM229.5 415.5
q-42.5 -33.5 -56.5 -92.5h322q-11 57 -54 91.5t-107 34.5q-62 0 -104.5 -33.5zM171 729h332v-98h-332v98zM301 949l103 -156h-118l-132 146v10h147z" />
    <glyph glyph-name="eogonek" unicode="&#x119;" horiz-adv-x="656" 
d="M619 227h-446q13 -61 63 -95t124 -34q47 0 84 14.5t74 44.5l69 -86q-17 -19 -40 -34t-57 -32q-44 -23 -65.5 -40t-21.5 -41q0 -16 13.5 -24.5t34.5 -8.5q28 0 60 19l34 -74q-42 -34 -115 -34q-57 0 -96.5 26.5t-39.5 77.5q0 44 43 81q-91 3 -157.5 41.5t-102 102.5
t-35.5 143t36 144.5t102 104t154 38.5t153.5 -39t100.5 -105.5t35 -147.5q0 -23 -4 -42zM229.5 415.5q-42.5 -33.5 -56.5 -92.5h322q-11 57 -54 91.5t-107 34.5q-62 0 -104.5 -33.5z" />
    <glyph glyph-name="uni1EBD" unicode="&#x1ebd;" horiz-adv-x="656" 
d="M619 227h-446q14 -60 62 -94.5t120 -34.5q50 0 88 14.5t73 45.5l71 -87q-35 -37 -94.5 -60.5t-138.5 -23.5q-96 0 -166.5 37.5t-108 103t-37.5 146.5q0 79 36 144.5t102 104t154 38.5t153.5 -39t100.5 -105.5t35 -147.5q0 -23 -4 -42zM229.5 415.5
q-42.5 -33.5 -56.5 -92.5h322q-11 57 -54 91.5t-107 34.5q-62 0 -104.5 -33.5zM356.5 620q-23.5 12 -50.5 34q-17 13 -27 19t-20 6q-17 0 -26 -15.5t-11 -48.5h-96q2 72 35.5 114.5t95.5 42.5q34 0 58.5 -12.5t50.5 -34.5q16 -13 25.5 -19t19.5 -6q36 0 39 65h96
q-2 -73 -35.5 -115t-96.5 -42q-34 0 -57.5 12z" />
    <glyph glyph-name="uni0259" unicode="&#x259;" horiz-adv-x="656" 
d="M37 321h446q-14 60 -62 94.5t-120 34.5q-50 0 -88 -14.5t-73 -45.5l-71 87q35 37 94.5 60.5t138.5 23.5q96 0 166.5 -37.5t108 -103t37.5 -146.5q0 -79 -36 -144.5t-102 -104t-154 -38.5t-153.5 39t-100.5 105.5t-35 147.5q0 23 4 42zM426.5 132.5q42.5 33.5 56.5 92.5
h-322q11 -57 54 -91.5t107 -34.5q62 0 104.5 33.5z" />
    <glyph glyph-name="f" unicode="f" horiz-adv-x="420" 
d="M265 634.5q-26 -20.5 -26 -56.5v-30h154v-108h-153v-440h-127v440h-93v108h93v39q0 51 25.5 91.5t73 63.5t110.5 23q23 0 49.5 -3.5t42.5 -9.5v-107q-39 10 -76 10q-47 0 -73 -20.5z" />
    <glyph glyph-name="g" unicode="g" horiz-adv-x="693" 
d="M624 548v-494q0 -73 -38 -128.5t-105 -85.5t-153 -30q-131 0 -240 51l44 107q47 -22 90.5 -34t98.5 -12q78 0 127.5 35t49.5 100v43q-67 -73 -180 -73q-81 0 -144 34.5t-98 95t-35 135.5t35 136.5t98 97t144 35.5q116 0 185 -81v68h121zM452.5 180q47.5 42 47.5 112
t-47.5 113t-119.5 43q-46 0 -83.5 -19.5t-59 -55t-21.5 -81.5q0 -69 46.5 -111.5t117.5 -42.5q72 0 119.5 42z" />
    <glyph glyph-name="gbreve" unicode="&#x11f;" horiz-adv-x="693" 
d="M624 548v-494q0 -73 -38 -128.5t-105 -85.5t-153 -30q-131 0 -240 51l44 107q47 -22 90.5 -34t98.5 -12q78 0 127.5 35t49.5 100v43q-67 -73 -180 -73q-81 0 -144 34.5t-98 95t-35 135.5t35 136.5t98 97t144 35.5q116 0 185 -81v68h121zM452.5 180q47.5 42 47.5 112
t-47.5 113t-119.5 43q-46 0 -83.5 -19.5t-59 -55t-21.5 -81.5q0 -69 46.5 -111.5t117.5 -42.5q72 0 119.5 42zM223.5 649q-48.5 46 -48.5 125h91q1 -36 24.5 -57t57.5 -21t57.5 21t24.5 57h92q0 -79 -49 -125t-125 -46t-124.5 46z" />
    <glyph glyph-name="gcaron" unicode="&#x1e7;" horiz-adv-x="693" 
d="M624 548v-494q0 -73 -38 -128.5t-105 -85.5t-153 -30q-131 0 -240 51l44 107q47 -22 90.5 -34t98.5 -12q78 0 127.5 35t49.5 100v43q-67 -73 -180 -73q-81 0 -144 34.5t-98 95t-35 135.5t35 136.5t98 97t144 35.5q116 0 185 -81v68h121zM452.5 180q47.5 42 47.5 112
t-47.5 113t-119.5 43q-46 0 -83.5 -19.5t-59 -55t-21.5 -81.5q0 -69 46.5 -111.5t117.5 -42.5q72 0 119.5 42zM534 774l-119 -162h-135l-119 162h111l76 -84l75 84h111z" />
    <glyph glyph-name="gcircumflex" unicode="&#x11d;" horiz-adv-x="693" 
d="M624 548v-494q0 -73 -38 -128.5t-105 -85.5t-153 -30q-131 0 -240 51l44 107q47 -22 90.5 -34t98.5 -12q78 0 127.5 35t49.5 100v43q-67 -73 -180 -73q-81 0 -144 34.5t-98 95t-35 135.5t35 136.5t98 97t144 35.5q116 0 185 -81v68h121zM452.5 180q47.5 42 47.5 112
t-47.5 113t-119.5 43q-46 0 -83.5 -19.5t-59 -55t-21.5 -81.5q0 -69 46.5 -111.5t117.5 -42.5q72 0 119.5 42zM423 612l-75 84l-76 -84h-111l119 162h135l119 -162h-111z" />
    <glyph glyph-name="gcommaaccent" unicode="&#x123;" horiz-adv-x="693" 
d="M624 548v-494q0 -73 -38 -128.5t-105 -85.5t-153 -30q-131 0 -240 51l44 107q47 -22 90.5 -34t98.5 -12q78 0 127.5 35t49.5 100v43q-67 -73 -180 -73q-81 0 -144 34.5t-98 95t-35 135.5t35 136.5t98 97t144 35.5q116 0 185 -81v68h121zM452.5 180q47.5 42 47.5 112
t-47.5 113t-119.5 43q-46 0 -83.5 -19.5t-59 -55t-21.5 -81.5q0 -69 46.5 -111.5t117.5 -42.5q72 0 119.5 42zM403 606h-137l85 168h91z" />
    <glyph glyph-name="gdotaccent" unicode="&#x121;" horiz-adv-x="693" 
d="M624 548v-494q0 -73 -38 -128.5t-105 -85.5t-153 -30q-131 0 -240 51l44 107q47 -22 90.5 -34t98.5 -12q78 0 127.5 35t49.5 100v43q-67 -73 -180 -73q-81 0 -144 34.5t-98 95t-35 135.5t35 136.5t98 97t144 35.5q116 0 185 -81v68h121zM452.5 180q47.5 42 47.5 112
t-47.5 113t-119.5 43q-46 0 -83.5 -19.5t-59 -55t-21.5 -81.5q0 -69 46.5 -111.5t117.5 -42.5q72 0 119.5 42zM292 635q-22 21 -22 54q0 32 22 53t56 21t56 -21t22 -53q0 -33 -22 -54t-56 -21t-56 21z" />
    <glyph glyph-name="uni1E21" unicode="&#x1e21;" horiz-adv-x="693" 
d="M624 548v-494q0 -73 -38 -128.5t-105 -85.5t-153 -30q-131 0 -240 51l44 107q47 -22 90.5 -34t98.5 -12q78 0 127.5 35t49.5 100v43q-67 -73 -180 -73q-81 0 -144 34.5t-98 95t-35 135.5t35 136.5t98 97t144 35.5q116 0 185 -81v68h121zM452.5 180q47.5 42 47.5 112
t-47.5 113t-119.5 43q-46 0 -83.5 -19.5t-59 -55t-21.5 -81.5q0 -69 46.5 -111.5t117.5 -42.5q72 0 119.5 42zM182 729h332v-98h-332v98z" />
    <glyph glyph-name="h" unicode="h" horiz-adv-x="674" 
d="M497 535q51 -26 79.5 -74t28.5 -112v-349h-127v322q0 56 -32.5 88t-93.5 32q-65 0 -105.5 -34.5t-40.5 -89.5v-318h-128v752h128v-262q33 37 78.5 54t95.5 17q66 0 117 -26z" />
    <glyph glyph-name="hbar" unicode="&#x127;" horiz-adv-x="679" 
d="M502 526q51 -26 79.5 -73.5t28.5 -110.5v-342h-127v315q0 57 -32.5 88t-93.5 31q-65 0 -105.5 -34t-40.5 -89v-311h-128v599h-77v85h77v68h128v-68h186v-85h-186v-117q32 37 77.5 53.5t96.5 16.5q66 0 117 -26z" />
    <glyph glyph-name="uni1E2B" unicode="&#x1e2b;" horiz-adv-x="674" 
d="M497 535q51 -26 79.5 -74t28.5 -112v-349h-127v322q0 56 -32.5 88t-93.5 32q-65 0 -105.5 -34.5t-40.5 -89.5v-318h-128v752h128v-262q33 37 78.5 54t95.5 17q66 0 117 -26zM211.5 -172q-48.5 46 -48.5 125h91q1 -36 24.5 -57t57.5 -21t57.5 21t24.5 57h92
q0 -79 -49 -125t-125 -46t-124.5 46z" />
    <glyph glyph-name="hcircumflex" unicode="&#x125;" horiz-adv-x="674" 
d="M497 535q51 -26 79.5 -74t28.5 -112v-349h-127v322q0 56 -32.5 88t-93.5 32q-65 0 -105.5 -34.5t-40.5 -89.5v-318h-128v752h128v-262q33 37 78.5 54t95.5 17q66 0 117 -26zM218 776l-75 84l-76 -84h-111l119 162h135l119 -162h-111z" />
    <glyph glyph-name="uni1E25" unicode="&#x1e25;" horiz-adv-x="674" 
d="M497 535q51 -26 79.5 -74t28.5 -112v-349h-127v322q0 56 -32.5 88t-93.5 32q-65 0 -105.5 -34.5t-40.5 -89.5v-318h-128v752h128v-262q33 37 78.5 54t95.5 17q66 0 117 -26zM281 -188q-22 21 -22 54q0 32 22 53t56 21t56 -21t22 -53q0 -33 -22 -54t-56 -21t-56 21z" />
    <glyph glyph-name="i" unicode="i" horiz-adv-x="296" 
d="M85 548h128v-548h-128v548zM93 635q-22 21 -22 54q0 32 22 53t56 21t56 -21t22 -53q0 -33 -22 -54t-56 -21t-56 21z" />
    <glyph glyph-name="dotlessi" unicode="&#x131;" horiz-adv-x="296" 
d="M85 548h128v-548h-128v548z" />
    <glyph glyph-name="iacute" unicode="&#xed;" horiz-adv-x="296" 
d="M85 548h128v-548h-128v548zM190 606h-119l113 168h147v-10z" />
    <glyph glyph-name="ibreve" unicode="&#x12d;" horiz-adv-x="296" 
d="M85 548h128v-548h-128v548zM24.5 649q-48.5 46 -48.5 125h91q1 -36 24.5 -57t57.5 -21t57.5 21t24.5 57h92q0 -79 -49 -125t-125 -46t-124.5 46z" />
    <glyph glyph-name="icircumflex" unicode="&#xee;" horiz-adv-x="296" 
d="M85 548h128v-548h-128v548zM224 612l-75 84l-76 -84h-111l119 162h135l119 -162h-111z" />
    <glyph glyph-name="uni0209" unicode="&#x209;" horiz-adv-x="296" 
d="M85 548h128v-548h-128v548zM-91 774h126l83 -168h-98l-111 158v10zM98 774h125l67 -168h-98l-94 158v10z" />
    <glyph glyph-name="idieresis" unicode="&#xef;" horiz-adv-x="296" 
d="M-11.5 637q-21.5 20 -21.5 52q0 31 21.5 51.5t54.5 20.5q32 0 54 -20.5t22 -51.5q0 -32 -21.5 -52t-54.5 -20t-54.5 20zM200 637q-22 20 -22 52q0 31 22 51.5t55 20.5q32 0 54 -20.5t22 -51.5q0 -32 -21.5 -52t-54.5 -20t-55 20zM85 548h128v-548h-128v548z" />
    <glyph glyph-name="uni1E2F" unicode="&#x1e2f;" horiz-adv-x="296" 
d="M190 820h-119l113 168h147v-10zM-11.5 637q-21.5 20 -21.5 52q0 31 21.5 51.5t54.5 20.5q32 0 54 -20.5t22 -51.5q0 -32 -21.5 -52t-54.5 -20t-54.5 20zM200 637q-22 20 -22 52q0 31 22 51.5t55 20.5q32 0 54 -20.5t22 -51.5q0 -32 -21.5 -52t-54.5 -20t-55 20zM85 548
h128v-548h-128v548z" />
    <glyph glyph-name="i.loclTRK" horiz-adv-x="296" 
d="M85 548h128v-548h-128v548zM93 635q-22 21 -22 54q0 32 22 53t56 21t56 -21t22 -53q0 -33 -22 -54t-56 -21t-56 21z" />
    <glyph glyph-name="uni1ECB" unicode="&#x1ecb;" horiz-adv-x="296" 
d="M85 548h128v-548h-128v548zM93 635q-22 21 -22 54q0 32 22 53t56 21t56 -21t22 -53q0 -33 -22 -54t-56 -21t-56 21zM92 -188q-22 21 -22 54q0 32 22 53t56 21t56 -21t22 -53q0 -33 -22 -54t-56 -21t-56 21z" />
    <glyph glyph-name="igrave" unicode="&#xec;" horiz-adv-x="296" 
d="M-14 758v10h147l84 -156h-119zM89 548h128v-548h-128v548z" />
    <glyph glyph-name="uni1EC9" unicode="&#x1ec9;" horiz-adv-x="296" 
d="M85 548h128v-548h-128v548zM98 619q0 27 15 48t43 45q19 15 28 26.5t9 22.5q0 15 -13 23t-33 8q-24 0 -38 -12t-15 -32h-89q2 56 41.5 89.5t107.5 33.5q58 0 96 -30t38 -77q0 -26 -13 -46.5t-41 -46.5q-33 -30 -41.5 -39.5t-8.5 -20.5v-7h-86v15z" />
    <glyph glyph-name="uni020B" unicode="&#x20b;" horiz-adv-x="296" 
d="M85 548h128v-548h-128v548zM274 731q49 -46 49 -125h-92q-1 36 -24.5 57t-57.5 21t-57.5 -21t-24.5 -57h-91q0 79 48.5 125t124.5 46t125 -46z" />
    <glyph glyph-name="imacron" unicode="&#x12b;" horiz-adv-x="295" 
d="M14 729h266v-97h-266v97zM84 548h127v-548h-127v548z" />
    <glyph glyph-name="iogonek" unicode="&#x12f;" horiz-adv-x="296" 
d="M93 635q-22 21 -22 54q0 32 22 53t56 21t56 -21t22 -53q0 -33 -22 -54t-56 -21t-56 21zM260 -165q-41 -33 -116 -33q-56 0 -94.5 26.5t-38.5 77.5q0 31 19 59.5t55 49.5v533h128v-548q-55 -23 -74 -40.5t-19 -35.5q0 -16 13 -24.5t33 -8.5q30 0 60 18z" />
    <glyph glyph-name="itilde" unicode="&#x129;" horiz-adv-x="296" 
d="M156 620q-19 12 -37 34q-12 14 -19 19.5t-17 5.5q-33 0 -37 -64h-87q2 73 33.5 115t92.5 42q34 0 53 -12.5t38 -34.5q12 -14 19 -19.5t16 -5.5q35 0 38 65h88q-2 -73 -33.5 -115t-94.5 -42q-34 0 -53 12zM85 548h128v-548h-128v548z" />
    <glyph glyph-name="j" unicode="j" horiz-adv-x="291" 
d="M-32 -176v107q26 -7 45 -7q35 0 53.5 16.5t18.5 46.5v561h128v-573q0 -76 -46.5 -119t-126.5 -43q-37 0 -72 11zM93 635q-22 21 -22 54q0 32 22 53t56 21t56 -21t22 -53q0 -33 -22 -54t-56 -21t-56 21z" />
    <glyph glyph-name="uni0237" unicode="&#x237;" horiz-adv-x="291" 
d="M-32 -176v107q26 -7 45 -7q35 0 53.5 16.5t18.5 46.5v561h128v-573q0 -76 -46.5 -119t-126.5 -43q-37 0 -72 11z" />
    <glyph glyph-name="jcircumflex" unicode="&#x135;" horiz-adv-x="291" 
d="M-32 -176v107q26 -7 45 -7q35 0 53.5 16.5t18.5 46.5v561h128v-573q0 -76 -46.5 -119t-126.5 -43q-37 0 -72 11zM224 612l-75 84l-76 -84h-111l119 162h135l119 -162h-111z" />
    <glyph glyph-name="k" unicode="k" horiz-adv-x="651" 
d="M321 250l-115 -109v-141h-128v752h128v-466l275 262h156l-228 -216l246 -332h-150z" />
    <glyph glyph-name="kcommaaccent" unicode="&#x137;" horiz-adv-x="651" 
d="M321 250l-115 -109v-141h-128v752h128v-466l275 262h156l-228 -216l246 -332h-150zM277 -54h137l-86 -161h-90z" />
    <glyph glyph-name="kgreenlandic" unicode="&#x138;" horiz-adv-x="651" 
d="M321 250l-115 -109v-141h-128v548h128v-262l275 262h156l-228 -216l246 -332h-150z" />
    <glyph glyph-name="l" unicode="l" horiz-adv-x="322" 
d="M209 752v-599q0 -47 50 -47q19 0 44 9v-112q-31 -12 -75 -12q-67 0 -107 36.5t-40 99.5v625h128z" />
    <glyph glyph-name="lacute" unicode="&#x13a;" horiz-adv-x="322" 
d="M209 752v-599q0 -47 50 -47q19 0 44 9v-112q-31 -12 -75 -12q-67 0 -107 36.5t-40 99.5v625h128zM186 810h-119l113 168h147v-10z" />
    <glyph glyph-name="lcaron" unicode="&#x13e;" horiz-adv-x="322" 
d="M209 752v-599q0 -47 50 -47q19 0 44 9v-112q-31 -12 -75 -12q-67 0 -107 36.5t-40 99.5v625h128zM393 752l-52 -220h-84l22 220h114z" />
    <glyph glyph-name="lcommaaccent" unicode="&#x13c;" horiz-adv-x="322" 
d="M209 752v-599q0 -47 50 -47q19 0 44 9v-112q-31 -12 -75 -12q-67 0 -107 36.5t-40 99.5v625h128zM134 -54h137l-86 -161h-90z" />
    <glyph glyph-name="ldot" unicode="&#x140;" horiz-adv-x="402" 
d="M209 752v-599q0 -47 50 -47q19 0 44 9v-112q-31 -12 -75 -12q-67 0 -107 36.5t-40 99.5v625h128zM279 335q-22 22 -22 56q0 35 22 57t57 22t57 -22t22 -57q0 -34 -22 -56t-57 -22t-57 22z" />
    <glyph glyph-name="uni1E37" unicode="&#x1e37;" horiz-adv-x="322" 
d="M209 752v-599q0 -47 50 -47q19 0 44 9v-112q-31 -12 -75 -12q-67 0 -107 36.5t-40 99.5v625h128zM126 -188q-22 21 -22 54q0 32 22 53t56 21t56 -21t22 -53q0 -33 -22 -54t-56 -21t-56 21z" />
    <glyph glyph-name="uni01C9" unicode="&#x1c9;" horiz-adv-x="571" 
d="M373 635q-22 21 -22 54q0 32 22 53t56 21t56 -21t22 -53q0 -33 -22 -54t-56 -21t-56 21zM206 752v-752h-128v752h128zM248 -176v107q26 -7 45 -7q35 0 53.5 16.5t18.5 46.5v561h128v-573q0 -76 -46.5 -119t-126.5 -43q-37 0 -72 11z" />
    <glyph glyph-name="uni1E3B" unicode="&#x1e3b;" horiz-adv-x="322" 
d="M209 752v-599q0 -47 50 -47q19 0 44 9v-112q-31 -12 -75 -12q-67 0 -107 36.5t-40 99.5v625h128zM32.6182 -85h298.788v-98h-298.788v98z" />
    <glyph glyph-name="lslash" unicode="&#x142;" horiz-adv-x="365" 
d="M232 363v-210q0 -47 50 -47q19 0 44 9v-112q-31 -12 -75 -12q-67 0 -107 36.5t-40 99.5v164l-85 -48h-7v109l92 52v348h128v-276l106 60h7v-109z" />
    <glyph glyph-name="m" unicode="m" horiz-adv-x="1029" 
d="M855 535q50 -26 78 -74.5t28 -111.5v-349h-127v323q0 56 -31 88t-85 32q-57 0 -96 -34.5t-39 -89.5v-319h-127v323q0 56 -31 88t-84 32q-57 0 -96 -34.5t-39 -89.5v-319h-128v548h121v-62q33 40 78.5 57.5t92.5 17.5q56 0 102.5 -23.5t74.5 -65.5q36 46 88.5 67.5
t107.5 21.5q62 0 112 -26z" />
    <glyph glyph-name="uni1E43" unicode="&#x1e43;" horiz-adv-x="1029" 
d="M855 535q50 -26 78 -74.5t28 -111.5v-349h-127v323q0 56 -31 88t-85 32q-57 0 -96 -34.5t-39 -89.5v-319h-127v323q0 56 -31 88t-84 32q-57 0 -96 -34.5t-39 -89.5v-319h-128v548h121v-62q33 40 78.5 57.5t92.5 17.5q56 0 102.5 -23.5t74.5 -65.5q36 46 88.5 67.5
t107.5 21.5q62 0 112 -26zM459 -188q-22 21 -22 54q0 32 22 53t56 21t56 -21t22 -53q0 -33 -22 -54t-56 -21t-56 21z" />
    <glyph glyph-name="n" unicode="n" horiz-adv-x="674" 
d="M497 535q51 -26 79.5 -74t28.5 -112v-349h-127v323q0 57 -32.5 88t-93.5 31q-65 0 -105.5 -34t-40.5 -89v-319h-128v548h121v-62q32 39 80.5 57t100.5 18q66 0 117 -26z" />
    <glyph glyph-name="nacute" unicode="&#x144;" horiz-adv-x="674" 
d="M497 535q51 -26 79.5 -74t28.5 -112v-349h-127v323q0 57 -32.5 88t-93.5 31q-65 0 -105.5 -34t-40.5 -89v-319h-128v548h121v-62q32 39 80.5 57t100.5 18q66 0 117 -26zM384 606h-119l113 168h147v-10z" />
    <glyph glyph-name="ncaron" unicode="&#x148;" horiz-adv-x="674" 
d="M497 535q51 -26 79.5 -74t28.5 -112v-349h-127v323q0 57 -32.5 88t-93.5 31q-65 0 -105.5 -34t-40.5 -89v-319h-128v548h121v-62q32 39 80.5 57t100.5 18q66 0 117 -26zM529 774l-119 -162h-135l-119 162h111l76 -84l75 84h111z" />
    <glyph glyph-name="ncommaaccent" unicode="&#x146;" horiz-adv-x="674" 
d="M497 535q51 -26 79.5 -74t28.5 -112v-349h-127v323q0 57 -32.5 88t-93.5 31q-65 0 -105.5 -34t-40.5 -89v-319h-128v548h121v-62q32 39 80.5 57t100.5 18q66 0 117 -26zM295 -54h137l-86 -161h-90z" />
    <glyph glyph-name="uni1E45" unicode="&#x1e45;" horiz-adv-x="674" 
d="M497 535q51 -26 79.5 -74t28.5 -112v-349h-127v323q0 57 -32.5 88t-93.5 31q-65 0 -105.5 -34t-40.5 -89v-319h-128v548h121v-62q32 39 80.5 57t100.5 18q66 0 117 -26zM287 635q-22 21 -22 54q0 32 22 53t56 21t56 -21t22 -53q0 -33 -22 -54t-56 -21t-56 21z" />
    <glyph glyph-name="uni1E47" unicode="&#x1e47;" horiz-adv-x="674" 
d="M497 535q51 -26 79.5 -74t28.5 -112v-349h-127v323q0 57 -32.5 88t-93.5 31q-65 0 -105.5 -34t-40.5 -89v-319h-128v548h121v-62q32 39 80.5 57t100.5 18q66 0 117 -26zM287 -188q-22 21 -22 54q0 32 22 53t56 21t56 -21t22 -53q0 -33 -22 -54t-56 -21t-56 21z" />
    <glyph glyph-name="eng" unicode="&#x14b;" horiz-adv-x="674" 
d="M497 535q51 -26 79.5 -74t28.5 -112v-375q0 -76 -46 -119t-127 -43q-35 0 -72 11v108q26 -7 46 -7q34 0 53 17t19 46v336q0 57 -32.5 88t-93.5 31q-65 0 -105.5 -34t-40.5 -89v-319h-128v548h121v-62q32 39 80.5 57t100.5 18q66 0 117 -26z" />
    <glyph glyph-name="uni01CC" unicode="&#x1cc;" horiz-adv-x="965" 
d="M497 535q51 -26 79.5 -74t28.5 -112v-349h-127v323q0 57 -32.5 88t-93.5 31q-65 0 -105.5 -34t-40.5 -89v-319h-128v548h121v-62q32 39 80.5 57t100.5 18q66 0 117 -26zM642 -176v107q26 -7 45 -7q35 0 53.5 16.5t18.5 46.5v561h128v-573q0 -76 -46.5 -119t-126.5 -43
q-37 0 -72 11zM767 635q-22 21 -22 54q0 32 22 53t56 21t56 -21t22 -53q0 -33 -22 -54t-56 -21t-56 21z" />
    <glyph glyph-name="uni1E49" unicode="&#x1e49;" horiz-adv-x="674" 
d="M497 535q51 -26 79.5 -74t28.5 -112v-349h-127v323q0 57 -32.5 88t-93.5 31q-65 0 -105.5 -34t-40.5 -89v-319h-128v548h121v-62q32 39 80.5 57t100.5 18q66 0 117 -26zM177 -85h332v-98h-332v98z" />
    <glyph glyph-name="ntilde" unicode="&#xf1;" horiz-adv-x="674" 
d="M497 535q51 -26 79.5 -74t28.5 -112v-349h-127v323q0 57 -32.5 88t-93.5 31q-65 0 -105.5 -34t-40.5 -89v-319h-128v548h121v-62q32 39 80.5 57t100.5 18q66 0 117 -26zM362.5 620q-23.5 12 -50.5 34q-17 13 -27 19t-20 6q-17 0 -26 -15.5t-11 -48.5h-96q2 72 35.5 114.5
t95.5 42.5q34 0 58.5 -12.5t50.5 -34.5q16 -13 25.5 -19t19.5 -6q36 0 39 65h96q-2 -73 -35.5 -115t-96.5 -42q-34 0 -57.5 12z" />
    <glyph glyph-name="o" unicode="o" horiz-adv-x="679" 
d="M183.5 25q-68.5 38 -106 103.5t-37.5 145.5t37.5 145.5t106 103.5t156.5 38t156.5 -38t106 -103.5t37.5 -145.5t-37.5 -145.5t-106 -103.5t-156.5 -38t-156.5 38zM426 125q39 22 62 61t23 88t-23 88t-62 61t-86 22q-48 0 -87 -22t-62 -61t-23 -88t23 -88t62 -61t87 -22
q47 0 86 22z" />
    <glyph glyph-name="oacute" unicode="&#xf3;" horiz-adv-x="679" 
d="M183.5 25q-68.5 38 -106 103.5t-37.5 145.5t37.5 145.5t106 103.5t156.5 38t156.5 -38t106 -103.5t37.5 -145.5t-37.5 -145.5t-106 -103.5t-156.5 -38t-156.5 38zM426 125q39 22 62 61t23 88t-23 88t-62 61t-86 22q-48 0 -87 -22t-62 -61t-23 -88t23 -88t62 -61t87 -22
q47 0 86 22zM381 606h-119l113 168h147v-10z" />
    <glyph glyph-name="obreve" unicode="&#x14f;" horiz-adv-x="679" 
d="M183.5 25q-68.5 38 -106 103.5t-37.5 145.5t37.5 145.5t106 103.5t156.5 38t156.5 -38t106 -103.5t37.5 -145.5t-37.5 -145.5t-106 -103.5t-156.5 -38t-156.5 38zM426 125q39 22 62 61t23 88t-23 88t-62 61t-86 22q-48 0 -87 -22t-62 -61t-23 -88t23 -88t62 -61t87 -22
q47 0 86 22zM215.5 649q-48.5 46 -48.5 125h91q1 -36 24.5 -57t57.5 -21t57.5 21t24.5 57h92q0 -79 -49 -125t-125 -46t-124.5 46z" />
    <glyph glyph-name="ocircumflex" unicode="&#xf4;" horiz-adv-x="679" 
d="M183.5 25q-68.5 38 -106 103.5t-37.5 145.5t37.5 145.5t106 103.5t156.5 38t156.5 -38t106 -103.5t37.5 -145.5t-37.5 -145.5t-106 -103.5t-156.5 -38t-156.5 38zM426 125q39 22 62 61t23 88t-23 88t-62 61t-86 22q-48 0 -87 -22t-62 -61t-23 -88t23 -88t62 -61t87 -22
q47 0 86 22zM415 612l-75 84l-76 -84h-111l119 162h135l119 -162h-111z" />
    <glyph glyph-name="uni1ED1" unicode="&#x1ed1;" horiz-adv-x="679" 
d="M679 871v-9l-115 -141h-102l90 150h127zM264 612h-111l119 153h135l119 -153h-111l-75 82zM496.5 523q68.5 -38 106 -103.5t37.5 -145.5t-37.5 -145.5t-106 -103.5t-156.5 -38t-156.5 38t-106 103.5t-37.5 145.5t37.5 145.5t106 103.5t156.5 38t156.5 -38zM426 125
q39 22 62 61t23 88t-23 88t-62 61t-86 22q-48 0 -87 -22t-62 -61t-23 -88t23 -88t62 -61t87 -22q47 0 86 22z" />
    <glyph glyph-name="uni1ED9" unicode="&#x1ed9;" horiz-adv-x="679" 
d="M183.5 25q-68.5 38 -106 103.5t-37.5 145.5t37.5 145.5t106 103.5t156.5 38t156.5 -38t106 -103.5t37.5 -145.5t-37.5 -145.5t-106 -103.5t-156.5 -38t-156.5 38zM426 125q39 22 62 61t23 88t-23 88t-62 61t-86 22q-48 0 -87 -22t-62 -61t-23 -88t23 -88t62 -61t87 -22
q47 0 86 22zM284 -188q-22 21 -22 54q0 32 22 53t56 21t56 -21t22 -53q0 -33 -22 -54t-56 -21t-56 21zM415 612l-75 84l-76 -84h-111l119 162h135l119 -162h-111z" />
    <glyph glyph-name="uni1ED3" unicode="&#x1ed3;" horiz-adv-x="679" 
d="M531 721l-114 141v9h127l90 -150h-103zM264 612h-111l119 153h135l119 -153h-111l-75 82zM496.5 523q68.5 -38 106 -103.5t37.5 -145.5t-37.5 -145.5t-106 -103.5t-156.5 -38t-156.5 38t-106 103.5t-37.5 145.5t37.5 145.5t106 103.5t156.5 38t156.5 -38zM426 125
q39 22 62 61t23 88t-23 88t-62 61t-86 22q-48 0 -87 -22t-62 -61t-23 -88t23 -88t62 -61t87 -22q47 0 86 22z" />
    <glyph glyph-name="uni1ED5" unicode="&#x1ed5;" horiz-adv-x="679" 
d="M501 855.5q-12 -10.5 -13 -28.5h-79q1 49 35.5 78.5t93.5 29.5q51 0 84.5 -26.5t33.5 -67.5q0 -23 -11 -41.5t-35 -39.5q-29 -26 -36.5 -34.5t-7.5 -18.5v-6h-78v13q0 24 13.5 42t38.5 39q15 14 22.5 24t7.5 19q0 14 -10.5 21t-27.5 7q-19 0 -31 -10.5zM264 612h-111
l119 153h135l119 -153h-111l-75 82zM496.5 523q68.5 -38 106 -103.5t37.5 -145.5t-37.5 -145.5t-106 -103.5t-156.5 -38t-156.5 38t-106 103.5t-37.5 145.5t37.5 145.5t106 103.5t156.5 38t156.5 -38zM426 125q39 22 62 61t23 88t-23 88t-62 61t-86 22q-48 0 -87 -22
t-62 -61t-23 -88t23 -88t62 -61t87 -22q47 0 86 22z" />
    <glyph glyph-name="uni1ED7" unicode="&#x1ed7;" horiz-adv-x="679" 
d="M246.5 851.5q-9.5 -17.5 -10.5 -49.5h-87q3 72 33 114t86 42q32 0 54 -13t45 -36q15 -14 23.5 -20t17.5 -6q14 0 23.5 17.5t11.5 49.5h86q-2 -72 -32 -114t-86 -42q-32 0 -54 13t-46 36q-15 14 -23 20t-17 6q-15 0 -24.5 -17.5zM407 765l119 -153h-111l-75 82l-76 -82
h-111l119 153h135zM496.5 523q68.5 -38 106 -103.5t37.5 -145.5t-37.5 -145.5t-106 -103.5t-156.5 -38t-156.5 38t-106 103.5t-37.5 145.5t37.5 145.5t106 103.5t156.5 38t156.5 -38zM426 125q39 22 62 61t23 88t-23 88t-62 61t-86 22q-48 0 -87 -22t-62 -61t-23 -88t23 -88
t62 -61t87 -22q47 0 86 22z" />
    <glyph glyph-name="uni020D" unicode="&#x20d;" horiz-adv-x="679" 
d="M183.5 25q-68.5 38 -106 103.5t-37.5 145.5t37.5 145.5t106 103.5t156.5 38t156.5 -38t106 -103.5t37.5 -145.5t-37.5 -145.5t-106 -103.5t-156.5 -38t-156.5 38zM426 125q39 22 62 61t23 88t-23 88t-62 61t-86 22q-48 0 -87 -22t-62 -61t-23 -88t23 -88t62 -61t87 -22
q47 0 86 22zM100 774h126l83 -168h-98l-111 158v10zM289 774h125l67 -168h-98l-94 158v10z" />
    <glyph glyph-name="odieresis" unicode="&#xf6;" horiz-adv-x="679" 
d="M183.5 25q-68.5 38 -106 103.5t-37.5 145.5t37.5 145.5t106 103.5t156.5 38t156.5 -38t106 -103.5t37.5 -145.5t-37.5 -145.5t-106 -103.5t-156.5 -38t-156.5 38zM426 125q39 22 62 61t23 88t-23 88t-62 61t-86 22q-48 0 -87 -22t-62 -61t-23 -88t23 -88t62 -61t87 -22
q47 0 86 22zM168 637q-22 20 -22 52q0 31 22 51.5t55 20.5q32 0 54 -20.5t22 -51.5q0 -32 -21.5 -52t-54.5 -20t-55 20zM402 637q-22 20 -22 52q0 31 22 51.5t55 20.5q32 0 54 -20.5t22 -51.5q0 -32 -21.5 -52t-54.5 -20t-55 20z" />
    <glyph glyph-name="uni022B" unicode="&#x22b;" horiz-adv-x="679" 
d="M183.5 25q-68.5 38 -106 103.5t-37.5 145.5t37.5 145.5t106 103.5t156.5 38t156.5 -38t106 -103.5t37.5 -145.5t-37.5 -145.5t-106 -103.5t-156.5 -38t-156.5 38zM426 125q39 22 62 61t23 88t-23 88t-62 61t-86 22q-48 0 -87 -22t-62 -61t-23 -88t23 -88t62 -61t87 -22
q47 0 86 22zM168 637q-22 20 -22 52q0 31 22 51.5t55 20.5q32 0 54 -20.5t22 -51.5q0 -32 -21.5 -52t-54.5 -20t-55 20zM402 637q-22 20 -22 52q0 31 22 51.5t55 20.5q32 0 54 -20.5t22 -51.5q0 -32 -21.5 -52t-54.5 -20t-55 20zM174 920h332v-98h-332v98z" />
    <glyph glyph-name="uni0231" unicode="&#x231;" horiz-adv-x="679" 
d="M183.5 25q-68.5 38 -106 103.5t-37.5 145.5t37.5 145.5t106 103.5t156.5 38t156.5 -38t106 -103.5t37.5 -145.5t-37.5 -145.5t-106 -103.5t-156.5 -38t-156.5 38zM426 125q39 22 62 61t23 88t-23 88t-62 61t-86 22q-48 0 -87 -22t-62 -61t-23 -88t23 -88t62 -61t87 -22
q47 0 86 22zM284 635q-22 21 -22 54q0 32 22 53t56 21t56 -21t22 -53q0 -33 -22 -54t-56 -21t-56 21zM174 912h332v-98h-332v98z" />
    <glyph glyph-name="uni1ECD" unicode="&#x1ecd;" horiz-adv-x="679" 
d="M183.5 25q-68.5 38 -106 103.5t-37.5 145.5t37.5 145.5t106 103.5t156.5 38t156.5 -38t106 -103.5t37.5 -145.5t-37.5 -145.5t-106 -103.5t-156.5 -38t-156.5 38zM426 125q39 22 62 61t23 88t-23 88t-62 61t-86 22q-48 0 -87 -22t-62 -61t-23 -88t23 -88t62 -61t87 -22
q47 0 86 22zM284 -188q-22 21 -22 54q0 32 22 53t56 21t56 -21t22 -53q0 -33 -22 -54t-56 -21t-56 21z" />
    <glyph glyph-name="ograve" unicode="&#xf2;" horiz-adv-x="679" 
d="M183.5 25q-68.5 38 -106 103.5t-37.5 145.5t37.5 145.5t106 103.5t156.5 38t156.5 -38t106 -103.5t37.5 -145.5t-37.5 -145.5t-106 -103.5t-156.5 -38t-156.5 38zM426 125q39 22 62 61t23 88t-23 88t-62 61t-86 22q-48 0 -87 -22t-62 -61t-23 -88t23 -88t62 -61t87 -22
q47 0 86 22zM304 768l103 -156h-118l-132 146v10h147z" />
    <glyph glyph-name="uni1ECF" unicode="&#x1ecf;" horiz-adv-x="679" 
d="M183.5 25q-68.5 38 -106 103.5t-37.5 145.5t37.5 145.5t106 103.5t156.5 38t156.5 -38t106 -103.5t37.5 -145.5t-37.5 -145.5t-106 -103.5t-156.5 -38t-156.5 38zM426 125q39 22 62 61t23 88t-23 88t-62 61t-86 22q-48 0 -87 -22t-62 -61t-23 -88t23 -88t62 -61t87 -22
q47 0 86 22zM289 619q0 27 15 48t43 45q19 15 28 26.5t9 22.5q0 15 -13 23t-33 8q-24 0 -38 -12t-15 -32h-89q2 56 41.5 89.5t107.5 33.5q58 0 96 -30t38 -77q0 -26 -13 -46.5t-41 -46.5q-33 -30 -41.5 -39.5t-8.5 -20.5v-7h-86v15z" />
    <glyph glyph-name="ohorn" unicode="&#x1a1;" horiz-adv-x="680" 
d="M652 511q-37 -36 -105 -43q45 -37 67 -86.5t22 -107.5q0 -80 -37 -145.5t-104.5 -103.5t-156.5 -38t-156.5 38t-104.5 103.5t-37 145.5t37 145.5t104.5 103.5t156.5 38q31 0 79 -6q44 -7 84 -7q77 0 77 66q0 36 -18 76h112q17 -31 17 -78q0 -65 -37 -101zM423.5 125
q38.5 22 61 61t22.5 88t-22.5 88t-61 61t-85.5 22q-48 0 -86.5 -22t-61 -61t-22.5 -88t22.5 -88t61 -61t86.5 -22q47 0 85.5 22z" />
    <glyph glyph-name="uni1EDB" unicode="&#x1edb;" horiz-adv-x="680" 
d="M652 511q-37 -36 -105 -43q45 -37 67 -86.5t22 -107.5q0 -80 -37 -145.5t-104.5 -103.5t-156.5 -38t-156.5 38t-104.5 103.5t-37 145.5t37 145.5t104.5 103.5t156.5 38q31 0 79 -6q44 -7 84 -7q77 0 77 66q0 36 -18 76h112q17 -31 17 -78q0 -65 -37 -101zM423.5 125
q38.5 22 61 61t22.5 88t-22.5 88t-61 61t-85.5 22q-48 0 -86.5 -22t-61 -61t-22.5 -88t22.5 -88t61 -61t86.5 -22q47 0 85.5 22zM379 606h-119l113 168h147v-10z" />
    <glyph glyph-name="uni1EE3" unicode="&#x1ee3;" horiz-adv-x="680" 
d="M652 511q-37 -36 -105 -43q45 -37 67 -86.5t22 -107.5q0 -80 -37 -145.5t-104.5 -103.5t-156.5 -38t-156.5 38t-104.5 103.5t-37 145.5t37 145.5t104.5 103.5t156.5 38q31 0 79 -6q44 -7 84 -7q77 0 77 66q0 36 -18 76h112q17 -31 17 -78q0 -65 -37 -101zM423.5 125
q38.5 22 61 61t22.5 88t-22.5 88t-61 61t-85.5 22q-48 0 -86.5 -22t-61 -61t-22.5 -88t22.5 -88t61 -61t86.5 -22q47 0 85.5 22zM282 -188q-22 21 -22 54q0 32 22 53t56 21t56 -21t22 -53q0 -33 -22 -54t-56 -21t-56 21z" />
    <glyph glyph-name="uni1EDD" unicode="&#x1edd;" horiz-adv-x="680" 
d="M652 511q-37 -36 -105 -43q45 -37 67 -86.5t22 -107.5q0 -80 -37 -145.5t-104.5 -103.5t-156.5 -38t-156.5 38t-104.5 103.5t-37 145.5t37 145.5t104.5 103.5t156.5 38q31 0 79 -6q44 -7 84 -7q77 0 77 66q0 36 -18 76h112q17 -31 17 -78q0 -65 -37 -101zM423.5 125
q38.5 22 61 61t22.5 88t-22.5 88t-61 61t-85.5 22q-48 0 -86.5 -22t-61 -61t-22.5 -88t22.5 -88t61 -61t86.5 -22q47 0 85.5 22zM302 768l103 -156h-118l-132 146v10h147z" />
    <glyph glyph-name="uni1EDF" unicode="&#x1edf;" horiz-adv-x="680" 
d="M652 511q-37 -36 -105 -43q45 -37 67 -86.5t22 -107.5q0 -80 -37 -145.5t-104.5 -103.5t-156.5 -38t-156.5 38t-104.5 103.5t-37 145.5t37 145.5t104.5 103.5t156.5 38q31 0 79 -6q44 -7 84 -7q77 0 77 66q0 36 -18 76h112q17 -31 17 -78q0 -65 -37 -101zM423.5 125
q38.5 22 61 61t22.5 88t-22.5 88t-61 61t-85.5 22q-48 0 -86.5 -22t-61 -61t-22.5 -88t22.5 -88t61 -61t86.5 -22q47 0 85.5 22zM287 619q0 27 15 48t43 45q19 15 28 26.5t9 22.5q0 15 -13 23t-33 8q-24 0 -38 -12t-15 -32h-89q2 56 41.5 89.5t107.5 33.5q58 0 96 -30
t38 -77q0 -26 -13 -46.5t-41 -46.5q-33 -30 -41.5 -39.5t-8.5 -20.5v-7h-86v15z" />
    <glyph glyph-name="uni1EE1" unicode="&#x1ee1;" horiz-adv-x="680" 
d="M243 666q-10 -18 -12 -51h-86q2 72 32 114.5t88 42.5q33 0 55.5 -13t46.5 -36q16 -15 24.5 -21t18.5 -6q16 0 26 18t11 51h87q-2 -72 -32.5 -114.5t-87.5 -42.5q-33 0 -56 13t-47 36q-14 14 -23.5 20.5t-19.5 6.5q-15 0 -25 -18zM652 511q-37 -36 -105 -43
q45 -37 67 -86.5t22 -107.5q0 -80 -37 -145.5t-104.5 -103.5t-156.5 -38t-156.5 38t-104.5 103.5t-37 145.5t37 145.5t104.5 103.5t156.5 38q31 0 79 -6q44 -7 84 -7q77 0 77 66q0 36 -18 76h112q17 -31 17 -78q0 -65 -37 -101zM423.5 125q38.5 22 61 61t22.5 88t-22.5 88
t-61 61t-85.5 22q-48 0 -86.5 -22t-61 -61t-22.5 -88t22.5 -88t61 -61t86.5 -22q47 0 85.5 22z" />
    <glyph glyph-name="ohungarumlaut" unicode="&#x151;" horiz-adv-x="679" 
d="M183.5 25q-68.5 38 -106 103.5t-37.5 145.5t37.5 145.5t106 103.5t156.5 38t156.5 -38t106 -103.5t37.5 -145.5t-37.5 -145.5t-106 -103.5t-156.5 -38t-156.5 38zM426 125q39 22 62 61t23 88t-23 88t-62 61t-86 22q-48 0 -87 -22t-62 -61t-23 -88t23 -88t62 -61t87 -22
q47 0 86 22zM288 606h-98l67 168h125v-10zM460 606h-98l83 168h126v-10z" />
    <glyph glyph-name="uni020F" unicode="&#x20f;" horiz-adv-x="679" 
d="M183.5 25q-68.5 38 -106 103.5t-37.5 145.5t37.5 145.5t106 103.5t156.5 38t156.5 -38t106 -103.5t37.5 -145.5t-37.5 -145.5t-106 -103.5t-156.5 -38t-156.5 38zM426 125q39 22 62 61t23 88t-23 88t-62 61t-86 22q-48 0 -87 -22t-62 -61t-23 -88t23 -88t62 -61t87 -22
q47 0 86 22zM465 731q49 -46 49 -125h-92q-1 36 -24.5 57t-57.5 21t-57.5 -21t-24.5 -57h-91q0 79 48.5 125t124.5 46t125 -46z" />
    <glyph glyph-name="omacron" unicode="&#x14d;" horiz-adv-x="679" 
d="M183.5 25q-68.5 38 -106 103.5t-37.5 145.5t37.5 145.5t106 103.5t156.5 38t156.5 -38t106 -103.5t37.5 -145.5t-37.5 -145.5t-106 -103.5t-156.5 -38t-156.5 38zM426 125q39 22 62 61t23 88t-23 88t-62 61t-86 22q-48 0 -87 -22t-62 -61t-23 -88t23 -88t62 -61t87 -22
q47 0 86 22zM174 729h332v-98h-332v98z" />
    <glyph glyph-name="uni1E53" unicode="&#x1e53;" horiz-adv-x="679" 
d="M183.5 25q-68.5 38 -106 103.5t-37.5 145.5t37.5 145.5t106 103.5t156.5 38t156.5 -38t106 -103.5t37.5 -145.5t-37.5 -145.5t-106 -103.5t-156.5 -38t-156.5 38zM426 125q39 22 62 61t23 88t-23 88t-62 61t-86 22q-48 0 -87 -22t-62 -61t-23 -88t23 -88t62 -61t87 -22
q47 0 86 22zM174 729h332v-98h-332v98zM381 787h-119l113 168h147v-10z" />
    <glyph glyph-name="uni1E51" unicode="&#x1e51;" horiz-adv-x="679" 
d="M183.5 25q-68.5 38 -106 103.5t-37.5 145.5t37.5 145.5t106 103.5t156.5 38t156.5 -38t106 -103.5t37.5 -145.5t-37.5 -145.5t-106 -103.5t-156.5 -38t-156.5 38zM426 125q39 22 62 61t23 88t-23 88t-62 61t-86 22q-48 0 -87 -22t-62 -61t-23 -88t23 -88t62 -61t87 -22
q47 0 86 22zM174 729h332v-98h-332v98zM304 949l103 -156h-118l-132 146v10h147z" />
    <glyph glyph-name="uni01EB" unicode="&#x1eb;" horiz-adv-x="675" 
d="M494.5 523q67.5 -38 104.5 -103.5t37 -145.5q0 -71 -30.5 -132.5t-85.5 -96.5q-30 -20 -86 -44q-47 -20 -70 -36t-23 -42q0 -15 13 -23.5t33 -8.5q27 0 59 19l35 -74q-43 -34 -116 -34q-56 0 -94.5 26t-38.5 78q0 48 50 85q-73 11 -128 51t-84.5 100.5t-29.5 131.5
q0 80 37 145.5t104.5 103.5t156.5 38t156.5 -38zM423.5 125q38.5 22 61 61t22.5 88t-22.5 88t-61 61t-85.5 22q-48 0 -86.5 -22t-61 -61t-22.5 -88t22.5 -88t61 -61t86.5 -22q47 0 85.5 22z" />
    <glyph glyph-name="oslash" unicode="&#xf8;" horiz-adv-x="679" 
d="M615.5 391.5q23.5 -54.5 23.5 -117.5q0 -80 -37.5 -145.5t-105.5 -103.5t-156 -38q-70 0 -131 25l-48 -68h-115l85 118q-44 40 -67.5 94.5t-23.5 117.5q0 80 37.5 145.5t106 103.5t156.5 38q71 0 131 -26l48 69h114l-85 -118q44 -40 67.5 -94.5zM252.5 425.5
q-39.5 -22.5 -62 -62t-22.5 -89.5q0 -65 38 -111l197 274q-30 11 -63 11q-48 0 -87.5 -22.5zM427 122.5q39 22.5 62 62t23 89.5q0 65 -38 111l-197 -274q30 -11 63 -11q48 0 87 22.5z" />
    <glyph glyph-name="oslashacute" unicode="&#x1ff;" horiz-adv-x="679" 
d="M615.5 391.5q23.5 -54.5 23.5 -117.5q0 -80 -37.5 -145.5t-105.5 -103.5t-156 -38q-70 0 -131 25l-48 -68h-115l85 118q-44 40 -67.5 94.5t-23.5 117.5q0 80 37.5 145.5t106 103.5t156.5 38q71 0 131 -26l48 69h114l-85 -118q44 -40 67.5 -94.5zM252.5 425.5
q-39.5 -22.5 -62 -62t-22.5 -89.5q0 -65 38 -111l197 274q-30 11 -63 11q-48 0 -87.5 -22.5zM427 122.5q39 22.5 62 62t23 89.5q0 65 -38 111l-197 -274q30 -11 63 -11q48 0 87 22.5zM381 606h-119l113 168h147v-10z" />
    <glyph glyph-name="otilde" unicode="&#xf5;" horiz-adv-x="679" 
d="M183.5 25q-68.5 38 -106 103.5t-37.5 145.5t37.5 145.5t106 103.5t156.5 38t156.5 -38t106 -103.5t37.5 -145.5t-37.5 -145.5t-106 -103.5t-156.5 -38t-156.5 38zM426 125q39 22 62 61t23 88t-23 88t-62 61t-86 22q-48 0 -87 -22t-62 -61t-23 -88t23 -88t62 -61t87 -22
q47 0 86 22zM359.5 620q-23.5 12 -50.5 34q-17 13 -27 19t-20 6q-17 0 -26 -15.5t-11 -48.5h-96q2 72 35.5 114.5t95.5 42.5q34 0 58.5 -12.5t50.5 -34.5q16 -13 25.5 -19t19.5 -6q36 0 39 65h96q-2 -73 -35.5 -115t-96.5 -42q-34 0 -57.5 12z" />
    <glyph glyph-name="uni1E4D" unicode="&#x1e4d;" horiz-adv-x="679" 
d="M183.5 25q-68.5 38 -106 103.5t-37.5 145.5t37.5 145.5t106 103.5t156.5 38t156.5 -38t106 -103.5t37.5 -145.5t-37.5 -145.5t-106 -103.5t-156.5 -38t-156.5 38zM426 125q39 22 62 61t23 88t-23 88t-62 61t-86 22q-48 0 -87 -22t-62 -61t-23 -88t23 -88t62 -61t87 -22
q47 0 86 22zM359.5 620q-23.5 12 -50.5 34q-17 13 -27 19t-20 6q-17 0 -26 -15.5t-11 -48.5h-96q2 72 35.5 114.5t95.5 42.5q34 0 58.5 -12.5t50.5 -34.5q16 -13 25.5 -19t19.5 -6q36 0 39 65h96q-2 -73 -35.5 -115t-96.5 -42q-34 0 -57.5 12zM381 823h-119l113 168h147v-10
z" />
    <glyph glyph-name="uni1E4F" unicode="&#x1e4f;" horiz-adv-x="679" 
d="M183.5 25q-68.5 38 -106 103.5t-37.5 145.5t37.5 145.5t106 103.5t156.5 38t156.5 -38t106 -103.5t37.5 -145.5t-37.5 -145.5t-106 -103.5t-156.5 -38t-156.5 38zM426 125q39 22 62 61t23 88t-23 88t-62 61t-86 22q-48 0 -87 -22t-62 -61t-23 -88t23 -88t62 -61t87 -22
q47 0 86 22zM359.5 620q-23.5 12 -50.5 34q-17 13 -27 19t-20 6q-17 0 -26 -15.5t-11 -48.5h-96q2 72 35.5 114.5t95.5 42.5q34 0 58.5 -12.5t50.5 -34.5q16 -13 25.5 -19t19.5 -6q36 0 39 65h96q-2 -73 -35.5 -115t-96.5 -42q-34 0 -57.5 12zM168 854q-22 20 -22 52
q0 31 22 51.5t55 20.5q32 0 54 -20.5t22 -51.5q0 -32 -21.5 -52t-54.5 -20t-55 20zM402 854q-22 20 -22 52q0 31 22 51.5t55 20.5q32 0 54 -20.5t22 -51.5q0 -32 -21.5 -52t-54.5 -20t-55 20z" />
    <glyph glyph-name="uni022D" unicode="&#x22d;" horiz-adv-x="679" 
d="M183.5 25q-68.5 38 -106 103.5t-37.5 145.5t37.5 145.5t106 103.5t156.5 38t156.5 -38t106 -103.5t37.5 -145.5t-37.5 -145.5t-106 -103.5t-156.5 -38t-156.5 38zM426 125q39 22 62 61t23 88t-23 88t-62 61t-86 22q-48 0 -87 -22t-62 -61t-23 -88t23 -88t62 -61t87 -22
q47 0 86 22zM359.5 620q-23.5 12 -50.5 34q-17 13 -27 19t-20 6q-17 0 -26 -15.5t-11 -48.5h-96q2 72 35.5 114.5t95.5 42.5q34 0 58.5 -12.5t50.5 -34.5q16 -13 25.5 -19t19.5 -6q36 0 39 65h96q-2 -73 -35.5 -115t-96.5 -42q-34 0 -57.5 12zM174 921h332v-98h-332v98z" />
    <glyph glyph-name="oe" unicode="&#x153;" horiz-adv-x="1103" 
d="M1066 226h-439q14 -60 62 -94.5t121 -34.5q46 0 83.5 14.5t71.5 45.5l71 -87q-34 -37 -93 -60.5t-134 -23.5q-89 0 -151.5 33t-96.5 91q-32 -58 -89 -90.5t-136 -32.5q-88 0 -155.5 38t-104 103.5t-36.5 145.5t36.5 145.5t104 103.5t155.5 38q78 0 135.5 -32t89.5 -90
q32 57 88.5 89t134.5 32q87 0 152 -39t99.5 -105.5t34.5 -147.5q0 -23 -4 -42zM682 414q-42 -34 -55 -92h314q-11 57 -53 91.5t-104 34.5q-60 0 -102 -34zM421 125q38 22 60 61t22 88t-22 88t-60 61t-85 22t-85 -22t-60.5 -61t-22.5 -88t22.5 -88t60.5 -61t85 -22t85 22z
" />
    <glyph glyph-name="p" unicode="p" 
d="M533.5 523q63.5 -38 99 -103.5t35.5 -145.5t-35.5 -145.5t-99 -103.5t-145.5 -38q-117 0 -186 79v-246h-128v728h121v-74q72 87 193 87q82 0 145.5 -38zM457.5 125q38.5 22 60 61t21.5 88t-21.5 88t-60 61t-87.5 22t-88 -21.5t-61.5 -60.5t-22.5 -89t22.5 -89t61.5 -60.5
t88 -21.5t87.5 22z" />
    <glyph glyph-name="thorn" unicode="&#xfe;" horiz-adv-x="710" 
d="M537.5 523q63.5 -38 99 -103.5t35.5 -145.5t-35.5 -145.5t-99 -103.5t-145.5 -38q-117 0 -186 79v-246h-128v932h128v-270q69 79 186 79q82 0 145.5 -38zM461.5 125q38.5 22 60 61t21.5 88t-21.5 88t-60 61t-87.5 22t-88 -21.5t-61.5 -60.5t-22.5 -89t22.5 -89
t61.5 -60.5t88 -21.5t87.5 22z" />
    <glyph glyph-name="q" unicode="q" 
d="M174.5 523q-63.5 -38 -99 -103.5t-35.5 -145.5t35.5 -145.5t99 -103.5t145.5 -38q117 0 186 79v-246h128v728h-121v-74q-72 87 -193 87q-82 0 -145.5 -38zM250.5 125q-38.5 22 -60 61t-21.5 88t21.5 88t60 61t87.5 22t88 -21.5t61.5 -60.5t22.5 -89t-22.5 -89
t-61.5 -60.5t-88 -21.5t-87.5 22z" />
    <glyph glyph-name="r" unicode="r" horiz-adv-x="452" 
d="M431 550v-119q-29 5 -57 5q-75 0 -121.5 -36.5t-46.5 -112.5v-287h-128v548h121v-77q29 44 77.5 64.5t100.5 20.5q28 0 54 -6z" />
    <glyph glyph-name="racute" unicode="&#x155;" horiz-adv-x="452" 
d="M431 550v-119q-29 5 -57 5q-75 0 -121.5 -36.5t-46.5 -112.5v-287h-128v548h121v-77q29 44 77.5 64.5t100.5 20.5q28 0 54 -6zM290 606h-119l113 168h147v-10z" />
    <glyph glyph-name="rcaron" unicode="&#x159;" horiz-adv-x="452" 
d="M431 550v-119q-29 5 -57 5q-75 0 -121.5 -36.5t-46.5 -112.5v-287h-128v548h121v-77q29 44 77.5 64.5t100.5 20.5q28 0 54 -6zM435 774l-119 -162h-135l-119 162h111l76 -84l75 84h111z" />
    <glyph glyph-name="rcommaaccent" unicode="&#x157;" horiz-adv-x="452" 
d="M431 550v-119q-29 5 -57 5q-75 0 -121.5 -36.5t-46.5 -112.5v-287h-128v548h121v-77q29 44 77.5 64.5t100.5 20.5q28 0 54 -6zM89 -54h137l-86 -161h-90z" />
    <glyph glyph-name="uni0211" unicode="&#x211;" horiz-adv-x="452" 
d="M431 550v-119q-29 5 -57 5q-75 0 -121.5 -36.5t-46.5 -112.5v-287h-128v548h121v-77q29 44 77.5 64.5t100.5 20.5q28 0 54 -6zM9 774h126l83 -168h-98l-111 158v10zM198 774h125l67 -168h-98l-94 158v10z" />
    <glyph glyph-name="uni1E5B" unicode="&#x1e5b;" horiz-adv-x="452" 
d="M431 550v-119q-29 5 -57 5q-75 0 -121.5 -36.5t-46.5 -112.5v-287h-128v548h121v-77q29 44 77.5 64.5t100.5 20.5q28 0 54 -6zM81 -188q-22 21 -22 54q0 32 22 53t56 21t56 -21t22 -53q0 -33 -22 -54t-56 -21t-56 21z" />
    <glyph glyph-name="uni0213" unicode="&#x213;" horiz-adv-x="452" 
d="M431 550v-119q-29 5 -57 5q-75 0 -121.5 -36.5t-46.5 -112.5v-287h-128v548h121v-77q29 44 77.5 64.5t100.5 20.5q28 0 54 -6zM374 731q49 -46 49 -125h-92q-1 36 -24.5 57t-57.5 21t-57.5 -21t-24.5 -57h-91q0 79 48.5 125t124.5 46t125 -46z" />
    <glyph glyph-name="uni1E5F" unicode="&#x1e5f;" horiz-adv-x="452" 
d="M431 550v-119q-29 5 -57 5q-75 0 -121.5 -36.5t-46.5 -112.5v-287h-128v548h121v-77q29 44 77.5 64.5t100.5 20.5q28 0 54 -6zM-12.3818 -85h298.788v-98h-298.788v98z" />
    <glyph glyph-name="s" unicode="s" horiz-adv-x="582" 
d="M188 114q55 -19 119 -19q49 0 80 18t31 46q0 38 -61 47l-138 24q-86 15 -128 55t-42 99q0 80 66 128t180 48q63 0 127 -17t117 -56l-64 -91q-35 25 -84.5 41.5t-99.5 16.5q-48 0 -80 -16.5t-32 -42.5q0 -19 17.5 -30t58.5 -18l125 -21q85 -15 126.5 -55t41.5 -101
q0 -54 -30.5 -95.5t-86 -64t-126.5 -22.5q-77 0 -152.5 22t-122.5 60l63 95q40 -32 95 -51z" />
    <glyph glyph-name="sacute" unicode="&#x15b;" horiz-adv-x="582" 
d="M188 114q55 -19 119 -19q49 0 80 18t31 46q0 38 -61 47l-138 24q-86 15 -128 55t-42 99q0 80 66 128t180 48q63 0 127 -17t117 -56l-64 -91q-35 25 -84.5 41.5t-99.5 16.5q-48 0 -80 -16.5t-32 -42.5q0 -19 17.5 -30t58.5 -18l125 -21q85 -15 126.5 -55t41.5 -101
q0 -54 -30.5 -95.5t-86 -64t-126.5 -22.5q-77 0 -152.5 22t-122.5 60l63 95q40 -32 95 -51zM339 606h-119l113 168h147v-10z" />
    <glyph glyph-name="uni1E65" unicode="&#x1e65;" horiz-adv-x="582" 
d="M188 114q55 -19 119 -19q49 0 80 18t31 46q0 38 -61 47l-138 24q-86 15 -128 55t-42 99q0 80 66 128t180 48q63 0 127 -17t117 -56l-64 -91q-35 25 -84.5 41.5t-99.5 16.5q-48 0 -80 -16.5t-32 -42.5q0 -19 17.5 -30t58.5 -18l125 -21q85 -15 126.5 -55t41.5 -101
q0 -54 -30.5 -95.5t-86 -64t-126.5 -22.5q-77 0 -152.5 22t-122.5 60l63 95q40 -32 95 -51zM350 606h-119l113 168h147v-10zM132 759q-22 21 -22 54q0 32 22 53t56 21t56 -21t22 -53q0 -33 -22 -54t-56 -21t-56 21z" />
    <glyph glyph-name="scaron" unicode="&#x161;" horiz-adv-x="582" 
d="M188 114q55 -19 119 -19q49 0 80 18t31 46q0 38 -61 47l-138 24q-86 15 -128 55t-42 99q0 80 66 128t180 48q63 0 127 -17t117 -56l-64 -91q-35 25 -84.5 41.5t-99.5 16.5q-48 0 -80 -16.5t-32 -42.5q0 -19 17.5 -30t58.5 -18l125 -21q85 -15 126.5 -55t41.5 -101
q0 -54 -30.5 -95.5t-86 -64t-126.5 -22.5q-77 0 -152.5 22t-122.5 60l63 95q40 -32 95 -51zM484 774l-119 -162h-135l-119 162h111l76 -84l75 84h111z" />
    <glyph glyph-name="uni1E67" unicode="&#x1e67;" horiz-adv-x="582" 
d="M188 114q55 -19 119 -19q49 0 80 18t31 46q0 38 -61 47l-138 24q-86 15 -128 55t-42 99q0 80 66 128t180 48q63 0 127 -17t117 -56l-64 -91q-35 25 -84.5 41.5t-99.5 16.5q-48 0 -80 -16.5t-32 -42.5q0 -19 17.5 -30t58.5 -18l125 -21q85 -15 126.5 -55t41.5 -101
q0 -54 -30.5 -95.5t-86 -64t-126.5 -22.5q-77 0 -152.5 22t-122.5 60l63 95q40 -32 95 -51zM484 774l-119 -162h-135l-119 162h111l76 -84l75 84h111zM242 836q-22 21 -22 54q0 32 22 53t56 21t56 -21t22 -53q0 -33 -22 -54t-56 -21t-56 21z" />
    <glyph glyph-name="scedilla" unicode="&#x15f;" horiz-adv-x="582" 
d="M188 114q55 -19 119 -19q49 0 80 18t31 46q0 38 -61 47l-138 24q-86 15 -128 55t-42 99q0 80 66 128t180 48q63 0 127 -17t117 -56l-64 -91q-35 25 -84.5 41.5t-99.5 16.5q-48 0 -80 -16.5t-32 -42.5q0 -19 17.5 -30t58.5 -18l125 -21q85 -15 126.5 -55t41.5 -101
q0 -54 -30.5 -95.5t-86 -64t-126.5 -22.5q-77 0 -152.5 22t-122.5 60l63 95q40 -32 95 -51zM413.5 -59q31.5 -26 31.5 -63q0 -43 -41 -69t-110 -26q-88 0 -148 35l33 55q34 -17 57.5 -23t52.5 -6q28 0 42.5 9t14.5 25q0 15 -15 24.5t-43 9.5q-26 0 -54 -7l-21 14l73 101h80
l-49 -54q4 1 13 1q52 0 83.5 -26z" />
    <glyph glyph-name="scircumflex" unicode="&#x15d;" horiz-adv-x="582" 
d="M188 114q55 -19 119 -19q49 0 80 18t31 46q0 38 -61 47l-138 24q-86 15 -128 55t-42 99q0 80 66 128t180 48q63 0 127 -17t117 -56l-64 -91q-35 25 -84.5 41.5t-99.5 16.5q-48 0 -80 -16.5t-32 -42.5q0 -19 17.5 -30t58.5 -18l125 -21q85 -15 126.5 -55t41.5 -101
q0 -54 -30.5 -95.5t-86 -64t-126.5 -22.5q-77 0 -152.5 22t-122.5 60l63 95q40 -32 95 -51zM373 612l-75 84l-76 -84h-111l119 162h135l119 -162h-111z" />
    <glyph glyph-name="scommaaccent" unicode="&#x219;" horiz-adv-x="582" 
d="M188 114q55 -19 119 -19q49 0 80 18t31 46q0 38 -61 47l-138 24q-86 15 -128 55t-42 99q0 80 66 128t180 48q63 0 127 -17t117 -56l-64 -91q-35 25 -84.5 41.5t-99.5 16.5q-48 0 -80 -16.5t-32 -42.5q0 -19 17.5 -30t58.5 -18l125 -21q85 -15 126.5 -55t41.5 -101
q0 -54 -30.5 -95.5t-86 -64t-126.5 -22.5q-77 0 -152.5 22t-122.5 60l63 95q40 -32 95 -51zM250 -54h137l-86 -161h-90z" />
    <glyph glyph-name="uni1E61" unicode="&#x1e61;" horiz-adv-x="582" 
d="M188 114q55 -19 119 -19q49 0 80 18t31 46q0 38 -61 47l-138 24q-86 15 -128 55t-42 99q0 80 66 128t180 48q63 0 127 -17t117 -56l-64 -91q-35 25 -84.5 41.5t-99.5 16.5q-48 0 -80 -16.5t-32 -42.5q0 -19 17.5 -30t58.5 -18l125 -21q85 -15 126.5 -55t41.5 -101
q0 -54 -30.5 -95.5t-86 -64t-126.5 -22.5q-77 0 -152.5 22t-122.5 60l63 95q40 -32 95 -51zM242 635q-22 21 -22 54q0 32 22 53t56 21t56 -21t22 -53q0 -33 -22 -54t-56 -21t-56 21z" />
    <glyph glyph-name="uni1E63" unicode="&#x1e63;" horiz-adv-x="582" 
d="M188 114q55 -19 119 -19q49 0 80 18t31 46q0 38 -61 47l-138 24q-86 15 -128 55t-42 99q0 80 66 128t180 48q63 0 127 -17t117 -56l-64 -91q-35 25 -84.5 41.5t-99.5 16.5q-48 0 -80 -16.5t-32 -42.5q0 -19 17.5 -30t58.5 -18l125 -21q85 -15 126.5 -55t41.5 -101
q0 -54 -30.5 -95.5t-86 -64t-126.5 -22.5q-77 0 -152.5 22t-122.5 60l63 95q40 -32 95 -51zM242 -188q-22 21 -22 54q0 32 22 53t56 21t56 -21t22 -53q0 -33 -22 -54t-56 -21t-56 21z" />
    <glyph glyph-name="uni1E69" unicode="&#x1e69;" horiz-adv-x="582" 
d="M188 114q55 -19 119 -19q49 0 80 18t31 46q0 38 -61 47l-138 24q-86 15 -128 55t-42 99q0 80 66 128t180 48q63 0 127 -17t117 -56l-64 -91q-35 25 -84.5 41.5t-99.5 16.5q-48 0 -80 -16.5t-32 -42.5q0 -19 17.5 -30t58.5 -18l125 -21q85 -15 126.5 -55t41.5 -101
q0 -54 -30.5 -95.5t-86 -64t-126.5 -22.5q-77 0 -152.5 22t-122.5 60l63 95q40 -32 95 -51zM242 -188q-22 21 -22 54q0 32 22 53t56 21t56 -21t22 -53q0 -33 -22 -54t-56 -21t-56 21zM242 635q-22 21 -22 54q0 32 22 53t56 21t56 -21t22 -53q0 -33 -22 -54t-56 -21t-56 21z
" />
    <glyph glyph-name="germandbls" unicode="&#xdf;" horiz-adv-x="698" 
d="M245.5 610.5q39.5 40.5 105.5 40.5q45 0 75.5 -21.5t30.5 -54.5q0 -17 -11.5 -33.5t-42.5 -46.5q-37 -37 -50.5 -61.5t-13.5 -49.5q0 -29 11.5 -51.5t41.5 -43.5l89 -63q33 -23 45.5 -37.5t12.5 -31.5q0 -22 -19 -38t-61 -16q-40 0 -86.5 10.5t-90.5 28.5v-117
q84 -35 182 -35q61 0 108.5 21.5t74 59t26.5 84.5q0 50 -22.5 83t-71.5 69l-80 58q-16 11 -21.5 17.5t-5.5 13.5t7 16t35 37q40 40 56 70t16 68q0 48 -30 89t-83 65t-119 24q-81 0 -143.5 -31t-97.5 -88t-35 -133v-513h128v505q0 65 39.5 105.5z" />
    <glyph glyph-name="t" unicode="t" horiz-adv-x="451" 
d="M419 125v-113q-38 -20 -103 -20q-104 0 -156 50t-52 137v261h-93v108h94v120l126 59v-179h179v-108h-179v-244q0 -45 26.5 -66.5t70.5 -21.5t87 17z" />
    <glyph glyph-name="tbar" unicode="&#x167;" horiz-adv-x="460" 
d="M431 125v-113q-38 -20 -103 -20q-104 0 -156 50t-52 137v94h-93v85h93v82h-93v108h94v120l126 59v-179h179v-108h-179v-82h179v-85h-179v-77q0 -45 26.5 -66.5t70.5 -21.5t87 17z" />
    <glyph glyph-name="tcaron" unicode="&#x165;" horiz-adv-x="442" 
d="M388 608h-84l21 218h117zM261.5 129.5q26.5 -21.5 70.5 -21.5t87 17v-113q-38 -20 -103 -20q-104 0 -156 50t-52 137v261h-93v108h94v120l126 59v-179h179v-108h-179v-244q0 -45 26.5 -66.5z" />
    <glyph glyph-name="uni0163" unicode="&#x163;" horiz-adv-x="451" 
d="M419 125v-113q-38 -20 -103 -20q-104 0 -156 50t-52 137v261h-93v108h94v120l126 59v-179h179v-108h-179v-244q0 -45 26.5 -66.5t70.5 -21.5t87 17zM356.5 -59q31.5 -26 31.5 -63q0 -43 -41 -69t-110 -26q-88 0 -148 35l33 55q34 -17 57.5 -23t52.5 -6q28 0 42.5 9
t14.5 25q0 15 -15 24.5t-43 9.5q-26 0 -54 -7l-21 14l73 101h80l-49 -54q4 1 13 1q52 0 83.5 -26z" />
    <glyph glyph-name="uni021B" unicode="&#x21b;" horiz-adv-x="451" 
d="M419 125v-113q-38 -20 -103 -20q-104 0 -156 50t-52 137v261h-93v108h94v120l126 59v-179h179v-108h-179v-244q0 -45 26.5 -66.5t70.5 -21.5t87 17zM193 -54h137l-86 -161h-90z" />
    <glyph glyph-name="uni1E97" unicode="&#x1e97;" horiz-adv-x="451" 
d="M419 125v-113q-38 -20 -103 -20q-104 0 -156 50t-52 137v261h-93v108h94v120l126 59v-179h179v-108h-179v-244q0 -45 26.5 -66.5t70.5 -21.5t87 17zM47 770q-22 20 -22 52q0 31 22 51.5t55 20.5q32 0 54 -20.5t22 -51.5q0 -32 -21.5 -52t-54.5 -20t-55 20zM281 770
q-22 20 -22 52q0 31 22 51.5t55 20.5q32 0 54 -20.5t22 -51.5q0 -32 -21.5 -52t-54.5 -20t-55 20z" />
    <glyph glyph-name="uni1E6D" unicode="&#x1e6d;" horiz-adv-x="451" 
d="M419 125v-113q-38 -20 -103 -20q-104 0 -156 50t-52 137v261h-93v108h94v120l126 59v-179h179v-108h-179v-244q0 -45 26.5 -66.5t70.5 -21.5t87 17zM185 -188q-22 21 -22 54q0 32 22 53t56 21t56 -21t22 -53q0 -33 -22 -54t-56 -21t-56 21z" />
    <glyph glyph-name="uni1E6F" unicode="&#x1e6f;" horiz-adv-x="451" 
d="M419 125v-113q-38 -20 -103 -20q-104 0 -156 50t-52 137v261h-93v108h94v120l126 59v-179h179v-108h-179v-244q0 -45 26.5 -66.5t70.5 -21.5t87 17zM75 -85h332v-98h-332v98z" />
    <glyph glyph-name="u" unicode="u" horiz-adv-x="674" 
d="M596 548v-548h-121v62q-32 -39 -80.5 -57t-100.5 -18q-66 0 -117 26t-79.5 74t-28.5 112v349h127v-323q0 -57 32.5 -88t93.5 -31q65 0 105.5 34t40.5 89v319h128z" />
    <glyph glyph-name="uacute" unicode="&#xfa;" horiz-adv-x="674" 
d="M596 548v-548h-121v62q-32 -39 -80.5 -57t-100.5 -18q-66 0 -117 26t-79.5 74t-28.5 112v349h127v-323q0 -57 32.5 -88t93.5 -31q65 0 105.5 34t40.5 89v319h128zM375 606h-119l113 168h147v-10z" />
    <glyph glyph-name="ubreve" unicode="&#x16d;" horiz-adv-x="674" 
d="M596 548v-548h-121v62q-32 -39 -80.5 -57t-100.5 -18q-66 0 -117 26t-79.5 74t-28.5 112v349h127v-323q0 -57 32.5 -88t93.5 -31q65 0 105.5 34t40.5 89v319h128zM209.5 649q-48.5 46 -48.5 125h91q1 -36 24.5 -57t57.5 -21t57.5 21t24.5 57h92q0 -79 -49 -125t-125 -46
t-124.5 46z" />
    <glyph glyph-name="ucircumflex" unicode="&#xfb;" horiz-adv-x="674" 
d="M596 548v-548h-121v62q-32 -39 -80.5 -57t-100.5 -18q-66 0 -117 26t-79.5 74t-28.5 112v349h127v-323q0 -57 32.5 -88t93.5 -31q65 0 105.5 34t40.5 89v319h128zM409 612l-75 84l-76 -84h-111l119 162h135l119 -162h-111z" />
    <glyph glyph-name="uni0215" unicode="&#x215;" horiz-adv-x="674" 
d="M596 548v-548h-121v62q-32 -39 -80.5 -57t-100.5 -18q-66 0 -117 26t-79.5 74t-28.5 112v349h127v-323q0 -57 32.5 -88t93.5 -31q65 0 105.5 34t40.5 89v319h128zM94 774h126l83 -168h-98l-111 158v10zM283 774h125l67 -168h-98l-94 158v10z" />
    <glyph glyph-name="udieresis" unicode="&#xfc;" horiz-adv-x="674" 
d="M596 548v-548h-121v62q-32 -39 -80.5 -57t-100.5 -18q-66 0 -117 26t-79.5 74t-28.5 112v349h127v-323q0 -57 32.5 -88t93.5 -31q65 0 105.5 34t40.5 89v319h128zM162 637q-22 20 -22 52q0 31 22 51.5t55 20.5q32 0 54 -20.5t22 -51.5q0 -32 -21.5 -52t-54.5 -20t-55 20z
M396 637q-22 20 -22 52q0 31 22 51.5t55 20.5q32 0 54 -20.5t22 -51.5q0 -32 -21.5 -52t-54.5 -20t-55 20z" />
    <glyph glyph-name="uni1EE5" unicode="&#x1ee5;" horiz-adv-x="674" 
d="M596 548v-548h-121v62q-32 -39 -80.5 -57t-100.5 -18q-66 0 -117 26t-79.5 74t-28.5 112v349h127v-323q0 -57 32.5 -88t93.5 -31q65 0 105.5 34t40.5 89v319h128zM278 -188q-22 21 -22 54q0 32 22 53t56 21t56 -21t22 -53q0 -33 -22 -54t-56 -21t-56 21z" />
    <glyph glyph-name="ugrave" unicode="&#xf9;" horiz-adv-x="674" 
d="M596 548v-548h-121v62q-32 -39 -80.5 -57t-100.5 -18q-66 0 -117 26t-79.5 74t-28.5 112v349h127v-323q0 -57 32.5 -88t93.5 -31q65 0 105.5 34t40.5 89v319h128zM298 768l103 -156h-118l-132 146v10h147z" />
    <glyph glyph-name="uni1EE7" unicode="&#x1ee7;" horiz-adv-x="674" 
d="M596 548v-548h-121v62q-32 -39 -80.5 -57t-100.5 -18q-66 0 -117 26t-79.5 74t-28.5 112v349h127v-323q0 -57 32.5 -88t93.5 -31q65 0 105.5 34t40.5 89v319h128zM283 619q0 27 15 48t43 45q19 15 28 26.5t9 22.5q0 15 -13 23t-33 8q-24 0 -38 -12t-15 -32h-89
q2 56 41.5 89.5t107.5 33.5q58 0 96 -30t38 -77q0 -26 -13 -46.5t-41 -46.5q-33 -30 -41.5 -39.5t-8.5 -20.5v-7h-86v15z" />
    <glyph glyph-name="uhorn" unicode="&#x1b0;" horiz-adv-x="714" 
d="M596 548v-548h-121v62q-32 -39 -80.5 -57t-100.5 -18q-66 0 -117 26t-79.5 74t-28.5 112v349h127v-323q0 -57 32.5 -88t93.5 -31q65 0 105.5 34t40.5 89v319h128zM531 467v81h43q77 0 77 66q0 36 -18 76h112q16 -29 16 -78q0 -72 -44.5 -108.5t-125.5 -36.5h-60z" />
    <glyph glyph-name="uni1EE9" unicode="&#x1ee9;" horiz-adv-x="714" 
d="M596 548v-548h-121v62q-32 -39 -80.5 -57t-100.5 -18q-66 0 -117 26t-79.5 74t-28.5 112v349h127v-323q0 -57 32.5 -88t93.5 -31q65 0 105.5 34t40.5 89v319h128zM531 467v81h43q77 0 77 66q0 36 -18 76h112q16 -29 16 -78q0 -72 -44.5 -108.5t-125.5 -36.5h-60zM375 606
h-119l113 168h147v-10z" />
    <glyph glyph-name="uni1EF1" unicode="&#x1ef1;" horiz-adv-x="714" 
d="M596 548v-548h-121v62q-32 -39 -80.5 -57t-100.5 -18q-66 0 -117 26t-79.5 74t-28.5 112v349h127v-323q0 -57 32.5 -88t93.5 -31q65 0 105.5 34t40.5 89v319h128zM531 467v81h43q77 0 77 66q0 36 -18 76h112q16 -29 16 -78q0 -72 -44.5 -108.5t-125.5 -36.5h-60z
M278 -188q-22 21 -22 54q0 32 22 53t56 21t56 -21t22 -53q0 -33 -22 -54t-56 -21t-56 21z" />
    <glyph glyph-name="uni1EEB" unicode="&#x1eeb;" horiz-adv-x="714" 
d="M596 548v-548h-121v62q-32 -39 -80.5 -57t-100.5 -18q-66 0 -117 26t-79.5 74t-28.5 112v349h127v-323q0 -57 32.5 -88t93.5 -31q65 0 105.5 34t40.5 89v319h128zM531 467v81h43q77 0 77 66q0 36 -18 76h112q16 -29 16 -78q0 -72 -44.5 -108.5t-125.5 -36.5h-60zM298 768
l103 -156h-118l-132 146v10h147z" />
    <glyph glyph-name="uni1EED" unicode="&#x1eed;" horiz-adv-x="714" 
d="M596 548v-548h-121v62q-32 -39 -80.5 -57t-100.5 -18q-66 0 -117 26t-79.5 74t-28.5 112v349h127v-323q0 -57 32.5 -88t93.5 -31q65 0 105.5 34t40.5 89v319h128zM531 467v81h43q77 0 77 66q0 36 -18 76h112q16 -29 16 -78q0 -72 -44.5 -108.5t-125.5 -36.5h-60zM283 619
q0 27 15 48t43 45q19 15 28 26.5t9 22.5q0 15 -13 23t-33 8q-24 0 -38 -12t-15 -32h-89q2 56 41.5 89.5t107.5 33.5q58 0 96 -30t38 -77q0 -26 -13 -46.5t-41 -46.5q-33 -30 -41.5 -39.5t-8.5 -20.5v-7h-86v15z" />
    <glyph glyph-name="uni1EEF" unicode="&#x1eef;" horiz-adv-x="714" 
d="M596 548v-548h-121v62q-32 -39 -80.5 -57t-100.5 -18q-66 0 -117 26t-79.5 74t-28.5 112v349h127v-323q0 -57 32.5 -88t93.5 -31q65 0 105.5 34t40.5 89v319h128zM531 467v81h43q77 0 77 66q0 36 -18 76h112q16 -29 16 -78q0 -72 -44.5 -108.5t-125.5 -36.5h-60z
M353.5 620q-23.5 12 -50.5 34q-17 13 -27 19t-20 6q-17 0 -26 -15.5t-11 -48.5h-96q2 72 35.5 114.5t95.5 42.5q34 0 58.5 -12.5t50.5 -34.5q16 -13 25.5 -19t19.5 -6q36 0 39 65h96q-2 -73 -35.5 -115t-96.5 -42q-34 0 -57.5 12z" />
    <glyph glyph-name="uhungarumlaut" unicode="&#x171;" horiz-adv-x="674" 
d="M596 548v-548h-121v62q-32 -39 -80.5 -57t-100.5 -18q-66 0 -117 26t-79.5 74t-28.5 112v349h127v-323q0 -57 32.5 -88t93.5 -31q65 0 105.5 34t40.5 89v319h128zM282 606h-98l67 168h125v-10zM454 606h-98l83 168h126v-10z" />
    <glyph glyph-name="uni0217" unicode="&#x217;" horiz-adv-x="674" 
d="M596 548v-548h-121v62q-32 -39 -80.5 -57t-100.5 -18q-66 0 -117 26t-79.5 74t-28.5 112v349h127v-323q0 -57 32.5 -88t93.5 -31q65 0 105.5 34t40.5 89v319h128zM459 731q49 -46 49 -125h-92q-1 36 -24.5 57t-57.5 21t-57.5 -21t-24.5 -57h-91q0 79 48.5 125t124.5 46
t125 -46z" />
    <glyph glyph-name="umacron" unicode="&#x16b;" horiz-adv-x="674" 
d="M596 548v-548h-121v62q-32 -39 -80.5 -57t-100.5 -18q-66 0 -117 26t-79.5 74t-28.5 112v349h127v-323q0 -57 32.5 -88t93.5 -31q65 0 105.5 34t40.5 89v319h128zM168 729h332v-98h-332v98z" />
    <glyph glyph-name="uni1E7B" unicode="&#x1e7b;" horiz-adv-x="674" 
d="M596 548v-548h-121v62q-32 -39 -80.5 -57t-100.5 -18q-66 0 -117 26t-79.5 74t-28.5 112v349h127v-323q0 -57 32.5 -88t93.5 -31q65 0 105.5 34t40.5 89v319h128zM168 729h332v-98h-332v98zM162 818q-22 20 -22 52q0 31 22 51.5t55 20.5q32 0 54 -20.5t22 -51.5
q0 -32 -21.5 -52t-54.5 -20t-55 20zM396 818q-22 20 -22 52q0 31 22 51.5t55 20.5q32 0 54 -20.5t22 -51.5q0 -32 -21.5 -52t-54.5 -20t-55 20z" />
    <glyph glyph-name="uogonek" unicode="&#x173;" horiz-adv-x="673" 
d="M613 -164q-43 -34 -116 -34q-56 0 -94 24t-38 69q0 37 28 68t81 54v56q-31 -45 -78.5 -65.5t-101.5 -20.5q-66 0 -117.5 26.5t-80 74t-28.5 110.5v350h128v-323q0 -57 32.5 -88t93.5 -31q65 0 105.5 34t40.5 89v319h127v-545q-122 -44 -122 -82q0 -15 11.5 -22.5
t29.5 -7.5q32 0 64 19z" />
    <glyph glyph-name="uring" unicode="&#x16f;" horiz-adv-x="674" 
d="M596 548v-548h-121v62q-32 -39 -80.5 -57t-100.5 -18q-66 0 -117 26t-79.5 74t-28.5 112v349h127v-323q0 -57 32.5 -88t93.5 -31q65 0 105.5 34t40.5 89v319h128zM229.5 643.5q-40.5 37.5 -40.5 95.5t40.5 95.5t102.5 37.5q63 0 103.5 -37.5t40.5 -95.5t-40.5 -95.5
t-103.5 -37.5q-62 0 -102.5 37.5zM377 694.5q18 17.5 18 44.5t-18 44.5t-45 17.5t-44.5 -17.5t-17.5 -44.5t18 -44.5t44 -17.5q27 0 45 17.5z" />
    <glyph glyph-name="utilde" unicode="&#x169;" horiz-adv-x="674" 
d="M596 548v-548h-121v62q-32 -39 -80.5 -57t-100.5 -18q-66 0 -117 26t-79.5 74t-28.5 112v349h127v-323q0 -57 32.5 -88t93.5 -31q65 0 105.5 34t40.5 89v319h128zM353.5 620q-23.5 12 -50.5 34q-17 13 -27 19t-20 6q-17 0 -26 -15.5t-11 -48.5h-96q2 72 35.5 114.5
t95.5 42.5q34 0 58.5 -12.5t50.5 -34.5q16 -13 25.5 -19t19.5 -6q36 0 39 65h96q-2 -73 -35.5 -115t-96.5 -42q-34 0 -57.5 12z" />
    <glyph glyph-name="uni1E79" unicode="&#x1e79;" horiz-adv-x="674" 
d="M596 548v-548h-121v62q-32 -39 -80.5 -57t-100.5 -18q-66 0 -117 26t-79.5 74t-28.5 112v349h127v-323q0 -57 32.5 -88t93.5 -31q65 0 105.5 34t40.5 89v319h128zM353.5 620q-23.5 12 -50.5 34q-17 13 -27 19t-20 6q-17 0 -26 -15.5t-11 -48.5h-96q2 72 35.5 114.5
t95.5 42.5q34 0 58.5 -12.5t50.5 -34.5q16 -13 25.5 -19t19.5 -6q36 0 39 65h96q-2 -73 -35.5 -115t-96.5 -42q-34 0 -57.5 12zM375 823h-119l113 168h147v-10z" />
    <glyph glyph-name="v" unicode="v" horiz-adv-x="623" 
d="M618 548l-231 -548h-152l-230 548h138l170 -423l172 423h133z" />
    <glyph glyph-name="w" unicode="w" horiz-adv-x="983" 
d="M972 548l-202 -548h-148l-128 383l-130 -383h-149l-203 548h134l146 -421l141 417h124l140 -414l146 418h129z" />
    <glyph glyph-name="wacute" unicode="&#x1e83;" horiz-adv-x="983" 
d="M972 548l-202 -548h-148l-128 383l-130 -383h-149l-203 548h134l146 -421l141 417h124l140 -414l146 418h129zM534 606h-119l113 168h147v-10z" />
    <glyph glyph-name="wcircumflex" unicode="&#x175;" horiz-adv-x="983" 
d="M972 548l-202 -548h-148l-128 383l-130 -383h-149l-203 548h134l146 -421l141 417h124l140 -414l146 418h129zM568 612l-75 84l-76 -84h-111l119 162h135l119 -162h-111z" />
    <glyph glyph-name="wdieresis" unicode="&#x1e85;" horiz-adv-x="983" 
d="M972 548l-202 -548h-148l-128 383l-130 -383h-149l-203 548h134l146 -421l141 417h124l140 -414l146 418h129zM321 637q-22 20 -22 52q0 31 22 51.5t55 20.5q32 0 54 -20.5t22 -51.5q0 -32 -21.5 -52t-54.5 -20t-55 20zM555 637q-22 20 -22 52q0 31 22 51.5t55 20.5
q32 0 54 -20.5t22 -51.5q0 -32 -21.5 -52t-54.5 -20t-55 20z" />
    <glyph glyph-name="wgrave" unicode="&#x1e81;" horiz-adv-x="983" 
d="M972 548l-202 -548h-148l-128 383l-130 -383h-149l-203 548h134l146 -421l141 417h124l140 -414l146 418h129zM457 768l103 -156h-118l-132 146v10h147z" />
    <glyph glyph-name="x" unicode="x" horiz-adv-x="610" 
d="M453 0l-149 194l-153 -194h-146l225 279l-213 269h152l138 -179l140 179h146l-214 -264l226 -284h-152z" />
    <glyph glyph-name="y" unicode="y" horiz-adv-x="622" 
d="M618 548l-268 -606q-28 -64 -77.5 -98t-114.5 -34q-32 0 -69 8t-66 23l35 104q54 -23 95 -23q29 0 53 16t37 46l9 21l-247 543h138l173 -410l170 410h132z" />
    <glyph glyph-name="yacute" unicode="&#xfd;" horiz-adv-x="622" 
d="M618 548l-268 -606q-28 -64 -77.5 -98t-114.5 -34q-32 0 -69 8t-66 23l35 104q54 -23 95 -23q29 0 53 16t37 46l9 21l-247 543h138l173 -410l170 410h132zM353 606h-119l113 168h147v-10z" />
    <glyph glyph-name="ycircumflex" unicode="&#x177;" horiz-adv-x="622" 
d="M618 548l-268 -606q-28 -64 -77.5 -98t-114.5 -34q-32 0 -69 8t-66 23l35 104q54 -23 95 -23q29 0 53 16t37 46l9 21l-247 543h138l173 -410l170 410h132zM387 612l-75 84l-76 -84h-111l119 162h135l119 -162h-111z" />
    <glyph glyph-name="ydieresis" unicode="&#xff;" horiz-adv-x="622" 
d="M618 548l-268 -606q-28 -64 -77.5 -98t-114.5 -34q-32 0 -69 8t-66 23l35 104q54 -23 95 -23q29 0 53 16t37 46l9 21l-247 543h138l173 -410l170 410h132zM140 637q-22 20 -22 52q0 31 22 51.5t55 20.5q32 0 54 -20.5t22 -51.5q0 -32 -21.5 -52t-54.5 -20t-55 20z
M374 637q-22 20 -22 52q0 31 22 51.5t55 20.5q32 0 54 -20.5t22 -51.5q0 -32 -21.5 -52t-54.5 -20t-55 20z" />
    <glyph glyph-name="uni1E8F" unicode="&#x1e8f;" horiz-adv-x="622" 
d="M618 548l-268 -606q-28 -64 -77.5 -98t-114.5 -34q-32 0 -69 8t-66 23l35 104q54 -23 95 -23q29 0 53 16t37 46l9 21l-247 543h138l173 -410l170 410h132zM256 635q-22 21 -22 54q0 32 22 53t56 21t56 -21t22 -53q0 -33 -22 -54t-56 -21t-56 21z" />
    <glyph glyph-name="uni1EF5" unicode="&#x1ef5;" horiz-adv-x="617" 
d="M618 548l-268 -606q-28 -64 -77.5 -98t-114.5 -34q-32 0 -69 8t-66 23l35 104q54 -23 95 -23q29 0 53 16t37 46l9 21l-247 543h138l173 -410l170 410h132zM526.5 -77.5q21.5 -20.5 21.5 -52.5t-21 -52t-55 -20q-33 0 -54.5 20t-21.5 52q0 31 22 52t54 21q33 0 54.5 -20.5
z" />
    <glyph glyph-name="ygrave" unicode="&#x1ef3;" horiz-adv-x="622" 
d="M618 548l-268 -606q-28 -64 -77.5 -98t-114.5 -34q-32 0 -69 8t-66 23l35 104q54 -23 95 -23q29 0 53 16t37 46l9 21l-247 543h138l173 -410l170 410h132zM276 768l103 -156h-118l-132 146v10h147z" />
    <glyph glyph-name="uni1EF7" unicode="&#x1ef7;" horiz-adv-x="622" 
d="M618 548l-268 -606q-28 -64 -77.5 -98t-114.5 -34q-32 0 -69 8t-66 23l35 104q54 -23 95 -23q29 0 53 16t37 46l9 21l-247 543h138l173 -410l170 410h132zM261 619q0 27 15 48t43 45q19 15 28 26.5t9 22.5q0 15 -13 23t-33 8q-24 0 -38 -12t-15 -32h-89q2 56 41.5 89.5
t107.5 33.5q58 0 96 -30t38 -77q0 -26 -13 -46.5t-41 -46.5q-33 -30 -41.5 -39.5t-8.5 -20.5v-7h-86v15z" />
    <glyph glyph-name="uni0233" unicode="&#x233;" horiz-adv-x="622" 
d="M618 548l-268 -606q-28 -64 -77.5 -98t-114.5 -34q-32 0 -69 8t-66 23l35 104q54 -23 95 -23q29 0 53 16t37 46l9 21l-247 543h138l173 -410l170 410h132zM146 729h332v-98h-332v98z" />
    <glyph glyph-name="uni1EF9" unicode="&#x1ef9;" horiz-adv-x="622" 
d="M618 548l-268 -606q-28 -64 -77.5 -98t-114.5 -34q-32 0 -69 8t-66 23l35 104q54 -23 95 -23q29 0 53 16t37 46l9 21l-247 543h138l173 -410l170 410h132zM331.5 620q-23.5 12 -50.5 34q-17 13 -27 19t-20 6q-17 0 -26 -15.5t-11 -48.5h-96q2 72 35.5 114.5t95.5 42.5
q34 0 58.5 -12.5t50.5 -34.5q16 -13 25.5 -19t19.5 -6q36 0 39 65h96q-2 -73 -35.5 -115t-96.5 -42q-34 0 -57.5 12z" />
    <glyph glyph-name="z" unicode="z" horiz-adv-x="569" 
d="M534 107v-107h-490v93l313 349h-298v106h464v-93l-312 -348h323z" />
    <glyph glyph-name="zacute" unicode="&#x17a;" horiz-adv-x="569" 
d="M534 107v-107h-490v93l313 349h-298v106h464v-93l-312 -348h323zM334 606h-119l113 168h147v-10z" />
    <glyph glyph-name="zcaron" unicode="&#x17e;" horiz-adv-x="569" 
d="M534 107v-107h-490v93l313 349h-298v106h464v-93l-312 -348h323zM479 774l-119 -162h-135l-119 162h111l76 -84l75 84h111z" />
    <glyph glyph-name="zdotaccent" unicode="&#x17c;" horiz-adv-x="569" 
d="M534 107v-107h-490v93l313 349h-298v106h464v-93l-312 -348h323zM237 635q-22 21 -22 54q0 32 22 53t56 21t56 -21t22 -53q0 -33 -22 -54t-56 -21t-56 21z" />
    <glyph glyph-name="uni1E93" unicode="&#x1e93;" horiz-adv-x="569" 
d="M534 107v-107h-490v93l313 349h-298v106h464v-93l-312 -348h323zM237 -188q-22 21 -22 54q0 32 22 53t56 21t56 -21t22 -53q0 -33 -22 -54t-56 -21t-56 21z" />
    <glyph glyph-name="germandbls.case" horiz-adv-x="793" 
d="M532 269.5q52 -22.5 75 -43.5t23 -46q0 -36 -36 -54.5t-102 -18.5q-43 0 -93.5 9.5t-98.5 29.5v-125q51 -19 98 -26.5t105 -7.5q78 0 138 24t93 68t33 101q0 55 -23.5 93t-73 69t-137.5 66l195 229q-53 42 -134 69t-187 27q-103 0 -178.5 -34.5t-115 -99t-39.5 -151.5
v-448h133v442q0 80 53 125t147 45q73 0 131 -23l-153 -178v-89q95 -30 147 -52.5z" />
    <glyph glyph-name="f_j" horiz-adv-x="695" 
d="M617 -25q0 -76 -46.5 -119t-126.5 -43q-37 0 -72 11v107q26 -7 45 -7q35 0 53.5 16.5t18.5 46.5v453h-249v-440h-127v440h-93v108h93v43q0 49 24.5 89t67.5 62.5t94 22.5t85 -11v-106q-33 8 -63 8q-35 0 -58.5 -20.5t-23.5 -51.5v-36h378v-573zM497 635q-22 21 -22 54
q0 32 22 53t56 21t56 -21t22 -53q0 -33 -22 -54t-56 -21t-56 21z" />
    <glyph glyph-name="ordfeminine" unicode="&#xaa;" horiz-adv-x="531" 
d="M522 363v-89q-16 -8 -41 -8q-40 0 -70.5 15.5t-42.5 47.5q-28 -36 -72.5 -53t-93.5 -17q-75 0 -127 36t-52 102q0 71 66 111t189 40h80q-2 41 -31.5 63.5t-77.5 22.5q-33 0 -69.5 -10.5t-68.5 -34.5l-56 84q40 30 93 45t105 15q99 0 157 -48.5t58 -135.5v-155
q0 -17 10 -25.5t25 -8.5q7 0 19 3zM307.5 380q42.5 28 49.5 86h-76q-77 0 -111.5 -17.5t-34.5 -45.5q0 -23 20 -37t58 -14q52 0 94.5 28z" />
    <glyph glyph-name="ordmasculine" unicode="&#xba;" horiz-adv-x="559" 
d="M150.5 290.5q-56.5 31.5 -87 85t-30.5 119.5t30.5 120.5t87 86t129.5 31.5t129 -31.5t87 -86t31 -120.5q0 -65 -31 -119t-87 -85.5t-129 -31.5t-129.5 31.5zM375 399.5q38 37.5 38 95.5q0 59 -38 97t-95 38t-95 -38t-38 -97q0 -58 38 -95.5t95 -37.5t95 37.5z" />
    <glyph glyph-name="pi" unicode="&#x3c0;" horiz-adv-x="759" 
d="M587 440v-290q0 -47 50 -47q23 0 44 9v-111q-32 -13 -74 -13q-67 0 -107 36.5t-40 99.5v316h-181v-440h-127v440h-137v108h712v-108h-140z" />
    <glyph glyph-name="zero" unicode="0" horiz-adv-x="753" 
d="M204.5 33q-73.5 46 -113 130.5t-39.5 196.5t39.5 196.5t113 130.5t172.5 46t172 -46t112.5 -130.5t39.5 -196.5t-39.5 -196.5t-112.5 -130.5t-172 -46t-172.5 46zM515.5 174.5q51.5 68.5 51.5 185.5t-51.5 185.5t-138.5 68.5q-88 0 -139.5 -68.5t-51.5 -185.5
t51.5 -185.5t139.5 -68.5q87 0 138.5 68.5z" />
    <glyph glyph-name="one" unicode="1" horiz-adv-x="451" 
d="M351 720v-720h-131v527q-38 -33 -82.5 -55t-101.5 -37v115q153 40 202 170h113z" />
    <glyph glyph-name="two" unicode="2" horiz-adv-x="664" 
d="M122 533q41 36 97 58.5t111 22.5q63 0 102 -28.5t39 -74.5q0 -35 -23 -64t-58 -51.5t-96 -55.5q-83 -44 -135 -80t-89 -91.5t-37 -131.5v-37h585v116h-434q22 37 62.5 64.5t118.5 70.5q78 41 126 74t81.5 81.5t33.5 113.5q0 62 -33 110.5t-94 75.5t-143 27
q-85 0 -159.5 -27t-132.5 -79z" />
    <glyph glyph-name="three" unicode="3" horiz-adv-x="671" 
d="M520 400q50 -32 76 -79.5t26 -100.5q0 -65 -34.5 -118t-103.5 -84t-168 -31q-86 0 -169.5 28t-131.5 74l74 98q43 -36 105.5 -58.5t122.5 -22.5q79 0 125 31.5t46 82.5t-44 82.5t-107 31.5q-51 0 -97 -19l-55 62l238 227h-365v116h527v-107l-186 -176q71 -5 121 -37z" />
    <glyph glyph-name="four" unicode="4" horiz-adv-x="701" 
d="M672 164h-104v-164h-128v164h-410v104l378 452h160v-443h104v-113zM440 277v314l-261 -314h261z" />
    <glyph glyph-name="five" unicode="5" horiz-adv-x="681" 
d="M509.5 439.5q60.5 -30.5 94 -85t33.5 -123.5q0 -71 -37 -126.5t-105.5 -86.5t-160.5 -31q-85 0 -168.5 28.5t-131.5 73.5l74 98q42 -36 105 -58.5t122 -22.5q75 0 121.5 34t46.5 91t-43 93t-113 36q-108 0 -171 -70h-104l48 430h471v-116h-365l-22 -184q62 50 167 50
q78 0 138.5 -30.5z" />
    <glyph glyph-name="six" unicode="6" horiz-adv-x="709" 
d="M540 441.5q63 -30.5 97.5 -85t34.5 -122.5q0 -71 -37 -127t-103.5 -88t-151.5 -32q-95 0 -169 43t-115.5 125t-41.5 196q0 119 45.5 205.5t125.5 131.5t180 45q64 0 125.5 -17t110.5 -54l-62 -102q-81 58 -177 58q-59 0 -108 -29.5t-77.5 -81.5t-28.5 -118v-2
q34 43 87.5 64t120.5 21q81 0 144 -30.5zM493 141.5q45 36.5 45 92.5t-45 92t-117 36q-71 0 -117 -36t-46 -93q0 -36 22 -65.5t59.5 -46t82.5 -16.5q71 0 116 36.5z" />
    <glyph glyph-name="seven" unicode="7" horiz-adv-x="617" 
d="M581 720v-104q-108 -124 -180 -284t-97 -332h-145q33 173 104.5 330t176.5 276h-411v114h552z" />
    <glyph glyph-name="eight" unicode="8" horiz-adv-x="727" 
d="M645 305q37 -48 37 -103q0 -59 -37.5 -108t-109.5 -78t-171 -29t-171.5 29t-110 78t-37.5 108q0 55 37 103t111 71q-53 26 -79.5 67t-26.5 86q0 55 33.5 101.5t96.5 74.5t147 28t146.5 -28t96 -74.5t33.5 -101.5q0 -45 -26.5 -86t-79.5 -67q74 -23 111 -71zM258.5 591
q-40.5 -27 -40.5 -69t41 -70.5t105 -28.5t104.5 28.5t40.5 70.5t-40.5 69t-104.5 27q-65 0 -105.5 -27zM496 132.5q52 29.5 52 76.5t-52 75t-132 28q-81 0 -133 -28t-52 -75t52.5 -76.5t132.5 -29.5t132 29.5z" />
    <glyph glyph-name="nine" unicode="9" horiz-adv-x="709" 
d="M498 690q74 -43 115.5 -125t41.5 -196q0 -123 -44 -209t-123.5 -129.5t-184.5 -43.5q-59 0 -122.5 17t-111.5 54l62 100q38 -28 84.5 -42t91.5 -14q63 0 111 27.5t75 79t27 120.5q-35 -43 -88 -64t-119 -21q-81 0 -143.5 30.5t-97.5 85t-35 123.5q0 72 37 129t103.5 89
t151.5 32q95 0 169 -43zM450.5 390.5q45.5 36.5 45.5 93.5q0 58 -46.5 94.5t-116.5 36.5q-71 0 -116.5 -37t-45.5 -95q0 -56 45.5 -92.5t117.5 -36.5q71 0 116.5 36.5z" />
    <glyph glyph-name="zero.subs" horiz-adv-x="491" 
d="M92.5 -30q-55.5 61 -55.5 165q0 103 55.5 164t152.5 61t153 -61t56 -164t-56 -164.5t-153 -61.5t-152.5 61zM319 39q27 35 27 96t-27 96t-74 35t-74 -35t-27 -96t27 -96t74 -35t74 35z" />
    <glyph glyph-name="one.subs" horiz-adv-x="314" 
d="M241 352v-435h-105v290q-24 -18 -51.5 -29.5t-63.5 -20.5v92q100 27 129 103h91z" />
    <glyph glyph-name="two.subs" horiz-adv-x="437" 
d="M93 218q26 24 59 35.5t63 11.5q32 0 52 -13t20 -35q0 -23 -22 -40.5t-72 -43.5q-52 -27 -85.5 -50t-57.5 -59.5t-24 -87.5v-19h376v93h-241q23 20 85 51q48 25 77.5 45t50.5 49.5t21 69.5q0 61 -47 98t-129 37q-110 0 -185 -66z" />
    <glyph glyph-name="uni2080" unicode="&#x2080;" horiz-adv-x="491" 
d="M92.5 -30q-55.5 61 -55.5 165q0 103 55.5 164t152.5 61t153 -61t56 -164t-56 -164.5t-153 -61.5t-152.5 61zM319 39q27 35 27 96t-27 96t-74 35t-74 -35t-27 -96t27 -96t74 -35t74 35z" />
    <glyph glyph-name="uni2081" unicode="&#x2081;" horiz-adv-x="314" 
d="M241 352v-435h-105v290q-24 -18 -51.5 -29.5t-63.5 -20.5v92q100 27 129 103h91z" />
    <glyph glyph-name="uni2082" unicode="&#x2082;" horiz-adv-x="437" 
d="M93 218q26 24 59 35.5t63 11.5q32 0 52 -13t20 -35q0 -23 -22 -40.5t-72 -43.5q-52 -27 -85.5 -50t-57.5 -59.5t-24 -87.5v-19h376v93h-241q23 20 85 51q48 25 77.5 45t50.5 49.5t21 69.5q0 61 -47 98t-129 37q-110 0 -185 -66z" />
    <glyph glyph-name="uni2083" unicode="&#x2083;" horiz-adv-x="434" 
d="M375.5 135q30.5 -37 30.5 -82q0 -39 -22 -71.5t-66 -52.5t-107 -20q-60 0 -113 18t-84 47l56 79q63 -50 140 -50q43 0 65.5 14.5t22.5 38.5q0 23 -21 37.5t-57 14.5q-18 0 -33 -4t-24 -9l-43 44l134 120h-214v93h343v-85l-100 -86q62 -9 92.5 -46z" />
    <glyph glyph-name="uni2084" unicode="&#x2084;" horiz-adv-x="459" 
d="M440 11h-61v-94h-103v94h-248v84l222 257h129v-250h61v-91zM276 102v148l-126 -148h126z" />
    <glyph glyph-name="uni2085" unicode="&#x2085;" horiz-adv-x="439" 
d="M364 164.5q47 -40.5 47 -105.5q0 -67 -52.5 -108.5t-141.5 -41.5q-56 0 -110.5 18.5t-85.5 47.5l58 78q27 -22 64.5 -35.5t73.5 -13.5q39 0 63 14.5t24 40.5t-22.5 42.5t-59.5 16.5q-57 0 -94 -30h-82l30 264h304v-93h-220l-10 -81q36 27 92 27q75 0 122 -40.5z" />
    <glyph glyph-name="uni2086" unicode="&#x2086;" horiz-adv-x="461" 
d="M352.5 187q39.5 -19 61.5 -52t22 -74q0 -44 -23.5 -78.5t-66.5 -54t-99 -19.5q-59 0 -107 25t-75.5 75t-27.5 122t30 123.5t81.5 78.5t115.5 27q92 0 153 -41l-47 -83q-26 17 -52 24.5t-57 7.5q-47 0 -81.5 -30.5t-34.5 -73.5v-2q41 44 117 44q51 0 90.5 -19zM305 19.5
q24 16.5 24 41.5t-23.5 41.5t-61.5 16.5t-61.5 -16t-23.5 -42t24 -42t60 -16q38 0 62 16.5z" />
    <glyph glyph-name="uni2087" unicode="&#x2087;" horiz-adv-x="406" 
d="M377 352v-83q-139 -157 -167 -352h-116q20 99 63.5 187t108.5 158h-241v90h352z" />
    <glyph glyph-name="uni2088" unicode="&#x2088;" horiz-adv-x="472" 
d="M419.5 100q20.5 -28 20.5 -58q0 -36 -23.5 -66.5t-69.5 -48.5t-111 -18t-111.5 18t-70 48.5t-23.5 66.5q0 30 20.5 58t63.5 42q-30 17 -43.5 41t-13.5 48q0 35 21 64.5t61.5 47t95.5 17.5t95 -17.5t61 -47t21 -64.5q0 -24 -13.5 -48t-43.5 -41q43 -14 63.5 -42z
M181 257.5q-21 -12.5 -21 -32.5t21 -32.5t55 -12.5t54.5 12.5t20.5 32.5t-20.5 32.5t-54.5 12.5t-55 -12.5zM307 12.5q28 13.5 28 34.5t-28 33t-71 12q-44 0 -71.5 -12t-27.5 -33q0 -22 28 -35t71 -13t71 13.5z" />
    <glyph glyph-name="uni2089" unicode="&#x2089;" horiz-adv-x="461" 
d="M365.5 303q58.5 -57 58.5 -164q0 -113 -61.5 -171.5t-166.5 -58.5q-37 0 -78 9.5t-72 31.5l48 81q47 -30 105 -30q53 0 85 27.5t32 75.5v1q-42 -42 -116 -42q-78 0 -126.5 41t-48.5 105q0 44 24 78t67 53.5t99 19.5q92 0 150.5 -57zM280 166q23 16 23 42t-24 42.5
t-60 16.5q-39 0 -63 -16.5t-24 -41.5q0 -26 24 -42.5t63 -16.5q38 0 61 16z" />
    <glyph glyph-name="three.subs" horiz-adv-x="434" 
d="M375.5 135q30.5 -37 30.5 -82q0 -39 -22 -71.5t-66 -52.5t-107 -20q-60 0 -113 18t-84 47l56 79q63 -50 140 -50q43 0 65.5 14.5t22.5 38.5q0 23 -21 37.5t-57 14.5q-18 0 -33 -4t-24 -9l-43 44l134 120h-214v93h343v-85l-100 -86q62 -9 92.5 -46z" />
    <glyph glyph-name="four.subs" horiz-adv-x="459" 
d="M440 11h-61v-94h-103v94h-248v84l222 257h129v-250h61v-91zM276 102v148l-126 -148h126z" />
    <glyph glyph-name="five.subs" horiz-adv-x="439" 
d="M364 164.5q47 -40.5 47 -105.5q0 -67 -52.5 -108.5t-141.5 -41.5q-56 0 -110.5 18.5t-85.5 47.5l58 78q27 -22 64.5 -35.5t73.5 -13.5q39 0 63 14.5t24 40.5t-22.5 42.5t-59.5 16.5q-57 0 -94 -30h-82l30 264h304v-93h-220l-10 -81q36 27 92 27q75 0 122 -40.5z" />
    <glyph glyph-name="six.subs" horiz-adv-x="461" 
d="M352.5 187q39.5 -19 61.5 -52t22 -74q0 -44 -23.5 -78.5t-66.5 -54t-99 -19.5q-59 0 -107 25t-75.5 75t-27.5 122t30 123.5t81.5 78.5t115.5 27q92 0 153 -41l-47 -83q-26 17 -52 24.5t-57 7.5q-47 0 -81.5 -30.5t-34.5 -73.5v-2q41 44 117 44q51 0 90.5 -19zM305 19.5
q24 16.5 24 41.5t-23.5 41.5t-61.5 16.5t-61.5 -16t-23.5 -42t24 -42t60 -16q38 0 62 16.5z" />
    <glyph glyph-name="seven.subs" horiz-adv-x="406" 
d="M377 352v-83q-139 -157 -167 -352h-116q20 99 63.5 187t108.5 158h-241v90h352z" />
    <glyph glyph-name="eight.subs" horiz-adv-x="472" 
d="M419.5 100q20.5 -28 20.5 -58q0 -36 -23.5 -66.5t-69.5 -48.5t-111 -18t-111.5 18t-70 48.5t-23.5 66.5q0 30 20.5 58t63.5 42q-30 17 -43.5 41t-13.5 48q0 35 21 64.5t61.5 47t95.5 17.5t95 -17.5t61 -47t21 -64.5q0 -24 -13.5 -48t-43.5 -41q43 -14 63.5 -42z
M181 257.5q-21 -12.5 -21 -32.5t21 -32.5t55 -12.5t54.5 12.5t20.5 32.5t-20.5 32.5t-54.5 12.5t-55 -12.5zM307 12.5q28 13.5 28 34.5t-28 33t-71 12q-44 0 -71.5 -12t-27.5 -33q0 -22 28 -35t71 -13t71 13.5z" />
    <glyph glyph-name="nine.subs" horiz-adv-x="461" 
d="M365.5 303q58.5 -57 58.5 -164q0 -113 -61.5 -171.5t-166.5 -58.5q-37 0 -78 9.5t-72 31.5l48 81q47 -30 105 -30q53 0 85 27.5t32 75.5v1q-42 -42 -116 -42q-78 0 -126.5 41t-48.5 105q0 44 24 78t67 53.5t99 19.5q92 0 150.5 -57zM280 166q23 16 23 42t-24 42.5
t-60 16.5q-39 0 -63 -16.5t-24 -41.5q0 -26 24 -42.5t63 -16.5q38 0 61 16z" />
    <glyph glyph-name="zero.dnom" horiz-adv-x="491" 
d="M92.5 53q-55.5 61 -55.5 165q0 103 55.5 164t152.5 61t153 -61t56 -164t-56 -164.5t-153 -61.5t-152.5 61zM319 122q27 35 27 96t-27 96t-74 35t-74 -35t-27 -96t27 -96t74 -35t74 35z" />
    <glyph glyph-name="one.dnom" horiz-adv-x="314" 
d="M241 435v-435h-105v290q-24 -18 -51.5 -29.5t-63.5 -20.5v92q100 27 129 103h91z" />
    <glyph glyph-name="two.dnom" horiz-adv-x="437" 
d="M93 301q26 24 59 35.5t63 11.5q32 0 52 -13t20 -35q0 -23 -22 -40.5t-72 -43.5q-52 -27 -85.5 -50t-57.5 -59.5t-24 -87.5v-19h376v93h-241q23 20 85 51q48 25 77.5 45t50.5 49.5t21 69.5q0 61 -47 98t-129 37q-110 0 -185 -66z" />
    <glyph glyph-name="three.dnom" horiz-adv-x="434" 
d="M375.5 219q30.5 -37 30.5 -82q0 -39 -22 -71.5t-66 -52.5t-107 -20q-60 0 -113 18t-84 47l56 79q63 -50 140 -50q43 0 65.5 14.5t22.5 38.5q0 23 -21 37.5t-57 14.5q-18 0 -33 -4t-24 -9l-43 44l134 120h-214v93h343v-85l-100 -86q62 -9 92.5 -46z" />
    <glyph glyph-name="four.dnom" horiz-adv-x="459" 
d="M440 94h-61v-94h-103v94h-248v84l222 257h129v-250h61v-91zM276 185v148l-126 -148h126z" />
    <glyph glyph-name="five.dnom" horiz-adv-x="439" 
d="M364 247.5q47 -40.5 47 -105.5q0 -67 -52.5 -108.5t-141.5 -41.5q-56 0 -110.5 18.5t-85.5 47.5l58 78q27 -22 64.5 -35.5t73.5 -13.5q39 0 63 14.5t24 40.5t-22.5 42.5t-59.5 16.5q-57 0 -94 -30h-82l30 264h304v-93h-220l-10 -81q36 27 92 27q75 0 122 -40.5z" />
    <glyph glyph-name="six.dnom" horiz-adv-x="461" 
d="M352.5 270q39.5 -19 61.5 -52t22 -74q0 -44 -23.5 -78.5t-66.5 -54t-99 -19.5q-59 0 -107 25t-75.5 75t-27.5 122t30 123.5t81.5 78.5t115.5 27q92 0 153 -41l-47 -83q-26 17 -52 24.5t-57 7.5q-47 0 -81.5 -30.5t-34.5 -73.5v-2q41 44 117 44q51 0 90.5 -19zM305 102.5
q24 16.5 24 41.5t-23.5 41.5t-61.5 16.5t-61.5 -16t-23.5 -42t24 -42t60 -16q38 0 62 16.5z" />
    <glyph glyph-name="seven.dnom" horiz-adv-x="406" 
d="M377 435v-83q-139 -157 -167 -352h-116q20 99 63.5 187t108.5 158h-241v90h352z" />
    <glyph glyph-name="eight.dnom" horiz-adv-x="472" 
d="M419.5 183q20.5 -28 20.5 -58q0 -36 -23.5 -66.5t-69.5 -48.5t-111 -18t-111.5 18t-70 48.5t-23.5 66.5q0 30 20.5 58t63.5 42q-30 17 -43.5 41t-13.5 48q0 35 21 64.5t61.5 47t95.5 17.5t95 -17.5t61 -47t21 -64.5q0 -24 -13.5 -48t-43.5 -41q43 -14 63.5 -42z
M181 340.5q-21 -12.5 -21 -32.5t21 -32.5t55 -12.5t54.5 12.5t20.5 32.5t-20.5 32.5t-54.5 12.5t-55 -12.5zM307 95.5q28 13.5 28 34.5t-28 33t-71 12q-44 0 -71.5 -12t-27.5 -33q0 -22 28 -35t71 -13t71 13.5z" />
    <glyph glyph-name="nine.dnom" horiz-adv-x="461" 
d="M365.5 386q58.5 -57 58.5 -164q0 -113 -61.5 -171.5t-166.5 -58.5q-37 0 -78 9.5t-72 31.5l48 81q47 -30 105 -30q53 0 85 27.5t32 75.5v1q-42 -42 -116 -42q-78 0 -126.5 41t-48.5 105q0 44 24 78t67 53.5t99 19.5q92 0 150.5 -57zM280 249q23 16 23 42t-24 42.5
t-60 16.5q-39 0 -63 -16.5t-24 -41.5q0 -26 24 -42.5t63 -16.5q38 0 61 16z" />
    <glyph glyph-name="zero.numr" horiz-adv-x="491" 
d="M92.5 338q-55.5 61 -55.5 165q0 103 55.5 164t152.5 61t153 -61t56 -164t-56 -164.5t-153 -61.5t-152.5 61zM319 407q27 35 27 96t-27 96t-74 35t-74 -35t-27 -96t27 -96t74 -35t74 35z" />
    <glyph glyph-name="one.numr" horiz-adv-x="314" 
d="M241 720v-435h-105v290q-24 -18 -51.5 -29.5t-63.5 -20.5v92q100 27 129 103h91z" />
    <glyph glyph-name="two.numr" horiz-adv-x="437" 
d="M93 586q26 24 59 35.5t63 11.5q32 0 52 -13t20 -35q0 -23 -22 -40.5t-72 -43.5q-52 -27 -85.5 -50t-57.5 -59.5t-24 -87.5v-19h376v93h-241q23 20 85 51q48 25 77.5 45t50.5 49.5t21 69.5q0 61 -47 98t-129 37q-110 0 -185 -66z" />
    <glyph glyph-name="three.numr" horiz-adv-x="434" 
d="M375.5 503q30.5 -37 30.5 -82q0 -39 -22 -71.5t-66 -52.5t-107 -20q-60 0 -113 18t-84 47l56 79q63 -50 140 -50q43 0 65.5 14.5t22.5 38.5q0 23 -21 37.5t-57 14.5q-18 0 -33 -4t-24 -9l-43 44l134 120h-214v93h343v-85l-100 -86q62 -9 92.5 -46z" />
    <glyph glyph-name="four.numr" horiz-adv-x="459" 
d="M440 379h-61v-94h-103v94h-248v84l222 257h129v-250h61v-91zM276 470v148l-126 -148h126z" />
    <glyph glyph-name="five.numr" horiz-adv-x="439" 
d="M364 532.5q47 -40.5 47 -105.5q0 -67 -52.5 -108.5t-141.5 -41.5q-56 0 -110.5 18.5t-85.5 47.5l58 78q27 -22 64.5 -35.5t73.5 -13.5q39 0 63 14.5t24 40.5t-22.5 42.5t-59.5 16.5q-57 0 -94 -30h-82l30 264h304v-93h-220l-10 -81q36 27 92 27q75 0 122 -40.5z" />
    <glyph glyph-name="six.numr" horiz-adv-x="461" 
d="M352.5 555q39.5 -19 61.5 -52t22 -74q0 -44 -23.5 -78.5t-66.5 -54t-99 -19.5q-59 0 -107 25t-75.5 75t-27.5 122t30 123.5t81.5 78.5t115.5 27q92 0 153 -41l-47 -83q-26 17 -52 24.5t-57 7.5q-47 0 -81.5 -30.5t-34.5 -73.5v-2q41 44 117 44q51 0 90.5 -19zM305 387.5
q24 16.5 24 41.5t-23.5 41.5t-61.5 16.5t-61.5 -16t-23.5 -42t24 -42t60 -16q38 0 62 16.5z" />
    <glyph glyph-name="seven.numr" horiz-adv-x="406" 
d="M377 720v-83q-139 -157 -167 -352h-116q20 99 63.5 187t108.5 158h-241v90h352z" />
    <glyph glyph-name="eight.numr" horiz-adv-x="472" 
d="M419.5 468q20.5 -28 20.5 -58q0 -36 -23.5 -66.5t-69.5 -48.5t-111 -18t-111.5 18t-70 48.5t-23.5 66.5q0 30 20.5 58t63.5 42q-30 17 -43.5 41t-13.5 48q0 35 21 64.5t61.5 47t95.5 17.5t95 -17.5t61 -47t21 -64.5q0 -24 -13.5 -48t-43.5 -41q43 -14 63.5 -42z
M181 625.5q-21 -12.5 -21 -32.5t21 -32.5t55 -12.5t54.5 12.5t20.5 32.5t-20.5 32.5t-54.5 12.5t-55 -12.5zM307 380.5q28 13.5 28 34.5t-28 33t-71 12q-44 0 -71.5 -12t-27.5 -33q0 -22 28 -35t71 -13t71 13.5z" />
    <glyph glyph-name="nine.numr" horiz-adv-x="461" 
d="M365.5 671q58.5 -57 58.5 -164q0 -113 -61.5 -171.5t-166.5 -58.5q-37 0 -78 9.5t-72 31.5l48 81q47 -30 105 -30q53 0 85 27.5t32 75.5v1q-42 -42 -116 -42q-78 0 -126.5 41t-48.5 105q0 44 24 78t67 53.5t99 19.5q92 0 150.5 -57zM280 534q23 16 23 42t-24 42.5
t-60 16.5q-39 0 -63 -16.5t-24 -41.5q0 -26 24 -42.5t63 -16.5q38 0 61 16z" />
    <glyph glyph-name="uni2070" unicode="&#x2070;" horiz-adv-x="491" 
d="M92.5 370q-55.5 61 -55.5 165q0 103 55.5 164t152.5 61t153 -61t56 -164t-56 -164.5t-153 -61.5t-152.5 61zM319 439q27 35 27 96t-27 96t-74 35t-74 -35t-27 -96t27 -96t74 -35t74 35z" />
    <glyph glyph-name="uni00B9" unicode="&#xb9;" horiz-adv-x="314" 
d="M241 752v-435h-105v290q-24 -18 -51.5 -29.5t-63.5 -20.5v92q100 27 129 103h91z" />
    <glyph glyph-name="uni00B2" unicode="&#xb2;" horiz-adv-x="437" 
d="M93 618q26 24 59 35.5t63 11.5q32 0 52 -13t20 -35q0 -23 -22 -40.5t-72 -43.5q-52 -27 -85.5 -50t-57.5 -59.5t-24 -87.5v-19h376v93h-241q23 20 85 51q48 25 77.5 45t50.5 49.5t21 69.5q0 61 -47 98t-129 37q-110 0 -185 -66z" />
    <glyph glyph-name="uni00B3" unicode="&#xb3;" horiz-adv-x="434" 
d="M375.5 535q30.5 -37 30.5 -82q0 -39 -22 -71.5t-66 -52.5t-107 -20q-60 0 -113 18t-84 47l56 79q63 -50 140 -50q43 0 65.5 14.5t22.5 38.5q0 23 -21 37.5t-57 14.5q-18 0 -33 -4t-24 -9l-43 44l134 120h-214v93h343v-85l-100 -86q62 -9 92.5 -46z" />
    <glyph glyph-name="uni2074" unicode="&#x2074;" horiz-adv-x="459" 
d="M440 411h-61v-94h-103v94h-248v84l222 257h129v-250h61v-91zM276 502v148l-126 -148h126z" />
    <glyph glyph-name="uni2075" unicode="&#x2075;" horiz-adv-x="439" 
d="M364 564.5q47 -40.5 47 -105.5q0 -67 -52.5 -108.5t-141.5 -41.5q-56 0 -110.5 18.5t-85.5 47.5l58 78q27 -22 64.5 -35.5t73.5 -13.5q39 0 63 14.5t24 40.5t-22.5 42.5t-59.5 16.5q-57 0 -94 -30h-82l30 264h304v-93h-220l-10 -81q36 27 92 27q75 0 122 -40.5z" />
    <glyph glyph-name="uni2076" unicode="&#x2076;" horiz-adv-x="461" 
d="M352.5 587q39.5 -19 61.5 -52t22 -74q0 -44 -23.5 -78.5t-66.5 -54t-99 -19.5q-59 0 -107 25t-75.5 75t-27.5 122t30 123.5t81.5 78.5t115.5 27q92 0 153 -41l-47 -83q-26 17 -52 24.5t-57 7.5q-47 0 -81.5 -30.5t-34.5 -73.5v-2q41 44 117 44q51 0 90.5 -19zM305 419.5
q24 16.5 24 41.5t-23.5 41.5t-61.5 16.5t-61.5 -16t-23.5 -42t24 -42t60 -16q38 0 62 16.5z" />
    <glyph glyph-name="uni2077" unicode="&#x2077;" horiz-adv-x="406" 
d="M377 752v-83q-139 -157 -167 -352h-116q20 99 63.5 187t108.5 158h-241v90h352z" />
    <glyph glyph-name="uni2078" unicode="&#x2078;" horiz-adv-x="472" 
d="M419.5 500q20.5 -28 20.5 -58q0 -36 -23.5 -66.5t-69.5 -48.5t-111 -18t-111.5 18t-70 48.5t-23.5 66.5q0 30 20.5 58t63.5 42q-30 17 -43.5 41t-13.5 48q0 35 21 64.5t61.5 47t95.5 17.5t95 -17.5t61 -47t21 -64.5q0 -24 -13.5 -48t-43.5 -41q43 -14 63.5 -42z
M181 657.5q-21 -12.5 -21 -32.5t21 -32.5t55 -12.5t54.5 12.5t20.5 32.5t-20.5 32.5t-54.5 12.5t-55 -12.5zM307 412.5q28 13.5 28 34.5t-28 33t-71 12q-44 0 -71.5 -12t-27.5 -33q0 -22 28 -35t71 -13t71 13.5z" />
    <glyph glyph-name="uni2079" unicode="&#x2079;" horiz-adv-x="461" 
d="M365.5 703q58.5 -57 58.5 -164q0 -113 -61.5 -171.5t-166.5 -58.5q-37 0 -78 9.5t-72 31.5l48 81q47 -30 105 -30q53 0 85 27.5t32 75.5v1q-42 -42 -116 -42q-78 0 -126.5 41t-48.5 105q0 44 24 78t67 53.5t99 19.5q92 0 150.5 -57zM280 566q23 16 23 42t-24 42.5
t-60 16.5q-39 0 -63 -16.5t-24 -41.5q0 -26 24 -42.5t63 -16.5q38 0 61 16z" />
    <glyph glyph-name="fraction" unicode="&#x2044;" horiz-adv-x="233" 
d="M407 720l-486 -720h-95l486 720h95z" />
    <glyph glyph-name="onehalf" unicode="&#xbd;" horiz-adv-x="999" 
d="M254 720v-435h-105v290q-24 -18 -51.5 -29.5t-63.5 -20.5v92q100 27 129 103h91zM737 720l-486 -720h-95l486 720h95zM655 301q26 24 59 35.5t63 11.5q32 0 52 -13t20 -35q0 -23 -22 -40.5t-72 -43.5q-52 -27 -85.5 -50t-57.5 -59.5t-24 -87.5v-19h376v93h-241
q23 20 85 51q48 25 77.5 45t50.5 49.5t21 69.5q0 61 -47 98t-129 37q-110 0 -185 -66z" />
    <glyph glyph-name="onequarter" unicode="&#xbc;" horiz-adv-x="942" 
d="M254 720v-435h-105v290q-24 -18 -51.5 -29.5t-63.5 -20.5v92q100 27 129 103h91zM737 720l-486 -720h-95l486 720h95zM921 94h-61v-94h-103v94h-248v84l222 257h129v-250h61v-91zM757 185v148l-126 -148h126z" />
    <glyph glyph-name="threequarters" unicode="&#xbe;" horiz-adv-x="1028" 
d="M370.5 503q30.5 -37 30.5 -82q0 -39 -22 -71.5t-66 -52.5t-107 -20q-60 0 -113 18t-84 47l56 79q63 -50 140 -50q43 0 65.5 14.5t22.5 38.5q0 23 -21 37.5t-57 14.5q-18 0 -33 -4t-24 -9l-43 44l134 120h-214v93h343v-85l-100 -86q62 -9 92.5 -46zM825 720l-486 -720h-95
l486 720h95zM1007 94h-61v-94h-103v94h-248v84l222 257h129v-250h61v-91zM843 185v148l-126 -148h126z" />
    <glyph glyph-name="asterisk" unicode="*" horiz-adv-x="461" 
d="M292 523l98 -107l-84 -59l-76 123l-76 -123l-83 59l98 107l-145 32l31 95l136 -56l-13 141h105l-14 -141l137 56l31 -95z" />
    <glyph glyph-name="backslash" unicode="\" horiz-adv-x="451" 
d="M-9 785l361 -924h117l-362 924h-116z" />
    <glyph glyph-name="periodcentered" unicode="&#xb7;" horiz-adv-x="275" 
d="M157 422.5q7 -7.5 7 -18.5t-7 -18.5t-19 -7.5t-19.5 7.5t-7.5 18.5t7.5 18.5t19.5 7.5t19 -7.5z" />
    <glyph glyph-name="bullet" unicode="&#x2022;" horiz-adv-x="508" 
d="M143 260.5q-43 42.5 -43 109.5t43 109.5t111 42.5t111 -42.5t43 -109.5t-43 -109.5t-111 -42.5t-111 42.5z" />
    <glyph glyph-name="colon" unicode=":" horiz-adv-x="285" 
d="M162 91.5q7 -7.5 7 -18.5t-7 -18.5t-19 -7.5t-19.5 7.5t-7.5 18.5t7.5 18.5t19.5 7.5t19 -7.5zM162 440.5q7 -7.5 7 -18.5t-7 -18.5t-19 -7.5t-19.5 7.5t-7.5 18.5t7.5 18.5t19.5 7.5t19 -7.5z" />
    <glyph glyph-name="comma" unicode="," horiz-adv-x="276" 
d="M90 156h141l-106 -299h-94z" />
    <glyph glyph-name="ellipsis" unicode="&#x2026;" horiz-adv-x="793" 
d="M416 91.5q7 -7.5 7 -18.5t-7 -18.5t-19 -7.5t-19.5 7.5t-7.5 18.5t7.5 18.5t19.5 7.5t19 -7.5zM675 91.5q7 -7.5 7 -18.5t-7 -18.5t-19 -7.5t-19.5 7.5t-7.5 18.5t7.5 18.5t19.5 7.5t19 -7.5zM157 91.5q7 -7.5 7 -18.5t-7 -18.5t-19 -7.5t-19.5 7.5t-7.5 18.5t7.5 18.5
t19.5 7.5t19 -7.5z" />
    <glyph glyph-name="exclam" unicode="!" horiz-adv-x="334" 
d="M95 720h144l-31 -472h-82zM186 91.5q7 -7.5 7 -18.5t-7 -18.5t-19 -7.5t-19.5 7.5t-7.5 18.5t7.5 18.5t19.5 7.5t19 -7.5z" />
    <glyph glyph-name="exclamdown" unicode="&#xa1;" horiz-adv-x="334" 
d="M95 0h144l-31 472h-82zM186 628.5q7 7.5 7 18.5t-7 18.5t-19 7.5t-19.5 -7.5t-7.5 -18.5t7.5 -18.5t19.5 -7.5t19 7.5z" />
    <glyph glyph-name="numbersign" unicode="#" horiz-adv-x="742" 
d="M574 444l-28 -168h129v-98h-145l-30 -178h-108l30 178h-162l-30 -178h-108l30 178h-129v98h145l28 168h-116v98h132l30 178h108l-30 -178h162l30 178h108l-30 -178h130v-98h-146zM466 444h-162l-28 -168h162z" />
    <glyph glyph-name="period" unicode="." horiz-adv-x="275" 
d="M157 91.5q7 -7.5 7 -18.5t-7 -18.5t-19 -7.5t-19.5 7.5t-7.5 18.5t7.5 18.5t19.5 7.5t19 -7.5z" />
    <glyph glyph-name="question" unicode="?" horiz-adv-x="552" 
d="M153 518q3 44 34 71.5t85 27.5q47 0 79 -20.5t32 -57.5q0 -22 -16.5 -42.5t-61.5 -58.5q-56 -47 -80.5 -83t-24.5 -88v-29h127v18q0 29 19 53t74 70q54 46 78.5 84t24.5 84q0 52 -29.5 94.5t-84.5 67t-129 24.5q-78 0 -136 -28t-89 -76.5t-33 -110.5h131zM283 91.5
q7 -7.5 7 -18.5t-7 -18.5t-19 -7.5t-19.5 7.5t-7.5 18.5t7.5 18.5t19.5 7.5t19 -7.5z" />
    <glyph glyph-name="questiondown" unicode="&#xbf;" horiz-adv-x="552" 
d="M399 202q-3 -44 -34 -71.5t-85 -27.5q-47 0 -79 20.5t-32 57.5q0 22 16.5 42.5t61.5 58.5q56 47 80.5 83t24.5 88v29h-127v-18q0 -29 -19 -53t-74 -70q-54 -46 -78.5 -84t-24.5 -84q0 -52 29.5 -94.5t84.5 -67t129 -24.5q78 0 136 28t89 76.5t33 110.5h-131zM269 628.5
q-7 7.5 -7 18.5t7 18.5t19 7.5t19.5 -7.5t7.5 -18.5t-7.5 -18.5t-19.5 -7.5t-19 7.5z" />
    <glyph glyph-name="quotedbl" unicode="&#x22;" horiz-adv-x="456" 
d="M74 720h134l-64 -296h-83zM271 720h134l-64 -296h-83z" />
    <glyph glyph-name="quotesingle" unicode="'" horiz-adv-x="259" 
d="M74 720h134l-64 -296h-83z" />
    <glyph glyph-name="semicolon" unicode=";" horiz-adv-x="295" 
d="M91 156h141l-106 -299h-94zM171 440.5q7 -7.5 7 -18.5t-7 -18.5t-19 -7.5t-19.5 7.5t-7.5 18.5t7.5 18.5t19.5 7.5t19 -7.5z" />
    <glyph glyph-name="slash" unicode="/" horiz-adv-x="451" 
d="M460 785l-361 -924h-117l362 924h116z" />
    <glyph glyph-name="underscore" unicode="_" horiz-adv-x="514" 
d="M515 -43v-103h-516v103h516z" />
    <glyph glyph-name="periodcentered.loclCAT.case" horiz-adv-x="0" 
d="M-167 436.5q7 -7.5 7 -18.5t-7 -18.5t-19 -7.5t-19.5 7.5t-7.5 18.5t7.5 18.5t19.5 7.5t19 -7.5z" />
    <glyph glyph-name="periodcentered.loclCAT" horiz-adv-x="70" 
d="M41 409.5q7 -7.5 7 -18.5t-7 -18.5t-19 -7.5t-19.5 7.5t-7.5 18.5t7.5 18.5t19.5 7.5t19 -7.5z" />
    <glyph glyph-name="braceleft" unicode="{" horiz-adv-x="440" 
d="M282.5 655q-22.5 -23 -22.5 -58q0 -24 4 -72t4 -73q0 -96 -100 -129q100 -33 100 -129q0 -24 -4 -72t-4 -73q0 -35 22.5 -58t67.5 -23h41v-107h-51q-96 0 -147 50.5t-51 134.5q0 19 4 63q4 50 4 76q0 39 -23 58t-75 28v104q53 8 75.5 27.5t22.5 58.5q0 26 -4 76
q-4 44 -4 63q0 84 51 134.5t147 50.5h51v-107h-41q-45 0 -67.5 -23z" />
    <glyph glyph-name="braceright" unicode="}" horiz-adv-x="440" 
d="M157.5 655q22.5 -23 22.5 -58q0 -24 -4 -72t-4 -73q0 -96 100 -129q-100 -33 -100 -129q0 -24 4 -72t4 -73q0 -35 -22.5 -58t-67.5 -23h-41v-107h51q96 0 147 50.5t51 134.5q0 19 -4 63q-4 50 -4 76q0 39 23 58t75 28v104q-53 8 -75.5 27.5t-22.5 58.5q0 26 4 76
q4 44 4 63q0 84 -51 134.5t-147 50.5h-51v-107h41q45 0 67.5 -23z" />
    <glyph glyph-name="bracketleft" unicode="[" horiz-adv-x="391" 
d="M204 679v-712h131v-106h-247v924h247v-106h-131z" />
    <glyph glyph-name="bracketright" unicode="]" horiz-adv-x="391" 
d="M187 679v-712h-131v-106h247v924h-247v-106h131z" />
    <glyph glyph-name="parenleft" unicode="(" horiz-adv-x="391" 
d="M120.5 78.5q-36.5 118.5 -36.5 244.5t36.5 244.5t106.5 217.5h109q-131 -217 -131 -462t131 -462h-109q-70 99 -106.5 217.5z" />
    <glyph glyph-name="parenright" unicode=")" horiz-adv-x="391" 
d="M270.5 78.5q36.5 118.5 36.5 244.5t-36.5 244.5t-106.5 217.5h-109q131 -217 131 -462t-131 -462h109q70 99 106.5 217.5z" />
    <glyph glyph-name="emdash" unicode="&#x2014;" horiz-adv-x="894" 
d="M43 268v103h808v-103h-808z" />
    <glyph glyph-name="endash" unicode="&#x2013;" horiz-adv-x="543" 
d="M43 268v103h457v-103h-457z" />
    <glyph glyph-name="figuredash" unicode="&#x2012;" horiz-adv-x="543" 
d="M43 268v103h457v-103h-457z" />
    <glyph glyph-name="uni2015" unicode="&#x2015;" horiz-adv-x="894" 
d="M43 268v103h808v-103h-808z" />
    <glyph glyph-name="hyphen" unicode="-" horiz-adv-x="368" 
d="M331 380l-19 -119h-275l19 119h275z" />
    <glyph glyph-name="uni2010" unicode="&#x2010;" horiz-adv-x="368" 
d="M331 380l-19 -119h-275l19 119h275z" />
    <glyph glyph-name="uni00AD" unicode="&#xad;" horiz-adv-x="368" 
d="M331 380l-19 -119h-275l19 119h275z" />
    <glyph glyph-name="hyphen.case" horiz-adv-x="368" 
d="M331 445l-19 -119h-275l19 119h275z" />
    <glyph glyph-name="hyphen.lc" horiz-adv-x="277" 
d="M249 400l-32 -118h-189l32 118h189z" />
    <glyph glyph-name="hyphen.uc" horiz-adv-x="299" 
d="M271 437l-32 -119h-211l32 119h211z" />
    <glyph glyph-name="guillemotleft" unicode="&#xab;" horiz-adv-x="569" 
d="M162 280l153 -223h-123l-155 223l155 223h123zM376 280l153 -223h-123l-155 223l155 223h123z" />
    <glyph glyph-name="guillemotright" unicode="&#xbb;" horiz-adv-x="569" 
d="M407 280l-153 -223h123l155 223l-155 223h-123zM193 280l-153 -223h123l155 223l-155 223h-123z" />
    <glyph glyph-name="guilsinglleft" unicode="&#x2039;" horiz-adv-x="355" 
d="M162 280l153 -223h-123l-155 223l155 223h123z" />
    <glyph glyph-name="guilsinglright" unicode="&#x203a;" horiz-adv-x="355" 
d="M193 280l-153 -223h123l155 223l-155 223h-123z" />
    <glyph glyph-name="quotedblbase" unicode="&#x201e;" horiz-adv-x="497" 
d="M204.5 137q25.5 -35 25.5 -86q0 -57 -34.5 -110t-109.5 -84l-35 65q36 16 60.5 42t28.5 56q-4 -1 -12 -1q-35 0 -56.5 21.5t-21.5 55.5q0 33 22.5 54.5t58.5 21.5q48 0 73.5 -35zM421.5 137q25.5 -35 25.5 -86q0 -57 -34.5 -110t-109.5 -84l-35 65q36 16 60.5 42t28.5 56
q-4 -1 -12 -1q-35 0 -56.5 21.5t-21.5 55.5q0 33 22.5 54.5t58.5 21.5q48 0 73.5 -35z" />
    <glyph glyph-name="quotedblleft" unicode="&#x201c;" horiz-adv-x="477" 
d="M282.5 446q-25.5 35 -25.5 86q0 57 34.5 110t109.5 84l35 -65q-36 -16 -60.5 -42t-28.5 -56q4 1 12 1q35 0 56.5 -21.5t21.5 -55.5q0 -33 -22.5 -54.5t-58.5 -21.5q-48 0 -73.5 35zM65.5 446q-25.5 35 -25.5 86q0 57 34.5 110t109.5 84l35 -65q-36 -16 -60.5 -42
t-28.5 -56q4 1 12 1q35 0 56.5 -21.5t21.5 -55.5q0 -33 -22.5 -54.5t-58.5 -21.5q-48 0 -73.5 35z" />
    <glyph glyph-name="quotedblright" unicode="&#x201d;" horiz-adv-x="477" 
d="M194.5 688q25.5 -35 25.5 -86q0 -57 -34.5 -110t-109.5 -84l-35 65q36 16 60.5 42t28.5 56q-4 -1 -12 -1q-35 0 -56.5 21.5t-21.5 55.5q0 33 22.5 54.5t58.5 21.5q48 0 73.5 -35zM411.5 688q25.5 -35 25.5 -86q0 -57 -34.5 -110t-109.5 -84l-35 65q36 16 60.5 42t28.5 56
q-4 -1 -12 -1q-35 0 -56.5 21.5t-21.5 55.5q0 33 22.5 54.5t58.5 21.5q48 0 73.5 -35z" />
    <glyph glyph-name="uni201F" unicode="&#x201f;" horiz-adv-x="477" 
d="M282.5 688q-25.5 -35 -25.5 -86q0 -57 34.5 -110t109.5 -84l35 65q-36 16 -60.5 42t-28.5 56q4 -1 12 -1q35 0 56.5 21.5t21.5 55.5q0 33 -22.5 54.5t-58.5 21.5q-48 0 -73.5 -35zM65.5 688q-25.5 -35 -25.5 -86q0 -57 34.5 -110t109.5 -84l35 65q-36 16 -60.5 42
t-28.5 56q4 -1 12 -1q35 0 56.5 21.5t21.5 55.5q0 33 -22.5 54.5t-58.5 21.5q-48 0 -73.5 -35z" />
    <glyph glyph-name="quoteleft" unicode="&#x2018;" horiz-adv-x="260" 
d="M65.5 443q-25.5 35 -25.5 86q0 57 34.5 110t109.5 84l35 -65q-36 -16 -60.5 -42t-28.5 -56q4 1 12 1q35 0 56.5 -21.5t21.5 -55.5q0 -33 -22.5 -54.5t-58.5 -21.5q-48 0 -73.5 35z" />
    <glyph glyph-name="quotereversed" unicode="&#x201b;" horiz-adv-x="260" 
d="M65.5 688q-25.5 -35 -25.5 -86q0 -57 34.5 -110t109.5 -84l35 65q-36 16 -60.5 42t-28.5 56q4 -1 12 -1q35 0 56.5 21.5t21.5 55.5q0 33 -22.5 54.5t-58.5 21.5q-48 0 -73.5 -35z" />
    <glyph glyph-name="quoteright" unicode="&#x2019;" horiz-adv-x="260" 
d="M194.5 688q25.5 -35 25.5 -86q0 -57 -34.5 -110t-109.5 -84l-35 65q36 16 60.5 42t28.5 56q-4 -1 -12 -1q-35 0 -56.5 21.5t-21.5 55.5q0 33 22.5 54.5t58.5 21.5q48 0 73.5 -35z" />
    <glyph glyph-name="quotesinglbase" unicode="&#x201a;" horiz-adv-x="280" 
d="M204.5 137q25.5 -35 25.5 -86q0 -57 -34.5 -110t-109.5 -84l-35 65q36 16 60.5 42t28.5 56q-4 -1 -12 -1q-35 0 -56.5 21.5t-21.5 55.5q0 33 22.5 54.5t58.5 21.5q48 0 73.5 -35z" />
    <glyph glyph-name="uni2007" unicode="&#x2007;" horiz-adv-x="753" 
 />
    <glyph glyph-name="uni200A" unicode="&#x200a;" horiz-adv-x="60" 
 />
    <glyph glyph-name="uni2008" unicode="&#x2008;" horiz-adv-x="276" 
 />
    <glyph glyph-name="uni00A0" unicode="&#xa0;" horiz-adv-x="304" 
 />
    </font>
</defs>
</svg>
