<?xml version="1.0" standalone="no"?>
<!DOCTYPE svg PUBLIC "-//W3C//DTD SVG 1.1//EN" "http://www.w3.org/Graphics/SVG/1.1/DTD/svg11.dtd" >
<svg xmlns="http://www.w3.org/2000/svg" xmlns:xlink="http://www.w3.org/1999/xlink" version="1.1">
<metadata>
Created by FontForge 20201107 at Fri Dec 29 20:51:01 2017
 By Daniel Airini
Copyright 2017 The Coca-Cola Company. All Rights Reserved.
</metadata>
<defs>
<font id="TCCC-UnityCondensed-Medium" horiz-adv-x="365" >
  <font-face 
    font-family="TCCC-UnityCondensed"
    font-weight="600"
    font-stretch="normal"
    units-per-em="1000"
    panose-1="0 0 7 0 0 0 0 0 0 0"
    ascent="800"
    descent="-200"
    x-height="548"
    cap-height="720"
    bbox="-340 -246 867 1171"
    underline-thickness="50"
    underline-position="-100"
    unicode-range="U+0020-FB02"
  />
<missing-glyph horiz-adv-x="431" 
d="M51 719h329v-719h-329v719zM314 70v579h-196v-579h196z" />
    <glyph glyph-name="f_f" unicode="ff" horiz-adv-x="440" 
d="M145 620v-72h79v-80h-79v-468h-96v468h-45v80h45v78q0 62 32.5 99t86.5 37q41 0 61 -13v-82q-23 8 -41 8q-43 0 -43 -55zM365 620v-72h79v-80h-79v-468h-96v468h-45v80h45v78q0 62 32.5 99t86.5 37q41 0 61 -13v-82q-23 8 -41 8q-43 0 -43 -55z" />
    <glyph glyph-name="f_f_i" unicode="ffi" horiz-adv-x="618" 
d="M145 620v-72h79v-80h-79v-468h-96v468h-45v80h45v78q0 62 32.5 99t86.5 37q41 0 61 -13v-82q-23 8 -41 8q-43 0 -43 -55zM365 620v-72h79v-80h-79v-468h-96v468h-45v80h45v78q0 62 32.5 99t86.5 37q41 0 61 -13v-82q-23 8 -41 8q-43 0 -43 -55zM481 548h96v-548h-96v548z
M489 633.5q-16 16.5 -16 42.5t16 42.5t40 16.5t40 -16.5t16 -42.5t-16 -42.5t-40 -16.5t-40 16.5z" />
    <glyph glyph-name="f_f_l" unicode="ffl" horiz-adv-x="624" 
d="M145 620v-72h79v-80h-79v-468h-96v468h-45v80h45v78q0 62 32.5 99t86.5 37q41 0 61 -13v-82q-23 8 -41 8q-43 0 -43 -55zM365 620v-72h79v-80h-79v-468h-96v468h-45v80h45v78q0 62 32.5 99t86.5 37q41 0 61 -13v-82q-23 8 -41 8q-43 0 -43 -55zM575 752v-653q0 -10 6 -15
t14 -5q11 0 23 5v-81q-19 -11 -47 -11q-43 0 -67.5 24t-24.5 71v665h96z" />
    <glyph glyph-name="fi" unicode="fi" horiz-adv-x="398" 
d="M145 620v-72h79v-80h-79v-468h-96v468h-45v80h45v78q0 62 32.5 99t86.5 37q41 0 61 -13v-82q-23 8 -41 8q-43 0 -43 -55zM261 548h96v-548h-96v548zM269 633.5q-16 16.5 -16 42.5t16 42.5t40 16.5t40 -16.5t16 -42.5t-16 -42.5t-40 -16.5t-40 16.5z" />
    <glyph glyph-name="fl" unicode="fl" horiz-adv-x="404" 
d="M145 620v-72h79v-80h-79v-468h-96v468h-45v80h45v78q0 62 32.5 99t86.5 37q41 0 61 -13v-82q-23 8 -41 8q-43 0 -43 -55zM355 752v-653q0 -10 6 -15t14 -5q11 0 23 5v-81q-19 -11 -47 -11q-43 0 -67.5 24t-24.5 71v665h96z" />
    <glyph glyph-name=".notdef" horiz-adv-x="431" 
d="M51 719h329v-719h-329v719zM314 70v579h-196v-579h196z" />
    <glyph glyph-name="space" unicode=" " horiz-adv-x="157" 
 />
    <glyph glyph-name="A" unicode="A" horiz-adv-x="402" 
d="M262 177h-124l-27 -177h-104l131 720h125l132 -720h-106zM250 261l-50 332l-50 -332h100z" />
    <glyph glyph-name="Aacute" unicode="&#xc1;" horiz-adv-x="402" 
d="M262 177h-124l-27 -177h-104l131 720h125l132 -720h-106zM250 261l-50 332l-50 -332h100zM227 780h-72l48 164h100v-9z" />
    <glyph glyph-name="Abreve" unicode="&#x102;" horiz-adv-x="402" 
d="M262 177h-124l-27 -177h-104l131 720h125l132 -720h-106zM250 261l-50 332l-50 -332h100zM125 825q-27 44 -27 122h65q0 -44 10 -68.5t28 -24.5t28 24.5t10 68.5h65q0 -78 -27 -122t-76 -44t-76 44z" />
    <glyph glyph-name="uni1EAE" unicode="&#x1eae;" horiz-adv-x="402" 
d="M229 940h-63l37 149h94v-9zM125 815q-27 37 -27 104h60q0 -35 11.5 -54.5t31.5 -19.5t31.5 19.5t11.5 54.5h60q0 -67 -27 -104t-76 -37t-76 37zM262 177h-124l-27 -177h-104l131 720h125l132 -720h-106zM250 261l-50 332l-50 -332h100z" />
    <glyph glyph-name="uni1EB6" unicode="&#x1eb6;" horiz-adv-x="402" 
d="M262 177h-124l-27 -177h-104l131 720h125l132 -720h-106zM250 261l-50 332l-50 -332h100zM161 -189.5q-16 16.5 -16 42.5t16 42.5t40 16.5t40 -16.5t16 -42.5t-16 -42.5t-40 -16.5t-40 16.5zM125 825q-27 44 -27 122h65q0 -44 10 -68.5t28 -24.5t28 24.5t10 68.5h65
q0 -78 -27 -122t-76 -44t-76 44z" />
    <glyph glyph-name="uni1EB0" unicode="&#x1eb0;" horiz-adv-x="402" 
d="M170 937l-68 140v9h92l39 -149h-63zM125 815q-27 37 -27 104h60q0 -35 11.5 -54.5t31.5 -19.5t31.5 19.5t11.5 54.5h60q0 -67 -27 -104t-76 -37t-76 37zM262 177h-124l-27 -177h-104l131 720h125l132 -720h-106zM250 261l-50 332l-50 -332h100z" />
    <glyph glyph-name="uni1EB2" unicode="&#x1eb2;" horiz-adv-x="402" 
d="M183.5 1046.5q-5.5 -8.5 -6.5 -24.5h-56q1 40 23 65t57 25q34 0 55.5 -21.5t21.5 -54.5q0 -21 -8.5 -35.5t-24.5 -31.5q-11 -12 -16.5 -20.5t-5.5 -18.5v-7h-55v12q0 19 7 31.5t21 28.5q11 12 16 20t5 18q0 22 -19 22q-9 0 -14.5 -8.5zM125 815q-27 37 -27 104h60
q0 -35 11.5 -54.5t31.5 -19.5t31.5 19.5t11.5 54.5h60q0 -67 -27 -104t-76 -37t-76 37zM262 177h-124l-27 -177h-104l131 720h125l132 -720h-106zM250 261l-50 332l-50 -332h100z" />
    <glyph glyph-name="uni1EB4" unicode="&#x1eb4;" horiz-adv-x="402" 
d="M153.5 1012q-2.5 -16 -5.5 -57h-52q3 143 68 143q19 0 30.5 -14t25.5 -41q5 -10 9.5 -17.5t8.5 -7.5q9 0 12 16.5t5 57.5h52q-3 -143 -69 -143q-18 0 -29 13.5t-25 39.5q-5 10 -10 18t-10 8q-8 0 -10.5 -16zM232.5 864.5q11.5 19.5 11.5 54.5h60q0 -67 -27 -104t-76 -37
t-76 37t-27 104h60q0 -35 11.5 -54.5t31.5 -19.5t31.5 19.5zM262 177h-124l-27 -177h-104l131 720h125l132 -720h-106zM250 261l-50 332l-50 -332h100z" />
    <glyph glyph-name="Acircumflex" unicode="&#xc2;" horiz-adv-x="402" 
d="M262 177h-124l-27 -177h-104l131 720h125l132 -720h-106zM250 261l-50 332l-50 -332h100zM244 780l-43 93l-44 -93h-71l65 164h100l64 -164h-71z" />
    <glyph glyph-name="uni1EA4" unicode="&#x1ea4;" horiz-adv-x="402" 
d="M404 1051v-9l-68 -140h-63l37 149h94zM157 780h-71l65 139h100l64 -139h-71l-43 76zM395 0h-106l-27 177h-124l-27 -177h-104l131 720h125zM250 261l-50 332l-50 -332h100z" />
    <glyph glyph-name="uni1EAC" unicode="&#x1eac;" horiz-adv-x="402" 
d="M262 177h-124l-27 -177h-104l131 720h125l132 -720h-106zM250 261l-50 332l-50 -332h100zM161 -189.5q-16 16.5 -16 42.5t16 42.5t40 16.5t40 -16.5t16 -42.5t-16 -42.5t-40 -16.5t-40 16.5zM244 780l-43 93l-44 -93h-71l65 164h100l64 -164h-71z" />
    <glyph glyph-name="uni1EA6" unicode="&#x1ea6;" horiz-adv-x="402" 
d="M316 899l-68 140v9h92l39 -149h-63zM157 780h-71l65 139h100l64 -139h-71l-43 76zM262 177h-124l-27 -177h-104l131 720h125l132 -720h-106zM250 261l-50 332l-50 -332h100z" />
    <glyph glyph-name="uni1EA8" unicode="&#x1ea8;" horiz-adv-x="402" 
d="M304.5 1006.5q-5.5 -8.5 -6.5 -24.5h-56q1 40 23 65t57 25q34 0 55.5 -21.5t21.5 -54.5q0 -21 -8.5 -35.5t-24.5 -31.5q-11 -12 -16.5 -20.5t-5.5 -18.5v-7h-55v12q0 19 7 31.5t21 28.5q11 12 16 20t5 18q0 22 -19 22q-9 0 -14.5 -8.5zM157 780h-71l65 139h100l64 -139
h-71l-43 76zM395 0h-106l-27 177h-124l-27 -177h-104l131 720h125zM250 261l-50 332l-50 -332h100z" />
    <glyph glyph-name="uni1EAA" unicode="&#x1eaa;" horiz-adv-x="402" 
d="M153.5 1011q-2.5 -16 -5.5 -57h-52q3 143 68 143q19 0 30.5 -14t25.5 -41q5 -10 9.5 -17.5t8.5 -7.5q9 0 12 16.5t5 57.5h52q-3 -143 -69 -143q-18 0 -29 13.5t-25 39.5q-5 10 -10 18t-10 8q-8 0 -10.5 -16zM157 780h-71l65 139h100l64 -139h-71l-43 76zM262 177h-124
l-27 -177h-104l131 720h125l132 -720h-106zM250 261l-50 332l-50 -332h100z" />
    <glyph glyph-name="uni0200" unicode="&#x200;" horiz-adv-x="402" 
d="M262 177h-124l-27 -177h-104l131 720h125l132 -720h-106zM250 261l-50 332l-50 -332h100zM60 947h84l35 -164h-61l-58 155v9zM176 947h84l27 -164h-61l-50 155v9z" />
    <glyph glyph-name="Adieresis" unicode="&#xc4;" horiz-adv-x="402" 
d="M262 177h-124l-27 -177h-104l131 720h125l132 -720h-106zM250 261l-50 332l-50 -332h100zM165 887.5q15 -15.5 15 -39.5t-15 -39.5t-37 -15.5t-37 15.5t-15 39.5t15 39.5t37 15.5t37 -15.5zM311 887.5q15 -15.5 15 -39.5t-15 -39.5t-37 -15.5t-37 15.5t-15 39.5t15 39.5
t37 15.5t37 -15.5z" />
    <glyph glyph-name="uni1EA0" unicode="&#x1ea0;" horiz-adv-x="402" 
d="M262 177h-124l-27 -177h-104l131 720h125l132 -720h-106zM250 261l-50 332l-50 -332h100zM161 -189.5q-16 16.5 -16 42.5t16 42.5t40 16.5t40 -16.5t16 -42.5t-16 -42.5t-40 -16.5t-40 16.5z" />
    <glyph glyph-name="Agrave" unicode="&#xc0;" horiz-adv-x="402" 
d="M262 177h-124l-27 -177h-104l131 720h125l132 -720h-106zM250 261l-50 332l-50 -332h100zM90 947h100l48 -164h-72l-76 155v9z" />
    <glyph glyph-name="uni1EA2" unicode="&#x1ea2;" horiz-adv-x="402" 
d="M262 177h-124l-27 -177h-104l131 720h125l132 -720h-106zM250 261l-50 332l-50 -332h100zM169 790q0 21 8 35t24 32q12 13 18 22.5t6 20.5q0 13 -7 20.5t-18 7.5q-12 0 -19 -10.5t-8 -29.5h-59q1 45 25.5 72.5t63.5 27.5q38 0 62 -24.5t24 -60.5q0 -24 -9 -40t-27 -36
q-13 -14 -19 -23t-6 -20v-7h-59v13z" />
    <glyph glyph-name="uni0202" unicode="&#x202;" horiz-adv-x="402" 
d="M262 177h-124l-27 -177h-104l131 720h125l132 -720h-106zM250 261l-50 332l-50 -332h100zM277 902q27 -44 27 -122h-65q0 44 -10 68.5t-28 24.5t-28 -24.5t-10 -68.5h-65q0 78 27 122t76 44t76 -44z" />
    <glyph glyph-name="Amacron" unicode="&#x100;" horiz-adv-x="402" 
d="M262 177h-124l-27 -177h-104l131 720h125l132 -720h-106zM250 261l-50 332l-50 -332h100zM111 871h179v-75h-179v75z" />
    <glyph glyph-name="Aogonek" unicode="&#x104;" horiz-adv-x="402" 
d="M415 -163q-31 -34 -85 -34q-43 0 -70.5 23t-27.5 68q0 31 16 58.5t49 47.5h-8l-27 177h-124l-27 -177h-104l131 720h125l132 -720q-43 -27 -59.5 -48t-16.5 -40q0 -15 8.5 -23t21.5 -8q18 0 39 18zM250 261l-50 332l-50 -332h100z" />
    <glyph glyph-name="Aring" unicode="&#xc5;" horiz-adv-x="402" 
d="M262 177h-124l-27 -177h-104l131 720h125l132 -720h-106zM250 261l-50 332l-50 -332h100zM125.5 797.5q-29.5 28.5 -29.5 72.5t29.5 72.5t75.5 28.5t75.5 -28.5t29.5 -72.5t-29.5 -72.5t-75.5 -28.5t-75.5 28.5zM233.5 836q12.5 13 12.5 34t-12.5 34t-32.5 13t-32.5 -13
t-12.5 -34t12.5 -34t32.5 -13t32.5 13z" />
    <glyph glyph-name="Aringacute" unicode="&#x1fa;" horiz-adv-x="402" 
d="M262 177h-124l-27 -177h-104l131 720h125l132 -720h-106zM250 261l-50 332l-50 -332h100zM125.5 797.5q-29.5 28.5 -29.5 72.5t29.5 72.5t75.5 28.5t75.5 -28.5t29.5 -72.5t-29.5 -72.5t-75.5 -28.5t-75.5 28.5zM233.5 836q12.5 13 12.5 34t-12.5 34t-32.5 13t-32.5 -13
t-12.5 -34t12.5 -34t32.5 -13t32.5 13zM226 1007h-72l48 164h100v-9z" />
    <glyph glyph-name="Atilde" unicode="&#xc3;" horiz-adv-x="402" 
d="M262 177h-124l-27 -177h-104l131 720h125l132 -720h-106zM250 261l-50 332l-50 -332h100zM211.5 794.5q-13.5 8.5 -27.5 22.5q-7 7 -14 12.5t-13 5.5q-21 0 -22 -46h-59q1 55 20.5 88t62.5 33q18 0 31.5 -8.5t28.5 -23.5q7 -7 14 -12t12 -5q22 0 23 46h59q-1 -55 -21 -88
t-63 -33q-18 0 -31.5 8.5z" />
    <glyph glyph-name="AE" unicode="&#xc6;" horiz-adv-x="565" 
d="M554 0h-290v168h-114l-42 -168h-105l207 720h339l-11 -87h-175v-212h126v-88h-126v-246h180zM264 252v369l-93 -369h93z" />
    <glyph glyph-name="AEacute" unicode="&#x1fc;" horiz-adv-x="565" 
d="M554 0h-290v168h-114l-42 -168h-105l207 720h339l-11 -87h-175v-212h126v-88h-126v-246h180zM264 252v369l-93 -369h93zM321 780h-72l48 164h100v-9z" />
    <glyph glyph-name="B" unicode="B" horiz-adv-x="398" 
d="M355 315q24 -47 24 -112q0 -90 -46.5 -146.5t-130.5 -56.5h-151v720h145q76 0 115 -53t39 -136q0 -107 -63 -151q44 -18 68 -65zM149 634v-225h38q33 0 49 31t16 82q0 52 -17 82t-51 30h-35zM258.5 118q18.5 32 18.5 88t-19 87.5t-55 31.5h-54v-239h54q37 0 55.5 32z" />
    <glyph glyph-name="C" unicode="C" horiz-adv-x="356" 
d="M73.5 82.5q-44.5 92.5 -44.5 277.5t44.5 277.5t135.5 92.5q94 0 140 -97l-77 -54q-17 30 -31 44t-31 14q-40 0 -58 -68.5t-18 -208.5t18 -208.5t58 -68.5q18 0 31.5 13.5t30.5 44.5l78 -54q-25 -52 -60 -74.5t-81 -22.5q-91 0 -135.5 92.5z" />
    <glyph glyph-name="Cacute" unicode="&#x106;" horiz-adv-x="356" 
d="M73.5 82.5q-44.5 92.5 -44.5 277.5t44.5 277.5t135.5 92.5q94 0 140 -97l-77 -54q-17 30 -31 44t-31 14q-40 0 -58 -68.5t-18 -208.5t18 -208.5t58 -68.5q18 0 31.5 13.5t30.5 44.5l78 -54q-25 -52 -60 -74.5t-81 -22.5q-91 0 -135.5 92.5zM231 780h-72l48 164h100v-9z
" />
    <glyph glyph-name="Ccaron" unicode="&#x10c;" horiz-adv-x="356" 
d="M73.5 82.5q-44.5 92.5 -44.5 277.5t44.5 277.5t135.5 92.5q94 0 140 -97l-77 -54q-17 30 -31 44t-31 14q-40 0 -58 -68.5t-18 -208.5t18 -208.5t58 -68.5q18 0 31.5 13.5t30.5 44.5l78 -54q-25 -52 -60 -74.5t-81 -22.5q-91 0 -135.5 92.5zM319 944l-64 -164h-100
l-65 164h71l44 -93l43 93h71z" />
    <glyph glyph-name="Ccedilla" unicode="&#xc7;" horiz-adv-x="356" 
d="M73.5 82.5q-44.5 92.5 -44.5 277.5t44.5 277.5t135.5 92.5q94 0 140 -97l-77 -54q-17 30 -31 44t-31 14q-40 0 -58 -68.5t-18 -208.5t18 -208.5t58 -68.5q18 0 31.5 13.5t30.5 44.5l78 -54q-25 -52 -60 -74.5t-81 -22.5q-91 0 -135.5 92.5zM276.5 -64q22.5 -23 22.5 -60
q0 -42 -28 -67.5t-76 -25.5q-54 0 -93 30l27 49q32 -21 57 -21q19 0 29.5 9.5t10.5 25.5t-9.5 26t-27.5 10q-14 0 -27 -6l-16 13l46 101h56l-33 -61h5q34 0 56.5 -23z" />
    <glyph glyph-name="uni1E08" unicode="&#x1e08;" horiz-adv-x="356" 
d="M73.5 82.5q-44.5 92.5 -44.5 277.5t44.5 277.5t135.5 92.5q94 0 140 -97l-77 -54q-17 30 -31 44t-31 14q-40 0 -58 -68.5t-18 -208.5t18 -208.5t58 -68.5q18 0 31.5 13.5t30.5 44.5l78 -54q-25 -52 -60 -74.5t-81 -22.5q-91 0 -135.5 92.5zM276.5 -64q22.5 -23 22.5 -60
q0 -42 -28 -67.5t-76 -25.5q-54 0 -93 30l27 49q32 -21 57 -21q19 0 29.5 9.5t10.5 25.5t-9.5 26t-27.5 10q-14 0 -27 -6l-16 13l46 101h56l-33 -61h5q34 0 56.5 -23zM231 780h-72l48 164h100v-9z" />
    <glyph glyph-name="Ccircumflex" unicode="&#x108;" horiz-adv-x="356" 
d="M73.5 82.5q-44.5 92.5 -44.5 277.5t44.5 277.5t135.5 92.5q94 0 140 -97l-77 -54q-17 30 -31 44t-31 14q-40 0 -58 -68.5t-18 -208.5t18 -208.5t58 -68.5q18 0 31.5 13.5t30.5 44.5l78 -54q-25 -52 -60 -74.5t-81 -22.5q-91 0 -135.5 92.5zM248 780l-43 93l-44 -93h-71
l65 164h100l64 -164h-71z" />
    <glyph glyph-name="Cdotaccent" unicode="&#x10a;" horiz-adv-x="356" 
d="M73.5 82.5q-44.5 92.5 -44.5 277.5t44.5 277.5t135.5 92.5q94 0 140 -97l-77 -54q-17 30 -31 44t-31 14q-40 0 -58 -68.5t-18 -208.5t18 -208.5t58 -68.5q18 0 31.5 13.5t30.5 44.5l78 -54q-25 -52 -60 -74.5t-81 -22.5q-91 0 -135.5 92.5zM165 805.5q-16 16.5 -16 42.5
t16 42.5t40 16.5t40 -16.5t16 -42.5t-16 -42.5t-40 -16.5t-40 16.5z" />
    <glyph glyph-name="D" unicode="D" horiz-adv-x="412" 
d="M337.5 625.5q47.5 -94.5 47.5 -265.5t-47.5 -265.5t-163.5 -94.5h-123v720h123q116 0 163.5 -94.5zM258.5 157q21.5 68 21.5 203t-21.5 203t-83.5 68h-23v-542h23q62 0 83.5 68z" />
    <glyph glyph-name="uni01C4" unicode="&#x1c4;" horiz-adv-x="740" 
d="M337.5 625.5q47.5 -94.5 47.5 -265.5t-47.5 -265.5t-163.5 -94.5h-123v720h123q116 0 163.5 -94.5zM258.5 157q21.5 68 21.5 203t-21.5 203t-83.5 68h-23v-542h23q62 0 83.5 68zM726 87v-87h-306v78l188 555h-179v87h290v-79l-188 -554h195zM690 944l-64 -164h-100
l-65 164h71l44 -93l43 93h71z" />
    <glyph glyph-name="Eth" unicode="&#xd0;" horiz-adv-x="418" 
d="M344.5 625.5q47.5 -94.5 47.5 -265.5t-47.5 -265.5t-163.5 -94.5h-123v341h-42v80h42v299h123q116 0 163.5 -94.5zM265.5 157q21.5 68 21.5 203t-21.5 203t-83.5 68h-23v-210h82v-80h-82v-252h23q62 0 83.5 68z" />
    <glyph glyph-name="Dcaron" unicode="&#x10e;" horiz-adv-x="412" 
d="M337.5 625.5q47.5 -94.5 47.5 -265.5t-47.5 -265.5t-163.5 -94.5h-123v720h123q116 0 163.5 -94.5zM258.5 157q21.5 68 21.5 203t-21.5 203t-83.5 68h-23v-542h23q62 0 83.5 68zM310 944l-64 -164h-100l-65 164h71l44 -93l43 93h71z" />
    <glyph glyph-name="Dcroat" unicode="&#x110;" horiz-adv-x="418" 
d="M344.5 625.5q47.5 -94.5 47.5 -265.5t-47.5 -265.5t-163.5 -94.5h-123v341h-42v80h42v299h123q116 0 163.5 -94.5zM265.5 157q21.5 68 21.5 203t-21.5 203t-83.5 68h-23v-210h82v-80h-82v-252h23q62 0 83.5 68z" />
    <glyph glyph-name="uni1E0C" unicode="&#x1e0c;" horiz-adv-x="412" 
d="M337.5 625.5q47.5 -94.5 47.5 -265.5t-47.5 -265.5t-163.5 -94.5h-123v720h123q116 0 163.5 -94.5zM258.5 157q21.5 68 21.5 203t-21.5 203t-83.5 68h-23v-542h23q62 0 83.5 68zM156 -189.5q-16 16.5 -16 42.5t16 42.5t40 16.5t40 -16.5t16 -42.5t-16 -42.5t-40 -16.5
t-40 16.5z" />
    <glyph glyph-name="uni1E0E" unicode="&#x1e0e;" horiz-adv-x="412" 
d="M337.5 625.5q47.5 -94.5 47.5 -265.5t-47.5 -265.5t-163.5 -94.5h-123v720h123q116 0 163.5 -94.5zM258.5 157q21.5 68 21.5 203t-21.5 203t-83.5 68h-23v-542h23q62 0 83.5 68zM107 -100h179v-75h-179v75z" />
    <glyph glyph-name="uni01C5" unicode="&#x1c5;" horiz-adv-x="678" 
d="M337.5 625.5q47.5 -94.5 47.5 -265.5t-47.5 -265.5t-163.5 -94.5h-123v720h123q116 0 163.5 -94.5zM258.5 157q21.5 68 21.5 203t-21.5 203t-83.5 68h-23v-542h23q62 0 83.5 68zM669 78v-78h-248v66l139 404h-134v78h239v-68l-138 -402h142zM662 772l-64 -164h-100
l-65 164h71l44 -93l43 93h71z" />
    <glyph glyph-name="E" unicode="E" horiz-adv-x="351" 
d="M342 0h-291v720h286l-11 -88h-174v-211h125v-89h-125v-244h179z" />
    <glyph glyph-name="Eacute" unicode="&#xc9;" horiz-adv-x="351" 
d="M342 0h-291v720h286l-11 -88h-174v-211h125v-89h-125v-244h179zM221 780h-72l48 164h100v-9z" />
    <glyph glyph-name="Ebreve" unicode="&#x114;" horiz-adv-x="351" 
d="M342 0h-291v720h286l-11 -88h-174v-211h125v-89h-125v-244h179zM119 825q-27 44 -27 122h65q0 -44 10 -68.5t28 -24.5t28 24.5t10 68.5h65q0 -78 -27 -122t-76 -44t-76 44z" />
    <glyph glyph-name="Ecaron" unicode="&#x11a;" horiz-adv-x="351" 
d="M342 0h-291v720h286l-11 -88h-174v-211h125v-89h-125v-244h179zM309 944l-64 -164h-100l-65 164h71l44 -93l43 93h71z" />
    <glyph glyph-name="uni1E1C" unicode="&#x1e1c;" horiz-adv-x="351" 
d="M342 0h-291v720h286l-11 -88h-174v-211h125v-89h-125v-244h179zM266.5 -64q22.5 -23 22.5 -60q0 -42 -28 -67.5t-76 -25.5q-54 0 -93 30l27 49q32 -21 57 -21q19 0 29.5 9.5t10.5 25.5t-9.5 26t-27.5 10q-14 0 -27 -6l-16 13l46 101h56l-33 -61h5q34 0 56.5 -23zM119 825
q-27 44 -27 122h65q0 -44 10 -68.5t28 -24.5t28 24.5t10 68.5h65q0 -78 -27 -122t-76 -44t-76 44z" />
    <glyph glyph-name="Ecircumflex" unicode="&#xca;" horiz-adv-x="351" 
d="M342 0h-291v720h286l-11 -88h-174v-211h125v-89h-125v-244h179zM238 780l-43 93l-44 -93h-71l65 164h100l64 -164h-71z" />
    <glyph glyph-name="uni1EBE" unicode="&#x1ebe;" horiz-adv-x="351" 
d="M398 1051v-9l-68 -140h-63l37 149h94zM151 780h-71l65 139h100l64 -139h-71l-43 76zM331 88l11 -88h-291v720h286l-11 -88h-174v-211h125v-89h-125v-244h179z" />
    <glyph glyph-name="uni1EC6" unicode="&#x1ec6;" horiz-adv-x="351" 
d="M342 0h-291v720h286l-11 -88h-174v-211h125v-89h-125v-244h179zM155 -189.5q-16 16.5 -16 42.5t16 42.5t40 16.5t40 -16.5t16 -42.5t-16 -42.5t-40 -16.5t-40 16.5zM238 780l-43 93l-44 -93h-71l65 164h100l64 -164h-71z" />
    <glyph glyph-name="uni1EC0" unicode="&#x1ec0;" horiz-adv-x="351" 
d="M310 899l-68 140v9h92l39 -149h-63zM151 780h-71l65 139h100l64 -139h-71l-43 76zM331 88l11 -88h-291v720h286l-11 -88h-174v-211h125v-89h-125v-244h179z" />
    <glyph glyph-name="uni1EC2" unicode="&#x1ec2;" horiz-adv-x="351" 
d="M298.5 1006.5q-5.5 -8.5 -6.5 -24.5h-56q1 40 23 65t57 25q34 0 55.5 -21.5t21.5 -54.5q0 -21 -8.5 -35.5t-24.5 -31.5q-11 -12 -16.5 -20.5t-5.5 -18.5v-7h-55v12q0 19 7 31.5t21 28.5q11 12 16 20t5 18q0 22 -19 22q-9 0 -14.5 -8.5zM151 780h-71l65 139h100l64 -139
h-71l-43 76zM331 88l11 -88h-291v720h286l-11 -88h-174v-211h125v-89h-125v-244h179z" />
    <glyph glyph-name="uni1EC4" unicode="&#x1ec4;" horiz-adv-x="351" 
d="M147.5 1011q-2.5 -16 -5.5 -57h-52q3 143 68 143q19 0 30.5 -14t25.5 -41q5 -10 9.5 -17.5t8.5 -7.5q9 0 12 16.5t5 57.5h52q-3 -143 -69 -143q-18 0 -29 13.5t-25 39.5q-5 10 -10 18t-10 8q-8 0 -10.5 -16zM151 780h-71l65 139h100l64 -139h-71l-43 76zM342 0h-291v720
h286l-11 -88h-174v-211h125v-89h-125v-244h179z" />
    <glyph glyph-name="uni0204" unicode="&#x204;" horiz-adv-x="351" 
d="M342 0h-291v720h286l-11 -88h-174v-211h125v-89h-125v-244h179zM54 947h84l35 -164h-61l-58 155v9zM170 947h84l27 -164h-61l-50 155v9z" />
    <glyph glyph-name="Edieresis" unicode="&#xcb;" horiz-adv-x="351" 
d="M342 0h-291v720h286l-11 -88h-174v-211h125v-89h-125v-244h179zM159 887.5q15 -15.5 15 -39.5t-15 -39.5t-37 -15.5t-37 15.5t-15 39.5t15 39.5t37 15.5t37 -15.5zM305 887.5q15 -15.5 15 -39.5t-15 -39.5t-37 -15.5t-37 15.5t-15 39.5t15 39.5t37 15.5t37 -15.5z" />
    <glyph glyph-name="Edotaccent" unicode="&#x116;" horiz-adv-x="351" 
d="M342 0h-291v720h286l-11 -88h-174v-211h125v-89h-125v-244h179zM155 805.5q-16 16.5 -16 42.5t16 42.5t40 16.5t40 -16.5t16 -42.5t-16 -42.5t-40 -16.5t-40 16.5z" />
    <glyph glyph-name="uni1EB8" unicode="&#x1eb8;" horiz-adv-x="351" 
d="M342 0h-291v720h286l-11 -88h-174v-211h125v-89h-125v-244h179zM155 -189.5q-16 16.5 -16 42.5t16 42.5t40 16.5t40 -16.5t16 -42.5t-16 -42.5t-40 -16.5t-40 16.5z" />
    <glyph glyph-name="Egrave" unicode="&#xc8;" horiz-adv-x="351" 
d="M342 0h-291v720h286l-11 -88h-174v-211h125v-89h-125v-244h179zM84 947h100l48 -164h-72l-76 155v9z" />
    <glyph glyph-name="uni1EBA" unicode="&#x1eba;" horiz-adv-x="351" 
d="M342 0h-291v720h286l-11 -88h-174v-211h125v-89h-125v-244h179zM163 790q0 21 8 35t24 32q12 13 18 22.5t6 20.5q0 13 -7 20.5t-18 7.5q-12 0 -19 -10.5t-8 -29.5h-59q1 45 25.5 72.5t63.5 27.5q38 0 62 -24.5t24 -60.5q0 -24 -9 -40t-27 -36q-13 -14 -19 -23t-6 -20v-7
h-59v13z" />
    <glyph glyph-name="uni0206" unicode="&#x206;" horiz-adv-x="351" 
d="M342 0h-291v720h286l-11 -88h-174v-211h125v-89h-125v-244h179zM271 902q27 -44 27 -122h-65q0 44 -10 68.5t-28 24.5t-28 -24.5t-10 -68.5h-65q0 78 27 122t76 44t76 -44z" />
    <glyph glyph-name="Emacron" unicode="&#x112;" horiz-adv-x="351" 
d="M342 0h-291v720h286l-11 -88h-174v-211h125v-89h-125v-244h179zM105 871h179v-75h-179v75z" />
    <glyph glyph-name="uni1E16" unicode="&#x1e16;" horiz-adv-x="351" 
d="M342 0h-291v720h286l-11 -88h-174v-211h125v-89h-125v-244h179zM105 871h179v-75h-179v75zM221 926h-72l48 164h100v-9z" />
    <glyph glyph-name="uni1E14" unicode="&#x1e14;" horiz-adv-x="351" 
d="M342 0h-291v720h286l-11 -88h-174v-211h125v-89h-125v-244h179zM105 871h179v-75h-179v75zM84 1093h100l48 -164h-72l-76 155v9z" />
    <glyph glyph-name="Eogonek" unicode="&#x118;" horiz-adv-x="352" 
d="M362 -163q-31 -34 -85 -34q-43 0 -70.5 23t-27.5 68q0 31 16 58.5t49 47.5h-193v720h286l-11 -88h-174v-211h125v-89h-125v-244h179l11 -88q-43 -27 -59.5 -48t-16.5 -40q0 -15 8.5 -23t21.5 -8q18 0 39 18z" />
    <glyph glyph-name="uni1EBC" unicode="&#x1ebc;" horiz-adv-x="351" 
d="M342 0h-291v720h286l-11 -88h-174v-211h125v-89h-125v-244h179zM205.5 794.5q-13.5 8.5 -27.5 22.5q-7 7 -14 12.5t-13 5.5q-21 0 -22 -46h-59q1 55 20.5 88t62.5 33q18 0 31.5 -8.5t28.5 -23.5q7 -7 14 -12t12 -5q22 0 23 46h59q-1 -55 -21 -88t-63 -33q-18 0 -31.5 8.5
z" />
    <glyph glyph-name="F" unicode="F" horiz-adv-x="334" 
d="M152 631v-216h130v-89h-130v-326h-101v720h277v-89h-176z" />
    <glyph glyph-name="G" unicode="G" horiz-adv-x="398" 
d="M366 47q-66 -57 -143 -57q-100 0 -147 90t-47 277t45.5 280t140.5 93q46 0 82 -22.5t63 -74.5l-76 -54q-20 31 -34.5 44.5t-33.5 13.5q-44 0 -63.5 -68.5t-19.5 -210.5q0 -143 22 -209.5t70 -66.5q21 0 42 12v225h-68v90h167v-362z" />
    <glyph glyph-name="Gbreve" unicode="&#x11e;" horiz-adv-x="398" 
d="M366 47q-66 -57 -143 -57q-100 0 -147 90t-47 277t45.5 280t140.5 93q46 0 82 -22.5t63 -74.5l-76 -54q-20 31 -34.5 44.5t-33.5 13.5q-44 0 -63.5 -68.5t-19.5 -210.5q0 -143 22 -209.5t70 -66.5q21 0 42 12v225h-68v90h167v-362zM136 825q-27 44 -27 122h65
q0 -44 10 -68.5t28 -24.5t28 24.5t10 68.5h65q0 -78 -27 -122t-76 -44t-76 44z" />
    <glyph glyph-name="Gcaron" unicode="&#x1e6;" horiz-adv-x="398" 
d="M366 47q-66 -57 -143 -57q-100 0 -147 90t-47 277t45.5 280t140.5 93q46 0 82 -22.5t63 -74.5l-76 -54q-20 31 -34.5 44.5t-33.5 13.5q-44 0 -63.5 -68.5t-19.5 -210.5q0 -143 22 -209.5t70 -66.5q21 0 42 12v225h-68v90h167v-362zM326 944l-64 -164h-100l-65 164h71
l44 -93l43 93h71z" />
    <glyph glyph-name="Gcircumflex" unicode="&#x11c;" horiz-adv-x="398" 
d="M366 47q-66 -57 -143 -57q-100 0 -147 90t-47 277t45.5 280t140.5 93q46 0 82 -22.5t63 -74.5l-76 -54q-20 31 -34.5 44.5t-33.5 13.5q-44 0 -63.5 -68.5t-19.5 -210.5q0 -143 22 -209.5t70 -66.5q21 0 42 12v225h-68v90h167v-362zM255 780l-43 93l-44 -93h-71l65 164
h100l64 -164h-71z" />
    <glyph glyph-name="Gcommaaccent" unicode="&#x122;" horiz-adv-x="398" 
d="M366 47q-66 -57 -143 -57q-100 0 -147 90t-47 277t45.5 280t140.5 93q46 0 82 -22.5t63 -74.5l-76 -54q-20 31 -34.5 44.5t-33.5 13.5q-44 0 -63.5 -68.5t-19.5 -210.5q0 -143 22 -209.5t70 -66.5q21 0 42 12v225h-68v90h167v-362zM177 -59h98l-52 -154h-69z" />
    <glyph glyph-name="Gdotaccent" unicode="&#x120;" horiz-adv-x="398" 
d="M366 47q-66 -57 -143 -57q-100 0 -147 90t-47 277t45.5 280t140.5 93q46 0 82 -22.5t63 -74.5l-76 -54q-20 31 -34.5 44.5t-33.5 13.5q-44 0 -63.5 -68.5t-19.5 -210.5q0 -143 22 -209.5t70 -66.5q21 0 42 12v225h-68v90h167v-362zM172 805.5q-16 16.5 -16 42.5t16 42.5
t40 16.5t40 -16.5t16 -42.5t-16 -42.5t-40 -16.5t-40 16.5z" />
    <glyph glyph-name="uni1E20" unicode="&#x1e20;" horiz-adv-x="398" 
d="M366 47q-66 -57 -143 -57q-100 0 -147 90t-47 277t45.5 280t140.5 93q46 0 82 -22.5t63 -74.5l-76 -54q-20 31 -34.5 44.5t-33.5 13.5q-44 0 -63.5 -68.5t-19.5 -210.5q0 -143 22 -209.5t70 -66.5q21 0 42 12v225h-68v90h167v-362zM122 871h179v-75h-179v75z" />
    <glyph glyph-name="H" unicode="H" horiz-adv-x="447" 
d="M396 720v-720h-101v341h-143v-341h-101v720h101v-290h143v290h101z" />
    <glyph glyph-name="Hbar" unicode="&#x126;" horiz-adv-x="461" 
d="M445 525h-42v-525h-101v341h-143v-341h-101v525h-42v80h42v115h101v-115h143v115h101v-115h42v-80zM302 525h-143v-95h143v95z" />
    <glyph glyph-name="uni1E2A" unicode="&#x1e2a;" horiz-adv-x="447" 
d="M396 720v-720h-101v341h-143v-341h-101v720h101v-290h143v290h101zM148 -169q-27 44 -27 122h65q0 -44 10 -68.5t28 -24.5t28 24.5t10 68.5h65q0 -78 -27 -122t-76 -44t-76 44z" />
    <glyph glyph-name="Hcircumflex" unicode="&#x124;" horiz-adv-x="447" 
d="M396 720v-720h-101v341h-143v-341h-101v720h101v-290h143v290h101zM267 780l-43 93l-44 -93h-71l65 164h100l64 -164h-71z" />
    <glyph glyph-name="uni1E24" unicode="&#x1e24;" horiz-adv-x="447" 
d="M396 720v-720h-101v341h-143v-341h-101v720h101v-290h143v290h101zM184 -189.5q-16 16.5 -16 42.5t16 42.5t40 16.5t40 -16.5t16 -42.5t-16 -42.5t-40 -16.5t-40 16.5z" />
    <glyph glyph-name="I" unicode="I" horiz-adv-x="203" 
d="M152 720v-720h-101v720h101z" />
    <glyph glyph-name="Iacute" unicode="&#xcd;" horiz-adv-x="203" 
d="M152 720v-720h-101v720h101zM128 780h-72l48 164h100v-9z" />
    <glyph glyph-name="Ibreve" unicode="&#x12c;" horiz-adv-x="203" 
d="M152 720v-720h-101v720h101zM26 825q-27 44 -27 122h65q0 -44 10 -68.5t28 -24.5t28 24.5t10 68.5h65q0 -78 -27 -122t-76 -44t-76 44z" />
    <glyph glyph-name="Icircumflex" unicode="&#xce;" horiz-adv-x="203" 
d="M152 720v-720h-101v720h101zM145 780l-43 93l-44 -93h-71l65 164h100l64 -164h-71z" />
    <glyph glyph-name="uni0208" unicode="&#x208;" horiz-adv-x="203" 
d="M152 720v-720h-101v720h101zM-39 947h84l35 -164h-61l-58 155v9zM77 947h84l27 -164h-61l-50 155v9z" />
    <glyph glyph-name="Idieresis" unicode="&#xcf;" horiz-adv-x="203" 
d="M152 720v-720h-101v720h101zM66 887.5q15 -15.5 15 -39.5t-15 -39.5t-37 -15.5t-37 15.5t-15 39.5t15 39.5t37 15.5t37 -15.5zM212 887.5q15 -15.5 15 -39.5t-15 -39.5t-37 -15.5t-37 15.5t-15 39.5t15 39.5t37 15.5t37 -15.5z" />
    <glyph glyph-name="uni1E2E" unicode="&#x1e2e;" horiz-adv-x="203" 
d="M152 720v-720h-101v720h101zM66 887.5q15 -15.5 15 -39.5t-15 -39.5t-37 -15.5t-37 15.5t-15 39.5t15 39.5t37 15.5t37 -15.5zM212 887.5q15 -15.5 15 -39.5t-15 -39.5t-37 -15.5t-37 15.5t-15 39.5t15 39.5t37 15.5t37 -15.5zM128 981h-72l48 164h100v-9z" />
    <glyph glyph-name="Idotaccent" unicode="&#x130;" horiz-adv-x="203" 
d="M152 720v-720h-101v720h101zM62 805.5q-16 16.5 -16 42.5t16 42.5t40 16.5t40 -16.5t16 -42.5t-16 -42.5t-40 -16.5t-40 16.5z" />
    <glyph glyph-name="uni1ECA" unicode="&#x1eca;" horiz-adv-x="203" 
d="M152 720v-720h-101v720h101zM62 -189.5q-16 16.5 -16 42.5t16 42.5t40 16.5t40 -16.5t16 -42.5t-16 -42.5t-40 -16.5t-40 16.5z" />
    <glyph glyph-name="Igrave" unicode="&#xcc;" horiz-adv-x="203" 
d="M152 720v-720h-101v720h101zM-9 947h100l48 -164h-72l-76 155v9z" />
    <glyph glyph-name="uni1EC8" unicode="&#x1ec8;" horiz-adv-x="203" 
d="M152 720v-720h-101v720h101zM70 790q0 21 8 35t24 32q12 13 18 22.5t6 20.5q0 13 -7 20.5t-18 7.5q-12 0 -19 -10.5t-8 -29.5h-59q1 45 25.5 72.5t63.5 27.5q38 0 62 -24.5t24 -60.5q0 -24 -9 -40t-27 -36q-13 -14 -19 -23t-6 -20v-7h-59v13z" />
    <glyph glyph-name="uni020A" unicode="&#x20a;" horiz-adv-x="203" 
d="M152 720v-720h-101v720h101zM178 902q27 -44 27 -122h-65q0 44 -10 68.5t-28 24.5t-28 -24.5t-10 -68.5h-65q0 78 27 122t76 44t76 -44z" />
    <glyph glyph-name="Imacron" unicode="&#x12a;" horiz-adv-x="203" 
d="M152 720v-720h-101v720h101zM12 871h179v-75h-179v75z" />
    <glyph glyph-name="Iogonek" unicode="&#x12e;" horiz-adv-x="203" 
d="M192 -163q-31 -34 -85 -34q-43 0 -70.5 23t-27.5 68q0 30 14 58t40 48h-12v720h101v-720q-56 -52 -56 -88q0 -15 8.5 -23t21.5 -8q18 0 39 18z" />
    <glyph glyph-name="Itilde" unicode="&#x128;" horiz-adv-x="203" 
d="M110 804.5q-11 13.5 -25 39.5q-5 10 -10 18t-10 8q-8 0 -10.5 -16t-5.5 -57h-52q3 143 68 143q19 0 30.5 -14t25.5 -41q5 -10 9.5 -17.5t8.5 -7.5q9 0 12 16.5t5 57.5h52q-3 -143 -69 -143q-18 0 -29 13.5zM152 720v-720h-101v720h101z" />
    <glyph glyph-name="J" unicode="J" horiz-adv-x="343" 
d="M296 720v-571q0 -75 -39.5 -117t-106.5 -42q-69 0 -107 42.5t-38 120.5h97q1 -37 12.5 -54t35.5 -17q45 0 45 68v570h101z" />
    <glyph glyph-name="Jcircumflex" unicode="&#x134;" horiz-adv-x="343" 
d="M296 720v-571q0 -75 -39.5 -117t-106.5 -42q-69 0 -107 42.5t-38 120.5h97q1 -37 12.5 -54t35.5 -17q45 0 45 68v570h101zM288 780l-43 93l-44 -93h-71l65 164h100l64 -164h-71z" />
    <glyph glyph-name="K" unicode="K" horiz-adv-x="414" 
d="M197 342l-45 -92v-250h-101v720h101v-324l143 324h107l-139 -282l146 -438h-109z" />
    <glyph glyph-name="Kcommaaccent" unicode="&#x136;" horiz-adv-x="414" 
d="M197 342l-45 -92v-250h-101v720h101v-324l143 324h107l-139 -282l146 -438h-109zM172 -59h98l-52 -154h-69z" />
    <glyph glyph-name="L" unicode="L" horiz-adv-x="330" 
d="M325 90v-90h-274v720h101v-630h173z" />
    <glyph glyph-name="uni01C7" unicode="&#x1c7;" horiz-adv-x="692" 
d="M325 90v-90h-274v720h101v-630h173zM645 720v-571q0 -75 -39.5 -117t-106.5 -42q-69 0 -107 42.5t-38 120.5h97q1 -37 12.5 -54t35.5 -17q45 0 45 68v570h101z" />
    <glyph glyph-name="Lacute" unicode="&#x139;" horiz-adv-x="330" 
d="M325 90v-90h-274v720h101v-630h173zM127 780h-72l48 164h100v-9z" />
    <glyph glyph-name="Lcaron" unicode="&#x13d;" horiz-adv-x="330" 
d="M325 90v-90h-274v720h101v-630h173zM298 720l-25 -190h-61l5 190h81z" />
    <glyph glyph-name="Lcommaaccent" unicode="&#x13b;" horiz-adv-x="330" 
d="M325 90v-90h-274v720h101v-630h173zM158 -59h98l-52 -154h-69z" />
    <glyph glyph-name="Ldot" unicode="&#x13f;" horiz-adv-x="345" 
d="M152 90h173v-90h-274v720h101v-630zM231.5 358q-16.5 18 -16.5 47t16.5 47t42.5 18t42.5 -18t16.5 -47t-16.5 -47t-42.5 -18t-42.5 18z" />
    <glyph glyph-name="uni1E36" unicode="&#x1e36;" horiz-adv-x="330" 
d="M325 90v-90h-274v720h101v-630h173zM153 -189.5q-16 16.5 -16 42.5t16 42.5t40 16.5t40 -16.5t16 -42.5t-16 -42.5t-40 -16.5t-40 16.5z" />
    <glyph glyph-name="uni01C8" unicode="&#x1c8;" horiz-adv-x="508" 
d="M325 90v-90h-274v720h101v-630h173zM319 -180v82q12 -4 24 -4q28 0 28 30v620h96v-620q0 -58 -26.5 -87t-73.5 -29q-28 0 -48 8zM379 633.5q-16 16.5 -16 42.5t16 42.5t40 16.5t40 -16.5t16 -42.5t-16 -42.5t-40 -16.5t-40 16.5z" />
    <glyph glyph-name="uni1E3A" unicode="&#x1e3a;" horiz-adv-x="330" 
d="M325 90v-90h-274v720h101v-630h173zM104 -100h179v-75h-179v75z" />
    <glyph glyph-name="Lslash" unicode="&#x141;" horiz-adv-x="348" 
d="M343 90v-90h-274v251l-54 -43v97l54 43v372h101v-291l118 95v-97l-118 -95v-242h173z" />
    <glyph glyph-name="M" unicode="M" horiz-adv-x="543" 
d="M492 0h-97v528l-90 -493h-68l-89 476v-511h-97v720h135l86 -501l87 501h133v-720z" />
    <glyph glyph-name="uni1E42" unicode="&#x1e42;" horiz-adv-x="543" 
d="M492 0h-97v528l-90 -493h-68l-89 476v-511h-97v720h135l86 -501l87 501h133v-720zM232 -189.5q-16 16.5 -16 42.5t16 42.5t40 16.5t40 -16.5t16 -42.5t-16 -42.5t-40 -16.5t-40 16.5z" />
    <glyph glyph-name="N" unicode="N" horiz-adv-x="435" 
d="M384 720v-720h-108l-129 493v-493h-96v720h110l127 -487v487h96z" />
    <glyph glyph-name="uni01CA" unicode="&#x1ca;" horiz-adv-x="778" 
d="M384 720v-720h-108l-129 493v-493h-96v720h110l127 -487v487h96zM731 720v-571q0 -75 -39.5 -117t-106.5 -42q-69 0 -107 42.5t-38 120.5h97q1 -37 12.5 -54t35.5 -17q45 0 45 68v570h101z" />
    <glyph glyph-name="Nacute" unicode="&#x143;" horiz-adv-x="435" 
d="M384 720v-720h-108l-129 493v-493h-96v720h110l127 -487v487h96zM244 780h-72l48 164h100v-9z" />
    <glyph glyph-name="Ncaron" unicode="&#x147;" horiz-adv-x="435" 
d="M384 720v-720h-108l-129 493v-493h-96v720h110l127 -487v487h96zM332 944l-64 -164h-100l-65 164h71l44 -93l43 93h71z" />
    <glyph glyph-name="Ncommaaccent" unicode="&#x145;" horiz-adv-x="435" 
d="M384 720v-720h-108l-129 493v-493h-96v720h110l127 -487v487h96zM183 -59h98l-52 -154h-69z" />
    <glyph glyph-name="uni1E44" unicode="&#x1e44;" horiz-adv-x="435" 
d="M384 720v-720h-108l-129 493v-493h-96v720h110l127 -487v487h96zM178 805.5q-16 16.5 -16 42.5t16 42.5t40 16.5t40 -16.5t16 -42.5t-16 -42.5t-40 -16.5t-40 16.5z" />
    <glyph glyph-name="uni1E46" unicode="&#x1e46;" horiz-adv-x="435" 
d="M384 720v-720h-108l-129 493v-493h-96v720h110l127 -487v487h96zM178 -189.5q-16 16.5 -16 42.5t16 42.5t40 16.5t40 -16.5t16 -42.5t-16 -42.5t-40 -16.5t-40 16.5z" />
    <glyph glyph-name="Eng" unicode="&#x14a;" horiz-adv-x="435" 
d="M384 720v-792q0 -58 -26.5 -87t-73.5 -29q-28 0 -48 8v82q12 -4 24 -4q28 0 28 30v79l-141 498v-505h-96v720h110l127 -450v450h96z" />
    <glyph glyph-name="uni01CB" unicode="&#x1cb;" horiz-adv-x="638" 
d="M384 720v-720h-108l-129 493v-493h-96v720h110l127 -487v487h96zM449 -180v82q12 -4 24 -4q28 0 28 30v620h96v-620q0 -58 -26.5 -87t-73.5 -29q-28 0 -48 8zM509 633.5q-16 16.5 -16 42.5t16 42.5t40 16.5t40 -16.5t16 -42.5t-16 -42.5t-40 -16.5t-40 16.5z" />
    <glyph glyph-name="uni1E48" unicode="&#x1e48;" horiz-adv-x="435" 
d="M384 720v-720h-108l-129 493v-493h-96v720h110l127 -487v487h96zM129 -100h179v-75h-179v75z" />
    <glyph glyph-name="Ntilde" unicode="&#xd1;" horiz-adv-x="435" 
d="M384 720v-720h-108l-129 493v-493h-96v720h110l127 -487v487h96zM228.5 794.5q-13.5 8.5 -27.5 22.5q-7 7 -14 12.5t-13 5.5q-21 0 -22 -46h-59q1 55 20.5 88t62.5 33q18 0 31.5 -8.5t28.5 -23.5q7 -7 14 -12t12 -5q22 0 23 46h59q-1 -55 -21 -88t-63 -33
q-18 0 -31.5 8.5z" />
    <glyph glyph-name="O" unicode="O" horiz-adv-x="414" 
d="M29 360q0 370 178 370q89 0 133.5 -93.5t44.5 -276.5t-44.5 -276.5t-133.5 -93.5q-178 0 -178 370zM262 155.5q19 72.5 19 204.5t-19 204.5t-55 72.5t-55 -72.5t-19 -204.5t19 -204.5t55 -72.5t55 72.5z" />
    <glyph glyph-name="Oacute" unicode="&#xd3;" horiz-adv-x="414" 
d="M29 360q0 370 178 370q89 0 133.5 -93.5t44.5 -276.5t-44.5 -276.5t-133.5 -93.5q-178 0 -178 370zM262 155.5q19 72.5 19 204.5t-19 204.5t-55 72.5t-55 -72.5t-19 -204.5t19 -204.5t55 -72.5t55 72.5zM233 780h-72l48 164h100v-9z" />
    <glyph glyph-name="Obreve" unicode="&#x14e;" horiz-adv-x="414" 
d="M29 360q0 370 178 370q89 0 133.5 -93.5t44.5 -276.5t-44.5 -276.5t-133.5 -93.5q-178 0 -178 370zM262 155.5q19 72.5 19 204.5t-19 204.5t-55 72.5t-55 -72.5t-19 -204.5t19 -204.5t55 -72.5t55 72.5zM131 825q-27 44 -27 122h65q0 -44 10 -68.5t28 -24.5t28 24.5
t10 68.5h65q0 -78 -27 -122t-76 -44t-76 44z" />
    <glyph glyph-name="Ocircumflex" unicode="&#xd4;" horiz-adv-x="414" 
d="M29 360q0 370 178 370q89 0 133.5 -93.5t44.5 -276.5t-44.5 -276.5t-133.5 -93.5q-178 0 -178 370zM262 155.5q19 72.5 19 204.5t-19 204.5t-55 72.5t-55 -72.5t-19 -204.5t19 -204.5t55 -72.5t55 72.5zM250 780l-43 93l-44 -93h-71l65 164h100l64 -164h-71z" />
    <glyph glyph-name="uni1ED0" unicode="&#x1ed0;" horiz-adv-x="414" 
d="M410 1051v-9l-68 -140h-63l37 149h94zM163 780h-71l65 139h100l64 -139h-71l-43 76zM340.5 636.5q44.5 -93.5 44.5 -276.5t-44.5 -276.5t-133.5 -93.5q-178 0 -178 370t178 370q89 0 133.5 -93.5zM262 155.5q19 72.5 19 204.5t-19 204.5t-55 72.5t-55 -72.5t-19 -204.5
t19 -204.5t55 -72.5t55 72.5z" />
    <glyph glyph-name="uni1ED8" unicode="&#x1ed8;" horiz-adv-x="414" 
d="M29 360q0 370 178 370q89 0 133.5 -93.5t44.5 -276.5t-44.5 -276.5t-133.5 -93.5q-178 0 -178 370zM262 155.5q19 72.5 19 204.5t-19 204.5t-55 72.5t-55 -72.5t-19 -204.5t19 -204.5t55 -72.5t55 72.5zM167 -189.5q-16 16.5 -16 42.5t16 42.5t40 16.5t40 -16.5t16 -42.5
t-16 -42.5t-40 -16.5t-40 16.5zM250 780l-43 93l-44 -93h-71l65 164h100l64 -164h-71z" />
    <glyph glyph-name="uni1ED2" unicode="&#x1ed2;" horiz-adv-x="414" 
d="M322 899l-68 140v9h92l39 -149h-63zM163 780h-71l65 139h100l64 -139h-71l-43 76zM340.5 636.5q44.5 -93.5 44.5 -276.5t-44.5 -276.5t-133.5 -93.5q-178 0 -178 370t178 370q89 0 133.5 -93.5zM262 155.5q19 72.5 19 204.5t-19 204.5t-55 72.5t-55 -72.5t-19 -204.5
t19 -204.5t55 -72.5t55 72.5z" />
    <glyph glyph-name="uni1ED4" unicode="&#x1ed4;" horiz-adv-x="414" 
d="M310.5 1006.5q-5.5 -8.5 -6.5 -24.5h-56q1 40 23 65t57 25q34 0 55.5 -21.5t21.5 -54.5q0 -21 -8.5 -35.5t-24.5 -31.5q-11 -12 -16.5 -20.5t-5.5 -18.5v-7h-55v12q0 19 7 31.5t21 28.5q11 12 16 20t5 18q0 22 -19 22q-9 0 -14.5 -8.5zM163 780h-71l65 139h100l64 -139
h-71l-43 76zM340.5 636.5q44.5 -93.5 44.5 -276.5t-44.5 -276.5t-133.5 -93.5q-178 0 -178 370t178 370q89 0 133.5 -93.5zM262 155.5q19 72.5 19 204.5t-19 204.5t-55 72.5t-55 -72.5t-19 -204.5t19 -204.5t55 -72.5t55 72.5z" />
    <glyph glyph-name="uni1ED6" unicode="&#x1ed6;" horiz-adv-x="414" 
d="M159.5 1011q-2.5 -16 -5.5 -57h-52q3 143 68 143q19 0 30.5 -14t25.5 -41q5 -10 9.5 -17.5t8.5 -7.5q9 0 12 16.5t5 57.5h52q-3 -143 -69 -143q-18 0 -29 13.5t-25 39.5q-5 10 -10 18t-10 8q-8 0 -10.5 -16zM163 780h-71l65 139h100l64 -139h-71l-43 76zM340.5 636.5
q44.5 -93.5 44.5 -276.5t-44.5 -276.5t-133.5 -93.5q-178 0 -178 370t178 370q89 0 133.5 -93.5zM262 155.5q19 72.5 19 204.5t-19 204.5t-55 72.5t-55 -72.5t-19 -204.5t19 -204.5t55 -72.5t55 72.5z" />
    <glyph glyph-name="uni020C" unicode="&#x20c;" horiz-adv-x="414" 
d="M29 360q0 370 178 370q89 0 133.5 -93.5t44.5 -276.5t-44.5 -276.5t-133.5 -93.5q-178 0 -178 370zM262 155.5q19 72.5 19 204.5t-19 204.5t-55 72.5t-55 -72.5t-19 -204.5t19 -204.5t55 -72.5t55 72.5zM66 947h84l35 -164h-61l-58 155v9zM182 947h84l27 -164h-61
l-50 155v9z" />
    <glyph glyph-name="Odieresis" unicode="&#xd6;" horiz-adv-x="414" 
d="M29 360q0 370 178 370q89 0 133.5 -93.5t44.5 -276.5t-44.5 -276.5t-133.5 -93.5q-178 0 -178 370zM262 155.5q19 72.5 19 204.5t-19 204.5t-55 72.5t-55 -72.5t-19 -204.5t19 -204.5t55 -72.5t55 72.5zM171 887.5q15 -15.5 15 -39.5t-15 -39.5t-37 -15.5t-37 15.5
t-15 39.5t15 39.5t37 15.5t37 -15.5zM317 887.5q15 -15.5 15 -39.5t-15 -39.5t-37 -15.5t-37 15.5t-15 39.5t15 39.5t37 15.5t37 -15.5z" />
    <glyph glyph-name="uni022A" unicode="&#x22a;" horiz-adv-x="414" 
d="M29 360q0 370 178 370q89 0 133.5 -93.5t44.5 -276.5t-44.5 -276.5t-133.5 -93.5q-178 0 -178 370zM262 155.5q19 72.5 19 204.5t-19 204.5t-55 72.5t-55 -72.5t-19 -204.5t19 -204.5t55 -72.5t55 72.5zM171 887.5q15 -15.5 15 -39.5t-15 -39.5t-37 -15.5t-37 15.5
t-15 39.5t15 39.5t37 15.5t37 -15.5zM317 887.5q15 -15.5 15 -39.5t-15 -39.5t-37 -15.5t-37 15.5t-15 39.5t15 39.5t37 15.5t37 -15.5zM117 1038h179v-75h-179v75z" />
    <glyph glyph-name="uni0230" unicode="&#x230;" horiz-adv-x="414" 
d="M29 360q0 370 178 370q89 0 133.5 -93.5t44.5 -276.5t-44.5 -276.5t-133.5 -93.5q-178 0 -178 370zM262 155.5q19 72.5 19 204.5t-19 204.5t-55 72.5t-55 -72.5t-19 -204.5t19 -204.5t55 -72.5t55 72.5zM167 805.5q-16 16.5 -16 42.5t16 42.5t40 16.5t40 -16.5t16 -42.5
t-16 -42.5t-40 -16.5t-40 16.5zM117 1026h179v-75h-179v75z" />
    <glyph glyph-name="uni1ECC" unicode="&#x1ecc;" horiz-adv-x="414" 
d="M29 360q0 370 178 370q89 0 133.5 -93.5t44.5 -276.5t-44.5 -276.5t-133.5 -93.5q-178 0 -178 370zM262 155.5q19 72.5 19 204.5t-19 204.5t-55 72.5t-55 -72.5t-19 -204.5t19 -204.5t55 -72.5t55 72.5zM167 -189.5q-16 16.5 -16 42.5t16 42.5t40 16.5t40 -16.5t16 -42.5
t-16 -42.5t-40 -16.5t-40 16.5z" />
    <glyph glyph-name="Ograve" unicode="&#xd2;" horiz-adv-x="414" 
d="M29 360q0 370 178 370q89 0 133.5 -93.5t44.5 -276.5t-44.5 -276.5t-133.5 -93.5q-178 0 -178 370zM262 155.5q19 72.5 19 204.5t-19 204.5t-55 72.5t-55 -72.5t-19 -204.5t19 -204.5t55 -72.5t55 72.5zM96 947h100l48 -164h-72l-76 155v9z" />
    <glyph glyph-name="uni1ECE" unicode="&#x1ece;" horiz-adv-x="414" 
d="M29 360q0 370 178 370q89 0 133.5 -93.5t44.5 -276.5t-44.5 -276.5t-133.5 -93.5q-178 0 -178 370zM262 155.5q19 72.5 19 204.5t-19 204.5t-55 72.5t-55 -72.5t-19 -204.5t19 -204.5t55 -72.5t55 72.5zM175 790q0 21 8 35t24 32q12 13 18 22.5t6 20.5q0 13 -7 20.5
t-18 7.5q-12 0 -19 -10.5t-8 -29.5h-59q1 45 25.5 72.5t63.5 27.5q38 0 62 -24.5t24 -60.5q0 -24 -9 -40t-27 -36q-13 -14 -19 -23t-6 -20v-7h-59v13z" />
    <glyph glyph-name="Ohorn" unicode="&#x1a0;" horiz-adv-x="417" 
d="M326 666q59 -94 59 -306q0 -185 -44.5 -279t-133.5 -94q-178 0 -178 373t178 373q18 0 36 -5q6 -1 12.5 -2t12.5 -1q21 0 28.5 13t7.5 41q0 36 -15 84h90q13 -30 13 -76q0 -98 -66 -121zM261.5 152.5q18.5 72.5 18.5 207.5t-18.5 207.5t-54.5 72.5t-55 -73t-19 -207
t19 -207t55 -73t54.5 72.5z" />
    <glyph glyph-name="uni1EDA" unicode="&#x1eda;" horiz-adv-x="417" 
d="M326 666q59 -94 59 -306q0 -185 -44.5 -279t-133.5 -94q-178 0 -178 373t178 373q18 0 36 -5q6 -1 12.5 -2t12.5 -1q21 0 28.5 13t7.5 41q0 36 -15 84h90q13 -30 13 -76q0 -98 -66 -121zM261.5 152.5q18.5 72.5 18.5 207.5t-18.5 207.5t-54.5 72.5t-55 -73t-19 -207
t19 -207t55 -73t54.5 72.5zM208 780h-72l48 164h100v-9z" />
    <glyph glyph-name="uni1EE2" unicode="&#x1ee2;" horiz-adv-x="417" 
d="M326 666q59 -94 59 -306q0 -185 -44.5 -279t-133.5 -94q-178 0 -178 373t178 373q18 0 36 -5q6 -1 12.5 -2t12.5 -1q21 0 28.5 13t7.5 41q0 36 -15 84h90q13 -30 13 -76q0 -98 -66 -121zM261.5 152.5q18.5 72.5 18.5 207.5t-18.5 207.5t-54.5 72.5t-55 -73t-19 -207
t19 -207t55 -73t54.5 72.5zM171 -189.5q-16 16.5 -16 42.5t16 42.5t40 16.5t40 -16.5t16 -42.5t-16 -42.5t-40 -16.5t-40 16.5z" />
    <glyph glyph-name="uni1EDC" unicode="&#x1edc;" horiz-adv-x="417" 
d="M326 666q59 -94 59 -306q0 -185 -44.5 -279t-133.5 -94q-178 0 -178 373t178 373q18 0 36 -5q6 -1 12.5 -2t12.5 -1q21 0 28.5 13t7.5 41q0 36 -15 84h90q13 -30 13 -76q0 -98 -66 -121zM261.5 152.5q18.5 72.5 18.5 207.5t-18.5 207.5t-54.5 72.5t-55 -73t-19 -207
t19 -207t55 -73t54.5 72.5zM100 947h100l48 -164h-72l-76 155v9z" />
    <glyph glyph-name="uni1EDE" unicode="&#x1ede;" horiz-adv-x="417" 
d="M326 666q59 -94 59 -306q0 -185 -44.5 -279t-133.5 -94q-178 0 -178 373t178 373q18 0 36 -5q6 -1 12.5 -2t12.5 -1q21 0 28.5 13t7.5 41q0 36 -15 84h90q13 -30 13 -76q0 -98 -66 -121zM261.5 152.5q18.5 72.5 18.5 207.5t-18.5 207.5t-54.5 72.5t-55 -73t-19 -207
t19 -207t55 -73t54.5 72.5zM179 790q0 21 8 35t24 32q12 13 18 22.5t6 20.5q0 13 -7 20.5t-18 7.5q-12 0 -19 -10.5t-8 -29.5h-59q1 45 25.5 72.5t63.5 27.5q38 0 62 -24.5t24 -60.5q0 -24 -9 -40t-27 -36q-13 -14 -19 -23t-6 -20v-7h-59v13z" />
    <glyph glyph-name="uni1EE0" unicode="&#x1ee0;" horiz-adv-x="417" 
d="M133.5 854q-2.5 -16 -5.5 -57h-52q3 143 68 143q19 0 30.5 -14t25.5 -41q5 -10 9.5 -17.5t8.5 -7.5q9 0 12 16.5t5 57.5h52q-3 -143 -69 -143q-18 0 -29 13.5t-25 39.5q-5 10 -10 18t-10 8q-8 0 -10.5 -16zM326 666q59 -94 59 -306q0 -185 -44.5 -279t-133.5 -94
q-178 0 -178 373t178 373q18 0 36 -5q6 -1 12.5 -2t12.5 -1q21 0 28.5 13t7.5 41q0 36 -15 84h90q13 -30 13 -76q0 -98 -66 -121zM261.5 152.5q18.5 72.5 18.5 207.5t-18.5 207.5t-54.5 72.5t-55 -73t-19 -207t19 -207t55 -73t54.5 72.5z" />
    <glyph glyph-name="Ohungarumlaut" unicode="&#x150;" horiz-adv-x="414" 
d="M29 360q0 370 178 370q89 0 133.5 -93.5t44.5 -276.5t-44.5 -276.5t-133.5 -93.5q-178 0 -178 370zM262 155.5q19 72.5 19 204.5t-19 204.5t-55 72.5t-55 -72.5t-19 -204.5t19 -204.5t55 -72.5t55 72.5zM177 780h-61l27 164h84v-9zM285 780h-61l35 164h84v-9z" />
    <glyph glyph-name="uni020E" unicode="&#x20e;" horiz-adv-x="414" 
d="M29 360q0 370 178 370q89 0 133.5 -93.5t44.5 -276.5t-44.5 -276.5t-133.5 -93.5q-178 0 -178 370zM262 155.5q19 72.5 19 204.5t-19 204.5t-55 72.5t-55 -72.5t-19 -204.5t19 -204.5t55 -72.5t55 72.5zM283 902q27 -44 27 -122h-65q0 44 -10 68.5t-28 24.5t-28 -24.5
t-10 -68.5h-65q0 78 27 122t76 44t76 -44z" />
    <glyph glyph-name="Omacron" unicode="&#x14c;" horiz-adv-x="414" 
d="M29 360q0 370 178 370q89 0 133.5 -93.5t44.5 -276.5t-44.5 -276.5t-133.5 -93.5q-178 0 -178 370zM262 155.5q19 72.5 19 204.5t-19 204.5t-55 72.5t-55 -72.5t-19 -204.5t19 -204.5t55 -72.5t55 72.5zM117 871h179v-75h-179v75z" />
    <glyph glyph-name="uni1E52" unicode="&#x1e52;" horiz-adv-x="414" 
d="M29 360q0 370 178 370q89 0 133.5 -93.5t44.5 -276.5t-44.5 -276.5t-133.5 -93.5q-178 0 -178 370zM262 155.5q19 72.5 19 204.5t-19 204.5t-55 72.5t-55 -72.5t-19 -204.5t19 -204.5t55 -72.5t55 72.5zM117 871h179v-75h-179v75zM233 926h-72l48 164h100v-9z" />
    <glyph glyph-name="uni1E50" unicode="&#x1e50;" horiz-adv-x="414" 
d="M29 360q0 370 178 370q89 0 133.5 -93.5t44.5 -276.5t-44.5 -276.5t-133.5 -93.5q-178 0 -178 370zM262 155.5q19 72.5 19 204.5t-19 204.5t-55 72.5t-55 -72.5t-19 -204.5t19 -204.5t55 -72.5t55 72.5zM117 871h179v-75h-179v75zM96 1093h100l48 -164h-72l-76 155v9z
" />
    <glyph glyph-name="uni01EA" unicode="&#x1ea;" horiz-adv-x="414" 
d="M276 -101l27 -62q-31 -34 -85 -34q-43 0 -70.5 23t-27.5 68q0 62 53 100q-144 33 -144 366q0 370 178 370q89 0 133.5 -93.5t44.5 -276.5v-1q0 -127 -18 -201.5t-44 -108.5t-62 -58q-33 -22 -43.5 -40.5t-10.5 -38.5q0 -15 8.5 -23t21.5 -8q18 0 39 18zM152 564.5
q-19 -72.5 -19 -204.5t19 -204.5t55 -72.5t55 72.5t19 204.5t-19 204.5t-55 72.5t-55 -72.5z" />
    <glyph glyph-name="Oslash" unicode="&#xd8;" horiz-adv-x="419" 
d="M344 637q44 -92 44 -277t-44.5 -279t-133.5 -94q-46 0 -80 25l-21 -66h-80l47 137q-44 91 -44 277q0 373 178 373q44 0 79 -24l21 65h81zM152 566q-21 -74 -21 -206q0 -69 6 -123l118 365q-20 38 -45 38q-37 0 -58 -74zM268 154q21 74 21 206q0 69 -6 123l-118 -364
q18 -39 45 -39q37 0 58 74z" />
    <glyph glyph-name="Oslashacute" unicode="&#x1fe;" horiz-adv-x="421" 
d="M344 637q44 -92 44 -277t-44.5 -279t-133.5 -94q-46 0 -80 25l-21 -66h-80l47 137q-44 91 -44 277q0 373 178 373q44 0 79 -24l21 65h81zM152 566q-21 -74 -21 -206q0 -69 6 -123l118 365q-20 38 -45 38q-37 0 -58 -74zM268 154q21 74 21 206q0 69 -6 123l-118 -364
q18 -39 45 -39q37 0 58 74zM241 780h-72l48 164h100v-9z" />
    <glyph glyph-name="Otilde" unicode="&#xd5;" horiz-adv-x="414" 
d="M29 360q0 370 178 370q89 0 133.5 -93.5t44.5 -276.5t-44.5 -276.5t-133.5 -93.5q-178 0 -178 370zM262 155.5q19 72.5 19 204.5t-19 204.5t-55 72.5t-55 -72.5t-19 -204.5t19 -204.5t55 -72.5t55 72.5zM217.5 794.5q-13.5 8.5 -27.5 22.5q-7 7 -14 12.5t-13 5.5
q-21 0 -22 -46h-59q1 55 20.5 88t62.5 33q18 0 31.5 -8.5t28.5 -23.5q7 -7 14 -12t12 -5q22 0 23 46h59q-1 -55 -21 -88t-63 -33q-18 0 -31.5 8.5z" />
    <glyph glyph-name="uni1E4C" unicode="&#x1e4c;" horiz-adv-x="414" 
d="M29 360q0 370 178 370q89 0 133.5 -93.5t44.5 -276.5t-44.5 -276.5t-133.5 -93.5q-178 0 -178 370zM262 155.5q19 72.5 19 204.5t-19 204.5t-55 72.5t-55 -72.5t-19 -204.5t19 -204.5t55 -72.5t55 72.5zM217.5 794.5q-13.5 8.5 -27.5 22.5q-7 7 -14 12.5t-13 5.5
q-21 0 -22 -46h-59q1 55 20.5 88t62.5 33q18 0 31.5 -8.5t28.5 -23.5q7 -7 14 -12t12 -5q22 0 23 46h59q-1 -55 -21 -88t-63 -33q-18 0 -31.5 8.5zM233 951h-72l48 164h100v-9z" />
    <glyph glyph-name="uni1E4E" unicode="&#x1e4e;" horiz-adv-x="414" 
d="M29 360q0 370 178 370q89 0 133.5 -93.5t44.5 -276.5t-44.5 -276.5t-133.5 -93.5q-178 0 -178 370zM262 155.5q19 72.5 19 204.5t-19 204.5t-55 72.5t-55 -72.5t-19 -204.5t19 -204.5t55 -72.5t55 72.5zM217.5 794.5q-13.5 8.5 -27.5 22.5q-7 7 -14 12.5t-13 5.5
q-21 0 -22 -46h-59q1 55 20.5 88t62.5 33q18 0 31.5 -8.5t28.5 -23.5q7 -7 14 -12t12 -5q22 0 23 46h59q-1 -55 -21 -88t-63 -33q-18 0 -31.5 8.5zM171 1058.5q15 -15.5 15 -39.5t-15 -39.5t-37 -15.5t-37 15.5t-15 39.5t15 39.5t37 15.5t37 -15.5zM317 1058.5
q15 -15.5 15 -39.5t-15 -39.5t-37 -15.5t-37 15.5t-15 39.5t15 39.5t37 15.5t37 -15.5z" />
    <glyph glyph-name="uni022C" unicode="&#x22c;" horiz-adv-x="414" 
d="M29 360q0 370 178 370q89 0 133.5 -93.5t44.5 -276.5t-44.5 -276.5t-133.5 -93.5q-178 0 -178 370zM262 155.5q19 72.5 19 204.5t-19 204.5t-55 72.5t-55 -72.5t-19 -204.5t19 -204.5t55 -72.5t55 72.5zM217.5 794.5q-13.5 8.5 -27.5 22.5q-7 7 -14 12.5t-13 5.5
q-21 0 -22 -46h-59q1 55 20.5 88t62.5 33q18 0 31.5 -8.5t28.5 -23.5q7 -7 14 -12t12 -5q22 0 23 46h59q-1 -55 -21 -88t-63 -33q-18 0 -31.5 8.5zM117 1027h179v-75h-179v75z" />
    <glyph glyph-name="OE" unicode="&#x152;" horiz-adv-x="583" 
d="M573 0h-283v59q-30 -69 -92 -69q-83 0 -125.5 93.5t-42.5 276.5t42.5 276.5t125.5 93.5q62 0 92 -69v59h278l-11 -88h-180v-211h120v-89h-120v-244h185zM262.5 154.5q18.5 71.5 18.5 205.5t-18.5 205.5t-54.5 71.5t-55 -71.5t-19 -205.5t19 -205.5t55 -71.5t54.5 71.5z
" />
    <glyph glyph-name="P" unicode="P" horiz-adv-x="385" 
d="M324 663q46 -57 46 -163t-46 -163t-130 -57h-42v-280h-101v720h143q84 0 130 -57zM247.5 400q18.5 33 18.5 100t-18.5 100t-59.5 33h-36v-266h36q41 0 59.5 33z" />
    <glyph glyph-name="Thorn" unicode="&#xde;" horiz-adv-x="383" 
d="M322 524q46 -57 46 -163t-46 -163t-130 -57h-40v-141h-101v720h101v-139h40q84 0 130 -57zM245.5 261q18.5 33 18.5 100t-18.5 100t-59.5 33h-34v-266h34q41 0 59.5 33z" />
    <glyph glyph-name="Q" unicode="Q" horiz-adv-x="416" 
d="M325 54l51 -118l-74 -34l-42 98q-23 -10 -52 -10q-89 0 -134 93.5t-45 276.5t45 276.5t134 93.5t134 -94t45 -276q0 -214 -62 -306zM223 86l-58 135l64 30l38 -81q16 68 16 190q0 132 -19.5 204.5t-55.5 72.5t-55.5 -72.5t-19.5 -204.5t19.5 -204.5t55.5 -72.5q8 0 15 3z
" />
    <glyph glyph-name="R" unicode="R" horiz-adv-x="403" 
d="M284 0l-80 291h-7h-45v-291h-101v720h146q79 0 126 -57t47 -160q0 -65 -19.5 -111.5t-55.5 -71.5l95 -320h-106zM191 375q36 0 55.5 33.5t19.5 96.5q0 61 -19.5 94.5t-55.5 33.5h-39v-258h39z" />
    <glyph glyph-name="Racute" unicode="&#x154;" horiz-adv-x="403" 
d="M284 0l-80 291h-7h-45v-291h-101v720h146q79 0 126 -57t47 -160q0 -65 -19.5 -111.5t-55.5 -71.5l95 -320h-106zM191 375q36 0 55.5 33.5t19.5 96.5q0 61 -19.5 94.5t-55.5 33.5h-39v-258h39zM218 780h-72l48 164h100v-9z" />
    <glyph glyph-name="Rcaron" unicode="&#x158;" horiz-adv-x="403" 
d="M284 0l-80 291h-7h-45v-291h-101v720h146q79 0 126 -57t47 -160q0 -65 -19.5 -111.5t-55.5 -71.5l95 -320h-106zM191 375q36 0 55.5 33.5t19.5 96.5q0 61 -19.5 94.5t-55.5 33.5h-39v-258h39zM306 944l-64 -164h-100l-65 164h71l44 -93l43 93h71z" />
    <glyph glyph-name="Rcommaaccent" unicode="&#x156;" horiz-adv-x="403" 
d="M284 0l-80 291h-7h-45v-291h-101v720h146q79 0 126 -57t47 -160q0 -65 -19.5 -111.5t-55.5 -71.5l95 -320h-106zM191 375q36 0 55.5 33.5t19.5 96.5q0 61 -19.5 94.5t-55.5 33.5h-39v-258h39zM169 -59h98l-52 -154h-69z" />
    <glyph glyph-name="uni0210" unicode="&#x210;" horiz-adv-x="403" 
d="M284 0l-80 291h-7h-45v-291h-101v720h146q79 0 126 -57t47 -160q0 -65 -19.5 -111.5t-55.5 -71.5l95 -320h-106zM191 375q36 0 55.5 33.5t19.5 96.5q0 61 -19.5 94.5t-55.5 33.5h-39v-258h39zM51 947h84l35 -164h-61l-58 155v9zM167 947h84l27 -164h-61l-50 155v9z" />
    <glyph glyph-name="uni1E5A" unicode="&#x1e5a;" horiz-adv-x="403" 
d="M284 0l-80 291h-7h-45v-291h-101v720h146q79 0 126 -57t47 -160q0 -65 -19.5 -111.5t-55.5 -71.5l95 -320h-106zM191 375q36 0 55.5 33.5t19.5 96.5q0 61 -19.5 94.5t-55.5 33.5h-39v-258h39zM164 -189.5q-16 16.5 -16 42.5t16 42.5t40 16.5t40 -16.5t16 -42.5t-16 -42.5
t-40 -16.5t-40 16.5z" />
    <glyph glyph-name="uni0212" unicode="&#x212;" horiz-adv-x="403" 
d="M284 0l-80 291h-7h-45v-291h-101v720h146q79 0 126 -57t47 -160q0 -65 -19.5 -111.5t-55.5 -71.5l95 -320h-106zM191 375q36 0 55.5 33.5t19.5 96.5q0 61 -19.5 94.5t-55.5 33.5h-39v-258h39zM268 902q27 -44 27 -122h-65q0 44 -10 68.5t-28 24.5t-28 -24.5t-10 -68.5
h-65q0 78 27 122t76 44t76 -44z" />
    <glyph glyph-name="uni1E5E" unicode="&#x1e5e;" horiz-adv-x="403" 
d="M284 0l-80 291h-7h-45v-291h-101v720h146q79 0 126 -57t47 -160q0 -65 -19.5 -111.5t-55.5 -71.5l95 -320h-106zM191 375q36 0 55.5 33.5t19.5 96.5q0 61 -19.5 94.5t-55.5 33.5h-39v-258h39zM115 -100h179v-75h-179v75z" />
    <glyph glyph-name="S" unicode="S" horiz-adv-x="348" 
d="M80.5 12.5q-40.5 22.5 -69.5 76.5l81 51q31 -57 74 -57q30 0 47.5 25.5t17.5 71.5q0 37 -13.5 66.5t-42.5 55.5l-58 54q-46 43 -72.5 89.5t-26.5 108.5q0 80 43 128t112 48q99 0 142 -95l-77 -51q-27 53 -64 53q-26 0 -41.5 -21t-15.5 -54q0 -35 17 -60.5t49 -56.5
l55 -53q46 -44 69.5 -93.5t23.5 -110.5q0 -91 -44.5 -144.5t-120.5 -53.5q-45 0 -85.5 22.5z" />
    <glyph glyph-name="Sacute" unicode="&#x15a;" horiz-adv-x="348" 
d="M80.5 12.5q-40.5 22.5 -69.5 76.5l81 51q31 -57 74 -57q30 0 47.5 25.5t17.5 71.5q0 37 -13.5 66.5t-42.5 55.5l-58 54q-46 43 -72.5 89.5t-26.5 108.5q0 80 43 128t112 48q99 0 142 -95l-77 -51q-27 53 -64 53q-26 0 -41.5 -21t-15.5 -54q0 -35 17 -60.5t49 -56.5
l55 -53q46 -44 69.5 -93.5t23.5 -110.5q0 -91 -44.5 -144.5t-120.5 -53.5q-45 0 -85.5 22.5zM200 780h-72l48 164h100v-9z" />
    <glyph glyph-name="uni1E64" unicode="&#x1e64;" horiz-adv-x="348" 
d="M80.5 12.5q-40.5 22.5 -69.5 76.5l81 51q31 -57 74 -57q30 0 47.5 25.5t17.5 71.5q0 37 -13.5 66.5t-42.5 55.5l-58 54q-46 43 -72.5 89.5t-26.5 108.5q0 80 43 128t112 48q99 0 142 -95l-77 -51q-27 53 -64 53q-26 0 -41.5 -21t-15.5 -54q0 -35 17 -60.5t49 -56.5
l55 -53q46 -44 69.5 -93.5t23.5 -110.5q0 -91 -44.5 -144.5t-120.5 -53.5q-45 0 -85.5 22.5zM233 780h-72l48 164h100v-9zM77 922.5q-16 16.5 -16 42.5t16 42.5t40 16.5t40 -16.5t16 -42.5t-16 -42.5t-40 -16.5t-40 16.5z" />
    <glyph glyph-name="Scaron" unicode="&#x160;" horiz-adv-x="348" 
d="M80.5 12.5q-40.5 22.5 -69.5 76.5l81 51q31 -57 74 -57q30 0 47.5 25.5t17.5 71.5q0 37 -13.5 66.5t-42.5 55.5l-58 54q-46 43 -72.5 89.5t-26.5 108.5q0 80 43 128t112 48q99 0 142 -95l-77 -51q-27 53 -64 53q-26 0 -41.5 -21t-15.5 -54q0 -35 17 -60.5t49 -56.5
l55 -53q46 -44 69.5 -93.5t23.5 -110.5q0 -91 -44.5 -144.5t-120.5 -53.5q-45 0 -85.5 22.5zM288 944l-64 -164h-100l-65 164h71l44 -93l43 93h71z" />
    <glyph glyph-name="uni1E66" unicode="&#x1e66;" horiz-adv-x="348" 
d="M80.5 12.5q-40.5 22.5 -69.5 76.5l81 51q31 -57 74 -57q30 0 47.5 25.5t17.5 71.5q0 37 -13.5 66.5t-42.5 55.5l-58 54q-46 43 -72.5 89.5t-26.5 108.5q0 80 43 128t112 48q99 0 142 -95l-77 -51q-27 53 -64 53q-26 0 -41.5 -21t-15.5 -54q0 -35 17 -60.5t49 -56.5
l55 -53q46 -44 69.5 -93.5t23.5 -110.5q0 -91 -44.5 -144.5t-120.5 -53.5q-45 0 -85.5 22.5zM288 944l-64 -164h-100l-65 164h71l44 -93l43 93h71zM134 992.5q-16 16.5 -16 42.5t16 42.5t40 16.5t40 -16.5t16 -42.5t-16 -42.5t-40 -16.5t-40 16.5z" />
    <glyph glyph-name="Scedilla" unicode="&#x15e;" horiz-adv-x="348" 
d="M80.5 12.5q-40.5 22.5 -69.5 76.5l81 51q31 -57 74 -57q30 0 47.5 25.5t17.5 71.5q0 37 -13.5 66.5t-42.5 55.5l-58 54q-46 43 -72.5 89.5t-26.5 108.5q0 80 43 128t112 48q99 0 142 -95l-77 -51q-27 53 -64 53q-26 0 -41.5 -21t-15.5 -54q0 -35 17 -60.5t49 -56.5
l55 -53q46 -44 69.5 -93.5t23.5 -110.5q0 -91 -44.5 -144.5t-120.5 -53.5q-45 0 -85.5 22.5zM245.5 -64q22.5 -23 22.5 -60q0 -42 -28 -67.5t-76 -25.5q-54 0 -93 30l27 49q32 -21 57 -21q19 0 29.5 9.5t10.5 25.5t-9.5 26t-27.5 10q-14 0 -27 -6l-16 13l46 101h56l-33 -61
h5q34 0 56.5 -23z" />
    <glyph glyph-name="Scircumflex" unicode="&#x15c;" horiz-adv-x="348" 
d="M80.5 12.5q-40.5 22.5 -69.5 76.5l81 51q31 -57 74 -57q30 0 47.5 25.5t17.5 71.5q0 37 -13.5 66.5t-42.5 55.5l-58 54q-46 43 -72.5 89.5t-26.5 108.5q0 80 43 128t112 48q99 0 142 -95l-77 -51q-27 53 -64 53q-26 0 -41.5 -21t-15.5 -54q0 -35 17 -60.5t49 -56.5
l55 -53q46 -44 69.5 -93.5t23.5 -110.5q0 -91 -44.5 -144.5t-120.5 -53.5q-45 0 -85.5 22.5zM217 780l-43 93l-44 -93h-71l65 164h100l64 -164h-71z" />
    <glyph glyph-name="Scommaaccent" unicode="&#x218;" horiz-adv-x="348" 
d="M80.5 12.5q-40.5 22.5 -69.5 76.5l81 51q31 -57 74 -57q30 0 47.5 25.5t17.5 71.5q0 37 -13.5 66.5t-42.5 55.5l-58 54q-46 43 -72.5 89.5t-26.5 108.5q0 80 43 128t112 48q99 0 142 -95l-77 -51q-27 53 -64 53q-26 0 -41.5 -21t-15.5 -54q0 -35 17 -60.5t49 -56.5
l55 -53q46 -44 69.5 -93.5t23.5 -110.5q0 -91 -44.5 -144.5t-120.5 -53.5q-45 0 -85.5 22.5zM139 -59h98l-52 -154h-69z" />
    <glyph glyph-name="uni1E60" unicode="&#x1e60;" horiz-adv-x="348" 
d="M80.5 12.5q-40.5 22.5 -69.5 76.5l81 51q31 -57 74 -57q30 0 47.5 25.5t17.5 71.5q0 37 -13.5 66.5t-42.5 55.5l-58 54q-46 43 -72.5 89.5t-26.5 108.5q0 80 43 128t112 48q99 0 142 -95l-77 -51q-27 53 -64 53q-26 0 -41.5 -21t-15.5 -54q0 -35 17 -60.5t49 -56.5
l55 -53q46 -44 69.5 -93.5t23.5 -110.5q0 -91 -44.5 -144.5t-120.5 -53.5q-45 0 -85.5 22.5zM134 805.5q-16 16.5 -16 42.5t16 42.5t40 16.5t40 -16.5t16 -42.5t-16 -42.5t-40 -16.5t-40 16.5z" />
    <glyph glyph-name="uni1E62" unicode="&#x1e62;" horiz-adv-x="348" 
d="M80.5 12.5q-40.5 22.5 -69.5 76.5l81 51q31 -57 74 -57q30 0 47.5 25.5t17.5 71.5q0 37 -13.5 66.5t-42.5 55.5l-58 54q-46 43 -72.5 89.5t-26.5 108.5q0 80 43 128t112 48q99 0 142 -95l-77 -51q-27 53 -64 53q-26 0 -41.5 -21t-15.5 -54q0 -35 17 -60.5t49 -56.5
l55 -53q46 -44 69.5 -93.5t23.5 -110.5q0 -91 -44.5 -144.5t-120.5 -53.5q-45 0 -85.5 22.5zM134 -189.5q-16 16.5 -16 42.5t16 42.5t40 16.5t40 -16.5t16 -42.5t-16 -42.5t-40 -16.5t-40 16.5z" />
    <glyph glyph-name="uni1E68" unicode="&#x1e68;" horiz-adv-x="348" 
d="M80.5 12.5q-40.5 22.5 -69.5 76.5l81 51q31 -57 74 -57q30 0 47.5 25.5t17.5 71.5q0 37 -13.5 66.5t-42.5 55.5l-58 54q-46 43 -72.5 89.5t-26.5 108.5q0 80 43 128t112 48q99 0 142 -95l-77 -51q-27 53 -64 53q-26 0 -41.5 -21t-15.5 -54q0 -35 17 -60.5t49 -56.5
l55 -53q46 -44 69.5 -93.5t23.5 -110.5q0 -91 -44.5 -144.5t-120.5 -53.5q-45 0 -85.5 22.5zM134 -189.5q-16 16.5 -16 42.5t16 42.5t40 16.5t40 -16.5t16 -42.5t-16 -42.5t-40 -16.5t-40 16.5zM134 805.5q-16 16.5 -16 42.5t16 42.5t40 16.5t40 -16.5t16 -42.5t-16 -42.5
t-40 -16.5t-40 16.5z" />
    <glyph glyph-name="uni1E9E" unicode="&#x1e9e;" horiz-adv-x="422" 
d="M281.5 256.5q20.5 -42.5 20.5 -86.5q0 -86 -62 -86q-29 0 -65 21v-90q28 -21 81 -21q73 0 111 51t38 131q0 127 -107 234l89 260q-73 60 -164 60q-87 0 -132.5 -55t-45.5 -150v-525h101v512q0 63 18 95t59 32q28 0 53 -15l-69 -210v-67q54 -48 74.5 -90.5z" />
    <glyph glyph-name="uni018F" unicode="&#x18f;" horiz-adv-x="404" 
d="M329 637.5q46 -92.5 46 -277.5q0 -186 -44 -278t-134 -92t-134 92.5t-44 278.5q0 18 4 34h249q-2 122 -22.5 182t-62.5 60q-20 0 -35 -13.5t-35 -44.5l-76 54q27 52 63.5 74.5t83.5 22.5q95 0 141 -92.5zM271 313h-148q4 -230 74 -230q68 0 74 230z" />
    <glyph glyph-name="T" unicode="T" horiz-adv-x="331" 
d="M326 630h-110v-630h-101v630h-110v90h321v-90z" />
    <glyph glyph-name="Tbar" unicode="&#x166;" horiz-adv-x="337" 
d="M219 630v-197h79v-80h-79v-353h-101v353h-79v80h79v197h-110v90h321v-90h-110z" />
    <glyph glyph-name="Tcaron" unicode="&#x164;" horiz-adv-x="331" 
d="M326 630h-110v-630h-101v630h-110v90h321v-90zM280 944l-64 -164h-100l-65 164h71l44 -93l43 93h71z" />
    <glyph glyph-name="uni0162" unicode="&#x162;" horiz-adv-x="331" 
d="M326 630h-110v-630h-101v630h-110v90h321v-90zM237.5 -64q22.5 -23 22.5 -60q0 -42 -28 -67.5t-76 -25.5q-54 0 -93 30l27 49q32 -21 57 -21q19 0 29.5 9.5t10.5 25.5t-9.5 26t-27.5 10q-14 0 -27 -6l-16 13l46 101h56l-33 -61h5q34 0 56.5 -23z" />
    <glyph glyph-name="uni021A" unicode="&#x21a;" horiz-adv-x="331" 
d="M326 630h-110v-630h-101v630h-110v90h321v-90zM131 -59h98l-52 -154h-69z" />
    <glyph glyph-name="uni1E6C" unicode="&#x1e6c;" horiz-adv-x="331" 
d="M326 630h-110v-630h-101v630h-110v90h321v-90zM126 -189.5q-16 16.5 -16 42.5t16 42.5t40 16.5t40 -16.5t16 -42.5t-16 -42.5t-40 -16.5t-40 16.5z" />
    <glyph glyph-name="uni1E6E" unicode="&#x1e6e;" horiz-adv-x="331" 
d="M326 630h-110v-630h-101v630h-110v90h321v-90zM77 -100h179v-75h-179v75z" />
    <glyph glyph-name="U" unicode="U" horiz-adv-x="416" 
d="M253 103.5q16 20.5 16 58.5v558h101v-558q0 -81 -43 -126.5t-119 -45.5t-119 45.5t-43 126.5v558h101v-558q0 -38 16 -58.5t45 -20.5t45 20.5z" />
    <glyph glyph-name="Uacute" unicode="&#xda;" horiz-adv-x="416" 
d="M253 103.5q16 20.5 16 58.5v558h101v-558q0 -81 -43 -126.5t-119 -45.5t-119 45.5t-43 126.5v558h101v-558q0 -38 16 -58.5t45 -20.5t45 20.5zM234 780h-72l48 164h100v-9z" />
    <glyph glyph-name="Ubreve" unicode="&#x16c;" horiz-adv-x="416" 
d="M253 103.5q16 20.5 16 58.5v558h101v-558q0 -81 -43 -126.5t-119 -45.5t-119 45.5t-43 126.5v558h101v-558q0 -38 16 -58.5t45 -20.5t45 20.5zM132 825q-27 44 -27 122h65q0 -44 10 -68.5t28 -24.5t28 24.5t10 68.5h65q0 -78 -27 -122t-76 -44t-76 44z" />
    <glyph glyph-name="Ucircumflex" unicode="&#xdb;" horiz-adv-x="416" 
d="M253 103.5q16 20.5 16 58.5v558h101v-558q0 -81 -43 -126.5t-119 -45.5t-119 45.5t-43 126.5v558h101v-558q0 -38 16 -58.5t45 -20.5t45 20.5zM251 780l-43 93l-44 -93h-71l65 164h100l64 -164h-71z" />
    <glyph glyph-name="uni0214" unicode="&#x214;" horiz-adv-x="416" 
d="M253 103.5q16 20.5 16 58.5v558h101v-558q0 -81 -43 -126.5t-119 -45.5t-119 45.5t-43 126.5v558h101v-558q0 -38 16 -58.5t45 -20.5t45 20.5zM67 947h84l35 -164h-61l-58 155v9zM183 947h84l27 -164h-61l-50 155v9z" />
    <glyph glyph-name="Udieresis" unicode="&#xdc;" horiz-adv-x="416" 
d="M253 103.5q16 20.5 16 58.5v558h101v-558q0 -81 -43 -126.5t-119 -45.5t-119 45.5t-43 126.5v558h101v-558q0 -38 16 -58.5t45 -20.5t45 20.5zM172 887.5q15 -15.5 15 -39.5t-15 -39.5t-37 -15.5t-37 15.5t-15 39.5t15 39.5t37 15.5t37 -15.5zM318 887.5
q15 -15.5 15 -39.5t-15 -39.5t-37 -15.5t-37 15.5t-15 39.5t15 39.5t37 15.5t37 -15.5z" />
    <glyph glyph-name="uni1EE4" unicode="&#x1ee4;" horiz-adv-x="416" 
d="M253 103.5q16 20.5 16 58.5v558h101v-558q0 -81 -43 -126.5t-119 -45.5t-119 45.5t-43 126.5v558h101v-558q0 -38 16 -58.5t45 -20.5t45 20.5zM168 -189.5q-16 16.5 -16 42.5t16 42.5t40 16.5t40 -16.5t16 -42.5t-16 -42.5t-40 -16.5t-40 16.5z" />
    <glyph glyph-name="Ugrave" unicode="&#xd9;" horiz-adv-x="416" 
d="M253 103.5q16 20.5 16 58.5v558h101v-558q0 -81 -43 -126.5t-119 -45.5t-119 45.5t-43 126.5v558h101v-558q0 -38 16 -58.5t45 -20.5t45 20.5zM97 947h100l48 -164h-72l-76 155v9z" />
    <glyph glyph-name="uni1EE6" unicode="&#x1ee6;" horiz-adv-x="416" 
d="M253 103.5q16 20.5 16 58.5v558h101v-558q0 -81 -43 -126.5t-119 -45.5t-119 45.5t-43 126.5v558h101v-558q0 -38 16 -58.5t45 -20.5t45 20.5zM176 790q0 21 8 35t24 32q12 13 18 22.5t6 20.5q0 13 -7 20.5t-18 7.5q-12 0 -19 -10.5t-8 -29.5h-59q1 45 25.5 72.5
t63.5 27.5q38 0 62 -24.5t24 -60.5q0 -24 -9 -40t-27 -36q-13 -14 -19 -23t-6 -20v-7h-59v13z" />
    <glyph glyph-name="Uhorn" unicode="&#x1af;" horiz-adv-x="423" 
d="M370 664v-502q0 -81 -43 -126.5t-119 -45.5t-119 45.5t-43 126.5v558h101v-558q0 -38 16 -58.5t45 -20.5t45 20.5t16 58.5v558h29q28 0 39 15t11 44q0 36 -15 84h90q13 -30 13 -76q0 -95 -66 -123z" />
    <glyph glyph-name="uni1EE8" unicode="&#x1ee8;" horiz-adv-x="423" 
d="M370 664v-502q0 -81 -43 -126.5t-119 -45.5t-119 45.5t-43 126.5v558h101v-558q0 -38 16 -58.5t45 -20.5t45 20.5t16 58.5v558h29q28 0 39 15t11 44q0 36 -15 84h90q13 -30 13 -76q0 -95 -66 -123zM234 780h-72l48 164h100v-9z" />
    <glyph glyph-name="uni1EF0" unicode="&#x1ef0;" horiz-adv-x="423" 
d="M370 664v-502q0 -81 -43 -126.5t-119 -45.5t-119 45.5t-43 126.5v558h101v-558q0 -38 16 -58.5t45 -20.5t45 20.5t16 58.5v558h29q28 0 39 15t11 44q0 36 -15 84h90q13 -30 13 -76q0 -95 -66 -123zM168 -189.5q-16 16.5 -16 42.5t16 42.5t40 16.5t40 -16.5t16 -42.5
t-16 -42.5t-40 -16.5t-40 16.5z" />
    <glyph glyph-name="uni1EEA" unicode="&#x1eea;" horiz-adv-x="423" 
d="M370 664v-502q0 -81 -43 -126.5t-119 -45.5t-119 45.5t-43 126.5v558h101v-558q0 -38 16 -58.5t45 -20.5t45 20.5t16 58.5v558h29q28 0 39 15t11 44q0 36 -15 84h90q13 -30 13 -76q0 -95 -66 -123zM97 947h100l48 -164h-72l-76 155v9z" />
    <glyph glyph-name="uni1EEC" unicode="&#x1eec;" horiz-adv-x="423" 
d="M370 664v-502q0 -81 -43 -126.5t-119 -45.5t-119 45.5t-43 126.5v558h101v-558q0 -38 16 -58.5t45 -20.5t45 20.5t16 58.5v558h29q28 0 39 15t11 44q0 36 -15 84h90q13 -30 13 -76q0 -95 -66 -123zM176 790q0 21 8 35t24 32q12 13 18 22.5t6 20.5q0 13 -7 20.5t-18 7.5
q-12 0 -19 -10.5t-8 -29.5h-59q1 45 25.5 72.5t63.5 27.5q38 0 62 -24.5t24 -60.5q0 -24 -9 -40t-27 -36q-13 -14 -19 -23t-6 -20v-7h-59v13z" />
    <glyph glyph-name="uni1EEE" unicode="&#x1eee;" horiz-adv-x="423" 
d="M370 664v-502q0 -81 -43 -126.5t-119 -45.5t-119 45.5t-43 126.5v558h101v-558q0 -38 16 -58.5t45 -20.5t45 20.5t16 58.5v558h29q28 0 39 15t11 44q0 36 -15 84h90q13 -30 13 -76q0 -95 -66 -123zM218.5 794.5q-13.5 8.5 -27.5 22.5q-7 7 -14 12.5t-13 5.5
q-21 0 -22 -46h-59q1 55 20.5 88t62.5 33q18 0 31.5 -8.5t28.5 -23.5q7 -7 14 -12t12 -5q22 0 23 46h59q-1 -55 -21 -88t-63 -33q-18 0 -31.5 8.5z" />
    <glyph glyph-name="Uhungarumlaut" unicode="&#x170;" horiz-adv-x="416" 
d="M253 103.5q16 20.5 16 58.5v558h101v-558q0 -81 -43 -126.5t-119 -45.5t-119 45.5t-43 126.5v558h101v-558q0 -38 16 -58.5t45 -20.5t45 20.5zM178 780h-61l27 164h84v-9zM286 780h-61l35 164h84v-9z" />
    <glyph glyph-name="uni0216" unicode="&#x216;" horiz-adv-x="416" 
d="M253 103.5q16 20.5 16 58.5v558h101v-558q0 -81 -43 -126.5t-119 -45.5t-119 45.5t-43 126.5v558h101v-558q0 -38 16 -58.5t45 -20.5t45 20.5zM284 902q27 -44 27 -122h-65q0 44 -10 68.5t-28 24.5t-28 -24.5t-10 -68.5h-65q0 78 27 122t76 44t76 -44z" />
    <glyph glyph-name="Umacron" unicode="&#x16a;" horiz-adv-x="416" 
d="M253 103.5q16 20.5 16 58.5v558h101v-558q0 -81 -43 -126.5t-119 -45.5t-119 45.5t-43 126.5v558h101v-558q0 -38 16 -58.5t45 -20.5t45 20.5zM118 871h179v-75h-179v75z" />
    <glyph glyph-name="uni1E7A" unicode="&#x1e7a;" horiz-adv-x="416" 
d="M253 103.5q16 20.5 16 58.5v558h101v-558q0 -81 -43 -126.5t-119 -45.5t-119 45.5t-43 126.5v558h101v-558q0 -38 16 -58.5t45 -20.5t45 20.5zM118 871h179v-75h-179v75zM172 1033.5q15 -15.5 15 -39.5t-15 -39.5t-37 -15.5t-37 15.5t-15 39.5t15 39.5t37 15.5t37 -15.5z
M318 1033.5q15 -15.5 15 -39.5t-15 -39.5t-37 -15.5t-37 15.5t-15 39.5t15 39.5t37 15.5t37 -15.5z" />
    <glyph glyph-name="Uogonek" unicode="&#x172;" horiz-adv-x="416" 
d="M370 720v-558q0 -54 -19.5 -93t-56.5 -59q-11 -11 -23 -19q-33 -22 -43.5 -40.5t-10.5 -38.5q0 -15 8.5 -23t21.5 -8q18 0 39 18l27 -62q-31 -34 -85 -34q-43 0 -70.5 23t-27.5 68q0 60 50 98q-64 8 -99 52.5t-35 117.5v558h101v-558q0 -38 16 -58.5t45 -20.5t45 20.5
t16 58.5v558h101z" />
    <glyph glyph-name="Uring" unicode="&#x16e;" horiz-adv-x="416" 
d="M253 103.5q16 20.5 16 58.5v558h101v-558q0 -81 -43 -126.5t-119 -45.5t-119 45.5t-43 126.5v558h101v-558q0 -38 16 -58.5t45 -20.5t45 20.5zM132.5 797.5q-29.5 28.5 -29.5 72.5t29.5 72.5t75.5 28.5t75.5 -28.5t29.5 -72.5t-29.5 -72.5t-75.5 -28.5t-75.5 28.5z
M240.5 836q12.5 13 12.5 34t-12.5 34t-32.5 13t-32.5 -13t-12.5 -34t12.5 -34t32.5 -13t32.5 13z" />
    <glyph glyph-name="Utilde" unicode="&#x168;" horiz-adv-x="416" 
d="M253 103.5q16 20.5 16 58.5v558h101v-558q0 -81 -43 -126.5t-119 -45.5t-119 45.5t-43 126.5v558h101v-558q0 -38 16 -58.5t45 -20.5t45 20.5zM218.5 794.5q-13.5 8.5 -27.5 22.5q-7 7 -14 12.5t-13 5.5q-21 0 -22 -46h-59q1 55 20.5 88t62.5 33q18 0 31.5 -8.5
t28.5 -23.5q7 -7 14 -12t12 -5q22 0 23 46h59q-1 -55 -21 -88t-63 -33q-18 0 -31.5 8.5z" />
    <glyph glyph-name="uni1E78" unicode="&#x1e78;" horiz-adv-x="416" 
d="M253 103.5q16 20.5 16 58.5v558h101v-558q0 -81 -43 -126.5t-119 -45.5t-119 45.5t-43 126.5v558h101v-558q0 -38 16 -58.5t45 -20.5t45 20.5zM218.5 794.5q-13.5 8.5 -27.5 22.5q-7 7 -14 12.5t-13 5.5q-21 0 -22 -46h-59q1 55 20.5 88t62.5 33q18 0 31.5 -8.5
t28.5 -23.5q7 -7 14 -12t12 -5q22 0 23 46h59q-1 -55 -21 -88t-63 -33q-18 0 -31.5 8.5zM234 951h-72l48 164h100v-9z" />
    <glyph glyph-name="V" unicode="V" horiz-adv-x="388" 
d="M380 720l-122 -720h-128l-122 720h107l80 -579l80 579h105z" />
    <glyph glyph-name="W" unicode="W" horiz-adv-x="578" 
d="M568 720l-107 -720h-117l-56 511l-58 -511h-116l-104 720h104l64 -581l65 578h97l63 -576l64 579h101z" />
    <glyph glyph-name="Wacute" unicode="&#x1e82;" horiz-adv-x="578" 
d="M568 720l-107 -720h-117l-56 511l-58 -511h-116l-104 720h104l64 -581l65 578h97l63 -576l64 579h101zM315 780h-72l48 164h100v-9z" />
    <glyph glyph-name="Wcircumflex" unicode="&#x174;" horiz-adv-x="578" 
d="M568 720l-107 -720h-117l-56 511l-58 -511h-116l-104 720h104l64 -581l65 578h97l63 -576l64 579h101zM332 780l-43 93l-44 -93h-71l65 164h100l64 -164h-71z" />
    <glyph glyph-name="Wdieresis" unicode="&#x1e84;" horiz-adv-x="578" 
d="M568 720l-107 -720h-117l-56 511l-58 -511h-116l-104 720h104l64 -581l65 578h97l63 -576l64 579h101zM253 887.5q15 -15.5 15 -39.5t-15 -39.5t-37 -15.5t-37 15.5t-15 39.5t15 39.5t37 15.5t37 -15.5zM399 887.5q15 -15.5 15 -39.5t-15 -39.5t-37 -15.5t-37 15.5
t-15 39.5t15 39.5t37 15.5t37 -15.5z" />
    <glyph glyph-name="Wgrave" unicode="&#x1e80;" horiz-adv-x="578" 
d="M568 720l-107 -720h-117l-56 511l-58 -511h-116l-104 720h104l64 -581l65 578h97l63 -576l64 579h101zM178 947h100l48 -164h-72l-76 155v9z" />
    <glyph glyph-name="X" unicode="X" horiz-adv-x="380" 
d="M261 0l-71 262l-73 -262h-111l130 371l-123 349h113l66 -240l61 240h111l-117 -348l127 -372h-113z" />
    <glyph glyph-name="Y" unicode="Y" horiz-adv-x="376" 
d="M240 278v-278h-101v271l-136 449h110l77 -328l76 328h107z" />
    <glyph glyph-name="Yacute" unicode="&#xdd;" horiz-adv-x="376" 
d="M240 278v-278h-101v271l-136 449h110l77 -328l76 328h107zM214 780h-72l48 164h100v-9z" />
    <glyph glyph-name="Ycircumflex" unicode="&#x176;" horiz-adv-x="376" 
d="M240 278v-278h-101v271l-136 449h110l77 -328l76 328h107zM231 780l-43 93l-44 -93h-71l65 164h100l64 -164h-71z" />
    <glyph glyph-name="Ydieresis" unicode="&#x178;" horiz-adv-x="376" 
d="M240 278v-278h-101v271l-136 449h110l77 -328l76 328h107zM152 887.5q15 -15.5 15 -39.5t-15 -39.5t-37 -15.5t-37 15.5t-15 39.5t15 39.5t37 15.5t37 -15.5zM298 887.5q15 -15.5 15 -39.5t-15 -39.5t-37 -15.5t-37 15.5t-15 39.5t15 39.5t37 15.5t37 -15.5z" />
    <glyph glyph-name="uni1E8E" unicode="&#x1e8e;" horiz-adv-x="376" 
d="M240 278v-278h-101v271l-136 449h110l77 -328l76 328h107zM148 805.5q-16 16.5 -16 42.5t16 42.5t40 16.5t40 -16.5t16 -42.5t-16 -42.5t-40 -16.5t-40 16.5z" />
    <glyph glyph-name="uni1EF4" unicode="&#x1ef4;" horiz-adv-x="376" 
d="M240 278v-278h-101v271l-136 449h110l77 -328l76 328h107zM148 -189.5q-16 16.5 -16 42.5t16 42.5t40 16.5t40 -16.5t16 -42.5t-16 -42.5t-40 -16.5t-40 16.5z" />
    <glyph glyph-name="Ygrave" unicode="&#x1ef2;" horiz-adv-x="376" 
d="M240 278v-278h-101v271l-136 449h110l77 -328l76 328h107zM77 947h100l48 -164h-72l-76 155v9z" />
    <glyph glyph-name="uni1EF6" unicode="&#x1ef6;" horiz-adv-x="376" 
d="M240 278v-278h-101v271l-136 449h110l77 -328l76 328h107zM156 790q0 21 8 35t24 32q12 13 18 22.5t6 20.5q0 13 -7 20.5t-18 7.5q-12 0 -19 -10.5t-8 -29.5h-59q1 45 25.5 72.5t63.5 27.5q38 0 62 -24.5t24 -60.5q0 -24 -9 -40t-27 -36q-13 -14 -19 -23t-6 -20v-7h-59
v13z" />
    <glyph glyph-name="uni0232" unicode="&#x232;" horiz-adv-x="376" 
d="M240 278v-278h-101v271l-136 449h110l77 -328l76 328h107zM98 871h179v-75h-179v75z" />
    <glyph glyph-name="uni1EF8" unicode="&#x1ef8;" horiz-adv-x="376" 
d="M240 278v-278h-101v271l-136 449h110l77 -328l76 328h107zM198.5 794.5q-13.5 8.5 -27.5 22.5q-7 7 -14 12.5t-13 5.5q-21 0 -22 -46h-59q1 55 20.5 88t62.5 33q18 0 31.5 -8.5t28.5 -23.5q7 -7 14 -12t12 -5q22 0 23 46h59q-1 -55 -21 -88t-63 -33q-18 0 -31.5 8.5z" />
    <glyph glyph-name="Z" unicode="Z" horiz-adv-x="335" 
d="M321 87v-87h-306v78l188 555h-179v87h290v-79l-188 -554h195z" />
    <glyph glyph-name="Zacute" unicode="&#x179;" horiz-adv-x="335" 
d="M321 87v-87h-306v78l188 555h-179v87h290v-79l-188 -554h195zM197 780h-72l48 164h100v-9z" />
    <glyph glyph-name="Zcaron" unicode="&#x17d;" horiz-adv-x="335" 
d="M321 87v-87h-306v78l188 555h-179v87h290v-79l-188 -554h195zM285 944l-64 -164h-100l-65 164h71l44 -93l43 93h71z" />
    <glyph glyph-name="Zdotaccent" unicode="&#x17b;" horiz-adv-x="335" 
d="M321 87v-87h-306v78l188 555h-179v87h290v-79l-188 -554h195zM131 805.5q-16 16.5 -16 42.5t16 42.5t40 16.5t40 -16.5t16 -42.5t-16 -42.5t-40 -16.5t-40 16.5z" />
    <glyph glyph-name="uni1E92" unicode="&#x1e92;" horiz-adv-x="335" 
d="M321 87v-87h-306v78l188 555h-179v87h290v-79l-188 -554h195zM131 -189.5q-16 16.5 -16 42.5t16 42.5t40 16.5t40 -16.5t16 -42.5t-16 -42.5t-40 -16.5t-40 16.5z" />
    <glyph glyph-name="M.ss01" horiz-adv-x="565" 
d="M514 0h-120v518l-70 -486h-84l-69 465v-497h-120v720h161l71 -481l69 481h162v-720z" />
    <glyph glyph-name="a" unicode="a" horiz-adv-x="337" 
d="M324 81v-78q-14 -8 -34 -8q-59 0 -74 58q-12 -32 -34.5 -47t-51.5 -15q-51 0 -85 44t-34 124q0 85 41 132t115 47h34v70q0 62 -45 62q-18 0 -40.5 -11.5t-41.5 -27.5l-47 72q30 27 66 41t70 14q63 0 97.5 -34.5t34.5 -108.5v-312q0 -13 5.5 -18.5t12.5 -5.5q6 0 11 2z
M187 102.5q14 25.5 14 67.5v90h-32q-32 0 -48 -26t-16 -72q0 -41 11.5 -63t33.5 -22q23 0 37 25.5z" />
    <glyph glyph-name="aacute" unicode="&#xe1;" horiz-adv-x="337" 
d="M324 81v-78q-14 -8 -34 -8q-59 0 -74 58q-12 -32 -34.5 -47t-51.5 -15q-51 0 -85 44t-34 124q0 85 41 132t115 47h34v70q0 62 -45 62q-18 0 -40.5 -11.5t-41.5 -27.5l-47 72q30 27 66 41t70 14q63 0 97.5 -34.5t34.5 -108.5v-312q0 -13 5.5 -18.5t12.5 -5.5q6 0 11 2z
M187 102.5q14 25.5 14 67.5v90h-32q-32 0 -48 -26t-16 -72q0 -41 11.5 -63t33.5 -22q23 0 37 25.5zM188 608h-72l48 164h100v-9z" />
    <glyph glyph-name="abreve" unicode="&#x103;" horiz-adv-x="337" 
d="M324 81v-78q-14 -8 -34 -8q-59 0 -74 58q-12 -32 -34.5 -47t-51.5 -15q-51 0 -85 44t-34 124q0 85 41 132t115 47h34v70q0 62 -45 62q-18 0 -40.5 -11.5t-41.5 -27.5l-47 72q30 27 66 41t70 14q63 0 97.5 -34.5t34.5 -108.5v-312q0 -13 5.5 -18.5t12.5 -5.5q6 0 11 2z
M187 102.5q14 25.5 14 67.5v90h-32q-32 0 -48 -26t-16 -72q0 -41 11.5 -63t33.5 -22q23 0 37 25.5zM86 653q-27 44 -27 122h65q0 -44 10 -68.5t28 -24.5t28 24.5t10 68.5h65q0 -78 -27 -122t-76 -44t-76 44z" />
    <glyph glyph-name="uni1EAF" unicode="&#x1eaf;" horiz-adv-x="337" 
d="M190 768h-63l37 149h94v-9zM86 643q-27 37 -27 104h60q0 -35 11.5 -54.5t31.5 -19.5t31.5 19.5t11.5 54.5h60q0 -67 -27 -104t-76 -37t-76 37zM324 81v-78q-14 -8 -34 -8q-59 0 -74 58q-12 -32 -34.5 -47t-51.5 -15q-51 0 -85 44t-34 124q0 85 41 132t115 47h34v70
q0 62 -45 62q-18 0 -40.5 -11.5t-41.5 -27.5l-47 72q30 27 66 41t70 14q63 0 97.5 -34.5t34.5 -108.5v-312q0 -13 5.5 -18.5t12.5 -5.5q6 0 11 2zM187 102.5q14 25.5 14 67.5v90h-32q-32 0 -48 -26t-16 -72q0 -41 11.5 -63t33.5 -22q23 0 37 25.5z" />
    <glyph glyph-name="uni1EB7" unicode="&#x1eb7;" horiz-adv-x="337" 
d="M324 81v-78q-14 -8 -34 -8q-59 0 -74 58q-12 -32 -34.5 -47t-51.5 -15q-51 0 -85 44t-34 124q0 85 41 132t115 47h34v70q0 62 -45 62q-18 0 -40.5 -11.5t-41.5 -27.5l-47 72q30 27 66 41t70 14q63 0 97.5 -34.5t34.5 -108.5v-312q0 -13 5.5 -18.5t12.5 -5.5q6 0 11 2z
M187 102.5q14 25.5 14 67.5v90h-32q-32 0 -48 -26t-16 -72q0 -41 11.5 -63t33.5 -22q23 0 37 25.5zM128 -189.5q-16 16.5 -16 42.5t16 42.5t40 16.5t40 -16.5t16 -42.5t-16 -42.5t-40 -16.5t-40 16.5zM86 653q-27 44 -27 122h65q0 -44 10 -68.5t28 -24.5t28 24.5t10 68.5h65
q0 -78 -27 -122t-76 -44t-76 44z" />
    <glyph glyph-name="uni1EB1" unicode="&#x1eb1;" horiz-adv-x="337" 
d="M131 765l-68 140v9h92l39 -149h-63zM86 643q-27 37 -27 104h60q0 -35 11.5 -54.5t31.5 -19.5t31.5 19.5t11.5 54.5h60q0 -67 -27 -104t-76 -37t-76 37zM324 81v-78q-14 -8 -34 -8q-59 0 -74 58q-12 -32 -34.5 -47t-51.5 -15q-51 0 -85 44t-34 124q0 85 41 132t115 47h34
v70q0 62 -45 62q-18 0 -40.5 -11.5t-41.5 -27.5l-47 72q30 27 66 41t70 14q63 0 97.5 -34.5t34.5 -108.5v-312q0 -13 5.5 -18.5t12.5 -5.5q6 0 11 2zM187 102.5q14 25.5 14 67.5v90h-32q-32 0 -48 -26t-16 -72q0 -41 11.5 -63t33.5 -22q23 0 37 25.5z" />
    <glyph glyph-name="uni1EB3" unicode="&#x1eb3;" horiz-adv-x="337" 
d="M144.5 874.5q-5.5 -8.5 -6.5 -24.5h-56q1 40 23 65t57 25q34 0 55.5 -21.5t21.5 -54.5q0 -21 -8.5 -35.5t-24.5 -31.5q-11 -12 -16.5 -20.5t-5.5 -18.5v-7h-55v12q0 19 7 31.5t21 28.5q11 12 16 20t5 18q0 22 -19 22q-9 0 -14.5 -8.5zM86 643q-27 37 -27 104h60
q0 -35 11.5 -54.5t31.5 -19.5t31.5 19.5t11.5 54.5h60q0 -67 -27 -104t-76 -37t-76 37zM324 81v-78q-14 -8 -34 -8q-59 0 -74 58q-12 -32 -34.5 -47t-51.5 -15q-51 0 -85 44t-34 124q0 85 41 132t115 47h34v70q0 62 -45 62q-18 0 -40.5 -11.5t-41.5 -27.5l-47 72
q30 27 66 41t70 14q63 0 97.5 -34.5t34.5 -108.5v-312q0 -13 5.5 -18.5t12.5 -5.5q6 0 11 2zM187 102.5q14 25.5 14 67.5v90h-32q-32 0 -48 -26t-16 -72q0 -41 11.5 -63t33.5 -22q23 0 37 25.5z" />
    <glyph glyph-name="uni1EB5" unicode="&#x1eb5;" horiz-adv-x="337" 
d="M114.5 840q-2.5 -16 -5.5 -57h-52q3 143 68 143q19 0 30.5 -14t25.5 -41q5 -10 9.5 -17.5t8.5 -7.5q9 0 12 16.5t5 57.5h52q-3 -143 -69 -143q-18 0 -29 13.5t-25 39.5q-5 10 -10 18t-10 8q-8 0 -10.5 -16zM193.5 692.5q11.5 19.5 11.5 54.5h60q0 -67 -27 -104t-76 -37
t-76 37t-27 104h60q0 -35 11.5 -54.5t31.5 -19.5t31.5 19.5zM324 81v-78q-14 -8 -34 -8q-59 0 -74 58q-12 -32 -34.5 -47t-51.5 -15q-51 0 -85 44t-34 124q0 85 41 132t115 47h34v70q0 62 -45 62q-18 0 -40.5 -11.5t-41.5 -27.5l-47 72q30 27 66 41t70 14q63 0 97.5 -34.5
t34.5 -108.5v-312q0 -13 5.5 -18.5t12.5 -5.5q6 0 11 2zM187 102.5q14 25.5 14 67.5v90h-32q-32 0 -48 -26t-16 -72q0 -41 11.5 -63t33.5 -22q23 0 37 25.5z" />
    <glyph glyph-name="acircumflex" unicode="&#xe2;" horiz-adv-x="337" 
d="M324 81v-78q-14 -8 -34 -8q-59 0 -74 58q-12 -32 -34.5 -47t-51.5 -15q-51 0 -85 44t-34 124q0 85 41 132t115 47h34v70q0 62 -45 62q-18 0 -40.5 -11.5t-41.5 -27.5l-47 72q30 27 66 41t70 14q63 0 97.5 -34.5t34.5 -108.5v-312q0 -13 5.5 -18.5t12.5 -5.5q6 0 11 2z
M187 102.5q14 25.5 14 67.5v90h-32q-32 0 -48 -26t-16 -72q0 -41 11.5 -63t33.5 -22q23 0 37 25.5zM205 608l-43 93l-44 -93h-71l65 164h100l64 -164h-71z" />
    <glyph glyph-name="uni1EA5" unicode="&#x1ea5;" horiz-adv-x="337" 
d="M365 879v-9l-68 -140h-63l37 149h94zM118 608h-71l65 139h100l64 -139h-71l-43 76zM300.5 84.5q5.5 -5.5 12.5 -5.5q6 0 11 2v-78q-14 -8 -34 -8q-59 0 -74 58q-12 -32 -34.5 -47t-51.5 -15q-51 0 -85 44t-34 124q0 85 41 132t115 47h34v70q0 62 -45 62
q-18 0 -40.5 -11.5t-41.5 -27.5l-47 72q30 27 66 41t70 14q63 0 97.5 -34.5t34.5 -108.5v-312q0 -13 5.5 -18.5zM187 102.5q14 25.5 14 67.5v90h-32q-32 0 -48 -26t-16 -72q0 -41 11.5 -63t33.5 -22q23 0 37 25.5z" />
    <glyph glyph-name="uni1EAD" unicode="&#x1ead;" horiz-adv-x="337" 
d="M324 81v-78q-14 -8 -34 -8q-59 0 -74 58q-12 -32 -34.5 -47t-51.5 -15q-51 0 -85 44t-34 124q0 85 41 132t115 47h34v70q0 62 -45 62q-18 0 -40.5 -11.5t-41.5 -27.5l-47 72q30 27 66 41t70 14q63 0 97.5 -34.5t34.5 -108.5v-312q0 -13 5.5 -18.5t12.5 -5.5q6 0 11 2z
M187 102.5q14 25.5 14 67.5v90h-32q-32 0 -48 -26t-16 -72q0 -41 11.5 -63t33.5 -22q23 0 37 25.5zM128 -189.5q-16 16.5 -16 42.5t16 42.5t40 16.5t40 -16.5t16 -42.5t-16 -42.5t-40 -16.5t-40 16.5zM205 608l-43 93l-44 -93h-71l65 164h100l64 -164h-71z" />
    <glyph glyph-name="uni1EA7" unicode="&#x1ea7;" horiz-adv-x="337" 
d="M277 727l-68 140v9h92l39 -149h-63zM118 608h-71l65 139h100l64 -139h-71l-43 76zM300.5 84.5q5.5 -5.5 12.5 -5.5q6 0 11 2v-78q-14 -8 -34 -8q-59 0 -74 58q-12 -32 -34.5 -47t-51.5 -15q-51 0 -85 44t-34 124q0 85 41 132t115 47h34v70q0 62 -45 62q-18 0 -40.5 -11.5
t-41.5 -27.5l-47 72q30 27 66 41t70 14q63 0 97.5 -34.5t34.5 -108.5v-312q0 -13 5.5 -18.5zM187 102.5q14 25.5 14 67.5v90h-32q-32 0 -48 -26t-16 -72q0 -41 11.5 -63t33.5 -22q23 0 37 25.5z" />
    <glyph glyph-name="uni1EA9" unicode="&#x1ea9;" horiz-adv-x="337" 
d="M265.5 834.5q-5.5 -8.5 -6.5 -24.5h-56q1 40 23 65t57 25q34 0 55.5 -21.5t21.5 -54.5q0 -21 -8.5 -35.5t-24.5 -31.5q-11 -12 -16.5 -20.5t-5.5 -18.5v-7h-55v12q0 19 7 31.5t21 28.5q11 12 16 20t5 18q0 22 -19 22q-9 0 -14.5 -8.5zM118 608h-71l65 139h100l64 -139
h-71l-43 76zM300.5 84.5q5.5 -5.5 12.5 -5.5q6 0 11 2v-78q-14 -8 -34 -8q-59 0 -74 58q-12 -32 -34.5 -47t-51.5 -15q-51 0 -85 44t-34 124q0 85 41 132t115 47h34v70q0 62 -45 62q-18 0 -40.5 -11.5t-41.5 -27.5l-47 72q30 27 66 41t70 14q63 0 97.5 -34.5t34.5 -108.5
v-312q0 -13 5.5 -18.5zM187 102.5q14 25.5 14 67.5v90h-32q-32 0 -48 -26t-16 -72q0 -41 11.5 -63t33.5 -22q23 0 37 25.5z" />
    <glyph glyph-name="uni1EAB" unicode="&#x1eab;" horiz-adv-x="337" 
d="M114.5 839q-2.5 -16 -5.5 -57h-52q3 143 68 143q19 0 30.5 -14t25.5 -41q5 -10 9.5 -17.5t8.5 -7.5q9 0 12 16.5t5 57.5h52q-3 -143 -69 -143q-18 0 -29 13.5t-25 39.5q-5 10 -10 18t-10 8q-8 0 -10.5 -16zM118 608h-71l65 139h100l64 -139h-71l-43 76zM324 81v-78
q-14 -8 -34 -8q-59 0 -74 58q-12 -32 -34.5 -47t-51.5 -15q-51 0 -85 44t-34 124q0 85 41 132t115 47h34v70q0 62 -45 62q-18 0 -40.5 -11.5t-41.5 -27.5l-47 72q30 27 66 41t70 14q63 0 97.5 -34.5t34.5 -108.5v-312q0 -13 5.5 -18.5t12.5 -5.5q6 0 11 2zM187 102.5
q14 25.5 14 67.5v90h-32q-32 0 -48 -26t-16 -72q0 -41 11.5 -63t33.5 -22q23 0 37 25.5z" />
    <glyph glyph-name="uni0201" unicode="&#x201;" horiz-adv-x="337" 
d="M324 81v-78q-14 -8 -34 -8q-59 0 -74 58q-12 -32 -34.5 -47t-51.5 -15q-51 0 -85 44t-34 124q0 85 41 132t115 47h34v70q0 62 -45 62q-18 0 -40.5 -11.5t-41.5 -27.5l-47 72q30 27 66 41t70 14q63 0 97.5 -34.5t34.5 -108.5v-312q0 -13 5.5 -18.5t12.5 -5.5q6 0 11 2z
M187 102.5q14 25.5 14 67.5v90h-32q-32 0 -48 -26t-16 -72q0 -41 11.5 -63t33.5 -22q23 0 37 25.5zM21 775h84l35 -164h-61l-58 155v9zM137 775h84l27 -164h-61l-50 155v9z" />
    <glyph glyph-name="adieresis" unicode="&#xe4;" horiz-adv-x="337" 
d="M324 81v-78q-14 -8 -34 -8q-59 0 -74 58q-12 -32 -34.5 -47t-51.5 -15q-51 0 -85 44t-34 124q0 85 41 132t115 47h34v70q0 62 -45 62q-18 0 -40.5 -11.5t-41.5 -27.5l-47 72q30 27 66 41t70 14q63 0 97.5 -34.5t34.5 -108.5v-312q0 -13 5.5 -18.5t12.5 -5.5q6 0 11 2z
M187 102.5q14 25.5 14 67.5v90h-32q-32 0 -48 -26t-16 -72q0 -41 11.5 -63t33.5 -22q23 0 37 25.5zM126 715.5q15 -15.5 15 -39.5t-15 -39.5t-37 -15.5t-37 15.5t-15 39.5t15 39.5t37 15.5t37 -15.5zM272 715.5q15 -15.5 15 -39.5t-15 -39.5t-37 -15.5t-37 15.5t-15 39.5
t15 39.5t37 15.5t37 -15.5z" />
    <glyph glyph-name="uni1EA1" unicode="&#x1ea1;" horiz-adv-x="337" 
d="M324 81v-78q-14 -8 -34 -8q-59 0 -74 58q-12 -32 -34.5 -47t-51.5 -15q-51 0 -85 44t-34 124q0 85 41 132t115 47h34v70q0 62 -45 62q-18 0 -40.5 -11.5t-41.5 -27.5l-47 72q30 27 66 41t70 14q63 0 97.5 -34.5t34.5 -108.5v-312q0 -13 5.5 -18.5t12.5 -5.5q6 0 11 2z
M187 102.5q14 25.5 14 67.5v90h-32q-32 0 -48 -26t-16 -72q0 -41 11.5 -63t33.5 -22q23 0 37 25.5zM128 -189.5q-16 16.5 -16 42.5t16 42.5t40 16.5t40 -16.5t16 -42.5t-16 -42.5t-40 -16.5t-40 16.5z" />
    <glyph glyph-name="agrave" unicode="&#xe0;" horiz-adv-x="337" 
d="M324 81v-78q-14 -8 -34 -8q-59 0 -74 58q-12 -32 -34.5 -47t-51.5 -15q-51 0 -85 44t-34 124q0 85 41 132t115 47h34v70q0 62 -45 62q-18 0 -40.5 -11.5t-41.5 -27.5l-47 72q30 27 66 41t70 14q63 0 97.5 -34.5t34.5 -108.5v-312q0 -13 5.5 -18.5t12.5 -5.5q6 0 11 2z
M187 102.5q14 25.5 14 67.5v90h-32q-32 0 -48 -26t-16 -72q0 -41 11.5 -63t33.5 -22q23 0 37 25.5zM51 775h100l48 -164h-72l-76 155v9z" />
    <glyph glyph-name="uni1EA3" unicode="&#x1ea3;" horiz-adv-x="337" 
d="M324 81v-78q-14 -8 -34 -8q-59 0 -74 58q-12 -32 -34.5 -47t-51.5 -15q-51 0 -85 44t-34 124q0 85 41 132t115 47h34v70q0 62 -45 62q-18 0 -40.5 -11.5t-41.5 -27.5l-47 72q30 27 66 41t70 14q63 0 97.5 -34.5t34.5 -108.5v-312q0 -13 5.5 -18.5t12.5 -5.5q6 0 11 2z
M187 102.5q14 25.5 14 67.5v90h-32q-32 0 -48 -26t-16 -72q0 -41 11.5 -63t33.5 -22q23 0 37 25.5zM130 618q0 21 8 35t24 32q12 13 18 22.5t6 20.5q0 13 -7 20.5t-18 7.5q-12 0 -19 -10.5t-8 -29.5h-59q1 45 25.5 72.5t63.5 27.5q38 0 62 -24.5t24 -60.5q0 -24 -9 -40
t-27 -36q-13 -14 -19 -23t-6 -20v-7h-59v13z" />
    <glyph glyph-name="uni0203" unicode="&#x203;" horiz-adv-x="337" 
d="M324 81v-78q-14 -8 -34 -8q-59 0 -74 58q-12 -32 -34.5 -47t-51.5 -15q-51 0 -85 44t-34 124q0 85 41 132t115 47h34v70q0 62 -45 62q-18 0 -40.5 -11.5t-41.5 -27.5l-47 72q30 27 66 41t70 14q63 0 97.5 -34.5t34.5 -108.5v-312q0 -13 5.5 -18.5t12.5 -5.5q6 0 11 2z
M187 102.5q14 25.5 14 67.5v90h-32q-32 0 -48 -26t-16 -72q0 -41 11.5 -63t33.5 -22q23 0 37 25.5zM238 730q27 -44 27 -122h-65q0 44 -10 68.5t-28 24.5t-28 -24.5t-10 -68.5h-65q0 78 27 122t76 44t76 -44z" />
    <glyph glyph-name="amacron" unicode="&#x101;" horiz-adv-x="337" 
d="M324 81v-78q-14 -8 -34 -8q-59 0 -74 58q-12 -32 -34.5 -47t-51.5 -15q-51 0 -85 44t-34 124q0 85 41 132t115 47h34v70q0 62 -45 62q-18 0 -40.5 -11.5t-41.5 -27.5l-47 72q30 27 66 41t70 14q63 0 97.5 -34.5t34.5 -108.5v-312q0 -13 5.5 -18.5t12.5 -5.5q6 0 11 2z
M187 102.5q14 25.5 14 67.5v90h-32q-32 0 -48 -26t-16 -72q0 -41 11.5 -63t33.5 -22q23 0 37 25.5zM72 699h179v-75h-179v75z" />
    <glyph glyph-name="aogonek" unicode="&#x105;" horiz-adv-x="346" 
d="M333 -163q-31 -34 -85 -34q-43 0 -70.5 23t-27.5 68q0 30 22.5 61t67.5 56q-16 14 -24 42q-12 -32 -34.5 -47t-51.5 -15q-51 0 -85 44t-34 124q0 85 41 132t115 47h34v70q0 62 -45 62q-18 0 -40.5 -11.5t-41.5 -27.5l-47 72q30 27 66 41t70 14q63 0 97.5 -34.5
t34.5 -108.5v-312q0 -13 5.5 -18.5t12.5 -5.5q6 0 11 2v-78q-50 -30 -68.5 -51t-18.5 -40q0 -15 8.5 -23t21.5 -8q18 0 39 18zM187 102.5q14 25.5 14 67.5v90h-32q-32 0 -48 -26t-16 -72q0 -41 11.5 -63t33.5 -22q23 0 37 25.5z" />
    <glyph glyph-name="aring" unicode="&#xe5;" horiz-adv-x="337" 
d="M324 81v-78q-14 -8 -34 -8q-59 0 -74 58q-12 -32 -34.5 -47t-51.5 -15q-51 0 -85 44t-34 124q0 85 41 132t115 47h34v70q0 62 -45 62q-18 0 -40.5 -11.5t-41.5 -27.5l-47 72q30 27 66 41t70 14q63 0 97.5 -34.5t34.5 -108.5v-312q0 -13 5.5 -18.5t12.5 -5.5q6 0 11 2z
M187 102.5q14 25.5 14 67.5v90h-32q-32 0 -48 -26t-16 -72q0 -41 11.5 -63t33.5 -22q23 0 37 25.5zM86.5 625.5q-29.5 28.5 -29.5 72.5t29.5 72.5t75.5 28.5t75.5 -28.5t29.5 -72.5t-29.5 -72.5t-75.5 -28.5t-75.5 28.5zM194.5 664q12.5 13 12.5 34t-12.5 34t-32.5 13
t-32.5 -13t-12.5 -34t12.5 -34t32.5 -13t32.5 13z" />
    <glyph glyph-name="aringacute" unicode="&#x1fb;" horiz-adv-x="337" 
d="M189 838h-63l37 149h94v-9zM86.5 625.5q-29.5 28.5 -29.5 72.5t29.5 72.5t75.5 28.5t75.5 -28.5t29.5 -72.5t-29.5 -72.5t-75.5 -28.5t-75.5 28.5zM129.5 732q-12.5 -13 -12.5 -34t12.5 -34t32.5 -13t32.5 13t12.5 34t-12.5 34t-32.5 13t-32.5 -13zM324 81v-78
q-14 -8 -34 -8q-59 0 -74 58q-12 -32 -34.5 -47t-51.5 -15q-51 0 -85 44t-34 124q0 85 41 132t115 47h34v70q0 62 -45 62q-18 0 -40.5 -11.5t-41.5 -27.5l-47 72q30 27 66 41t70 14q63 0 97.5 -34.5t34.5 -108.5v-312q0 -13 5.5 -18.5t12.5 -5.5q6 0 11 2zM187 102.5
q14 25.5 14 67.5v90h-32q-32 0 -48 -26t-16 -72q0 -41 11.5 -63t33.5 -22q23 0 37 25.5z" />
    <glyph glyph-name="atilde" unicode="&#xe3;" horiz-adv-x="337" 
d="M324 81v-78q-14 -8 -34 -8q-59 0 -74 58q-12 -32 -34.5 -47t-51.5 -15q-51 0 -85 44t-34 124q0 85 41 132t115 47h34v70q0 62 -45 62q-18 0 -40.5 -11.5t-41.5 -27.5l-47 72q30 27 66 41t70 14q63 0 97.5 -34.5t34.5 -108.5v-312q0 -13 5.5 -18.5t12.5 -5.5q6 0 11 2z
M187 102.5q14 25.5 14 67.5v90h-32q-32 0 -48 -26t-16 -72q0 -41 11.5 -63t33.5 -22q23 0 37 25.5zM172.5 622.5q-13.5 8.5 -27.5 22.5q-7 7 -14 12.5t-13 5.5q-21 0 -22 -46h-59q1 55 20.5 88t62.5 33q18 0 31.5 -8.5t28.5 -23.5q7 -7 14 -12t12 -5q22 0 23 46h59
q-1 -55 -21 -88t-63 -33q-18 0 -31.5 8.5z" />
    <glyph glyph-name="ae" unicode="&#xe6;" horiz-adv-x="515" 
d="M500 241h-205q6 -165 71 -165q32 0 60 43l63 -56q-24 -37 -53.5 -56t-68.5 -19q-44 0 -72 24.5t-44 71.5q-12 -47 -43 -71.5t-68 -24.5q-59 0 -94.5 44t-35.5 125q0 86 40.5 131.5t115.5 45.5h34v57q0 45 -11.5 63.5t-33.5 18.5q-37 0 -82 -40l-47 72q61 56 134 56
q79 0 104 -63q29 63 92 63q71 0 109 -74t38 -206q0 -22 -3 -40zM313 432q-15 -40 -18 -115h114q-2 75 -16.5 115t-39.5 40t-40 -40zM186 100q14 26 14 69v87h-32q-32 0 -48 -24.5t-16 -70.5q0 -41 11.5 -64t33.5 -23q23 0 37 26z" />
    <glyph glyph-name="aeacute" unicode="&#x1fd;" horiz-adv-x="515" 
d="M500 241h-205q6 -165 71 -165q32 0 60 43l63 -56q-24 -37 -53.5 -56t-68.5 -19q-44 0 -72 24.5t-44 71.5q-12 -47 -43 -71.5t-68 -24.5q-59 0 -94.5 44t-35.5 125q0 86 40.5 131.5t115.5 45.5h34v57q0 45 -11.5 63.5t-33.5 18.5q-37 0 -82 -40l-47 72q61 56 134 56
q79 0 104 -63q29 63 92 63q71 0 109 -74t38 -206q0 -22 -3 -40zM313 432q-15 -40 -18 -115h114q-2 75 -16.5 115t-39.5 40t-40 -40zM186 100q14 26 14 69v87h-32q-32 0 -48 -24.5t-16 -70.5q0 -41 11.5 -64t33.5 -23q23 0 37 26zM284 608h-72l48 164h100v-9z" />
    <glyph glyph-name="b" unicode="b" horiz-adv-x="367" 
d="M311 482.5q35 -75.5 35 -208.5t-35 -208.5t-97 -75.5q-32 0 -53.5 21.5t-36.5 62.5v-74h-83v752h96v-248q29 54 77 54q62 0 97 -75.5zM234.5 130.5q15.5 52.5 15.5 143.5t-15.5 143.5t-42.5 52.5q-26 0 -42 -54.5t-16 -141.5q0 -86 16 -141t42 -55q27 0 42.5 52.5z" />
    <glyph glyph-name="c" unicode="c" horiz-adv-x="292" 
d="M59.5 65q-40.5 75 -40.5 209t40.5 209t116.5 75q37 0 65.5 -18t51.5 -54l-63 -56q-23 39 -50 39q-32 0 -48 -51t-16 -144t16 -144t48 -51q25 0 50 39l63 -56q-46 -72 -117 -72q-76 0 -116.5 75z" />
    <glyph glyph-name="cacute" unicode="&#x107;" horiz-adv-x="292" 
d="M59.5 65q-40.5 75 -40.5 209t40.5 209t116.5 75q37 0 65.5 -18t51.5 -54l-63 -56q-23 39 -50 39q-32 0 -48 -51t-16 -144t16 -144t48 -51q25 0 50 39l63 -56q-46 -72 -117 -72q-76 0 -116.5 75zM195 605h-72l48 164h100v-9z" />
    <glyph glyph-name="ccaron" unicode="&#x10d;" horiz-adv-x="292" 
d="M59.5 65q-40.5 75 -40.5 209t40.5 209t116.5 75q37 0 65.5 -18t51.5 -54l-63 -56q-23 39 -50 39q-32 0 -48 -51t-16 -144t16 -144t48 -51q25 0 50 39l63 -56q-46 -72 -117 -72q-76 0 -116.5 75zM283 769l-64 -164h-100l-65 164h71l44 -93l43 93h71z" />
    <glyph glyph-name="ccedilla" unicode="&#xe7;" horiz-adv-x="292" 
d="M59.5 65q-40.5 75 -40.5 209t40.5 209t116.5 75q37 0 65.5 -18t51.5 -54l-63 -56q-23 39 -50 39q-32 0 -48 -51t-16 -144t16 -144t48 -51q25 0 50 39l63 -56q-46 -72 -117 -72q-76 0 -116.5 75zM237.5 -64q22.5 -23 22.5 -60q0 -42 -28 -67.5t-76 -25.5q-54 0 -93 30
l27 49q32 -21 57 -21q19 0 29.5 9.5t10.5 25.5t-9.5 26t-27.5 10q-14 0 -27 -6l-16 13l46 101h56l-33 -61h5q34 0 56.5 -23z" />
    <glyph glyph-name="uni1E09" unicode="&#x1e09;" horiz-adv-x="292" 
d="M59.5 65q-40.5 75 -40.5 209t40.5 209t116.5 75q37 0 65.5 -18t51.5 -54l-63 -56q-23 39 -50 39q-32 0 -48 -51t-16 -144t16 -144t48 -51q25 0 50 39l63 -56q-46 -72 -117 -72q-76 0 -116.5 75zM237.5 -64q22.5 -23 22.5 -60q0 -42 -28 -67.5t-76 -25.5q-54 0 -93 30
l27 49q32 -21 57 -21q19 0 29.5 9.5t10.5 25.5t-9.5 26t-27.5 10q-14 0 -27 -6l-16 13l46 101h56l-33 -61h5q34 0 56.5 -23zM195 605h-72l48 164h100v-9z" />
    <glyph glyph-name="ccircumflex" unicode="&#x109;" horiz-adv-x="292" 
d="M59.5 65q-40.5 75 -40.5 209t40.5 209t116.5 75q37 0 65.5 -18t51.5 -54l-63 -56q-23 39 -50 39q-32 0 -48 -51t-16 -144t16 -144t48 -51q25 0 50 39l63 -56q-46 -72 -117 -72q-76 0 -116.5 75zM212 605l-43 93l-44 -93h-71l65 164h100l64 -164h-71z" />
    <glyph glyph-name="cdotaccent" unicode="&#x10b;" horiz-adv-x="292" 
d="M59.5 65q-40.5 75 -40.5 209t40.5 209t116.5 75q37 0 65.5 -18t51.5 -54l-63 -56q-23 39 -50 39q-32 0 -48 -51t-16 -144t16 -144t48 -51q25 0 50 39l63 -56q-46 -72 -117 -72q-76 0 -116.5 75zM129 630.5q-16 16.5 -16 42.5t16 42.5t40 16.5t40 -16.5t16 -42.5
t-16 -42.5t-40 -16.5t-40 16.5z" />
    <glyph glyph-name="d" unicode="d" horiz-adv-x="367" 
d="M326 752v-752h-83v74q-15 -41 -36.5 -62.5t-53.5 -21.5q-62 0 -97 75.5t-35 208.5t35 208.5t97 75.5q48 0 77 -54v248h96zM217 133q16 55 16 141q0 87 -16 141.5t-42 54.5q-27 0 -42.5 -52.5t-15.5 -143.5t15.5 -143.5t42.5 -52.5q26 0 42 55z" />
    <glyph glyph-name="eth" unicode="&#xf0;" horiz-adv-x="353" 
d="M306.5 472q24.5 -102 24.5 -196q0 -134 -41 -210t-114 -76q-74 0 -115.5 72t-41.5 200q0 126 35.5 198t94.5 72q20 0 38.5 -13t30.5 -39q-17 64 -52 130l-69 -46l-29 49l68 46q-23 33 -42 52l46 57q38 -31 62 -65l74 50l29 -49l-71 -48q48 -82 72.5 -184zM219.5 128
q15.5 48 15.5 135q0 86 -15.5 134t-43.5 48t-44.5 -48.5t-16.5 -134.5t16 -134t45 -48q28 0 43.5 48z" />
    <glyph glyph-name="dcaron" unicode="&#x10f;" horiz-adv-x="427" 
d="M326 752v-752h-83v74q-15 -41 -36.5 -62.5t-53.5 -21.5q-62 0 -97 75.5t-35 208.5t35 208.5t97 75.5q48 0 77 -54v248h96zM217 133q16 55 16 141q0 87 -16 141.5t-42 54.5q-27 0 -42.5 -52.5t-15.5 -143.5t15.5 -143.5t42.5 -52.5q26 0 42 55zM445 752l-25 -190h-61
l5 190h81z" />
    <glyph glyph-name="dcroat" unicode="&#x111;" horiz-adv-x="367" 
d="M362 608h-36v-608h-83v74q-15 -41 -36.5 -62.5t-53.5 -21.5q-62 0 -97 75.5t-35 208.5t35 208.5t97 75.5q48 0 77 -54v104h-78v71h78v73h96v-73h36v-71zM217 133q16 55 16 141q0 87 -16 141.5t-42 54.5q-27 0 -42.5 -52.5t-15.5 -143.5t15.5 -143.5t42.5 -52.5
q26 0 42 55z" />
    <glyph glyph-name="uni1E0D" unicode="&#x1e0d;" horiz-adv-x="367" 
d="M326 752v-752h-83v74q-15 -41 -36.5 -62.5t-53.5 -21.5q-62 0 -97 75.5t-35 208.5t35 208.5t97 75.5q48 0 77 -54v248h96zM217 133q16 55 16 141q0 87 -16 141.5t-42 54.5q-27 0 -42.5 -52.5t-15.5 -143.5t15.5 -143.5t42.5 -52.5q26 0 42 55zM148 -189.5
q-16 16.5 -16 42.5t16 42.5t40 16.5t40 -16.5t16 -42.5t-16 -42.5t-40 -16.5t-40 16.5z" />
    <glyph glyph-name="uni1E0F" unicode="&#x1e0f;" horiz-adv-x="367" 
d="M326 752v-752h-83v74q-15 -41 -36.5 -62.5t-53.5 -21.5q-62 0 -97 75.5t-35 208.5t35 208.5t97 75.5q48 0 77 -54v248h96zM217 133q16 55 16 141q0 87 -16 141.5t-42 54.5q-27 0 -42.5 -52.5t-15.5 -143.5t15.5 -143.5t42.5 -52.5q26 0 42 55zM99 -100h179v-75h-179v75z
" />
    <glyph glyph-name="uni01C6" unicode="&#x1c6;" horiz-adv-x="633" 
d="M326 752v-752h-83v74q-15 -41 -36.5 -62.5t-53.5 -21.5q-62 0 -97 75.5t-35 208.5t35 208.5t97 75.5q48 0 77 -54v248h96zM217 133q16 55 16 141q0 87 -16 141.5t-42 54.5q-27 0 -42.5 -52.5t-15.5 -143.5t15.5 -143.5t42.5 -52.5q26 0 42 55zM624 78v-78h-248v66
l139 404h-134v78h239v-68l-138 -402h142zM617 772l-64 -164h-100l-65 164h71l44 -93l43 93h71z" />
    <glyph glyph-name="e" unicode="e" horiz-adv-x="336" 
d="M320 231h-205q4 -74 21 -113.5t45 -39.5q19 0 34.5 10.5t30.5 32.5l63 -56q-22 -34 -54.5 -54.5t-73.5 -20.5q-78 0 -120 74.5t-42 209.5q0 134 40 209t112 75q73 0 112.5 -75.5t39.5 -211.5q0 -22 -3 -40zM132 427q-15 -42 -17 -120h114q-2 79 -17 120.5t-41 41.5
q-24 0 -39 -42z" />
    <glyph glyph-name="eacute" unicode="&#xe9;" horiz-adv-x="336" 
d="M320 231h-205q4 -74 21 -113.5t45 -39.5q19 0 34.5 10.5t30.5 32.5l63 -56q-22 -34 -54.5 -54.5t-73.5 -20.5q-78 0 -120 74.5t-42 209.5q0 134 40 209t112 75q73 0 112.5 -75.5t39.5 -211.5q0 -22 -3 -40zM132 427q-15 -42 -17 -120h114q-2 79 -17 120.5t-41 41.5
q-24 0 -39 -42zM199 608h-72l48 164h100v-9z" />
    <glyph glyph-name="ebreve" unicode="&#x115;" horiz-adv-x="336" 
d="M320 231h-205q4 -74 21 -113.5t45 -39.5q19 0 34.5 10.5t30.5 32.5l63 -56q-22 -34 -54.5 -54.5t-73.5 -20.5q-78 0 -120 74.5t-42 209.5q0 134 40 209t112 75q73 0 112.5 -75.5t39.5 -211.5q0 -22 -3 -40zM132 427q-15 -42 -17 -120h114q-2 79 -17 120.5t-41 41.5
q-24 0 -39 -42zM97 653q-27 44 -27 122h65q0 -44 10 -68.5t28 -24.5t28 24.5t10 68.5h65q0 -78 -27 -122t-76 -44t-76 44z" />
    <glyph glyph-name="ecaron" unicode="&#x11b;" horiz-adv-x="336" 
d="M320 231h-205q4 -74 21 -113.5t45 -39.5q19 0 34.5 10.5t30.5 32.5l63 -56q-22 -34 -54.5 -54.5t-73.5 -20.5q-78 0 -120 74.5t-42 209.5q0 134 40 209t112 75q73 0 112.5 -75.5t39.5 -211.5q0 -22 -3 -40zM132 427q-15 -42 -17 -120h114q-2 79 -17 120.5t-41 41.5
q-24 0 -39 -42zM287 772l-64 -164h-100l-65 164h71l44 -93l43 93h71z" />
    <glyph glyph-name="uni1E1D" unicode="&#x1e1d;" horiz-adv-x="336" 
d="M320 231h-205q4 -74 21 -113.5t45 -39.5q19 0 34.5 10.5t30.5 32.5l63 -56q-22 -34 -54.5 -54.5t-73.5 -20.5q-78 0 -120 74.5t-42 209.5q0 134 40 209t112 75q73 0 112.5 -75.5t39.5 -211.5q0 -22 -3 -40zM132 427q-15 -42 -17 -120h114q-2 79 -17 120.5t-41 41.5
q-24 0 -39 -42zM244.5 -64q22.5 -23 22.5 -60q0 -42 -28 -67.5t-76 -25.5q-54 0 -93 30l27 49q32 -21 57 -21q19 0 29.5 9.5t10.5 25.5t-9.5 26t-27.5 10q-14 0 -27 -6l-16 13l46 101h56l-33 -61h5q34 0 56.5 -23zM97 653q-27 44 -27 122h65q0 -44 10 -68.5t28 -24.5
t28 24.5t10 68.5h65q0 -78 -27 -122t-76 -44t-76 44z" />
    <glyph glyph-name="ecircumflex" unicode="&#xea;" horiz-adv-x="336" 
d="M320 231h-205q4 -74 21 -113.5t45 -39.5q19 0 34.5 10.5t30.5 32.5l63 -56q-22 -34 -54.5 -54.5t-73.5 -20.5q-78 0 -120 74.5t-42 209.5q0 134 40 209t112 75q73 0 112.5 -75.5t39.5 -211.5q0 -22 -3 -40zM132 427q-15 -42 -17 -120h114q-2 79 -17 120.5t-41 41.5
q-24 0 -39 -42zM216 608l-43 93l-44 -93h-71l65 164h100l64 -164h-71z" />
    <glyph glyph-name="uni1EBF" unicode="&#x1ebf;" horiz-adv-x="336" 
d="M376 879v-9l-68 -140h-63l37 149h94zM129 608h-71l65 139h100l64 -139h-71l-43 76zM283.5 482.5q39.5 -75.5 39.5 -211.5q0 -22 -3 -40h-205q4 -74 21 -113.5t45 -39.5q19 0 34.5 10.5t30.5 32.5l63 -56q-22 -34 -54.5 -54.5t-73.5 -20.5q-78 0 -120 74.5t-42 209.5
q0 134 40 209t112 75q73 0 112.5 -75.5zM132 427q-15 -42 -17 -120h114q-2 79 -17 120.5t-41 41.5q-24 0 -39 -42z" />
    <glyph glyph-name="uni1EC7" unicode="&#x1ec7;" horiz-adv-x="336" 
d="M320 231h-205q4 -74 21 -113.5t45 -39.5q19 0 34.5 10.5t30.5 32.5l63 -56q-22 -34 -54.5 -54.5t-73.5 -20.5q-78 0 -120 74.5t-42 209.5q0 134 40 209t112 75q73 0 112.5 -75.5t39.5 -211.5q0 -22 -3 -40zM132 427q-15 -42 -17 -120h114q-2 79 -17 120.5t-41 41.5
q-24 0 -39 -42zM133 -189.5q-16 16.5 -16 42.5t16 42.5t40 16.5t40 -16.5t16 -42.5t-16 -42.5t-40 -16.5t-40 16.5zM216 608l-43 93l-44 -93h-71l65 164h100l64 -164h-71z" />
    <glyph glyph-name="uni1EC1" unicode="&#x1ec1;" horiz-adv-x="336" 
d="M288 727l-68 140v9h92l39 -149h-63zM129 608h-71l65 139h100l64 -139h-71l-43 76zM283.5 482.5q39.5 -75.5 39.5 -211.5q0 -22 -3 -40h-205q4 -74 21 -113.5t45 -39.5q19 0 34.5 10.5t30.5 32.5l63 -56q-22 -34 -54.5 -54.5t-73.5 -20.5q-78 0 -120 74.5t-42 209.5
q0 134 40 209t112 75q73 0 112.5 -75.5zM132 427q-15 -42 -17 -120h114q-2 79 -17 120.5t-41 41.5q-24 0 -39 -42z" />
    <glyph glyph-name="uni1EC3" unicode="&#x1ec3;" horiz-adv-x="336" 
d="M276.5 834.5q-5.5 -8.5 -6.5 -24.5h-56q1 40 23 65t57 25q34 0 55.5 -21.5t21.5 -54.5q0 -21 -8.5 -35.5t-24.5 -31.5q-11 -12 -16.5 -20.5t-5.5 -18.5v-7h-55v12q0 19 7 31.5t21 28.5q11 12 16 20t5 18q0 22 -19 22q-9 0 -14.5 -8.5zM129 608h-71l65 139h100l64 -139
h-71l-43 76zM283.5 482.5q39.5 -75.5 39.5 -211.5q0 -22 -3 -40h-205q4 -74 21 -113.5t45 -39.5q19 0 34.5 10.5t30.5 32.5l63 -56q-22 -34 -54.5 -54.5t-73.5 -20.5q-78 0 -120 74.5t-42 209.5q0 134 40 209t112 75q73 0 112.5 -75.5zM132 427q-15 -42 -17 -120h114
q-2 79 -17 120.5t-41 41.5q-24 0 -39 -42z" />
    <glyph glyph-name="uni1EC5" unicode="&#x1ec5;" horiz-adv-x="336" 
d="M125.5 839q-2.5 -16 -5.5 -57h-52q3 143 68 143q19 0 30.5 -14t25.5 -41q5 -10 9.5 -17.5t8.5 -7.5q9 0 12 16.5t5 57.5h52q-3 -143 -69 -143q-18 0 -29 13.5t-25 39.5q-5 10 -10 18t-10 8q-8 0 -10.5 -16zM129 608h-71l65 139h100l64 -139h-71l-43 76zM320 231h-205
q4 -74 21 -113.5t45 -39.5q19 0 34.5 10.5t30.5 32.5l63 -56q-22 -34 -54.5 -54.5t-73.5 -20.5q-78 0 -120 74.5t-42 209.5q0 134 40 209t112 75q73 0 112.5 -75.5t39.5 -211.5q0 -22 -3 -40zM132 427q-15 -42 -17 -120h114q-2 79 -17 120.5t-41 41.5q-24 0 -39 -42z" />
    <glyph glyph-name="uni0205" unicode="&#x205;" horiz-adv-x="336" 
d="M320 231h-205q4 -74 21 -113.5t45 -39.5q19 0 34.5 10.5t30.5 32.5l63 -56q-22 -34 -54.5 -54.5t-73.5 -20.5q-78 0 -120 74.5t-42 209.5q0 134 40 209t112 75q73 0 112.5 -75.5t39.5 -211.5q0 -22 -3 -40zM132 427q-15 -42 -17 -120h114q-2 79 -17 120.5t-41 41.5
q-24 0 -39 -42zM32 775h84l35 -164h-61l-58 155v9zM148 775h84l27 -164h-61l-50 155v9z" />
    <glyph glyph-name="edieresis" unicode="&#xeb;" horiz-adv-x="336" 
d="M320 231h-205q4 -74 21 -113.5t45 -39.5q19 0 34.5 10.5t30.5 32.5l63 -56q-22 -34 -54.5 -54.5t-73.5 -20.5q-78 0 -120 74.5t-42 209.5q0 134 40 209t112 75q73 0 112.5 -75.5t39.5 -211.5q0 -22 -3 -40zM132 427q-15 -42 -17 -120h114q-2 79 -17 120.5t-41 41.5
q-24 0 -39 -42zM137 715.5q15 -15.5 15 -39.5t-15 -39.5t-37 -15.5t-37 15.5t-15 39.5t15 39.5t37 15.5t37 -15.5zM283 715.5q15 -15.5 15 -39.5t-15 -39.5t-37 -15.5t-37 15.5t-15 39.5t15 39.5t37 15.5t37 -15.5z" />
    <glyph glyph-name="edotaccent" unicode="&#x117;" horiz-adv-x="336" 
d="M320 231h-205q4 -74 21 -113.5t45 -39.5q19 0 34.5 10.5t30.5 32.5l63 -56q-22 -34 -54.5 -54.5t-73.5 -20.5q-78 0 -120 74.5t-42 209.5q0 134 40 209t112 75q73 0 112.5 -75.5t39.5 -211.5q0 -22 -3 -40zM132 427q-15 -42 -17 -120h114q-2 79 -17 120.5t-41 41.5
q-24 0 -39 -42zM133 633.5q-16 16.5 -16 42.5t16 42.5t40 16.5t40 -16.5t16 -42.5t-16 -42.5t-40 -16.5t-40 16.5z" />
    <glyph glyph-name="uni1EB9" unicode="&#x1eb9;" horiz-adv-x="336" 
d="M320 231h-205q4 -74 21 -113.5t45 -39.5q19 0 34.5 10.5t30.5 32.5l63 -56q-22 -34 -54.5 -54.5t-73.5 -20.5q-78 0 -120 74.5t-42 209.5q0 134 40 209t112 75q73 0 112.5 -75.5t39.5 -211.5q0 -22 -3 -40zM132 427q-15 -42 -17 -120h114q-2 79 -17 120.5t-41 41.5
q-24 0 -39 -42zM133 -189.5q-16 16.5 -16 42.5t16 42.5t40 16.5t40 -16.5t16 -42.5t-16 -42.5t-40 -16.5t-40 16.5z" />
    <glyph glyph-name="egrave" unicode="&#xe8;" horiz-adv-x="336" 
d="M320 231h-205q4 -74 21 -113.5t45 -39.5q19 0 34.5 10.5t30.5 32.5l63 -56q-22 -34 -54.5 -54.5t-73.5 -20.5q-78 0 -120 74.5t-42 209.5q0 134 40 209t112 75q73 0 112.5 -75.5t39.5 -211.5q0 -22 -3 -40zM132 427q-15 -42 -17 -120h114q-2 79 -17 120.5t-41 41.5
q-24 0 -39 -42zM62 775h100l48 -164h-72l-76 155v9z" />
    <glyph glyph-name="uni1EBB" unicode="&#x1ebb;" horiz-adv-x="336" 
d="M320 231h-205q4 -74 21 -113.5t45 -39.5q19 0 34.5 10.5t30.5 32.5l63 -56q-22 -34 -54.5 -54.5t-73.5 -20.5q-78 0 -120 74.5t-42 209.5q0 134 40 209t112 75q73 0 112.5 -75.5t39.5 -211.5q0 -22 -3 -40zM132 427q-15 -42 -17 -120h114q-2 79 -17 120.5t-41 41.5
q-24 0 -39 -42zM141 618q0 21 8 35t24 32q12 13 18 22.5t6 20.5q0 13 -7 20.5t-18 7.5q-12 0 -19 -10.5t-8 -29.5h-59q1 45 25.5 72.5t63.5 27.5q38 0 62 -24.5t24 -60.5q0 -24 -9 -40t-27 -36q-13 -14 -19 -23t-6 -20v-7h-59v13z" />
    <glyph glyph-name="uni0207" unicode="&#x207;" horiz-adv-x="336" 
d="M320 231h-205q4 -74 21 -113.5t45 -39.5q19 0 34.5 10.5t30.5 32.5l63 -56q-22 -34 -54.5 -54.5t-73.5 -20.5q-78 0 -120 74.5t-42 209.5q0 134 40 209t112 75q73 0 112.5 -75.5t39.5 -211.5q0 -22 -3 -40zM132 427q-15 -42 -17 -120h114q-2 79 -17 120.5t-41 41.5
q-24 0 -39 -42zM249 730q27 -44 27 -122h-65q0 44 -10 68.5t-28 24.5t-28 -24.5t-10 -68.5h-65q0 78 27 122t76 44t76 -44z" />
    <glyph glyph-name="emacron" unicode="&#x113;" horiz-adv-x="336" 
d="M320 231h-205q4 -74 21 -113.5t45 -39.5q19 0 34.5 10.5t30.5 32.5l63 -56q-22 -34 -54.5 -54.5t-73.5 -20.5q-78 0 -120 74.5t-42 209.5q0 134 40 209t112 75q73 0 112.5 -75.5t39.5 -211.5q0 -22 -3 -40zM132 427q-15 -42 -17 -120h114q-2 79 -17 120.5t-41 41.5
q-24 0 -39 -42zM83 699h179v-75h-179v75z" />
    <glyph glyph-name="uni1E17" unicode="&#x1e17;" horiz-adv-x="336" 
d="M320 231h-205q4 -74 21 -113.5t45 -39.5q19 0 34.5 10.5t30.5 32.5l63 -56q-22 -34 -54.5 -54.5t-73.5 -20.5q-78 0 -120 74.5t-42 209.5q0 134 40 209t112 75q73 0 112.5 -75.5t39.5 -211.5q0 -22 -3 -40zM132 427q-15 -42 -17 -120h114q-2 79 -17 120.5t-41 41.5
q-24 0 -39 -42zM83 699h179v-75h-179v75zM199 754h-72l48 164h100v-9z" />
    <glyph glyph-name="uni1E15" unicode="&#x1e15;" horiz-adv-x="336" 
d="M320 231h-205q4 -74 21 -113.5t45 -39.5q19 0 34.5 10.5t30.5 32.5l63 -56q-22 -34 -54.5 -54.5t-73.5 -20.5q-78 0 -120 74.5t-42 209.5q0 134 40 209t112 75q73 0 112.5 -75.5t39.5 -211.5q0 -22 -3 -40zM132 427q-15 -42 -17 -120h114q-2 79 -17 120.5t-41 41.5
q-24 0 -39 -42zM83 699h179v-75h-179v75zM62 921h100l48 -164h-72l-76 155v9z" />
    <glyph glyph-name="eogonek" unicode="&#x119;" horiz-adv-x="337" 
d="M320 231h-205q4 -74 21 -113.5t45 -39.5q19 0 34.5 10.5t30.5 32.5l63 -56v-1l1 1q-14 -23 -54 -63q-30 -30 -44 -49t-14 -41q0 -15 8.5 -23t21.5 -8q18 0 39 18l27 -62q-31 -34 -85 -34q-43 0 -70.5 23t-27.5 68q0 23 14.5 48.5t43.5 47.5q-72 6 -111 80.5t-39 203.5
q0 134 40 209t112 75q73 0 112.5 -75.5t39.5 -211.5q0 -22 -3 -40zM132 427q-15 -42 -17 -120h114q-2 79 -17 120.5t-41 41.5q-24 0 -39 -42z" />
    <glyph glyph-name="uni1EBD" unicode="&#x1ebd;" horiz-adv-x="336" 
d="M320 231h-205q4 -74 21 -113.5t45 -39.5q19 0 34.5 10.5t30.5 32.5l63 -56q-22 -34 -54.5 -54.5t-73.5 -20.5q-78 0 -120 74.5t-42 209.5q0 134 40 209t112 75q73 0 112.5 -75.5t39.5 -211.5q0 -22 -3 -40zM132 427q-15 -42 -17 -120h114q-2 79 -17 120.5t-41 41.5
q-24 0 -39 -42zM183.5 622.5q-13.5 8.5 -27.5 22.5q-7 7 -14 12.5t-13 5.5q-21 0 -22 -46h-59q1 55 20.5 88t62.5 33q18 0 31.5 -8.5t28.5 -23.5q7 -7 14 -12t12 -5q22 0 23 46h59q-1 -55 -21 -88t-63 -33q-18 0 -31.5 8.5z" />
    <glyph glyph-name="uni0259" unicode="&#x259;" horiz-adv-x="336" 
d="M16 317h205q-4 74 -21 113.5t-45 39.5q-19 0 -34.5 -10.5t-30.5 -32.5l-63 56q22 34 54.5 54.5t73.5 20.5q78 0 120 -74.5t42 -209.5q0 -134 -40 -209t-112 -75q-73 0 -112.5 75.5t-39.5 211.5q0 22 3 40zM204 121q15 42 17 120h-114q2 -79 17 -120.5t41 -41.5
q24 0 39 42z" />
    <glyph glyph-name="f" unicode="f" horiz-adv-x="220" 
d="M145 620v-72h79v-80h-79v-468h-96v468h-45v80h45v78q0 62 32.5 99t86.5 37q41 0 61 -13v-82q-23 8 -41 8q-43 0 -43 -55z" />
    <glyph glyph-name="g" unicode="g" horiz-adv-x="367" 
d="M326 548v-572q0 -80 -45.5 -123t-118.5 -43q-68 0 -121 35l39 79q41 -27 80 -27q30 0 50 19.5t20 58.5v90q-28 -48 -74 -48q-64 0 -100.5 74t-36.5 197q0 122 36.5 196t100.5 74q30 0 50 -17.5t35 -52.5v60h85zM219 155q15 48 15 132t-15 132t-42 48t-43.5 -48.5
t-16.5 -131.5t16.5 -131.5t43.5 -48.5t42 48z" />
    <glyph glyph-name="gbreve" unicode="&#x11f;" horiz-adv-x="367" 
d="M326 548v-572q0 -80 -45.5 -123t-118.5 -43q-68 0 -121 35l39 79q41 -27 80 -27q30 0 50 19.5t20 58.5v90q-28 -48 -74 -48q-64 0 -100.5 74t-36.5 197q0 122 36.5 196t100.5 74q30 0 50 -17.5t35 -52.5v60h85zM219 155q15 48 15 132t-15 132t-42 48t-43.5 -48.5
t-16.5 -131.5t16.5 -131.5t43.5 -48.5t42 48zM105 653q-27 44 -27 122h65q0 -44 10 -68.5t28 -24.5t28 24.5t10 68.5h65q0 -78 -27 -122t-76 -44t-76 44z" />
    <glyph glyph-name="gcaron" unicode="&#x1e7;" horiz-adv-x="367" 
d="M326 548v-572q0 -80 -45.5 -123t-118.5 -43q-68 0 -121 35l39 79q41 -27 80 -27q30 0 50 19.5t20 58.5v90q-28 -48 -74 -48q-64 0 -100.5 74t-36.5 197q0 122 36.5 196t100.5 74q30 0 50 -17.5t35 -52.5v60h85zM219 155q15 48 15 132t-15 132t-42 48t-43.5 -48.5
t-16.5 -131.5t16.5 -131.5t43.5 -48.5t42 48zM295 772l-64 -164h-100l-65 164h71l44 -93l43 93h71z" />
    <glyph glyph-name="gcircumflex" unicode="&#x11d;" horiz-adv-x="367" 
d="M326 548v-572q0 -80 -45.5 -123t-118.5 -43q-68 0 -121 35l39 79q41 -27 80 -27q30 0 50 19.5t20 58.5v90q-28 -48 -74 -48q-64 0 -100.5 74t-36.5 197q0 122 36.5 196t100.5 74q30 0 50 -17.5t35 -52.5v60h85zM219 155q15 48 15 132t-15 132t-42 48t-43.5 -48.5
t-16.5 -131.5t16.5 -131.5t43.5 -48.5t42 48zM224 608l-43 93l-44 -93h-71l65 164h100l64 -164h-71z" />
    <glyph glyph-name="gcommaaccent" unicode="&#x123;" horiz-adv-x="367" 
d="M326 548v-572q0 -80 -45.5 -123t-118.5 -43q-68 0 -121 35l39 79q41 -27 80 -27q30 0 50 19.5t20 58.5v90q-28 -48 -74 -48q-64 0 -100.5 74t-36.5 197q0 122 36.5 196t100.5 74q30 0 50 -17.5t35 -52.5v60h85zM219 155q15 48 15 132t-15 132t-42 48t-43.5 -48.5
t-16.5 -131.5t16.5 -131.5t43.5 -48.5t42 48zM226 611h-99l54 164h67z" />
    <glyph glyph-name="gdotaccent" unicode="&#x121;" horiz-adv-x="367" 
d="M326 548v-572q0 -80 -45.5 -123t-118.5 -43q-68 0 -121 35l39 79q41 -27 80 -27q30 0 50 19.5t20 58.5v90q-28 -48 -74 -48q-64 0 -100.5 74t-36.5 197q0 122 36.5 196t100.5 74q30 0 50 -17.5t35 -52.5v60h85zM219 155q15 48 15 132t-15 132t-42 48t-43.5 -48.5
t-16.5 -131.5t16.5 -131.5t43.5 -48.5t42 48zM141 633.5q-16 16.5 -16 42.5t16 42.5t40 16.5t40 -16.5t16 -42.5t-16 -42.5t-40 -16.5t-40 16.5z" />
    <glyph glyph-name="uni1E21" unicode="&#x1e21;" horiz-adv-x="367" 
d="M326 548v-572q0 -80 -45.5 -123t-118.5 -43q-68 0 -121 35l39 79q41 -27 80 -27q30 0 50 19.5t20 58.5v90q-28 -48 -74 -48q-64 0 -100.5 74t-36.5 197q0 122 36.5 196t100.5 74q30 0 50 -17.5t35 -52.5v60h85zM219 155q15 48 15 132t-15 132t-42 48t-43.5 -48.5
t-16.5 -131.5t16.5 -131.5t43.5 -48.5t42 48zM91 699h179v-75h-179v75z" />
    <glyph glyph-name="h" unicode="h" horiz-adv-x="362" 
d="M297.5 524.5q30.5 -33.5 30.5 -92.5v-432h-96v416q0 25 -12 38t-33 13q-50 0 -50 -62v-405h-96v752h96v-231q29 37 82 37q48 0 78.5 -33.5z" />
    <glyph glyph-name="hbar" unicode="&#x127;" 
d="M297.5 524.5q30.5 -33.5 30.5 -92.5v-432h-96v416q0 25 -12 38t-33 13q-50 0 -50 -62v-405h-96v608h-36v71h36v73h96v-73h75v-71h-75v-87q29 37 82 37q48 0 78.5 -33.5z" />
    <glyph glyph-name="uni1E2B" unicode="&#x1e2b;" horiz-adv-x="362" 
d="M297.5 524.5q30.5 -33.5 30.5 -92.5v-432h-96v416q0 25 -12 38t-33 13q-50 0 -50 -62v-405h-96v752h96v-231q29 37 82 37q48 0 78.5 -33.5zM108 -169q-27 44 -27 122h65q0 -44 10 -68.5t28 -24.5t28 24.5t10 68.5h65q0 -78 -27 -122t-76 -44t-76 44z" />
    <glyph glyph-name="hcircumflex" unicode="&#x125;" horiz-adv-x="362" 
d="M297.5 524.5q30.5 -33.5 30.5 -92.5v-432h-96v416q0 25 -12 38t-33 13q-50 0 -50 -62v-405h-96v752h96v-231q29 37 82 37q48 0 78.5 -33.5zM132 785l-43 93l-44 -93h-71l65 164h100l64 -164h-71z" />
    <glyph glyph-name="uni1E25" unicode="&#x1e25;" horiz-adv-x="362" 
d="M297.5 524.5q30.5 -33.5 30.5 -92.5v-432h-96v416q0 25 -12 38t-33 13q-50 0 -50 -62v-405h-96v752h96v-231q29 37 82 37q48 0 78.5 -33.5zM144 -189.5q-16 16.5 -16 42.5t16 42.5t40 16.5t40 -16.5t16 -42.5t-16 -42.5t-40 -16.5t-40 16.5z" />
    <glyph glyph-name="i" unicode="i" horiz-adv-x="178" 
d="M41 548h96v-548h-96v548zM49 633.5q-16 16.5 -16 42.5t16 42.5t40 16.5t40 -16.5t16 -42.5t-16 -42.5t-40 -16.5t-40 16.5z" />
    <glyph glyph-name="dotlessi" unicode="&#x131;" horiz-adv-x="178" 
d="M41 548h96v-548h-96v548z" />
    <glyph glyph-name="iacute" unicode="&#xed;" horiz-adv-x="178" 
d="M41 548h96v-548h-96v548zM115 608h-72l48 164h100v-9z" />
    <glyph glyph-name="ibreve" unicode="&#x12d;" horiz-adv-x="178" 
d="M41 548h96v-548h-96v548zM13 653q-27 44 -27 122h65q0 -44 10 -68.5t28 -24.5t28 24.5t10 68.5h65q0 -78 -27 -122t-76 -44t-76 44z" />
    <glyph glyph-name="icircumflex" unicode="&#xee;" horiz-adv-x="178" 
d="M41 548h96v-548h-96v548zM132 608l-43 93l-44 -93h-71l65 164h100l64 -164h-71z" />
    <glyph glyph-name="uni0209" unicode="&#x209;" horiz-adv-x="178" 
d="M41 548h96v-548h-96v548zM-52 775h84l35 -164h-61l-58 155v9zM64 775h84l27 -164h-61l-50 155v9z" />
    <glyph glyph-name="idieresis" unicode="&#xef;" horiz-adv-x="178" 
d="M41 548h96v-548h-96v548zM53 715.5q15 -15.5 15 -39.5t-15 -39.5t-37 -15.5t-37 15.5t-15 39.5t15 39.5t37 15.5t37 -15.5zM199 715.5q15 -15.5 15 -39.5t-15 -39.5t-37 -15.5t-37 15.5t-15 39.5t15 39.5t37 15.5t37 -15.5z" />
    <glyph glyph-name="uni1E2F" unicode="&#x1e2f;" horiz-adv-x="178" 
d="M41 548h96v-548h-96v548zM53 715.5q15 -15.5 15 -39.5t-15 -39.5t-37 -15.5t-37 15.5t-15 39.5t15 39.5t37 15.5t37 -15.5zM199 715.5q15 -15.5 15 -39.5t-15 -39.5t-37 -15.5t-37 15.5t-15 39.5t15 39.5t37 15.5t37 -15.5zM115 809h-72l48 164h100v-9z" />
    <glyph glyph-name="i.loclTRK" horiz-adv-x="178" 
d="M41 548h96v-548h-96v548zM49 633.5q-16 16.5 -16 42.5t16 42.5t40 16.5t40 -16.5t16 -42.5t-16 -42.5t-40 -16.5t-40 16.5z" />
    <glyph glyph-name="uni1ECB" unicode="&#x1ecb;" horiz-adv-x="178" 
d="M41 548h96v-548h-96v548zM49 633.5q-16 16.5 -16 42.5t16 42.5t40 16.5t40 -16.5t16 -42.5t-16 -42.5t-40 -16.5t-40 16.5zM45 -189.5q-16 16.5 -16 42.5t16 42.5t40 16.5t40 -16.5t16 -42.5t-16 -42.5t-40 -16.5t-40 16.5z" />
    <glyph glyph-name="igrave" unicode="&#xec;" horiz-adv-x="171" 
d="M-18 759v9h110l35 -156h-86zM37 548h96v-548h-96v548z" />
    <glyph glyph-name="uni1EC9" unicode="&#x1ec9;" horiz-adv-x="178" 
d="M41 548h96v-548h-96v548zM57 618q0 21 8 35t24 32q12 13 18 22.5t6 20.5q0 13 -7 20.5t-18 7.5q-12 0 -19 -10.5t-8 -29.5h-59q1 45 25.5 72.5t63.5 27.5q38 0 62 -24.5t24 -60.5q0 -24 -9 -40t-27 -36q-13 -14 -19 -23t-6 -20v-7h-59v13z" />
    <glyph glyph-name="uni020B" unicode="&#x20b;" horiz-adv-x="178" 
d="M41 548h96v-548h-96v548zM165 730q27 -44 27 -122h-65q0 44 -10 68.5t-28 24.5t-28 -24.5t-10 -68.5h-65q0 78 27 122t76 44t76 -44z" />
    <glyph glyph-name="imacron" unicode="&#x12b;" horiz-adv-x="168" 
d="M7 715h155v-75h-155v75zM36 545h96v-545h-96v545z" />
    <glyph glyph-name="iogonek" unicode="&#x12f;" horiz-adv-x="170" 
d="M49 633.5q-16 16.5 -16 42.5t16 42.5t40 16.5t40 -16.5t16 -42.5t-16 -42.5t-40 -16.5t-40 16.5zM177 -163q-31 -34 -85 -34q-43 0 -70.5 23t-27.5 68q0 30 14 58t40 48h-7v548h96v-548q-56 -52 -56 -88q0 -15 8.5 -23t21.5 -8q18 0 39 18z" />
    <glyph glyph-name="itilde" unicode="&#x129;" horiz-adv-x="178" 
d="M97 632.5q-11 13.5 -25 39.5q-5 10 -10 18t-10 8q-8 0 -10.5 -16t-5.5 -57h-52q3 143 68 143q19 0 30.5 -14t25.5 -41q5 -10 9.5 -17.5t8.5 -7.5q9 0 12 16.5t5 57.5h52q-3 -143 -69 -143q-18 0 -29 13.5zM41 548h96v-548h-96v548z" />
    <glyph glyph-name="j" unicode="j" horiz-adv-x="178" 
d="M-11 -180v82q12 -4 24 -4q28 0 28 30v620h96v-620q0 -58 -26.5 -87t-73.5 -29q-28 0 -48 8zM49 633.5q-16 16.5 -16 42.5t16 42.5t40 16.5t40 -16.5t16 -42.5t-16 -42.5t-40 -16.5t-40 16.5z" />
    <glyph glyph-name="uni0237" unicode="&#x237;" horiz-adv-x="178" 
d="M-11 -180v82q12 -4 24 -4q28 0 28 30v620h96v-620q0 -58 -26.5 -87t-73.5 -29q-28 0 -48 8z" />
    <glyph glyph-name="jcircumflex" unicode="&#x135;" horiz-adv-x="178" 
d="M-11 -180v82q12 -4 24 -4q28 0 28 30v620h96v-620q0 -58 -26.5 -87t-73.5 -29q-28 0 -48 8zM132 608l-43 93l-44 -93h-71l65 164h100l64 -164h-71z" />
    <glyph glyph-name="k" unicode="k" horiz-adv-x="350" 
d="M251 0l-82 257h-1l-31 -55v-202h-96v752h96v-427l109 223h100l-112 -207l119 -341h-102z" />
    <glyph glyph-name="kcommaaccent" unicode="&#x137;" horiz-adv-x="350" 
d="M251 0l-82 257h-1l-31 -55v-202h-96v752h96v-427l109 223h100l-112 -207l119 -341h-102zM141 -59h98l-52 -154h-69z" />
    <glyph glyph-name="kgreenlandic" unicode="&#x138;" horiz-adv-x="350" 
d="M251 0l-82 257h-1l-31 -55v-202h-96v548h96v-223l109 223h100l-112 -207l119 -341h-102z" />
    <glyph glyph-name="l" unicode="l" horiz-adv-x="184" 
d="M135 752v-653q0 -10 6 -15t14 -5q11 0 23 5v-81q-19 -11 -47 -11q-43 0 -67.5 24t-24.5 71v665h96z" />
    <glyph glyph-name="lacute" unicode="&#x13a;" horiz-adv-x="184" 
d="M135 752v-653q0 -10 6 -15t14 -5q11 0 23 5v-81q-19 -11 -47 -11q-43 0 -67.5 24t-24.5 71v665h96zM108 812h-72l48 164h100v-9z" />
    <glyph glyph-name="lcaron" unicode="&#x13e;" horiz-adv-x="234" 
d="M135 752v-653q0 -10 6 -15t14 -5q11 0 23 5v-81q-19 -11 -47 -11q-43 0 -67.5 24t-24.5 71v665h96zM255 752l-25 -190h-61l5 190h81z" />
    <glyph glyph-name="lcommaaccent" unicode="&#x13c;" horiz-adv-x="184" 
d="M135 752v-653q0 -10 6 -15t14 -5q11 0 23 5v-81q-19 -11 -47 -11q-43 0 -67.5 24t-24.5 71v665h96zM72 -59h98l-52 -154h-69z" />
    <glyph glyph-name="ldot" unicode="&#x140;" horiz-adv-x="263" 
d="M135 752v-653q0 -10 6 -15t14 -5q11 0 23 5v-81q-19 -11 -47 -11q-43 0 -67.5 24t-24.5 71v665h96zM256 347.5q15 16.5 15 42.5t-15 42.5t-39 16.5t-39 -16.5t-15 -42.5t15 -42.5t39 -16.5t39 16.5z" />
    <glyph glyph-name="uni1E37" unicode="&#x1e37;" horiz-adv-x="184" 
d="M135 752v-653q0 -10 6 -15t14 -5q11 0 23 5v-81q-19 -11 -47 -11q-43 0 -67.5 24t-24.5 71v665h96zM67 -189.5q-16 16.5 -16 42.5t16 42.5t40 16.5t40 -16.5t16 -42.5t-16 -42.5t-40 -16.5t-40 16.5z" />
    <glyph glyph-name="uni01C9" unicode="&#x1c9;" horiz-adv-x="350" 
d="M137 752v-752h-96v752h96zM221 633.5q-16 16.5 -16 42.5t16 42.5t40 16.5t40 -16.5t16 -42.5t-16 -42.5t-40 -16.5t-40 16.5zM161 -180v82q12 -4 24 -4q28 0 28 30v620h96v-620q0 -58 -26.5 -87t-73.5 -29q-28 0 -48 8z" />
    <glyph glyph-name="uni1E3B" unicode="&#x1e3b;" horiz-adv-x="184" 
d="M135 752v-653q0 -10 6 -15t14 -5q11 0 23 5v-81q-19 -11 -47 -11q-43 0 -67.5 24t-24.5 71v665h96zM0.900391 -100h161.093v-75h-161.093v75z" />
    <glyph glyph-name="lslash" unicode="&#x142;" horiz-adv-x="211" 
d="M149 385v-286q0 -10 6 -15t14 -5q11 0 23 5v-81q-19 -11 -47 -11q-43 0 -67.5 24t-24.5 71v217l-45 -42h-4v90l49 47v353h96v-272l50 47h4v-90z" />
    <glyph glyph-name="m" unicode="m" horiz-adv-x="549" 
d="M479.5 524q31.5 -34 31.5 -92v-432h-96v416q0 24 -12 37t-32 13q-21 0 -34 -15t-13 -47v-404h-96v416q0 24 -12 37t-31 13q-22 0 -35 -15.5t-13 -46.5v-404h-96v548h85v-51q12 29 36.5 45t52.5 16q32 0 57.5 -16t38.5 -46q12 30 36 46t55 16q46 0 77.5 -34z" />
    <glyph glyph-name="uni1E43" unicode="&#x1e43;" horiz-adv-x="549" 
d="M479.5 524q31.5 -34 31.5 -92v-432h-96v416q0 24 -12 37t-32 13q-21 0 -34 -15t-13 -47v-404h-96v416q0 24 -12 37t-31 13q-22 0 -35 -15.5t-13 -46.5v-404h-96v548h85v-51q12 29 36.5 45t52.5 16q32 0 57.5 -16t38.5 -46q12 30 36 46t55 16q46 0 77.5 -34zM235 -189.5
q-16 16.5 -16 42.5t16 42.5t40 16.5t40 -16.5t16 -42.5t-16 -42.5t-40 -16.5t-40 16.5z" />
    <glyph glyph-name="n" unicode="n" 
d="M297.5 524.5q30.5 -33.5 30.5 -92.5v-432h-96v416q0 25 -12 38t-33 13q-50 0 -50 -62v-405h-96v548h83v-50q12 29 37 44.5t58 15.5q48 0 78.5 -33.5z" />
    <glyph glyph-name="nacute" unicode="&#x144;" 
d="M297.5 524.5q30.5 -33.5 30.5 -92.5v-432h-96v416q0 25 -12 38t-33 13q-50 0 -50 -62v-405h-96v548h83v-50q12 29 37 44.5t58 15.5q48 0 78.5 -33.5zM209 608h-72l48 164h100v-9z" />
    <glyph glyph-name="ncaron" unicode="&#x148;" 
d="M297.5 524.5q30.5 -33.5 30.5 -92.5v-432h-96v416q0 25 -12 38t-33 13q-50 0 -50 -62v-405h-96v548h83v-50q12 29 37 44.5t58 15.5q48 0 78.5 -33.5zM297 772l-64 -164h-100l-65 164h71l44 -93l43 93h71z" />
    <glyph glyph-name="ncommaaccent" unicode="&#x146;" 
d="M297.5 524.5q30.5 -33.5 30.5 -92.5v-432h-96v416q0 25 -12 38t-33 13q-50 0 -50 -62v-405h-96v548h83v-50q12 29 37 44.5t58 15.5q48 0 78.5 -33.5zM148 -59h98l-52 -154h-69z" />
    <glyph glyph-name="uni1E45" unicode="&#x1e45;" 
d="M297.5 524.5q30.5 -33.5 30.5 -92.5v-432h-96v416q0 25 -12 38t-33 13q-50 0 -50 -62v-405h-96v548h83v-50q12 29 37 44.5t58 15.5q48 0 78.5 -33.5zM143 633.5q-16 16.5 -16 42.5t16 42.5t40 16.5t40 -16.5t16 -42.5t-16 -42.5t-40 -16.5t-40 16.5z" />
    <glyph glyph-name="uni1E47" unicode="&#x1e47;" 
d="M297.5 524.5q30.5 -33.5 30.5 -92.5v-432h-96v416q0 25 -12 38t-33 13q-50 0 -50 -62v-405h-96v548h83v-50q12 29 37 44.5t58 15.5q48 0 78.5 -33.5zM143 -189.5q-16 16.5 -16 42.5t16 42.5t40 16.5t40 -16.5t16 -42.5t-16 -42.5t-40 -16.5t-40 16.5z" />
    <glyph glyph-name="eng" unicode="&#x14b;" 
d="M297.5 524.5q30.5 -33.5 30.5 -92.5v-504q0 -58 -26.5 -87t-73.5 -29q-28 0 -48 8v82q12 -4 24 -4q28 0 28 30v488q0 25 -12 38t-33 13q-50 0 -50 -62v-405h-96v548h83v-50q12 29 37 44.5t58 15.5q48 0 78.5 -33.5z" />
    <glyph glyph-name="uni01CC" unicode="&#x1cc;" horiz-adv-x="543" 
d="M297.5 524.5q30.5 -33.5 30.5 -92.5v-432h-96v416q0 25 -12 38t-33 13q-50 0 -50 -62v-405h-96v548h83v-50q12 29 37 44.5t58 15.5q48 0 78.5 -33.5zM354 -180v82q12 -4 24 -4q28 0 28 30v620h96v-620q0 -58 -26.5 -87t-73.5 -29q-28 0 -48 8zM414 633.5
q-16 16.5 -16 42.5t16 42.5t40 16.5t40 -16.5t16 -42.5t-16 -42.5t-40 -16.5t-40 16.5z" />
    <glyph glyph-name="uni1E49" unicode="&#x1e49;" 
d="M297.5 524.5q30.5 -33.5 30.5 -92.5v-432h-96v416q0 25 -12 38t-33 13q-50 0 -50 -62v-405h-96v548h83v-50q12 29 37 44.5t58 15.5q48 0 78.5 -33.5zM94 -100h179v-75h-179v75z" />
    <glyph glyph-name="ntilde" unicode="&#xf1;" 
d="M297.5 524.5q30.5 -33.5 30.5 -92.5v-432h-96v416q0 25 -12 38t-33 13q-50 0 -50 -62v-405h-96v548h83v-50q12 29 37 44.5t58 15.5q48 0 78.5 -33.5zM193.5 622.5q-13.5 8.5 -27.5 22.5q-7 7 -14 12.5t-13 5.5q-21 0 -22 -46h-59q1 55 20.5 88t62.5 33q18 0 31.5 -8.5
t28.5 -23.5q7 -7 14 -12t12 -5q22 0 23 46h59q-1 -55 -21 -88t-63 -33q-18 0 -31.5 8.5z" />
    <glyph glyph-name="o" unicode="o" horiz-adv-x="350" 
d="M60.5 63q-39.5 73 -39.5 211t39.5 211t114.5 73t114.5 -73t39.5 -211t-39.5 -211t-114.5 -73t-114.5 73zM218 130.5q15 50.5 15 143.5q0 94 -15 144t-43 50t-43 -50t-15 -144q0 -93 15 -143.5t43 -50.5t43 50.5z" />
    <glyph glyph-name="oacute" unicode="&#xf3;" horiz-adv-x="350" 
d="M60.5 63q-39.5 73 -39.5 211t39.5 211t114.5 73t114.5 -73t39.5 -211t-39.5 -211t-114.5 -73t-114.5 73zM218 130.5q15 50.5 15 143.5q0 94 -15 144t-43 50t-43 -50t-15 -144q0 -93 15 -143.5t43 -50.5t43 50.5zM201 608h-72l48 164h100v-9z" />
    <glyph glyph-name="obreve" unicode="&#x14f;" horiz-adv-x="350" 
d="M60.5 63q-39.5 73 -39.5 211t39.5 211t114.5 73t114.5 -73t39.5 -211t-39.5 -211t-114.5 -73t-114.5 73zM218 130.5q15 50.5 15 143.5q0 94 -15 144t-43 50t-43 -50t-15 -144q0 -93 15 -143.5t43 -50.5t43 50.5zM99 653q-27 44 -27 122h65q0 -44 10 -68.5t28 -24.5
t28 24.5t10 68.5h65q0 -78 -27 -122t-76 -44t-76 44z" />
    <glyph glyph-name="ocircumflex" unicode="&#xf4;" horiz-adv-x="350" 
d="M60.5 63q-39.5 73 -39.5 211t39.5 211t114.5 73t114.5 -73t39.5 -211t-39.5 -211t-114.5 -73t-114.5 73zM218 130.5q15 50.5 15 143.5q0 94 -15 144t-43 50t-43 -50t-15 -144q0 -93 15 -143.5t43 -50.5t43 50.5zM218 608l-43 93l-44 -93h-71l65 164h100l64 -164h-71z" />
    <glyph glyph-name="uni1ED1" unicode="&#x1ed1;" horiz-adv-x="350" 
d="M378 879v-9l-68 -140h-63l37 149h94zM131 608h-71l65 139h100l64 -139h-71l-43 76zM289.5 485q39.5 -73 39.5 -211t-39.5 -211t-114.5 -73t-114.5 73t-39.5 211t39.5 211t114.5 73t114.5 -73zM218 130.5q15 50.5 15 143.5q0 94 -15 144t-43 50t-43 -50t-15 -144
q0 -93 15 -143.5t43 -50.5t43 50.5z" />
    <glyph glyph-name="uni1ED9" unicode="&#x1ed9;" horiz-adv-x="350" 
d="M60.5 63q-39.5 73 -39.5 211t39.5 211t114.5 73t114.5 -73t39.5 -211t-39.5 -211t-114.5 -73t-114.5 73zM218 130.5q15 50.5 15 143.5q0 94 -15 144t-43 50t-43 -50t-15 -144q0 -93 15 -143.5t43 -50.5t43 50.5zM135 -189.5q-16 16.5 -16 42.5t16 42.5t40 16.5t40 -16.5
t16 -42.5t-16 -42.5t-40 -16.5t-40 16.5zM218 608l-43 93l-44 -93h-71l65 164h100l64 -164h-71z" />
    <glyph glyph-name="uni1ED3" unicode="&#x1ed3;" horiz-adv-x="350" 
d="M290 727l-68 140v9h92l39 -149h-63zM131 608h-71l65 139h100l64 -139h-71l-43 76zM289.5 485q39.5 -73 39.5 -211t-39.5 -211t-114.5 -73t-114.5 73t-39.5 211t39.5 211t114.5 73t114.5 -73zM218 130.5q15 50.5 15 143.5q0 94 -15 144t-43 50t-43 -50t-15 -144
q0 -93 15 -143.5t43 -50.5t43 50.5z" />
    <glyph glyph-name="uni1ED5" unicode="&#x1ed5;" horiz-adv-x="350" 
d="M278.5 834.5q-5.5 -8.5 -6.5 -24.5h-56q1 40 23 65t57 25q34 0 55.5 -21.5t21.5 -54.5q0 -21 -8.5 -35.5t-24.5 -31.5q-11 -12 -16.5 -20.5t-5.5 -18.5v-7h-55v12q0 19 7 31.5t21 28.5q11 12 16 20t5 18q0 22 -19 22q-9 0 -14.5 -8.5zM131 608h-71l65 139h100l64 -139
h-71l-43 76zM289.5 485q39.5 -73 39.5 -211t-39.5 -211t-114.5 -73t-114.5 73t-39.5 211t39.5 211t114.5 73t114.5 -73zM218 130.5q15 50.5 15 143.5q0 94 -15 144t-43 50t-43 -50t-15 -144q0 -93 15 -143.5t43 -50.5t43 50.5z" />
    <glyph glyph-name="uni1ED7" unicode="&#x1ed7;" horiz-adv-x="350" 
d="M127.5 839q-2.5 -16 -5.5 -57h-52q3 143 68 143q19 0 30.5 -14t25.5 -41q5 -10 9.5 -17.5t8.5 -7.5q9 0 12 16.5t5 57.5h52q-3 -143 -69 -143q-18 0 -29 13.5t-25 39.5q-5 10 -10 18t-10 8q-8 0 -10.5 -16zM131 608h-71l65 139h100l64 -139h-71l-43 76zM289.5 485
q39.5 -73 39.5 -211t-39.5 -211t-114.5 -73t-114.5 73t-39.5 211t39.5 211t114.5 73t114.5 -73zM218 130.5q15 50.5 15 143.5q0 94 -15 144t-43 50t-43 -50t-15 -144q0 -93 15 -143.5t43 -50.5t43 50.5z" />
    <glyph glyph-name="uni020D" unicode="&#x20d;" horiz-adv-x="350" 
d="M60.5 63q-39.5 73 -39.5 211t39.5 211t114.5 73t114.5 -73t39.5 -211t-39.5 -211t-114.5 -73t-114.5 73zM218 130.5q15 50.5 15 143.5q0 94 -15 144t-43 50t-43 -50t-15 -144q0 -93 15 -143.5t43 -50.5t43 50.5zM34 775h84l35 -164h-61l-58 155v9zM150 775h84l27 -164
h-61l-50 155v9z" />
    <glyph glyph-name="odieresis" unicode="&#xf6;" horiz-adv-x="350" 
d="M60.5 63q-39.5 73 -39.5 211t39.5 211t114.5 73t114.5 -73t39.5 -211t-39.5 -211t-114.5 -73t-114.5 73zM218 130.5q15 50.5 15 143.5q0 94 -15 144t-43 50t-43 -50t-15 -144q0 -93 15 -143.5t43 -50.5t43 50.5zM139 715.5q15 -15.5 15 -39.5t-15 -39.5t-37 -15.5
t-37 15.5t-15 39.5t15 39.5t37 15.5t37 -15.5zM285 715.5q15 -15.5 15 -39.5t-15 -39.5t-37 -15.5t-37 15.5t-15 39.5t15 39.5t37 15.5t37 -15.5z" />
    <glyph glyph-name="uni022B" unicode="&#x22b;" horiz-adv-x="350" 
d="M60.5 63q-39.5 73 -39.5 211t39.5 211t114.5 73t114.5 -73t39.5 -211t-39.5 -211t-114.5 -73t-114.5 73zM218 130.5q15 50.5 15 143.5q0 94 -15 144t-43 50t-43 -50t-15 -144q0 -93 15 -143.5t43 -50.5t43 50.5zM139 715.5q15 -15.5 15 -39.5t-15 -39.5t-37 -15.5
t-37 15.5t-15 39.5t15 39.5t37 15.5t37 -15.5zM285 715.5q15 -15.5 15 -39.5t-15 -39.5t-37 -15.5t-37 15.5t-15 39.5t15 39.5t37 15.5t37 -15.5zM85 866h179v-75h-179v75z" />
    <glyph glyph-name="uni0231" unicode="&#x231;" horiz-adv-x="350" 
d="M60.5 63q-39.5 73 -39.5 211t39.5 211t114.5 73t114.5 -73t39.5 -211t-39.5 -211t-114.5 -73t-114.5 73zM218 130.5q15 50.5 15 143.5q0 94 -15 144t-43 50t-43 -50t-15 -144q0 -93 15 -143.5t43 -50.5t43 50.5zM135 633.5q-16 16.5 -16 42.5t16 42.5t40 16.5t40 -16.5
t16 -42.5t-16 -42.5t-40 -16.5t-40 16.5zM85 854h179v-75h-179v75z" />
    <glyph glyph-name="uni1ECD" unicode="&#x1ecd;" horiz-adv-x="350" 
d="M60.5 63q-39.5 73 -39.5 211t39.5 211t114.5 73t114.5 -73t39.5 -211t-39.5 -211t-114.5 -73t-114.5 73zM218 130.5q15 50.5 15 143.5q0 94 -15 144t-43 50t-43 -50t-15 -144q0 -93 15 -143.5t43 -50.5t43 50.5zM135 -189.5q-16 16.5 -16 42.5t16 42.5t40 16.5t40 -16.5
t16 -42.5t-16 -42.5t-40 -16.5t-40 16.5z" />
    <glyph glyph-name="ograve" unicode="&#xf2;" horiz-adv-x="350" 
d="M60.5 63q-39.5 73 -39.5 211t39.5 211t114.5 73t114.5 -73t39.5 -211t-39.5 -211t-114.5 -73t-114.5 73zM218 130.5q15 50.5 15 143.5q0 94 -15 144t-43 50t-43 -50t-15 -144q0 -93 15 -143.5t43 -50.5t43 50.5zM64 775h100l48 -164h-72l-76 155v9z" />
    <glyph glyph-name="uni1ECF" unicode="&#x1ecf;" horiz-adv-x="350" 
d="M60.5 63q-39.5 73 -39.5 211t39.5 211t114.5 73t114.5 -73t39.5 -211t-39.5 -211t-114.5 -73t-114.5 73zM218 130.5q15 50.5 15 143.5q0 94 -15 144t-43 50t-43 -50t-15 -144q0 -93 15 -143.5t43 -50.5t43 50.5zM143 618q0 21 8 35t24 32q12 13 18 22.5t6 20.5
q0 13 -7 20.5t-18 7.5q-12 0 -19 -10.5t-8 -29.5h-59q1 45 25.5 72.5t63.5 27.5q38 0 62 -24.5t24 -60.5q0 -24 -9 -40t-27 -36q-13 -14 -19 -23t-6 -20v-7h-59v13z" />
    <glyph glyph-name="ohorn" unicode="&#x1a1;" horiz-adv-x="353" 
d="M284 496q45 -74 45 -223q0 -139 -39.5 -212.5t-114.5 -73.5t-114.5 73.5t-39.5 212.5q0 140 39.5 213.5t114.5 73.5q12 0 26.5 -3.5t20.5 -3.5q22 0 29.5 14.5t7.5 49.5q0 26 -15 74h84q13 -30 13 -76q0 -91 -57 -119zM218 127.5q15 50.5 15 145.5q0 96 -15 146.5
t-43 50.5t-43 -50.5t-15 -146.5q0 -95 15 -145.5t43 -50.5t43 50.5z" />
    <glyph glyph-name="uni1EDB" unicode="&#x1edb;" horiz-adv-x="353" 
d="M284 496q45 -74 45 -223q0 -139 -39.5 -212.5t-114.5 -73.5t-114.5 73.5t-39.5 212.5q0 140 39.5 213.5t114.5 73.5q12 0 26.5 -3.5t20.5 -3.5q22 0 29.5 14.5t7.5 49.5q0 26 -15 74h84q13 -30 13 -76q0 -91 -57 -119zM218 127.5q15 50.5 15 145.5q0 96 -15 146.5
t-43 50.5t-43 -50.5t-15 -146.5q0 -95 15 -145.5t43 -50.5t43 50.5zM183 608h-72l48 164h100v-9z" />
    <glyph glyph-name="uni1EE3" unicode="&#x1ee3;" horiz-adv-x="353" 
d="M284 496q45 -74 45 -223q0 -139 -39.5 -212.5t-114.5 -73.5t-114.5 73.5t-39.5 212.5q0 140 39.5 213.5t114.5 73.5q12 0 26.5 -3.5t20.5 -3.5q22 0 29.5 14.5t7.5 49.5q0 26 -15 74h84q13 -30 13 -76q0 -91 -57 -119zM218 127.5q15 50.5 15 145.5q0 96 -15 146.5
t-43 50.5t-43 -50.5t-15 -146.5q0 -95 15 -145.5t43 -50.5t43 50.5zM137 -189.5q-16 16.5 -16 42.5t16 42.5t40 16.5t40 -16.5t16 -42.5t-16 -42.5t-40 -16.5t-40 16.5z" />
    <glyph glyph-name="uni1EDD" unicode="&#x1edd;" horiz-adv-x="353" 
d="M284 496q45 -74 45 -223q0 -139 -39.5 -212.5t-114.5 -73.5t-114.5 73.5t-39.5 212.5q0 140 39.5 213.5t114.5 73.5q12 0 26.5 -3.5t20.5 -3.5q22 0 29.5 14.5t7.5 49.5q0 26 -15 74h84q13 -30 13 -76q0 -91 -57 -119zM218 127.5q15 50.5 15 145.5q0 96 -15 146.5
t-43 50.5t-43 -50.5t-15 -146.5q0 -95 15 -145.5t43 -50.5t43 50.5zM66 775h100l48 -164h-72l-76 155v9z" />
    <glyph glyph-name="uni1EDF" unicode="&#x1edf;" horiz-adv-x="353" 
d="M284 496q45 -74 45 -223q0 -139 -39.5 -212.5t-114.5 -73.5t-114.5 73.5t-39.5 212.5q0 140 39.5 213.5t114.5 73.5q12 0 26.5 -3.5t20.5 -3.5q22 0 29.5 14.5t7.5 49.5q0 26 -15 74h84q13 -30 13 -76q0 -91 -57 -119zM218 127.5q15 50.5 15 145.5q0 96 -15 146.5
t-43 50.5t-43 -50.5t-15 -146.5q0 -95 15 -145.5t43 -50.5t43 50.5zM145 618q0 21 8 35t24 32q12 13 18 22.5t6 20.5q0 13 -7 20.5t-18 7.5q-12 0 -19 -10.5t-8 -29.5h-59q1 45 25.5 72.5t63.5 27.5q38 0 62 -24.5t24 -60.5q0 -24 -9 -40t-27 -36q-13 -14 -19 -23t-6 -20v-7
h-59v13z" />
    <glyph glyph-name="uni1EE1" unicode="&#x1ee1;" horiz-adv-x="353" 
d="M284 496q45 -74 45 -223q0 -139 -39.5 -212.5t-114.5 -73.5t-114.5 73.5t-39.5 212.5q0 140 39.5 213.5t114.5 73.5q12 0 26.5 -3.5t20.5 -3.5q22 0 29.5 14.5t7.5 49.5q0 7 -2 25q-17 -23 -43 -23q-18 0 -29 13.5t-25 39.5q-5 10 -10 18t-10 8q-8 0 -10.5 -16t-5.5 -57
h-52q3 143 68 143q19 0 30.5 -14t25.5 -41q5 -10 9.5 -17.5t8.5 -7.5q9 0 12 16.5t5 57.5h52q-2 -44 -7 -71h52q13 -30 13 -76q0 -91 -57 -119zM218 127.5q15 50.5 15 145.5q0 96 -15 146.5t-43 50.5t-43 -50.5t-15 -146.5q0 -95 15 -145.5t43 -50.5t43 50.5z" />
    <glyph glyph-name="ohungarumlaut" unicode="&#x151;" horiz-adv-x="350" 
d="M60.5 63q-39.5 73 -39.5 211t39.5 211t114.5 73t114.5 -73t39.5 -211t-39.5 -211t-114.5 -73t-114.5 73zM218 130.5q15 50.5 15 143.5q0 94 -15 144t-43 50t-43 -50t-15 -144q0 -93 15 -143.5t43 -50.5t43 50.5zM145 608h-61l27 164h84v-9zM253 608h-61l35 164h84v-9z
" />
    <glyph glyph-name="uni020F" unicode="&#x20f;" horiz-adv-x="350" 
d="M60.5 63q-39.5 73 -39.5 211t39.5 211t114.5 73t114.5 -73t39.5 -211t-39.5 -211t-114.5 -73t-114.5 73zM218 130.5q15 50.5 15 143.5q0 94 -15 144t-43 50t-43 -50t-15 -144q0 -93 15 -143.5t43 -50.5t43 50.5zM251 730q27 -44 27 -122h-65q0 44 -10 68.5t-28 24.5
t-28 -24.5t-10 -68.5h-65q0 78 27 122t76 44t76 -44z" />
    <glyph glyph-name="omacron" unicode="&#x14d;" horiz-adv-x="350" 
d="M60.5 63q-39.5 73 -39.5 211t39.5 211t114.5 73t114.5 -73t39.5 -211t-39.5 -211t-114.5 -73t-114.5 73zM218 130.5q15 50.5 15 143.5q0 94 -15 144t-43 50t-43 -50t-15 -144q0 -93 15 -143.5t43 -50.5t43 50.5zM85 699h179v-75h-179v75z" />
    <glyph glyph-name="uni1E53" unicode="&#x1e53;" horiz-adv-x="350" 
d="M60.5 63q-39.5 73 -39.5 211t39.5 211t114.5 73t114.5 -73t39.5 -211t-39.5 -211t-114.5 -73t-114.5 73zM218 130.5q15 50.5 15 143.5q0 94 -15 144t-43 50t-43 -50t-15 -144q0 -93 15 -143.5t43 -50.5t43 50.5zM85 699h179v-75h-179v75zM201 754h-72l48 164h100v-9z" />
    <glyph glyph-name="uni1E51" unicode="&#x1e51;" horiz-adv-x="350" 
d="M60.5 63q-39.5 73 -39.5 211t39.5 211t114.5 73t114.5 -73t39.5 -211t-39.5 -211t-114.5 -73t-114.5 73zM218 130.5q15 50.5 15 143.5q0 94 -15 144t-43 50t-43 -50t-15 -144q0 -93 15 -143.5t43 -50.5t43 50.5zM85 699h179v-75h-179v75zM64 921h100l48 -164h-72l-76 155
v9z" />
    <glyph glyph-name="uni01EB" unicode="&#x1eb;" horiz-adv-x="350" 
d="M244 -101l27 -62q-31 -34 -85 -34q-43 0 -70.5 23t-27.5 68q0 60 52 98q-58 16 -88.5 88t-30.5 194q0 140 39.5 213.5t114.5 73.5t114.5 -73.5t39.5 -213.5q0 -88 -13 -143t-33.5 -85t-51.5 -51q-33 -23 -44.5 -43t-11.5 -40q0 -15 8.5 -23t21.5 -8q18 0 39 18z
M132 420.5q-15 -50.5 -15 -146.5q0 -95 15 -146t43 -51t43 51t15 146q0 96 -15 146.5t-43 50.5t-43 -50.5z" />
    <glyph glyph-name="oslash" unicode="&#xf8;" horiz-adv-x="358" 
d="M298 475q34 -74 34 -202q0 -139 -39.5 -212.5t-114.5 -73.5q-41 0 -72 22l-23 -60h-75l50 123q-34 73 -34 201q0 140 39.5 213.5t114.5 73.5q41 0 72 -22l23 60h75zM132.5 418.5q-17.5 -51.5 -17.5 -145.5q0 -41 3 -73l95 244q-15 26 -35 26q-28 0 -45.5 -51.5z
M223.5 128.5q17.5 51.5 17.5 144.5q0 41 -3 74l-95 -244q15 -26 35 -26q28 0 45.5 51.5z" />
    <glyph glyph-name="oslashacute" unicode="&#x1ff;" horiz-adv-x="375" 
d="M298 475q34 -74 34 -202q0 -139 -39.5 -212.5t-114.5 -73.5q-41 0 -72 22l-23 -60h-75l50 123q-34 73 -34 201q0 140 39.5 213.5t114.5 73.5q41 0 72 -22l23 60h75zM132.5 418.5q-17.5 -51.5 -17.5 -145.5q0 -41 3 -73l95 244q-15 26 -35 26q-28 0 -45.5 -51.5z
M223.5 128.5q17.5 51.5 17.5 144.5q0 41 -3 74l-95 -244q15 -26 35 -26q28 0 45.5 51.5zM218 605h-72l48 164h100v-9z" />
    <glyph glyph-name="otilde" unicode="&#xf5;" horiz-adv-x="350" 
d="M60.5 63q-39.5 73 -39.5 211t39.5 211t114.5 73t114.5 -73t39.5 -211t-39.5 -211t-114.5 -73t-114.5 73zM218 130.5q15 50.5 15 143.5q0 94 -15 144t-43 50t-43 -50t-15 -144q0 -93 15 -143.5t43 -50.5t43 50.5zM185.5 622.5q-13.5 8.5 -27.5 22.5q-7 7 -14 12.5t-13 5.5
q-21 0 -22 -46h-59q1 55 20.5 88t62.5 33q18 0 31.5 -8.5t28.5 -23.5q7 -7 14 -12t12 -5q22 0 23 46h59q-1 -55 -21 -88t-63 -33q-18 0 -31.5 8.5z" />
    <glyph glyph-name="uni1E4D" unicode="&#x1e4d;" horiz-adv-x="350" 
d="M60.5 63q-39.5 73 -39.5 211t39.5 211t114.5 73t114.5 -73t39.5 -211t-39.5 -211t-114.5 -73t-114.5 73zM218 130.5q15 50.5 15 143.5q0 94 -15 144t-43 50t-43 -50t-15 -144q0 -93 15 -143.5t43 -50.5t43 50.5zM185.5 622.5q-13.5 8.5 -27.5 22.5q-7 7 -14 12.5t-13 5.5
q-21 0 -22 -46h-59q1 55 20.5 88t62.5 33q18 0 31.5 -8.5t28.5 -23.5q7 -7 14 -12t12 -5q22 0 23 46h59q-1 -55 -21 -88t-63 -33q-18 0 -31.5 8.5zM201 779h-72l48 164h100v-9z" />
    <glyph glyph-name="uni1E4F" unicode="&#x1e4f;" horiz-adv-x="350" 
d="M60.5 63q-39.5 73 -39.5 211t39.5 211t114.5 73t114.5 -73t39.5 -211t-39.5 -211t-114.5 -73t-114.5 73zM218 130.5q15 50.5 15 143.5q0 94 -15 144t-43 50t-43 -50t-15 -144q0 -93 15 -143.5t43 -50.5t43 50.5zM185.5 622.5q-13.5 8.5 -27.5 22.5q-7 7 -14 12.5t-13 5.5
q-21 0 -22 -46h-59q1 55 20.5 88t62.5 33q18 0 31.5 -8.5t28.5 -23.5q7 -7 14 -12t12 -5q22 0 23 46h59q-1 -55 -21 -88t-63 -33q-18 0 -31.5 8.5zM139 886.5q15 -15.5 15 -39.5t-15 -39.5t-37 -15.5t-37 15.5t-15 39.5t15 39.5t37 15.5t37 -15.5zM285 886.5
q15 -15.5 15 -39.5t-15 -39.5t-37 -15.5t-37 15.5t-15 39.5t15 39.5t37 15.5t37 -15.5z" />
    <glyph glyph-name="uni022D" unicode="&#x22d;" horiz-adv-x="350" 
d="M60.5 63q-39.5 73 -39.5 211t39.5 211t114.5 73t114.5 -73t39.5 -211t-39.5 -211t-114.5 -73t-114.5 73zM218 130.5q15 50.5 15 143.5q0 94 -15 144t-43 50t-43 -50t-15 -144q0 -93 15 -143.5t43 -50.5t43 50.5zM185.5 622.5q-13.5 8.5 -27.5 22.5q-7 7 -14 12.5t-13 5.5
q-21 0 -22 -46h-59q1 55 20.5 88t62.5 33q18 0 31.5 -8.5t28.5 -23.5q7 -7 14 -12t12 -5q22 0 23 46h59q-1 -55 -21 -88t-63 -33q-18 0 -31.5 8.5zM85 855h179v-75h-179v75z" />
    <glyph glyph-name="oe" unicode="&#x153;" horiz-adv-x="550" 
d="M534 232h-205q8 -154 71 -154q32 0 60 43l63 -56q-24 -37 -53.5 -56t-68.5 -19q-47 0 -76.5 26.5t-44.5 78.5q-29 -105 -112 -105q-71 0 -109 73.5t-38 210.5t38 210.5t109 73.5q83 0 112 -104q30 104 110 104q71 0 109 -75.5t38 -212.5q0 -21 -3 -38zM346 427.5
q-15 -41.5 -17 -119.5h114q-2 79 -16.5 120t-39.5 41q-26 0 -41 -41.5zM218 130q15 50 15 144q0 93 -15 143.5t-43 50.5t-43 -50.5t-15 -143.5q0 -94 15 -144t43 -50t43 50z" />
    <glyph glyph-name="p" unicode="p" horiz-adv-x="362" 
d="M307 482.5q35 -75.5 35 -208.5t-35 -208.5t-97 -75.5q-48 0 -77 54v-224h-96v728h83v-74q15 41 36.5 62.5t53.5 21.5q62 0 97 -75.5zM230.5 130.5q15.5 52.5 15.5 143.5t-15.5 143.5t-42.5 52.5q-26 0 -42 -54.5t-16 -141.5q0 -86 16 -141t42 -55q27 0 42.5 52.5z" />
    <glyph glyph-name="thorn" unicode="&#xfe;" horiz-adv-x="367" 
d="M311 482.5q35 -75.5 35 -208.5t-35 -208.5t-97 -75.5q-48 0 -77 54v-224h-96v932h96v-248q29 54 77 54q62 0 97 -75.5zM234.5 130.5q15.5 52.5 15.5 143.5t-15.5 143.5t-42.5 52.5q-26 0 -42 -54.5t-16 -141.5q0 -86 16 -141t42 -55q27 0 42.5 52.5z" />
    <glyph glyph-name="q" unicode="q" horiz-adv-x="362" 
d="M55 482.5q-35 -75.5 -35 -208.5t35 -208.5t97 -75.5q48 0 77 54v-224h96v728h-83v-74q-15 41 -36.5 62.5t-53.5 21.5q-62 0 -97 -75.5zM131.5 130.5q-15.5 52.5 -15.5 143.5t15.5 143.5t42.5 52.5q26 0 42 -54.5t16 -141.5q0 -86 -16 -141t-42 -55q-27 0 -42.5 52.5z" />
    <glyph glyph-name="r" unicode="r" horiz-adv-x="236" 
d="M239 550v-93q-15 5 -29 5q-31 0 -52 -22t-21 -62v-378h-96v548h83v-69q11 41 36.5 58t54.5 17q15 0 24 -4z" />
    <glyph glyph-name="racute" unicode="&#x155;" horiz-adv-x="236" 
d="M239 550v-93q-15 5 -29 5q-31 0 -52 -22t-21 -62v-378h-96v548h83v-69q11 41 36.5 58t54.5 17q15 0 24 -4zM158 608h-72l48 164h100v-9z" />
    <glyph glyph-name="rcaron" unicode="&#x159;" horiz-adv-x="236" 
d="M239 550v-93q-15 5 -29 5q-31 0 -52 -22t-21 -62v-378h-96v548h83v-69q11 41 36.5 58t54.5 17q15 0 24 -4zM246 772l-64 -164h-100l-65 164h71l44 -93l43 93h71z" />
    <glyph glyph-name="rcommaaccent" unicode="&#x157;" horiz-adv-x="236" 
d="M239 550v-93q-15 5 -29 5q-31 0 -52 -22t-21 -62v-378h-96v548h83v-69q11 41 36.5 58t54.5 17q15 0 24 -4zM55 -59h98l-52 -154h-69z" />
    <glyph glyph-name="uni0211" unicode="&#x211;" horiz-adv-x="236" 
d="M239 550v-93q-15 5 -29 5q-31 0 -52 -22t-21 -62v-378h-96v548h83v-69q11 41 36.5 58t54.5 17q15 0 24 -4zM-9 775h84l35 -164h-61l-58 155v9zM107 775h84l27 -164h-61l-50 155v9z" />
    <glyph glyph-name="uni1E5B" unicode="&#x1e5b;" horiz-adv-x="236" 
d="M239 550v-93q-15 5 -29 5q-31 0 -52 -22t-21 -62v-378h-96v548h83v-69q11 41 36.5 58t54.5 17q15 0 24 -4zM50 -189.5q-16 16.5 -16 42.5t16 42.5t40 16.5t40 -16.5t16 -42.5t-16 -42.5t-40 -16.5t-40 16.5z" />
    <glyph glyph-name="uni0213" unicode="&#x213;" horiz-adv-x="236" 
d="M239 550v-93q-15 5 -29 5q-31 0 -52 -22t-21 -62v-378h-96v548h83v-69q11 41 36.5 58t54.5 17q15 0 24 -4zM208 730q27 -44 27 -122h-65q0 44 -10 68.5t-28 24.5t-28 -24.5t-10 -68.5h-65q0 78 27 122t76 44t76 -44z" />
    <glyph glyph-name="uni1E5F" unicode="&#x1e5f;" horiz-adv-x="236" 
d="M239 550v-93q-15 5 -29 5q-31 0 -52 -22t-21 -62v-378h-96v548h83v-69q11 41 36.5 58t54.5 17q15 0 24 -4zM-14.3994 -100h161.094v-75h-161.094v75z" />
    <glyph glyph-name="s" unicode="s" horiz-adv-x="290" 
d="M62 10q-36 19 -56 53l61 59q15 -22 33 -34.5t37 -12.5q23 0 37.5 18t14.5 50q0 25 -9.5 42.5t-29.5 31.5l-48 35q-85 62 -85 159q0 66 36.5 106t96.5 40q78 0 125 -71l-58 -57q-16 22 -30.5 32.5t-31.5 10.5q-21 0 -33.5 -15t-12.5 -40q0 -46 41 -75l40 -28
q46 -32 68.5 -72t22.5 -92q0 -72 -39 -115.5t-102 -43.5q-42 0 -78 19z" />
    <glyph glyph-name="sacute" unicode="&#x15b;" horiz-adv-x="290" 
d="M62 10q-36 19 -56 53l61 59q15 -22 33 -34.5t37 -12.5q23 0 37.5 18t14.5 50q0 25 -9.5 42.5t-29.5 31.5l-48 35q-85 62 -85 159q0 66 36.5 106t96.5 40q78 0 125 -71l-58 -57q-16 22 -30.5 32.5t-31.5 10.5q-21 0 -33.5 -15t-12.5 -40q0 -46 41 -75l40 -28
q46 -32 68.5 -72t22.5 -92q0 -72 -39 -115.5t-102 -43.5q-42 0 -78 19zM174 608h-72l48 164h100v-9z" />
    <glyph glyph-name="uni1E65" unicode="&#x1e65;" horiz-adv-x="298" 
d="M62 10q-36 19 -56 53l61 59q15 -22 33 -34.5t37 -12.5q23 0 37.5 18t14.5 50q0 25 -9.5 42.5t-29.5 31.5l-48 35q-85 62 -85 159q0 66 36.5 106t96.5 40q78 0 125 -71l-58 -57q-16 22 -30.5 32.5t-31.5 10.5q-21 0 -33.5 -15t-12.5 -40q0 -46 41 -75l40 -28
q46 -32 68.5 -72t22.5 -92q0 -72 -39 -115.5t-102 -43.5q-42 0 -78 19zM210 608h-72l48 164h100v-9zM56 747.5q-16 16.5 -16 42.5t16 42.5t40 16.5t40 -16.5t16 -42.5t-16 -42.5t-40 -16.5t-40 16.5z" />
    <glyph glyph-name="scaron" unicode="&#x161;" horiz-adv-x="290" 
d="M62 10q-36 19 -56 53l61 59q15 -22 33 -34.5t37 -12.5q23 0 37.5 18t14.5 50q0 25 -9.5 42.5t-29.5 31.5l-48 35q-85 62 -85 159q0 66 36.5 106t96.5 40q78 0 125 -71l-58 -57q-16 22 -30.5 32.5t-31.5 10.5q-21 0 -33.5 -15t-12.5 -40q0 -46 41 -75l40 -28
q46 -32 68.5 -72t22.5 -92q0 -72 -39 -115.5t-102 -43.5q-42 0 -78 19zM262 772l-64 -164h-100l-65 164h71l44 -93l43 93h71z" />
    <glyph glyph-name="uni1E67" unicode="&#x1e67;" horiz-adv-x="290" 
d="M62 10q-36 19 -56 53l61 59q15 -22 33 -34.5t37 -12.5q23 0 37.5 18t14.5 50q0 25 -9.5 42.5t-29.5 31.5l-48 35q-85 62 -85 159q0 66 36.5 106t96.5 40q78 0 125 -71l-58 -57q-16 22 -30.5 32.5t-31.5 10.5q-21 0 -33.5 -15t-12.5 -40q0 -46 41 -75l40 -28
q46 -32 68.5 -72t22.5 -92q0 -72 -39 -115.5t-102 -43.5q-42 0 -78 19zM262 772l-64 -164h-100l-65 164h71l44 -93l43 93h71zM108 820.5q-16 16.5 -16 42.5t16 42.5t40 16.5t40 -16.5t16 -42.5t-16 -42.5t-40 -16.5t-40 16.5z" />
    <glyph glyph-name="scedilla" unicode="&#x15f;" horiz-adv-x="290" 
d="M62 10q-36 19 -56 53l61 59q15 -22 33 -34.5t37 -12.5q23 0 37.5 18t14.5 50q0 25 -9.5 42.5t-29.5 31.5l-48 35q-85 62 -85 159q0 66 36.5 106t96.5 40q78 0 125 -71l-58 -57q-16 22 -30.5 32.5t-31.5 10.5q-21 0 -33.5 -15t-12.5 -40q0 -46 41 -75l40 -28
q46 -32 68.5 -72t22.5 -92q0 -72 -39 -115.5t-102 -43.5q-42 0 -78 19zM218.5 -64q22.5 -23 22.5 -60q0 -42 -28 -67.5t-76 -25.5q-54 0 -93 30l27 49q32 -21 57 -21q19 0 29.5 9.5t10.5 25.5t-9.5 26t-27.5 10q-14 0 -27 -6l-16 13l46 101h56l-33 -61h5q34 0 56.5 -23z" />
    <glyph glyph-name="scircumflex" unicode="&#x15d;" horiz-adv-x="290" 
d="M62 10q-36 19 -56 53l61 59q15 -22 33 -34.5t37 -12.5q23 0 37.5 18t14.5 50q0 25 -9.5 42.5t-29.5 31.5l-48 35q-85 62 -85 159q0 66 36.5 106t96.5 40q78 0 125 -71l-58 -57q-16 22 -30.5 32.5t-31.5 10.5q-21 0 -33.5 -15t-12.5 -40q0 -46 41 -75l40 -28
q46 -32 68.5 -72t22.5 -92q0 -72 -39 -115.5t-102 -43.5q-42 0 -78 19zM191 608l-43 93l-44 -93h-71l65 164h100l64 -164h-71z" />
    <glyph glyph-name="scommaaccent" unicode="&#x219;" horiz-adv-x="290" 
d="M62 10q-36 19 -56 53l61 59q15 -22 33 -34.5t37 -12.5q23 0 37.5 18t14.5 50q0 25 -9.5 42.5t-29.5 31.5l-48 35q-85 62 -85 159q0 66 36.5 106t96.5 40q78 0 125 -71l-58 -57q-16 22 -30.5 32.5t-31.5 10.5q-21 0 -33.5 -15t-12.5 -40q0 -46 41 -75l40 -28
q46 -32 68.5 -72t22.5 -92q0 -72 -39 -115.5t-102 -43.5q-42 0 -78 19zM112 -59h98l-52 -154h-69z" />
    <glyph glyph-name="uni1E61" unicode="&#x1e61;" horiz-adv-x="290" 
d="M62 10q-36 19 -56 53l61 59q15 -22 33 -34.5t37 -12.5q23 0 37.5 18t14.5 50q0 25 -9.5 42.5t-29.5 31.5l-48 35q-85 62 -85 159q0 66 36.5 106t96.5 40q78 0 125 -71l-58 -57q-16 22 -30.5 32.5t-31.5 10.5q-21 0 -33.5 -15t-12.5 -40q0 -46 41 -75l40 -28
q46 -32 68.5 -72t22.5 -92q0 -72 -39 -115.5t-102 -43.5q-42 0 -78 19zM108 633.5q-16 16.5 -16 42.5t16 42.5t40 16.5t40 -16.5t16 -42.5t-16 -42.5t-40 -16.5t-40 16.5z" />
    <glyph glyph-name="uni1E63" unicode="&#x1e63;" horiz-adv-x="290" 
d="M62 10q-36 19 -56 53l61 59q15 -22 33 -34.5t37 -12.5q23 0 37.5 18t14.5 50q0 25 -9.5 42.5t-29.5 31.5l-48 35q-85 62 -85 159q0 66 36.5 106t96.5 40q78 0 125 -71l-58 -57q-16 22 -30.5 32.5t-31.5 10.5q-21 0 -33.5 -15t-12.5 -40q0 -46 41 -75l40 -28
q46 -32 68.5 -72t22.5 -92q0 -72 -39 -115.5t-102 -43.5q-42 0 -78 19zM107 -189.5q-16 16.5 -16 42.5t16 42.5t40 16.5t40 -16.5t16 -42.5t-16 -42.5t-40 -16.5t-40 16.5z" />
    <glyph glyph-name="uni1E69" unicode="&#x1e69;" horiz-adv-x="290" 
d="M62 10q-36 19 -56 53l61 59q15 -22 33 -34.5t37 -12.5q23 0 37.5 18t14.5 50q0 25 -9.5 42.5t-29.5 31.5l-48 35q-85 62 -85 159q0 66 36.5 106t96.5 40q78 0 125 -71l-58 -57q-16 22 -30.5 32.5t-31.5 10.5q-21 0 -33.5 -15t-12.5 -40q0 -46 41 -75l40 -28
q46 -32 68.5 -72t22.5 -92q0 -72 -39 -115.5t-102 -43.5q-42 0 -78 19zM107 -189.5q-16 16.5 -16 42.5t16 42.5t40 16.5t40 -16.5t16 -42.5t-16 -42.5t-40 -16.5t-40 16.5zM108 633.5q-16 16.5 -16 42.5t16 42.5t40 16.5t40 -16.5t16 -42.5t-16 -42.5t-40 -16.5t-40 16.5z
" />
    <glyph glyph-name="germandbls" unicode="&#xdf;" horiz-adv-x="368" 
d="M200 -2.5q-19 3.5 -32 12.5v83q24 -14 53 -14q27 0 36.5 16t9.5 43q0 49 -26 96l-35 63q-26 47 -26 86q0 19 5 37t16 50q1 4 8 25q22 66 22 109q0 36 -13.5 54t-33.5 18q-22 0 -35.5 -22t-13.5 -64v-590h-94v592q0 81 40.5 125.5t105.5 44.5q61 0 97.5 -39t36.5 -109
q0 -35 -8 -70.5t-22 -76.5q-11 -31 -14.5 -45.5t-3.5 -25.5t2.5 -18.5t8.5 -19.5l31 -57q46 -85 46 -160q0 -68 -34 -107.5t-91 -39.5q-17 0 -36 3.5z" />
    <glyph glyph-name="t" unicode="t" horiz-adv-x="232" 
d="M225 87v-82q-20 -14 -61 -14q-59 0 -88 35.5t-29 93.5v348h-45v80h48v100l93 44v-144h80v-80h-80v-345q0 -22 12.5 -33t31.5 -11q17 0 38 8z" />
    <glyph glyph-name="tbar" unicode="&#x167;" horiz-adv-x="252" 
d="M234 87v-82q-20 -14 -61 -14q-59 0 -88 35.5t-29 93.5v177h-45v71h45v100h-45v80h48v100l93 44v-144h80v-80h-80v-100h80v-71h-80v-174q0 -22 12.5 -33t31.5 -11q17 0 38 8z" />
    <glyph glyph-name="tcaron" unicode="&#x165;" horiz-adv-x="242" 
d="M266 772l-25 -170h-61l5 170h81zM155.5 90q12.5 -11 31.5 -11q17 0 38 8v-82q-20 -14 -61 -14q-59 0 -88 35.5t-29 93.5v348h-45v80h48v100l93 44v-144h80v-80h-80v-345q0 -22 12.5 -33z" />
    <glyph glyph-name="uni0163" unicode="&#x163;" horiz-adv-x="232" 
d="M225 87v-82q-20 -14 -61 -14q-59 0 -88 35.5t-29 93.5v348h-45v80h48v100l93 44v-144h80v-80h-80v-345q0 -22 12.5 -33t31.5 -11q17 0 38 8zM205.5 -64q22.5 -23 22.5 -60q0 -42 -28 -67.5t-76 -25.5q-54 0 -93 30l27 49q32 -21 57 -21q19 0 29.5 9.5t10.5 25.5t-9.5 26
t-27.5 10q-14 0 -27 -6l-16 13l46 101h56l-33 -61h5q34 0 56.5 -23z" />
    <glyph glyph-name="uni021B" unicode="&#x21b;" horiz-adv-x="232" 
d="M225 87v-82q-20 -14 -61 -14q-59 0 -88 35.5t-29 93.5v348h-45v80h48v100l93 44v-144h80v-80h-80v-345q0 -22 12.5 -33t31.5 -11q17 0 38 8zM99 -59h98l-52 -154h-69z" />
    <glyph glyph-name="uni1E97" unicode="&#x1e97;" horiz-adv-x="232" 
d="M225 87v-82q-20 -14 -61 -14q-59 0 -88 35.5t-29 93.5v348h-45v80h48v100l93 44v-144h80v-80h-80v-345q0 -22 12.5 -33t31.5 -11q17 0 38 8zM78 823.5q15 -15.5 15 -39.5t-15 -39.5t-37 -15.5t-37 15.5t-15 39.5t15 39.5t37 15.5t37 -15.5zM224 823.5q15 -15.5 15 -39.5
t-15 -39.5t-37 -15.5t-37 15.5t-15 39.5t15 39.5t37 15.5t37 -15.5z" />
    <glyph glyph-name="uni1E6D" unicode="&#x1e6d;" horiz-adv-x="232" 
d="M225 87v-82q-20 -14 -61 -14q-59 0 -88 35.5t-29 93.5v348h-45v80h48v100l93 44v-144h80v-80h-80v-345q0 -22 12.5 -33t31.5 -11q17 0 38 8zM94 -189.5q-16 16.5 -16 42.5t16 42.5t40 16.5t40 -16.5t16 -42.5t-16 -42.5t-40 -16.5t-40 16.5z" />
    <glyph glyph-name="uni1E6F" unicode="&#x1e6f;" horiz-adv-x="232" 
d="M225 87v-82q-20 -14 -61 -14q-59 0 -88 35.5t-29 93.5v348h-45v80h48v100l93 44v-144h80v-80h-80v-345q0 -22 12.5 -33t31.5 -11q17 0 38 8zM45 -100h179v-75h-179v75z" />
    <glyph glyph-name="u" unicode="u" 
d="M324 548v-548h-83v50q-12 -29 -37 -44.5t-58 -15.5q-48 0 -78.5 33.5t-30.5 92.5v432h96v-416q0 -25 12 -38t33 -13q50 0 50 62v405h96z" />
    <glyph glyph-name="uacute" unicode="&#xfa;" 
d="M324 548v-548h-83v50q-12 -29 -37 -44.5t-58 -15.5q-48 0 -78.5 33.5t-30.5 92.5v432h96v-416q0 -25 12 -38t33 -13q50 0 50 62v405h96zM209 608h-72l48 164h100v-9z" />
    <glyph glyph-name="ubreve" unicode="&#x16d;" 
d="M324 548v-548h-83v50q-12 -29 -37 -44.5t-58 -15.5q-48 0 -78.5 33.5t-30.5 92.5v432h96v-416q0 -25 12 -38t33 -13q50 0 50 62v405h96zM107 653q-27 44 -27 122h65q0 -44 10 -68.5t28 -24.5t28 24.5t10 68.5h65q0 -78 -27 -122t-76 -44t-76 44z" />
    <glyph glyph-name="ucircumflex" unicode="&#xfb;" 
d="M324 548v-548h-83v50q-12 -29 -37 -44.5t-58 -15.5q-48 0 -78.5 33.5t-30.5 92.5v432h96v-416q0 -25 12 -38t33 -13q50 0 50 62v405h96zM226 608l-43 93l-44 -93h-71l65 164h100l64 -164h-71z" />
    <glyph glyph-name="uni0215" unicode="&#x215;" 
d="M324 548v-548h-83v50q-12 -29 -37 -44.5t-58 -15.5q-48 0 -78.5 33.5t-30.5 92.5v432h96v-416q0 -25 12 -38t33 -13q50 0 50 62v405h96zM42 775h84l35 -164h-61l-58 155v9zM158 775h84l27 -164h-61l-50 155v9z" />
    <glyph glyph-name="udieresis" unicode="&#xfc;" 
d="M324 548v-548h-83v50q-12 -29 -37 -44.5t-58 -15.5q-48 0 -78.5 33.5t-30.5 92.5v432h96v-416q0 -25 12 -38t33 -13q50 0 50 62v405h96zM147 715.5q15 -15.5 15 -39.5t-15 -39.5t-37 -15.5t-37 15.5t-15 39.5t15 39.5t37 15.5t37 -15.5zM293 715.5q15 -15.5 15 -39.5
t-15 -39.5t-37 -15.5t-37 15.5t-15 39.5t15 39.5t37 15.5t37 -15.5z" />
    <glyph glyph-name="uni1EE5" unicode="&#x1ee5;" 
d="M324 548v-548h-83v50q-12 -29 -37 -44.5t-58 -15.5q-48 0 -78.5 33.5t-30.5 92.5v432h96v-416q0 -25 12 -38t33 -13q50 0 50 62v405h96zM143 -189.5q-16 16.5 -16 42.5t16 42.5t40 16.5t40 -16.5t16 -42.5t-16 -42.5t-40 -16.5t-40 16.5z" />
    <glyph glyph-name="ugrave" unicode="&#xf9;" 
d="M324 548v-548h-83v50q-12 -29 -37 -44.5t-58 -15.5q-48 0 -78.5 33.5t-30.5 92.5v432h96v-416q0 -25 12 -38t33 -13q50 0 50 62v405h96zM72 775h100l48 -164h-72l-76 155v9z" />
    <glyph glyph-name="uni1EE7" unicode="&#x1ee7;" 
d="M324 548v-548h-83v50q-12 -29 -37 -44.5t-58 -15.5q-48 0 -78.5 33.5t-30.5 92.5v432h96v-416q0 -25 12 -38t33 -13q50 0 50 62v405h96zM151 618q0 21 8 35t24 32q12 13 18 22.5t6 20.5q0 13 -7 20.5t-18 7.5q-12 0 -19 -10.5t-8 -29.5h-59q1 45 25.5 72.5t63.5 27.5
q38 0 62 -24.5t24 -60.5q0 -24 -9 -40t-27 -36q-13 -14 -19 -23t-6 -20v-7h-59v13z" />
    <glyph glyph-name="uhorn" unicode="&#x1b0;" 
d="M324 548v-548h-83v50q-12 -29 -37 -44.5t-58 -15.5q-48 0 -78.5 33.5t-30.5 92.5v432h96v-416q0 -25 12 -38t33 -13q50 0 50 62v405h96zM251 487l-10 61h6q33 0 44.5 16.5t11.5 52.5q0 26 -15 74h84q13 -30 13 -76q0 -63 -28.5 -95.5t-77.5 -32.5h-28z" />
    <glyph glyph-name="uni1EE9" unicode="&#x1ee9;" 
d="M324 548v-548h-83v50q-12 -29 -37 -44.5t-58 -15.5q-48 0 -78.5 33.5t-30.5 92.5v432h96v-416q0 -25 12 -38t33 -13q50 0 50 62v405h96zM251 487l-10 61h6q33 0 44.5 16.5t11.5 52.5q0 26 -15 74h84q13 -30 13 -76q0 -63 -28.5 -95.5t-77.5 -32.5h-28zM209 608h-72
l48 164h100v-9z" />
    <glyph glyph-name="uni1EF1" unicode="&#x1ef1;" 
d="M324 548v-548h-83v50q-12 -29 -37 -44.5t-58 -15.5q-48 0 -78.5 33.5t-30.5 92.5v432h96v-416q0 -25 12 -38t33 -13q50 0 50 62v405h96zM251 487l-10 61h6q33 0 44.5 16.5t11.5 52.5q0 26 -15 74h84q13 -30 13 -76q0 -63 -28.5 -95.5t-77.5 -32.5h-28zM143 -189.5
q-16 16.5 -16 42.5t16 42.5t40 16.5t40 -16.5t16 -42.5t-16 -42.5t-40 -16.5t-40 16.5z" />
    <glyph glyph-name="uni1EEB" unicode="&#x1eeb;" 
d="M324 548v-548h-83v50q-12 -29 -37 -44.5t-58 -15.5q-48 0 -78.5 33.5t-30.5 92.5v432h96v-416q0 -25 12 -38t33 -13q50 0 50 62v405h96zM251 487l-10 61h6q33 0 44.5 16.5t11.5 52.5q0 26 -15 74h84q13 -30 13 -76q0 -63 -28.5 -95.5t-77.5 -32.5h-28zM72 775h100
l48 -164h-72l-76 155v9z" />
    <glyph glyph-name="uni1EED" unicode="&#x1eed;" 
d="M324 548v-548h-83v50q-12 -29 -37 -44.5t-58 -15.5q-48 0 -78.5 33.5t-30.5 92.5v432h96v-416q0 -25 12 -38t33 -13q50 0 50 62v405h96zM251 487l-10 61h6q33 0 44.5 16.5t11.5 52.5q0 26 -15 74h84q13 -30 13 -76q0 -63 -28.5 -95.5t-77.5 -32.5h-28zM151 618q0 21 8 35
t24 32q12 13 18 22.5t6 20.5q0 13 -7 20.5t-18 7.5q-12 0 -19 -10.5t-8 -29.5h-59q1 45 25.5 72.5t63.5 27.5q38 0 62 -24.5t24 -60.5q0 -24 -9 -40t-27 -36q-13 -14 -19 -23t-6 -20v-7h-59v13z" />
    <glyph glyph-name="uni1EEF" unicode="&#x1eef;" 
d="M135.5 682q-2.5 -16 -5.5 -57h-52q3 143 68 143q19 0 30.5 -14t25.5 -41q5 -10 9.5 -17.5t8.5 -7.5q9 0 12 16.5t5 57.5h52q-3 -143 -69 -143q-18 0 -29 13.5t-25 39.5q-5 10 -10 18t-10 8q-8 0 -10.5 -16zM369 538q-16 -30 -45 -42v-496h-83v50q-12 -29 -37 -44.5
t-58 -15.5q-48 0 -78.5 33.5t-30.5 92.5v432h96v-416q0 -25 12 -38t33 -13q50 0 50 62v405h19q33 0 44.5 16.5t11.5 52.5q0 26 -15 74h84q13 -30 13 -76q0 -47 -16 -77z" />
    <glyph glyph-name="uhungarumlaut" unicode="&#x171;" 
d="M324 548v-548h-83v50q-12 -29 -37 -44.5t-58 -15.5q-48 0 -78.5 33.5t-30.5 92.5v432h96v-416q0 -25 12 -38t33 -13q50 0 50 62v405h96zM153 608h-61l27 164h84v-9zM261 608h-61l35 164h84v-9z" />
    <glyph glyph-name="uni0217" unicode="&#x217;" 
d="M324 548v-548h-83v50q-12 -29 -37 -44.5t-58 -15.5q-48 0 -78.5 33.5t-30.5 92.5v432h96v-416q0 -25 12 -38t33 -13q50 0 50 62v405h96zM259 730q27 -44 27 -122h-65q0 44 -10 68.5t-28 24.5t-28 -24.5t-10 -68.5h-65q0 78 27 122t76 44t76 -44z" />
    <glyph glyph-name="umacron" unicode="&#x16b;" 
d="M324 548v-548h-83v50q-12 -29 -37 -44.5t-58 -15.5q-48 0 -78.5 33.5t-30.5 92.5v432h96v-416q0 -25 12 -38t33 -13q50 0 50 62v405h96zM93 699h179v-75h-179v75z" />
    <glyph glyph-name="uni1E7B" unicode="&#x1e7b;" 
d="M324 548v-548h-83v50q-12 -29 -37 -44.5t-58 -15.5q-48 0 -78.5 33.5t-30.5 92.5v432h96v-416q0 -25 12 -38t33 -13q50 0 50 62v405h96zM93 699h179v-75h-179v75zM147 861.5q15 -15.5 15 -39.5t-15 -39.5t-37 -15.5t-37 15.5t-15 39.5t15 39.5t37 15.5t37 -15.5z
M293 861.5q15 -15.5 15 -39.5t-15 -39.5t-37 -15.5t-37 15.5t-15 39.5t15 39.5t37 15.5t37 -15.5z" />
    <glyph glyph-name="uogonek" unicode="&#x173;" horiz-adv-x="362" 
d="M341 -163q-31 -34 -85 -34q-43 0 -70.5 23t-27.5 68q0 34 20 61t63 52v43q-12 -29 -37 -44.5t-58 -15.5q-48 0 -78.5 33.5t-30.5 92.5v432h96v-416q0 -25 12 -38t33 -13q50 0 50 62v405h96v-548h-3q-43 -27 -59.5 -48t-16.5 -40q0 -15 8.5 -23t21.5 -8q18 0 39 18z" />
    <glyph glyph-name="uring" unicode="&#x16f;" 
d="M324 548v-548h-83v50q-12 -29 -37 -44.5t-58 -15.5q-48 0 -78.5 33.5t-30.5 92.5v432h96v-416q0 -25 12 -38t33 -13q50 0 50 62v405h96zM107.5 625.5q-29.5 28.5 -29.5 72.5t29.5 72.5t75.5 28.5t75.5 -28.5t29.5 -72.5t-29.5 -72.5t-75.5 -28.5t-75.5 28.5zM215.5 664
q12.5 13 12.5 34t-12.5 34t-32.5 13t-32.5 -13t-12.5 -34t12.5 -34t32.5 -13t32.5 13z" />
    <glyph glyph-name="utilde" unicode="&#x169;" 
d="M324 548v-548h-83v50q-12 -29 -37 -44.5t-58 -15.5q-48 0 -78.5 33.5t-30.5 92.5v432h96v-416q0 -25 12 -38t33 -13q50 0 50 62v405h96zM193.5 622.5q-13.5 8.5 -27.5 22.5q-7 7 -14 12.5t-13 5.5q-21 0 -22 -46h-59q1 55 20.5 88t62.5 33q18 0 31.5 -8.5t28.5 -23.5
q7 -7 14 -12t12 -5q22 0 23 46h59q-1 -55 -21 -88t-63 -33q-18 0 -31.5 8.5z" />
    <glyph glyph-name="uni1E79" unicode="&#x1e79;" 
d="M324 548v-548h-83v50q-12 -29 -37 -44.5t-58 -15.5q-48 0 -78.5 33.5t-30.5 92.5v432h96v-416q0 -25 12 -38t33 -13q50 0 50 62v405h96zM193.5 622.5q-13.5 8.5 -27.5 22.5q-7 7 -14 12.5t-13 5.5q-21 0 -22 -46h-59q1 55 20.5 88t62.5 33q18 0 31.5 -8.5t28.5 -23.5
q7 -7 14 -12t12 -5q22 0 23 46h59q-1 -55 -21 -88t-63 -33q-18 0 -31.5 8.5zM209 779h-72l48 164h100v-9z" />
    <glyph glyph-name="v" unicode="v" horiz-adv-x="325" 
d="M325 548l-105 -548h-114l-106 548h103l61 -429l61 429h100z" />
    <glyph glyph-name="w" unicode="w" horiz-adv-x="522" 
d="M521 548l-102 -548h-107l-50 386l-51 -386h-110l-100 548h96l64 -430l55 425h95l53 -415l65 420h92z" />
    <glyph glyph-name="wacute" unicode="&#x1e83;" horiz-adv-x="522" 
d="M521 548l-102 -548h-107l-50 386l-51 -386h-110l-100 548h96l64 -430l55 425h95l53 -415l65 420h92zM287 608h-72l48 164h100v-9z" />
    <glyph glyph-name="wcircumflex" unicode="&#x175;" horiz-adv-x="522" 
d="M521 548l-102 -548h-107l-50 386l-51 -386h-110l-100 548h96l64 -430l55 425h95l53 -415l65 420h92zM304 608l-43 93l-44 -93h-71l65 164h100l64 -164h-71z" />
    <glyph glyph-name="wdieresis" unicode="&#x1e85;" horiz-adv-x="522" 
d="M521 548l-102 -548h-107l-50 386l-51 -386h-110l-100 548h96l64 -430l55 425h95l53 -415l65 420h92zM225 715.5q15 -15.5 15 -39.5t-15 -39.5t-37 -15.5t-37 15.5t-15 39.5t15 39.5t37 15.5t37 -15.5zM371 715.5q15 -15.5 15 -39.5t-15 -39.5t-37 -15.5t-37 15.5
t-15 39.5t15 39.5t37 15.5t37 -15.5z" />
    <glyph glyph-name="wgrave" unicode="&#x1e81;" horiz-adv-x="522" 
d="M521 548l-102 -548h-107l-50 386l-51 -386h-110l-100 548h96l64 -430l55 425h95l53 -415l65 420h92zM150 775h100l48 -164h-72l-76 155v9z" />
    <glyph glyph-name="x" unicode="x" horiz-adv-x="320" 
d="M217 0l-59 193l-59 -193h-101l111 279l-107 269h105l54 -182l54 182h101l-103 -267l109 -281h-105z" />
    <glyph glyph-name="y" unicode="y" horiz-adv-x="330" 
d="M331 548l-134 -642q-20 -96 -109 -96q-44 0 -74 19l25 78q23 -11 40 -11q16 0 25 8.5t13 29.5l11 61l-130 553h103l70 -406l60 406h100z" />
    <glyph glyph-name="yacute" unicode="&#xfd;" horiz-adv-x="330" 
d="M331 548l-134 -642q-20 -96 -109 -96q-44 0 -74 19l25 78q23 -11 40 -11q16 0 25 8.5t13 29.5l11 61l-130 553h103l70 -406l60 406h100zM191 608h-72l48 164h100v-9z" />
    <glyph glyph-name="ycircumflex" unicode="&#x177;" horiz-adv-x="330" 
d="M331 548l-134 -642q-20 -96 -109 -96q-44 0 -74 19l25 78q23 -11 40 -11q16 0 25 8.5t13 29.5l11 61l-130 553h103l70 -406l60 406h100zM208 608l-43 93l-44 -93h-71l65 164h100l64 -164h-71z" />
    <glyph glyph-name="ydieresis" unicode="&#xff;" horiz-adv-x="330" 
d="M331 548l-134 -642q-20 -96 -109 -96q-44 0 -74 19l25 78q23 -11 40 -11q16 0 25 8.5t13 29.5l11 61l-130 553h103l70 -406l60 406h100zM129 715.5q15 -15.5 15 -39.5t-15 -39.5t-37 -15.5t-37 15.5t-15 39.5t15 39.5t37 15.5t37 -15.5zM275 715.5q15 -15.5 15 -39.5
t-15 -39.5t-37 -15.5t-37 15.5t-15 39.5t15 39.5t37 15.5t37 -15.5z" />
    <glyph glyph-name="uni1E8F" unicode="&#x1e8f;" horiz-adv-x="330" 
d="M331 548l-134 -642q-20 -96 -109 -96q-44 0 -74 19l25 78q23 -11 40 -11q16 0 25 8.5t13 29.5l11 61l-130 553h103l70 -406l60 406h100zM125 633.5q-16 16.5 -16 42.5t16 42.5t40 16.5t40 -16.5t16 -42.5t-16 -42.5t-40 -16.5t-40 16.5z" />
    <glyph glyph-name="uni1EF5" unicode="&#x1ef5;" horiz-adv-x="330" 
d="M331 548l-134 -642q-20 -96 -109 -96q-44 0 -74 19l25 78q23 -11 40 -11q16 0 25 8.5t13 29.5l11 61l-130 553h103l70 -406l60 406h100zM307 -81.5q15 -15.5 15 -41.5q0 -25 -15 -41t-37 -16t-37 16t-15 41q0 26 15 41.5t37 15.5t37 -15.5z" />
    <glyph glyph-name="ygrave" unicode="&#x1ef3;" horiz-adv-x="330" 
d="M331 548l-134 -642q-20 -96 -109 -96q-44 0 -74 19l25 78q23 -11 40 -11q16 0 25 8.5t13 29.5l11 61l-130 553h103l70 -406l60 406h100zM54 775h100l48 -164h-72l-76 155v9z" />
    <glyph glyph-name="uni1EF7" unicode="&#x1ef7;" horiz-adv-x="330" 
d="M331 548l-134 -642q-20 -96 -109 -96q-44 0 -74 19l25 78q23 -11 40 -11q16 0 25 8.5t13 29.5l11 61l-130 553h103l70 -406l60 406h100zM133 618q0 21 8 35t24 32q12 13 18 22.5t6 20.5q0 13 -7 20.5t-18 7.5q-12 0 -19 -10.5t-8 -29.5h-59q1 45 25.5 72.5t63.5 27.5
q38 0 62 -24.5t24 -60.5q0 -24 -9 -40t-27 -36q-13 -14 -19 -23t-6 -20v-7h-59v13z" />
    <glyph glyph-name="uni0233" unicode="&#x233;" horiz-adv-x="330" 
d="M331 548l-134 -642q-20 -96 -109 -96q-44 0 -74 19l25 78q23 -11 40 -11q16 0 25 8.5t13 29.5l11 61l-130 553h103l70 -406l60 406h100zM75 699h179v-75h-179v75z" />
    <glyph glyph-name="uni1EF9" unicode="&#x1ef9;" horiz-adv-x="330" 
d="M331 548l-134 -642q-20 -96 -109 -96q-44 0 -74 19l25 78q23 -11 40 -11q16 0 25 8.5t13 29.5l11 61l-130 553h103l70 -406l60 406h100zM175.5 622.5q-13.5 8.5 -27.5 22.5q-7 7 -14 12.5t-13 5.5q-21 0 -22 -46h-59q1 55 20.5 88t62.5 33q18 0 31.5 -8.5t28.5 -23.5
q7 -7 14 -12t12 -5q22 0 23 46h59q-1 -55 -21 -88t-63 -33q-18 0 -31.5 8.5z" />
    <glyph glyph-name="z" unicode="z" horiz-adv-x="266" 
d="M257 78v-78h-248v66l139 404h-134v78h239v-68l-138 -402h142z" />
    <glyph glyph-name="zacute" unicode="&#x17a;" horiz-adv-x="266" 
d="M257 78v-78h-248v66l139 404h-134v78h239v-68l-138 -402h142zM162 608h-72l48 164h100v-9z" />
    <glyph glyph-name="zcaron" unicode="&#x17e;" horiz-adv-x="266" 
d="M257 78v-78h-248v66l139 404h-134v78h239v-68l-138 -402h142zM250 772l-64 -164h-100l-65 164h71l44 -93l43 93h71z" />
    <glyph glyph-name="zdotaccent" unicode="&#x17c;" horiz-adv-x="266" 
d="M257 78v-78h-248v66l139 404h-134v78h239v-68l-138 -402h142zM96 633.5q-16 16.5 -16 42.5t16 42.5t40 16.5t40 -16.5t16 -42.5t-16 -42.5t-40 -16.5t-40 16.5z" />
    <glyph glyph-name="uni1E93" unicode="&#x1e93;" horiz-adv-x="266" 
d="M257 78v-78h-248v66l139 404h-134v78h239v-68l-138 -402h142zM96 -189.5q-16 16.5 -16 42.5t16 42.5t40 16.5t40 -16.5t16 -42.5t-16 -42.5t-40 -16.5t-40 16.5z" />
    <glyph glyph-name="germandbls.case" horiz-adv-x="422" 
d="M281.5 256.5q20.5 -42.5 20.5 -86.5q0 -86 -62 -86q-29 0 -65 21v-90q28 -21 81 -21q73 0 111 51t38 131q0 127 -107 234l89 260q-73 60 -164 60q-87 0 -132.5 -55t-45.5 -150v-525h101v512q0 63 18 95t59 32q28 0 53 -15l-69 -210v-67q54 -48 74.5 -90.5z" />
    <glyph glyph-name="f_j" horiz-adv-x="398" 
d="M145 620v-72h79v-80h-79v-468h-96v468h-45v80h45v78q0 62 32.5 99t86.5 37q41 0 61 -13v-82q-23 8 -41 8q-43 0 -43 -55zM209 -180v82q12 -4 24 -4q28 0 28 30v620h96v-620q0 -58 -26.5 -87t-73.5 -29q-28 0 -48 8zM269 633.5q-16 16.5 -16 42.5t16 42.5t40 16.5
t40 -16.5t16 -42.5t-16 -42.5t-40 -16.5t-40 16.5z" />
    <glyph glyph-name="ordfeminine" unicode="&#xaa;" horiz-adv-x="278" 
d="M269 355v-69q-17 -7 -33 -7q-48 0 -62 42q-20 -45 -68 -45q-41 0 -70 34.5t-29 99.5q0 68 34 107t95 39h23v53q0 20 -9 31.5t-25 11.5q-14 0 -32 -9t-34 -23l-42 63q26 24 56.5 35.5t60.5 11.5q51 0 81 -27.5t30 -80.5v-253q0 -16 14 -16q6 0 10 2zM150 370q9 16 9 47v70
h-21q-23 0 -34.5 -20t-11.5 -53q0 -29 9 -44.5t24 -15.5q16 0 25 16z" />
    <glyph glyph-name="ordmasculine" unicode="&#xba;" horiz-adv-x="290" 
d="M48 333q-33 58 -33 170t33 169.5t98 57.5q64 0 97 -57t33 -170t-33 -170.5t-97 -57.5q-65 0 -98 58zM187 503q0 147 -41 147q-42 0 -42 -147q0 -148 42 -148q41 0 41 148z" />
    <glyph glyph-name="Xi" unicode="&#x39e;" horiz-adv-x="347" 
d="M29 720h289v-88h-289v88zM60 421h227v-89h-227v89zM29 88h289v-88h-289v88z" />
    <glyph glyph-name="pi" unicode="&#x3c0;" horiz-adv-x="382" 
d="M313 468v-368q0 -10 6 -15t14 -5q11 0 23 5v-82q-19 -11 -47 -11q-42 0 -66 24t-24 71v381h-66v-468h-94v468h-63v80h385v-80h-68z" />
    <glyph glyph-name="zero" unicode="0" horiz-adv-x="390" 
d="M99.5 28q-36.5 38 -53 118.5t-16.5 213.5t16.5 213.5t53 118.5t95.5 38t95.5 -38t53 -118.5t16.5 -213.5t-16.5 -213.5t-53 -118.5t-95.5 -38t-95.5 38zM244 146.5q15 64.5 15 213.5t-15 213.5t-49 64.5t-49 -64.5t-15 -213.5t15 -213.5t49 -64.5t49 64.5z" />
    <glyph glyph-name="one" unicode="1" horiz-adv-x="256" 
d="M207 720v-720h-98v550q-23 -29 -50.5 -46.5t-53.5 -22.5v89q50 22 79.5 57t38.5 93h84z" />
    <glyph glyph-name="two" unicode="2" horiz-adv-x="327" 
d="M308 88v-88h-294v35q0 65 15 119.5t37 95t57 95.5q43 67 63.5 114t20.5 103q0 38 -14 57.5t-38 19.5q-21 0 -37 -14t-33 -43l-76 52q51 96 149 96q67 0 106.5 -43t39.5 -125q0 -54 -14 -101.5t-34 -84.5t-54 -91q-40 -62 -60.5 -105t-23.5 -92h190z" />
    <glyph glyph-name="three" unicode="3" horiz-adv-x="344" 
d="M294 368.5q30 -55.5 30 -146.5q0 -109 -44.5 -170.5t-124.5 -61.5q-51 0 -91.5 27t-59.5 69l78 50q12 -24 31 -40t42 -16q34 0 51 38t17 104q0 134 -57 134q-17 0 -35 -18l-48 32l125 263h-177v87h276v-81l-98 -204q55 -11 85 -66.5z" />
    <glyph glyph-name="four" unicode="4" horiz-adv-x="356" 
d="M345 178h-45v-178h-96v178h-197v78l171 464h122v-456h45v-86zM204 264v334l-118 -334h118z" />
    <glyph glyph-name="five" unicode="5" horiz-adv-x="349" 
d="M292.5 404.5q37.5 -62.5 37.5 -172.5q0 -114 -44 -178t-123 -64q-51 0 -92 26t-61 70l78 51q12 -24 31 -40.5t42 -16.5q68 0 68 152q0 71 -16.5 111t-43.5 40q-19 0 -34 -15t-23 -39h-77l21 391h248v-88h-161l-14 -197q25 32 65 32q61 0 98.5 -62.5z" />
    <glyph glyph-name="six" unicode="6" horiz-adv-x="374" 
d="M319.5 406.5q37.5 -62.5 37.5 -171.5q0 -116 -42 -180.5t-118 -64.5q-88 0 -128.5 89t-40.5 264q0 200 44.5 293.5t138.5 93.5q81 0 126 -73l-66 -60q-17 24 -30 34.5t-31 10.5q-39 0 -59.5 -59t-22.5 -170q31 56 92 56q62 0 99.5 -62.5zM240.5 120q15.5 41 15.5 114
q0 72 -15.5 111.5t-43.5 39.5q-29 0 -45.5 -40t-16.5 -111q0 -72 16.5 -113.5t45.5 -41.5q28 0 43.5 41z" />
    <glyph glyph-name="seven" unicode="7" horiz-adv-x="293" 
d="M287 720v-78q-51 -121 -85.5 -290.5t-46.5 -351.5h-103q18 182 55.5 347.5t92.5 286.5h-197v86h284z" />
    <glyph glyph-name="eight" unicode="8" horiz-adv-x="376" 
d="M331 310q22 -47 22 -114q0 -97 -44 -151.5t-121 -54.5t-121 54.5t-44 151.5q0 67 22 114t64 67q-34 23 -53.5 65.5t-19.5 99.5q0 86 41.5 137t110.5 51t110.5 -51t41.5 -137q0 -57 -19.5 -99.5t-53.5 -65.5q42 -20 64 -67zM147 613q-16 -30 -16 -79q0 -50 16 -84t41 -34
t41 34t16 84q0 49 -16 79t-41 30t-41 -30zM235.5 112q17.5 34 17.5 93t-17.5 92t-47.5 33t-47.5 -33t-17.5 -92t17.5 -93t47.5 -34t47.5 34z" />
    <glyph glyph-name="nine" unicode="9" horiz-adv-x="374" 
d="M54.5 313.5q-37.5 62.5 -37.5 171.5q0 116 42 180.5t118 64.5q88 0 128.5 -89t40.5 -264q0 -200 -44.5 -293.5t-138.5 -93.5q-81 0 -126 73l66 60q17 -24 30 -34.5t31 -10.5q39 0 59.5 59t22.5 170q-31 -56 -92 -56q-62 0 -99.5 62.5zM133.5 600q-15.5 -41 -15.5 -114
q0 -72 15.5 -111.5t43.5 -39.5q29 0 45.5 40t16.5 111q0 72 -16.5 113.5t-45.5 41.5q-28 0 -43.5 -41z" />
    <glyph glyph-name="zero.subs" horiz-adv-x="286" 
d="M46.5 -29.5q-30.5 54.5 -30.5 167.5t30.5 167.5t96.5 54.5t96.5 -54.5t30.5 -167.5t-30.5 -167.5t-96.5 -54.5t-96.5 54.5zM172.5 31q9.5 35 9.5 107t-9.5 107t-29.5 35t-29.5 -35t-9.5 -107t9.5 -107t29.5 -35t29.5 35z" />
    <glyph glyph-name="one.subs" horiz-adv-x="194" 
d="M163 354v-432h-86v310q-26 -31 -76 -45v85q33 3 57 23.5t32 58.5h73z" />
    <glyph glyph-name="two.subs" horiz-adv-x="242" 
d="M231 0v-78h-222v23q0 46 12 82t29 61t43 57q27 33 39.5 54t12.5 46q0 15 -9 24.5t-23 9.5q-25 0 -45 -30l-64 45q19 34 49.5 50t65.5 16q49 0 79.5 -28.5t30.5 -81.5q0 -41 -17.5 -73t-52.5 -75q-26 -31 -40 -54t-18 -48h130z" />
    <glyph glyph-name="uni2080" unicode="&#x2080;" horiz-adv-x="286" 
d="M46.5 -29.5q-30.5 54.5 -30.5 167.5t30.5 167.5t96.5 54.5t96.5 -54.5t30.5 -167.5t-30.5 -167.5t-96.5 -54.5t-96.5 54.5zM172.5 31q9.5 35 9.5 107t-9.5 107t-29.5 35t-29.5 -35t-9.5 -107t9.5 -107t29.5 -35t29.5 35z" />
    <glyph glyph-name="uni2081" unicode="&#x2081;" horiz-adv-x="194" 
d="M163 354v-432h-86v310q-26 -31 -76 -45v85q33 3 57 23.5t32 58.5h73z" />
    <glyph glyph-name="uni2082" unicode="&#x2082;" horiz-adv-x="242" 
d="M231 0v-78h-222v23q0 46 12 82t29 61t43 57q27 33 39.5 54t12.5 46q0 15 -9 24.5t-23 9.5q-25 0 -45 -30l-64 45q19 34 49.5 50t65.5 16q49 0 79.5 -28.5t30.5 -81.5q0 -41 -17.5 -73t-52.5 -75q-26 -31 -40 -54t-18 -48h130z" />
    <glyph glyph-name="uni2083" unicode="&#x2083;" horiz-adv-x="256" 
d="M224.5 145q20.5 -33 20.5 -85q0 -68 -34 -106t-95 -38q-38 0 -68 16.5t-47 46.5l65 49q9 -14 21.5 -22.5t26.5 -8.5q19 0 31.5 17t12.5 44q0 26 -9.5 42.5t-24.5 16.5q-7 0 -12.5 -2.5t-12.5 -9.5l-38 29l86 140h-127v80h212v-73l-65 -95q37 -8 57.5 -41z" />
    <glyph glyph-name="uni2084" unicode="&#x2084;" horiz-adv-x="262" 
d="M257 16h-33v-94h-83v94h-138v69l116 269h105v-263h33v-75zM141 91v168l-67 -168h67z" />
    <glyph glyph-name="uni2085" unicode="&#x2085;" horiz-adv-x="260" 
d="M223.5 162.5q25.5 -36.5 25.5 -102.5q0 -68 -34 -106t-95 -38q-38 0 -68 16.5t-47 46.5l65 49q9 -14 21.5 -22.5t26.5 -8.5q19 0 31.5 17t12.5 43t-10 41.5t-27 15.5q-26 0 -38 -26h-65l18 266h190v-79h-119l-9 -97q19 21 51 21q45 0 70.5 -36.5z" />
    <glyph glyph-name="uni2086" unicode="&#x2086;" horiz-adv-x="277" 
d="M239 169q29 -37 29 -104q0 -70 -32 -109.5t-90 -39.5q-131 0 -131 218q0 226 141 226q32 0 56 -12t40 -40l-54 -49q-11 14 -21 20t-23 6q-26 0 -39.5 -27t-15.5 -87q11 17 26.5 26t32.5 9q52 0 81 -37zM171 10q10 18 10 50t-10 51.5t-27 19.5t-27 -19.5t-10 -52.5
q0 -32 9.5 -49.5t26.5 -17.5q18 0 28 18z" />
    <glyph glyph-name="uni2087" unicode="&#x2087;" horiz-adv-x="220" 
d="M219 354v-71q-39 -72 -63.5 -164.5t-33.5 -196.5h-92q29 213 108 354h-138v78h219z" />
    <glyph glyph-name="uni2088" unicode="&#x2088;" horiz-adv-x="282" 
d="M270 43q0 -56 -36 -91.5t-93 -35.5t-93 35.5t-36 91.5q0 76 57 102q-48 31 -48 95q0 53 33 86.5t87 33.5t87 -33.5t33 -86.5q0 -64 -48 -95q57 -26 57 -102zM115.5 267q-9.5 -15 -9.5 -38t9.5 -37.5t25.5 -14.5t25.5 14.5t9.5 37.5t-9.5 38t-25.5 15t-25.5 -15zM172 10
q12 15 12 38q0 24 -12 39t-31 15t-31 -15t-12 -39q0 -23 12 -38t31 -15t31 15z" />
    <glyph glyph-name="uni2089" unicode="&#x2089;" horiz-adv-x="277" 
d="M262 141q0 -226 -141 -226q-32 0 -56 12t-40 40l54 49q11 -14 21 -20t23 -6q26 0 39.5 27t15.5 87q-11 -17 -26.5 -26t-32.5 -9q-52 0 -81 37t-29 104q0 70 32 109.5t90 39.5q131 0 131 -218zM160 163.5q10 19.5 10 52.5q0 32 -9.5 49.5t-26.5 17.5q-18 0 -28 -18
t-10 -50t10 -51.5t27 -19.5t27 19.5z" />
    <glyph glyph-name="three.subs" horiz-adv-x="256" 
d="M224.5 145q20.5 -33 20.5 -85q0 -68 -34 -106t-95 -38q-38 0 -68 16.5t-47 46.5l65 49q9 -14 21.5 -22.5t26.5 -8.5q19 0 31.5 17t12.5 44q0 26 -9.5 42.5t-24.5 16.5q-7 0 -12.5 -2.5t-12.5 -9.5l-38 29l86 140h-127v80h212v-73l-65 -95q37 -8 57.5 -41z" />
    <glyph glyph-name="four.subs" horiz-adv-x="262" 
d="M257 16h-33v-94h-83v94h-138v69l116 269h105v-263h33v-75zM141 91v168l-67 -168h67z" />
    <glyph glyph-name="five.subs" horiz-adv-x="260" 
d="M223.5 162.5q25.5 -36.5 25.5 -102.5q0 -68 -34 -106t-95 -38q-38 0 -68 16.5t-47 46.5l65 49q9 -14 21.5 -22.5t26.5 -8.5q19 0 31.5 17t12.5 43t-10 41.5t-27 15.5q-26 0 -38 -26h-65l18 266h190v-79h-119l-9 -97q19 21 51 21q45 0 70.5 -36.5z" />
    <glyph glyph-name="six.subs" horiz-adv-x="277" 
d="M239 169q29 -37 29 -104q0 -70 -32 -109.5t-90 -39.5q-131 0 -131 218q0 226 141 226q32 0 56 -12t40 -40l-54 -49q-11 14 -21 20t-23 6q-26 0 -39.5 -27t-15.5 -87q11 17 26.5 26t32.5 9q52 0 81 -37zM171 10q10 18 10 50t-10 51.5t-27 19.5t-27 -19.5t-10 -52.5
q0 -32 9.5 -49.5t26.5 -17.5q18 0 28 18z" />
    <glyph glyph-name="seven.subs" horiz-adv-x="220" 
d="M219 354v-71q-39 -72 -63.5 -164.5t-33.5 -196.5h-92q29 213 108 354h-138v78h219z" />
    <glyph glyph-name="eight.subs" horiz-adv-x="282" 
d="M270 43q0 -56 -36 -91.5t-93 -35.5t-93 35.5t-36 91.5q0 76 57 102q-48 31 -48 95q0 53 33 86.5t87 33.5t87 -33.5t33 -86.5q0 -64 -48 -95q57 -26 57 -102zM115.5 267q-9.5 -15 -9.5 -38t9.5 -37.5t25.5 -14.5t25.5 14.5t9.5 37.5t-9.5 38t-25.5 15t-25.5 -15zM172 10
q12 15 12 38q0 24 -12 39t-31 15t-31 -15t-12 -39q0 -23 12 -38t31 -15t31 15z" />
    <glyph glyph-name="nine.subs" horiz-adv-x="277" 
d="M262 141q0 -226 -141 -226q-32 0 -56 12t-40 40l54 49q11 -14 21 -20t23 -6q26 0 39.5 27t15.5 87q-11 -17 -26.5 -26t-32.5 -9q-52 0 -81 37t-29 104q0 70 32 109.5t90 39.5q131 0 131 -218zM160 163.5q10 19.5 10 52.5q0 32 -9.5 49.5t-26.5 17.5q-18 0 -28 -18
t-10 -50t10 -51.5t27 -19.5t27 19.5z" />
    <glyph glyph-name="zero.dnom" horiz-adv-x="286" 
d="M46.5 48.5q-30.5 54.5 -30.5 167.5t30.5 167.5t96.5 54.5t96.5 -54.5t30.5 -167.5t-30.5 -167.5t-96.5 -54.5t-96.5 54.5zM172.5 109q9.5 35 9.5 107t-9.5 107t-29.5 35t-29.5 -35t-9.5 -107t9.5 -107t29.5 -35t29.5 35z" />
    <glyph glyph-name="one.dnom" horiz-adv-x="194" 
d="M163 432v-432h-86v310q-26 -31 -76 -45v85q33 3 57 23.5t32 58.5h73z" />
    <glyph glyph-name="two.dnom" horiz-adv-x="242" 
d="M231 78v-78h-222v23q0 46 12 82t29 61t43 57q27 33 39.5 54t12.5 46q0 15 -9 24.5t-23 9.5q-25 0 -45 -30l-64 45q19 34 49.5 50t65.5 16q49 0 79.5 -28.5t30.5 -81.5q0 -41 -17.5 -73t-52.5 -75q-26 -31 -40 -54t-18 -48h130z" />
    <glyph glyph-name="three.dnom" horiz-adv-x="256" 
d="M224.5 224q20.5 -33 20.5 -85q0 -68 -34 -106t-95 -38q-38 0 -68 16.5t-47 46.5l65 49q9 -14 21.5 -22.5t26.5 -8.5q19 0 31.5 17t12.5 44q0 26 -9.5 42.5t-24.5 16.5q-7 0 -12.5 -2.5t-12.5 -9.5l-38 29l86 140h-127v80h212v-73l-65 -95q37 -8 57.5 -41z" />
    <glyph glyph-name="four.dnom" horiz-adv-x="262" 
d="M257 94h-33v-94h-83v94h-138v69l116 269h105v-263h33v-75zM141 169v168l-67 -168h67z" />
    <glyph glyph-name="five.dnom" horiz-adv-x="260" 
d="M223.5 240.5q25.5 -36.5 25.5 -102.5q0 -68 -34 -106t-95 -38q-38 0 -68 16.5t-47 46.5l65 49q9 -14 21.5 -22.5t26.5 -8.5q19 0 31.5 17t12.5 43t-10 41.5t-27 15.5q-26 0 -38 -26h-65l18 266h190v-79h-119l-9 -97q19 21 51 21q45 0 70.5 -36.5z" />
    <glyph glyph-name="six.dnom" horiz-adv-x="277" 
d="M239 247q29 -37 29 -104q0 -70 -32 -109.5t-90 -39.5q-131 0 -131 218q0 226 141 226q32 0 56 -12t40 -40l-54 -49q-11 14 -21 20t-23 6q-26 0 -39.5 -27t-15.5 -87q11 17 26.5 26t32.5 9q52 0 81 -37zM171 88q10 18 10 50t-10 51.5t-27 19.5t-27 -19.5t-10 -52.5
q0 -32 9.5 -49.5t26.5 -17.5q18 0 28 18z" />
    <glyph glyph-name="seven.dnom" horiz-adv-x="220" 
d="M219 431v-71q-39 -72 -63.5 -164.5t-33.5 -196.5h-92q29 213 108 354h-138v78h219z" />
    <glyph glyph-name="eight.dnom" horiz-adv-x="282" 
d="M270 121q0 -56 -36 -91.5t-93 -35.5t-93 35.5t-36 91.5q0 76 57 102q-48 31 -48 95q0 53 33 86.5t87 33.5t87 -33.5t33 -86.5q0 -64 -48 -95q57 -26 57 -102zM115.5 345q-9.5 -15 -9.5 -38t9.5 -37.5t25.5 -14.5t25.5 14.5t9.5 37.5t-9.5 38t-25.5 15t-25.5 -15zM172 88
q12 15 12 38q0 24 -12 39t-31 15t-31 -15t-12 -39q0 -23 12 -38t31 -15t31 15z" />
    <glyph glyph-name="nine.dnom" horiz-adv-x="277" 
d="M262 219q0 -226 -141 -226q-32 0 -56 12t-40 40l54 49q11 -14 21 -20t23 -6q26 0 39.5 27t15.5 87q-11 -17 -26.5 -26t-32.5 -9q-52 0 -81 37t-29 104q0 70 32 109.5t90 39.5q131 0 131 -218zM160 241.5q10 19.5 10 52.5q0 32 -9.5 49.5t-26.5 17.5q-18 0 -28 -18
t-10 -50t10 -51.5t27 -19.5t27 19.5z" />
    <glyph glyph-name="zero.numr" horiz-adv-x="286" 
d="M46.5 338.5q-30.5 54.5 -30.5 167.5t30.5 167.5t96.5 54.5t96.5 -54.5t30.5 -167.5t-30.5 -167.5t-96.5 -54.5t-96.5 54.5zM172.5 399q9.5 35 9.5 107t-9.5 107t-29.5 35t-29.5 -35t-9.5 -107t9.5 -107t29.5 -35t29.5 35z" />
    <glyph glyph-name="one.numr" horiz-adv-x="194" 
d="M163 722v-432h-86v310q-26 -31 -76 -45v85q33 3 57 23.5t32 58.5h73z" />
    <glyph glyph-name="two.numr" horiz-adv-x="242" 
d="M231 368v-78h-222v23q0 46 12 82t29 61t43 57q27 33 39.5 54t12.5 46q0 15 -9 24.5t-23 9.5q-25 0 -45 -30l-64 45q19 34 49.5 50t65.5 16q49 0 79.5 -28.5t30.5 -81.5q0 -41 -17.5 -73t-52.5 -75q-26 -31 -40 -54t-18 -48h130z" />
    <glyph glyph-name="three.numr" horiz-adv-x="256" 
d="M224.5 513q20.5 -33 20.5 -85q0 -68 -34 -106t-95 -38q-38 0 -68 16.5t-47 46.5l65 49q9 -14 21.5 -22.5t26.5 -8.5q19 0 31.5 17t12.5 44q0 26 -9.5 42.5t-24.5 16.5q-7 0 -12.5 -2.5t-12.5 -9.5l-38 29l86 140h-127v80h212v-73l-65 -95q37 -8 57.5 -41z" />
    <glyph glyph-name="four.numr" horiz-adv-x="262" 
d="M257 384h-33v-94h-83v94h-138v69l116 269h105v-263h33v-75zM141 459v168l-67 -168h67z" />
    <glyph glyph-name="five.numr" horiz-adv-x="260" 
d="M223.5 530.5q25.5 -36.5 25.5 -102.5q0 -68 -34 -106t-95 -38q-38 0 -68 16.5t-47 46.5l65 49q9 -14 21.5 -22.5t26.5 -8.5q19 0 31.5 17t12.5 43t-10 41.5t-27 15.5q-26 0 -38 -26h-65l18 266h190v-79h-119l-9 -97q19 21 51 21q45 0 70.5 -36.5z" />
    <glyph glyph-name="six.numr" horiz-adv-x="277" 
d="M239 537q29 -37 29 -104q0 -70 -32 -109.5t-90 -39.5q-131 0 -131 218q0 226 141 226q32 0 56 -12t40 -40l-54 -49q-11 14 -21 20t-23 6q-26 0 -39.5 -27t-15.5 -87q11 17 26.5 26t32.5 9q52 0 81 -37zM171 378q10 18 10 50t-10 51.5t-27 19.5t-27 -19.5t-10 -52.5
q0 -32 9.5 -49.5t26.5 -17.5q18 0 28 18z" />
    <glyph glyph-name="seven.numr" horiz-adv-x="220" 
d="M219 722v-71q-39 -72 -63.5 -164.5t-33.5 -196.5h-92q29 213 108 354h-138v78h219z" />
    <glyph glyph-name="eight.numr" horiz-adv-x="282" 
d="M270 411q0 -56 -36 -91.5t-93 -35.5t-93 35.5t-36 91.5q0 76 57 102q-48 31 -48 95q0 53 33 86.5t87 33.5t87 -33.5t33 -86.5q0 -64 -48 -95q57 -26 57 -102zM115.5 635q-9.5 -15 -9.5 -38t9.5 -37.5t25.5 -14.5t25.5 14.5t9.5 37.5t-9.5 38t-25.5 15t-25.5 -15zM172 378
q12 15 12 38q0 24 -12 39t-31 15t-31 -15t-12 -39q0 -23 12 -38t31 -15t31 15z" />
    <glyph glyph-name="nine.numr" horiz-adv-x="277" 
d="M262 509q0 -226 -141 -226q-32 0 -56 12t-40 40l54 49q11 -14 21 -20t23 -6q26 0 39.5 27t15.5 87q-11 -17 -26.5 -26t-32.5 -9q-52 0 -81 37t-29 104q0 70 32 109.5t90 39.5q131 0 131 -218zM160 531.5q10 19.5 10 52.5q0 32 -9.5 49.5t-26.5 17.5q-18 0 -28 -18
t-10 -50t10 -51.5t27 -19.5t27 19.5z" />
    <glyph glyph-name="uni2070" unicode="&#x2070;" horiz-adv-x="286" 
d="M46.5 370.5q-30.5 54.5 -30.5 167.5t30.5 167.5t96.5 54.5t96.5 -54.5t30.5 -167.5t-30.5 -167.5t-96.5 -54.5t-96.5 54.5zM172.5 431q9.5 35 9.5 107t-9.5 107t-29.5 35t-29.5 -35t-9.5 -107t9.5 -107t29.5 -35t29.5 35z" />
    <glyph glyph-name="uni00B9" unicode="&#xb9;" horiz-adv-x="194" 
d="M163 754v-432h-86v310q-26 -31 -76 -45v85q33 3 57 23.5t32 58.5h73z" />
    <glyph glyph-name="uni00B2" unicode="&#xb2;" horiz-adv-x="242" 
d="M231 400v-78h-222v23q0 46 12 82t29 61t43 57q27 33 39.5 54t12.5 46q0 15 -9 24.5t-23 9.5q-25 0 -45 -30l-64 45q19 34 49.5 50t65.5 16q49 0 79.5 -28.5t30.5 -81.5q0 -41 -17.5 -73t-52.5 -75q-26 -31 -40 -54t-18 -48h130z" />
    <glyph glyph-name="uni00B3" unicode="&#xb3;" horiz-adv-x="256" 
d="M224.5 545q20.5 -33 20.5 -85q0 -68 -34 -106t-95 -38q-38 0 -68 16.5t-47 46.5l65 49q9 -14 21.5 -22.5t26.5 -8.5q19 0 31.5 17t12.5 44q0 26 -9.5 42.5t-24.5 16.5q-7 0 -12.5 -2.5t-12.5 -9.5l-38 29l86 140h-127v80h212v-73l-65 -95q37 -8 57.5 -41z" />
    <glyph glyph-name="uni2074" unicode="&#x2074;" horiz-adv-x="262" 
d="M257 416h-33v-94h-83v94h-138v69l116 269h105v-263h33v-75zM141 491v168l-67 -168h67z" />
    <glyph glyph-name="uni2075" unicode="&#x2075;" horiz-adv-x="260" 
d="M223.5 562.5q25.5 -36.5 25.5 -102.5q0 -68 -34 -106t-95 -38q-38 0 -68 16.5t-47 46.5l65 49q9 -14 21.5 -22.5t26.5 -8.5q19 0 31.5 17t12.5 43t-10 41.5t-27 15.5q-26 0 -38 -26h-65l18 266h190v-79h-119l-9 -97q19 21 51 21q45 0 70.5 -36.5z" />
    <glyph glyph-name="uni2076" unicode="&#x2076;" horiz-adv-x="277" 
d="M239 569q29 -37 29 -104q0 -70 -32 -109.5t-90 -39.5q-131 0 -131 218q0 226 141 226q32 0 56 -12t40 -40l-54 -49q-11 14 -21 20t-23 6q-26 0 -39.5 -27t-15.5 -87q11 17 26.5 26t32.5 9q52 0 81 -37zM171 410q10 18 10 50t-10 51.5t-27 19.5t-27 -19.5t-10 -52.5
q0 -32 9.5 -49.5t26.5 -17.5q18 0 28 18z" />
    <glyph glyph-name="uni2077" unicode="&#x2077;" horiz-adv-x="220" 
d="M219 754v-71q-39 -72 -63.5 -164.5t-33.5 -196.5h-92q29 213 108 354h-138v78h219z" />
    <glyph glyph-name="uni2078" unicode="&#x2078;" horiz-adv-x="282" 
d="M270 443q0 -56 -36 -91.5t-93 -35.5t-93 35.5t-36 91.5q0 76 57 102q-48 31 -48 95q0 53 33 86.5t87 33.5t87 -33.5t33 -86.5q0 -64 -48 -95q57 -26 57 -102zM115.5 667q-9.5 -15 -9.5 -38t9.5 -37.5t25.5 -14.5t25.5 14.5t9.5 37.5t-9.5 38t-25.5 15t-25.5 -15zM172 410
q12 15 12 38q0 24 -12 39t-31 15t-31 -15t-12 -39q0 -23 12 -38t31 -15t31 15z" />
    <glyph glyph-name="uni2079" unicode="&#x2079;" horiz-adv-x="277" 
d="M262 541q0 -226 -141 -226q-32 0 -56 12t-40 40l54 49q11 -14 21 -20t23 -6q26 0 39.5 27t15.5 87q-11 -17 -26.5 -26t-32.5 -9q-52 0 -81 37t-29 104q0 70 32 109.5t90 39.5q131 0 131 -218zM160 563.5q10 19.5 10 52.5q0 32 -9.5 49.5t-26.5 17.5q-18 0 -28 -18
t-10 -50t10 -51.5t27 -19.5t27 19.5z" />
    <glyph glyph-name="fraction" unicode="&#x2044;" horiz-adv-x="124" 
d="M226 720l-263 -720h-65l263 720h65z" />
    <glyph glyph-name="onehalf" unicode="&#xbd;" horiz-adv-x="573" 
d="M170 720v-432h-86v310q-26 -31 -76 -45v85q33 3 57 23.5t32 58.5h73zM427 720l-263 -720h-65l263 720h65zM556 78v-78h-222v23q0 46 12 82t29 61t43 57q27 33 39.5 54t12.5 46q0 15 -9 24.5t-23 9.5q-25 0 -45 -30l-64 45q19 34 49.5 50t65.5 16q49 0 79.5 -28.5
t30.5 -81.5q0 -41 -17.5 -73t-52.5 -75q-26 -31 -40 -54t-18 -48h130z" />
    <glyph glyph-name="onequarter" unicode="&#xbc;" horiz-adv-x="571" 
d="M163 720v-432h-86v310q-26 -31 -76 -45v85q33 3 57 23.5t32 58.5h73zM445 720l-263 -720h-65l263 720h65zM555 86h-33v-94h-83v94h-138v69l116 269h105v-263h33v-75zM439 161v168l-67 -168h67z" />
    <glyph glyph-name="threequarters" unicode="&#xbe;" horiz-adv-x="612" 
d="M235.5 511q20.5 -33 20.5 -85q0 -68 -34 -106t-95 -38q-38 0 -68 16.5t-47 46.5l65 49q9 -14 21.5 -22.5t26.5 -8.5q19 0 31.5 17t12.5 44q0 26 -9.5 42.5t-24.5 16.5q-7 0 -12.5 -2.5t-12.5 -9.5l-38 29l86 140h-127v80h212v-73l-65 -95q37 -8 57.5 -41zM490 720
l-263 -720h-65l263 720h65zM596 86h-33v-94h-83v94h-138v69l116 269h105v-263h33v-75zM480 161v168l-67 -168h67z" />
    <glyph glyph-name="asterisk" unicode="*" horiz-adv-x="343" 
d="M217 569l71 -84l-63 -47l-55 97l-55 -97l-60 47l71 84l-105 25l23 74l99 -43l-10 110h77l-10 -111l100 44l21 -74z" />
    <glyph glyph-name="backslash" unicode="\" horiz-adv-x="258" 
d="M-6 785l187 -924h83l-187 924h-83z" />
    <glyph glyph-name="periodcentered" unicode="&#xb7;" horiz-adv-x="210" 
d="M62.5 350q-16.5 18 -16.5 47t16.5 47t42.5 18t42.5 -18t16.5 -47t-16.5 -47t-42.5 -18t-42.5 18z" />
    <glyph glyph-name="bullet" unicode="&#x2022;" horiz-adv-x="360" 
d="M122.5 288.5q-22.5 30.5 -22.5 81.5t22.5 81.5t57.5 30.5t57.5 -30.5t22.5 -81.5t-22.5 -81.5t-57.5 -30.5t-57.5 30.5z" />
    <glyph glyph-name="colon" unicode=":" horiz-adv-x="220" 
d="M67.5 11q-16.5 18 -16.5 47t16.5 47t42.5 18t42.5 -18t16.5 -47t-16.5 -47t-42.5 -18t-42.5 18zM67.5 351q-16.5 18 -16.5 47t16.5 47t42.5 18t42.5 -18t16.5 -47t-16.5 -47t-42.5 -18t-42.5 18z" />
    <glyph glyph-name="comma" unicode="," horiz-adv-x="196" 
d="M69 111h101l-62 -251h-63z" />
    <glyph glyph-name="ellipsis" unicode="&#x2026;" horiz-adv-x="602" 
d="M258.5 11q-16.5 18 -16.5 47t16.5 47t42.5 18t42.5 -18t16.5 -47t-16.5 -47t-42.5 -18t-42.5 18zM454.5 11q-16.5 18 -16.5 47t16.5 47t42.5 18t42.5 -18t16.5 -47t-16.5 -47t-42.5 -18t-42.5 18zM62.5 11q-16.5 18 -16.5 47t16.5 47t42.5 18t42.5 -18t16.5 -47
t-16.5 -47t-42.5 -18t-42.5 18z" />
    <glyph glyph-name="exclam" unicode="!" horiz-adv-x="192" 
d="M42 720h108l-27 -497h-54zM53.5 11q-16.5 18 -16.5 47t16.5 47t42.5 18t42.5 -18t16.5 -47t-16.5 -47t-42.5 -18t-42.5 18z" />
    <glyph glyph-name="exclamdown" unicode="&#xa1;" horiz-adv-x="192" 
d="M42 0h108l-27 497h-54zM53.5 709q-16.5 -18 -16.5 -47t16.5 -47t42.5 -18t42.5 18t16.5 47t-16.5 47t-42.5 18t-42.5 -18z" />
    <glyph glyph-name="numbersign" unicode="#" horiz-adv-x="404" 
d="M318 456l-16 -192h62v-71h-68l-16 -193h-76l16 193h-64l-16 -193h-76l16 193h-64v71h70l16 192h-62v71h68l16 193h76l-16 -193h64l16 193h76l-16 -193h64v-71h-70zM242 456h-64l-16 -192h64z" />
    <glyph glyph-name="period" unicode="." horiz-adv-x="210" 
d="M62.5 11q-16.5 18 -16.5 47t16.5 47t42.5 18t42.5 -18t16.5 -47t-16.5 -47t-42.5 -18t-42.5 18z" />
    <glyph glyph-name="question" unicode="?" horiz-adv-x="295" 
d="M108 531q1 56 11 83.5t25 27.5q14 0 23.5 -21t9.5 -63q0 -31 -7 -61.5t-24 -68.5q-33 -74 -42.5 -103t-9.5 -63v-39h91v32q0 29 7.5 50t34.5 78q25 53 37 93.5t12 88.5q0 78 -33 121.5t-95 43.5q-65 0 -99 -50.5t-36 -148.5h95zM99.5 12q-16.5 18 -16.5 47t16.5 47
t42.5 18t42.5 -18t16.5 -47t-16.5 -47t-42.5 -18t-42.5 18z" />
    <glyph glyph-name="questiondown" unicode="&#xbf;" horiz-adv-x="296" 
d="M188 189q-1 -56 -11 -83.5t-25 -27.5q-14 0 -23.5 21t-9.5 63q0 31 7 61.5t24 68.5q33 74 42.5 103t9.5 63v39h-91v-32q0 -29 -7.5 -50t-34.5 -78q-25 -53 -37 -93.5t-12 -88.5q0 -78 33 -121.5t95 -43.5q65 0 99 50.5t36 148.5h-95zM196.5 708q16.5 -18 16.5 -47
t-16.5 -47t-42.5 -18t-42.5 18t-16.5 47t16.5 47t42.5 18t42.5 -18z" />
    <glyph glyph-name="quotedbl" unicode="&#x22;" horiz-adv-x="287" 
d="M37 720h94l-41 -275h-61zM172 720h94l-41 -275h-61z" />
    <glyph glyph-name="quotesingle" unicode="'" horiz-adv-x="152" 
d="M37 720h94l-41 -275h-61z" />
    <glyph glyph-name="semicolon" unicode=";" horiz-adv-x="197" 
d="M60 111h101l-62 -251h-63zM64.5 351q-16.5 18 -16.5 47t16.5 47t42.5 18t42.5 -18t16.5 -47t-16.5 -47t-42.5 -18t-42.5 18z" />
    <glyph glyph-name="slash" unicode="/" horiz-adv-x="258" 
d="M264 785l-187 -924h-83l187 924h83z" />
    <glyph glyph-name="underscore" unicode="_" horiz-adv-x="270" 
d="M271 -55v-78h-272v78h272z" />
    <glyph glyph-name="periodcentered.loclCAT.case" horiz-adv-x="9" 
d="M-104.5 366q-16.5 18 -16.5 47t16.5 47t42.5 18t42.5 -18t16.5 -47t-16.5 -47t-42.5 -18t-42.5 18z" />
    <glyph glyph-name="periodcentered.loclCAT" horiz-adv-x="94" 
d="M-0.5 342q-16.5 18 -16.5 47t16.5 47t42.5 18t42.5 -18t16.5 -47t-16.5 -47t-42.5 -18t-42.5 18z" />
    <glyph glyph-name="braceleft" unicode="{" horiz-adv-x="207" 
d="M149 685.5q-8 -19.5 -8 -64.5l2 -159q0 -63 -13 -92t-40 -47q27 -18 40 -47t13 -92l-2 -159q0 -45 8 -64.5t33 -19.5h18v-80h-26q-64 0 -93 39.5t-29 116.5l1 77l2 91q0 49 -10.5 71t-40.5 32v70q30 10 40.5 32t10.5 71l-2 91l-1 77q0 77 29 116.5t93 39.5h26v-80h-18
q-25 0 -33 -19.5z" />
    <glyph glyph-name="braceright" unicode="}" horiz-adv-x="207" 
d="M58 685.5q8 -19.5 8 -64.5l-2 -159q0 -63 13 -92t40 -47q-27 -18 -40 -47t-13 -92l2 -159q0 -45 -8 -64.5t-33 -19.5h-18v-80h26q64 0 93 39.5t29 116.5l-1 77l-2 91q0 49 10.5 71t40.5 32v70q-30 10 -40.5 32t-10.5 71l2 91l1 77q0 77 -29 116.5t-93 39.5h-26v-80h18
q25 0 33 -19.5z" />
    <glyph glyph-name="bracketleft" unicode="[" horiz-adv-x="222" 
d="M138 706v-766h63v-79h-150v924h150v-79h-63z" />
    <glyph glyph-name="bracketright" unicode="]" horiz-adv-x="222" 
d="M84 706v-766h-63v-79h150v924h-150v-79h63z" />
    <glyph glyph-name="parenleft" unicode="(" horiz-adv-x="211" 
d="M36 323q0 265 76 462h81q-65 -218 -65 -462t65 -462h-81q-76 197 -76 462z" />
    <glyph glyph-name="parenright" unicode=")" horiz-adv-x="211" 
d="M175 323q0 265 -76 462h-81q65 -218 65 -462t-65 -462h81q76 197 76 462z" />
    <glyph glyph-name="emdash" unicode="&#x2014;" horiz-adv-x="457" 
d="M17 281v78h423v-78h-423z" />
    <glyph glyph-name="endash" unicode="&#x2013;" horiz-adv-x="281" 
d="M17 281v78h247v-78h-247z" />
    <glyph glyph-name="figuredash" unicode="&#x2012;" horiz-adv-x="281" 
d="M17 281v78h247v-78h-247z" />
    <glyph glyph-name="uni2015" unicode="&#x2015;" horiz-adv-x="457" 
d="M17 281v78h423v-78h-423z" />
    <glyph glyph-name="hyphen" unicode="-" horiz-adv-x="194" 
d="M180 366l-11 -91h-155l11 91h155z" />
    <glyph glyph-name="uni2010" unicode="&#x2010;" horiz-adv-x="194" 
d="M180 366l-11 -91h-155l11 91h155z" />
    <glyph glyph-name="uni00AD" unicode="&#xad;" horiz-adv-x="194" 
d="M180 366l-11 -91h-155l11 91h155z" />
    <glyph glyph-name="hyphen.case" horiz-adv-x="194" 
d="M180 434l-11 -91h-155l11 91h155z" />
    <glyph glyph-name="hyphen.lc" horiz-adv-x="153" 
d="M142 386l-22 -90h-109l22 90h109z" />
    <glyph glyph-name="hyphen.uc" horiz-adv-x="161" 
d="M150 424l-22 -90h-117l22 90h117z" />
    <glyph glyph-name="guillemotleft" unicode="&#xab;" horiz-adv-x="344" 
d="M103 279l74 -201h-89l-74 201l74 201h89zM252 279l74 -201h-89l-74 201l74 201h89z" />
    <glyph glyph-name="guillemotright" unicode="&#xbb;" horiz-adv-x="344" 
d="M241 279l-74 -201h89l74 201l-74 201h-89zM92 279l-74 -201h89l74 201l-74 201h-89z" />
    <glyph glyph-name="guilsinglleft" unicode="&#x2039;" horiz-adv-x="195" 
d="M103 279l74 -201h-89l-74 201l74 201h89z" />
    <glyph glyph-name="guilsinglright" unicode="&#x203a;" horiz-adv-x="195" 
d="M92 279l-74 -201h89l74 201l-74 201h-89z" />
    <glyph glyph-name="quotedblbase" unicode="&#x201e;" horiz-adv-x="350" 
d="M145.5 132q18.5 -26 18.5 -69q0 -52 -21 -100.5t-62 -82.5l-43 50q28 26 41 50.5t15 54.5v4q-24 1 -41 17.5t-17 42.5q0 25 16.5 42t42.5 17q32 0 50.5 -26zM291.5 132q18.5 -26 18.5 -69q0 -52 -21 -100.5t-62 -82.5l-43 50q28 26 41 50.5t15 54.5v4q-24 1 -41 17.5
t-17 42.5q0 25 16.5 42t42.5 17q32 0 50.5 -26z" />
    <glyph glyph-name="quotedblleft" unicode="&#x201c;" horiz-adv-x="330" 
d="M194.5 471q-18.5 26 -18.5 69q0 52 21 100.5t62 82.5l43 -50q-28 -26 -41 -50.5t-15 -54.5v-4q24 -1 41 -17.5t17 -42.5q0 -25 -16.5 -42t-42.5 -17q-32 0 -50.5 26zM48.5 471q-18.5 26 -18.5 69q0 52 21 100.5t62 82.5l43 -50q-28 -26 -41 -50.5t-15 -54.5v-4
q24 -1 41 -17.5t17 -42.5q0 -25 -16.5 -42t-42.5 -17q-32 0 -50.5 26z" />
    <glyph glyph-name="quotedblright" unicode="&#x201d;" horiz-adv-x="330" 
d="M135.5 697q18.5 -26 18.5 -69q0 -52 -21 -100.5t-62 -82.5l-43 50q28 26 41 50.5t15 54.5v4q-24 1 -41 17.5t-17 42.5q0 25 16.5 42t42.5 17q32 0 50.5 -26zM281.5 697q18.5 -26 18.5 -69q0 -52 -21 -100.5t-62 -82.5l-43 50q28 26 41 50.5t15 54.5v4q-24 1 -41 17.5
t-17 42.5q0 25 16.5 42t42.5 17q32 0 50.5 -26z" />
    <glyph glyph-name="uni201F" unicode="&#x201f;" horiz-adv-x="330" 
d="M194.5 697q-18.5 -26 -18.5 -69q0 -52 21 -100.5t62 -82.5l43 50q-28 26 -41 50.5t-15 54.5v4q24 1 41 17.5t17 42.5q0 25 -16.5 42t-42.5 17q-32 0 -50.5 -26zM48.5 697q-18.5 -26 -18.5 -69q0 -52 21 -100.5t62 -82.5l43 50q-28 26 -41 50.5t-15 54.5v4q24 1 41 17.5
t17 42.5q0 25 -16.5 42t-42.5 17q-32 0 -50.5 -26z" />
    <glyph glyph-name="quoteleft" unicode="&#x2018;" horiz-adv-x="184" 
d="M48.5 472q-18.5 26 -18.5 69q0 52 21 100.5t62 82.5l43 -50q-28 -26 -41 -50.5t-15 -54.5v-4q24 -1 41 -17.5t17 -42.5q0 -25 -16.5 -42t-42.5 -17q-32 0 -50.5 26z" />
    <glyph glyph-name="quotereversed" unicode="&#x201b;" horiz-adv-x="184" 
d="M48.5 697q-18.5 -26 -18.5 -69q0 -52 21 -100.5t62 -82.5l43 50q-28 26 -41 50.5t-15 54.5v4q24 1 41 17.5t17 42.5q0 25 -16.5 42t-42.5 17q-32 0 -50.5 -26z" />
    <glyph glyph-name="quoteright" unicode="&#x2019;" horiz-adv-x="184" 
d="M135.5 697q18.5 -26 18.5 -69q0 -52 -21 -100.5t-62 -82.5l-43 50q28 26 41 50.5t15 54.5v4q-24 1 -41 17.5t-17 42.5q0 25 16.5 42t42.5 17q32 0 50.5 -26z" />
    <glyph glyph-name="quotesinglbase" unicode="&#x201a;" horiz-adv-x="204" 
d="M145.5 132q18.5 -26 18.5 -69q0 -52 -21 -100.5t-62 -82.5l-43 50q28 26 41 50.5t15 54.5v4q-24 1 -41 17.5t-17 42.5q0 25 16.5 42t42.5 17q32 0 50.5 -26z" />
    <glyph glyph-name="uni2007" unicode="&#x2007;" horiz-adv-x="392" 
 />
    <glyph glyph-name="uni200A" unicode="&#x200a;" horiz-adv-x="60" 
 />
    <glyph glyph-name="uni2008" unicode="&#x2008;" horiz-adv-x="157" 
 />
    <glyph glyph-name="uni00A0" unicode="&#xa0;" horiz-adv-x="157" 
 />
    <glyph glyph-name="uni2009" unicode="&#x2009;" horiz-adv-x="92" 
 />
    <glyph glyph-name="uni200B" unicode="&#x200b;" horiz-adv-x="0" 
 />
    <glyph glyph-name="uni058F" unicode="&#x58f;" horiz-adv-x="428" 
d="M334 335v-73h64v-71h-64v-191h-98v191h-119v71h119v73h-119v71h119v174q0 27 -14.5 42.5t-39.5 15.5q-26 0 -41 -15.5t-15 -42.5v-127h-96v127q0 71 40 110.5t112 39.5t112 -39.5t40 -110.5v-174h64v-71h-64z" />
    <glyph glyph-name="uni0E3F" unicode="&#xe3f;" horiz-adv-x="398" 
d="M340.5 67q-38.5 -55 -108.5 -65v-91h-83v89h-98v720h98v83h83v-87q58 -12 88 -62.5t30 -122.5q0 -107 -63 -151q44 -18 68 -65t24 -112q0 -81 -38.5 -136zM236 440q16 31 16 82q0 52 -17 82t-51 30h-35v-225h38q33 0 49 31zM258.5 118q18.5 32 18.5 88t-19 87.5t-55 31.5
h-54v-239h54q37 0 55.5 32z" />
    <glyph glyph-name="uni20B5" unicode="&#x20b5;" horiz-adv-x="380" 
d="M243 -6v-115h-52v115q-155 27 -155 366q0 171 38 262t117 104v87h52v-87q73 -10 118 -95l-76 -48q-14 20 -23 30.5t-19 15.5v-538q16 9 43 51l76 -53q-44 -85 -119 -95zM191 94v532q-54 -42 -54 -266q0 -222 54 -266z" />
    <glyph glyph-name="cent" unicode="&#xa2;" horiz-adv-x="338" 
d="M253 123l63 -56q-32 -50 -76 -66v-101h-82v101q-57 19 -86.5 89.5t-29.5 183.5t29.5 183t86.5 89v114h82v-114q44 -15 76 -65l-63 -56q-23 38 -50 38q-32 0 -48 -49.5t-16 -139.5q0 -91 16 -140.5t48 -49.5q25 0 50 39z" />
    <glyph glyph-name="colonmonetary" unicode="&#x20a1;" horiz-adv-x="382" 
d="M226 -8l-17 -113h-37l17 116q-15 2 -36 11l-18 -127h-37l22 150q-85 81 -85 331q0 186 45 277t138 91h4l12 85h37l-13 -90q18 -4 36 -15l15 105h37l-19 -133q19 -20 33 -49l-45 -28l-75 -514q19 11 45 53l76 -53q-48 -94 -135 -97zM145 205l63 430q-37 -8 -54.5 -76
t-17.5 -199q0 -93 9 -155zM203 87l74 506q-21 26 -33 35l-74 -508q13 -25 33 -33z" />
    <glyph glyph-name="currency" unicode="&#xa4;" horiz-adv-x="452" 
d="M366 269l48 -47l-50 -49l-47 47q-41 -27 -91 -27t-91 27l-47 -47l-50 49l47 47q-26 42 -26 91t26 91l-47 47l50 49l47 -47q41 27 91 27t91 -27l47 47l50 -49l-47 -47q26 -42 26 -91q0 -50 -27 -91zM291.5 294.5q26.5 26.5 26.5 65.5t-26.5 65.5t-65.5 26.5
q-38 0 -65 -26.5t-27 -65.5t27 -65.5t65 -26.5q39 0 65.5 26.5z" />
    <glyph glyph-name="dollar" unicode="$" horiz-adv-x="362" 
d="M306.5 70q-30.5 -49 -84.5 -64v-95h-83v93q-72 16 -115 93l79 49q31 -55 73 -55q30 0 47 24.5t17 69.5q0 36 -13.5 64t-41.5 54l-58 53q-45 41 -71 87t-26 106q0 64 29.5 107.5t79.5 57.5v89h83v-88q67 -16 100 -88l-75 -49q-29 51 -64 51q-25 0 -40 -20t-15 -53
t16.5 -60t46.5 -54l55 -51q91 -83 91 -198q0 -74 -30.5 -123z" />
    <glyph glyph-name="dong" unicode="&#x20ab;" horiz-adv-x="367" 
d="M362 608h-36v-608h-83v74q-15 -41 -36.5 -62.5t-53.5 -21.5q-62 0 -97 75.5t-35 208.5t35 208.5t97 75.5q48 0 77 -54v104h-78v71h78v73h96v-73h36v-71zM217 133q16 55 16 141q0 87 -16 141.5t-42 54.5q-27 0 -42.5 -52.5t-15.5 -143.5t15.5 -143.5t42.5 -52.5
q26 0 42 55zM69 -96h233v-73h-233v73z" />
    <glyph glyph-name="Euro" unicode="&#x20ac;" horiz-adv-x="420" 
d="M227.5 124q26.5 -42 68.5 -42q17 0 38.5 6.5t40.5 22.5l-12 -99q-37 -22 -83 -22q-79 0 -127.5 65.5t-62.5 191.5h-62v72h57q-1 13 -1 41q0 24 1 35h-57v72h61q14 129 63 196t130 67q66 0 117 -39l-30 -83q-27 17 -43.5 23.5t-30.5 6.5q-85 0 -105 -171h149l-16 -72h-137
q-1 -12 -1 -36q0 -27 1 -40h117l-16 -72h-96q10 -81 36.5 -123z" />
    <glyph glyph-name="florin" unicode="&#x192;" horiz-adv-x="302" 
d="M195 620v-97l1 -23v-31h79v-80h-79v-444q0 -60 -31.5 -96.5t-85.5 -36.5q-37 0 -59 14v81q26 -9 40 -9q40 0 40 53v438h-57v80h57v157q0 62 32 99t86 37q38 0 60 -14v-81q-25 9 -40 9q-43 0 -43 -56z" />
    <glyph glyph-name="franc" unicode="&#x20a3;" 
d="M168 632v-217h130v-88h-130v-112h94v-79h-94v-136h-99v136h-29v79h29v505h277v-88h-178z" />
    <glyph glyph-name="uni20B2" unicode="&#x20b2;" horiz-adv-x="406" 
d="M368 49q-66 -57 -140 -57v-113h-52v120q-73 21 -106.5 109t-33.5 249q0 166 34 256.5t106 109.5v90h52v-85q89 -5 136 -97l-76 -52q-19 29 -31.5 42t-28.5 15v-227h140v-360zM176 111v503q-43 -56 -43 -256q0 -188 43 -247zM229 82q23 0 46 14v225h-47v-239h1z" />
    <glyph glyph-name="uni20B4" unicode="&#x20b4;" horiz-adv-x="392" 
d="M249 358q-36 -32 -47 -44h165v-71h-210q-11 -30 -11 -66q0 -45 17 -69.5t47 -24.5q42 0 73 55l79 -49q-28 -53 -68 -75t-83 -22q-75 0 -118.5 52t-43.5 141q0 33 7 58h-32v71h63q22 33 62 73h-125v71h193q41 51 41 107q0 32 -15.5 52.5t-40.5 20.5q-24 0 -41 -12.5
t-31 -38.5l-75 49q43 93 147 93q68 0 111 -47t43 -124q0 -56 -21 -100h32v-71h-86q-16 -16 -32 -29z" />
    <glyph glyph-name="uni20AD" unicode="&#x20ad;" horiz-adv-x="426" 
d="M181 323h-13v-323h-99v323h-29v80h29v317h99v-317h14l107 317h108l-134 -317h113v-80h-112l139 -323h-111z" />
    <glyph glyph-name="lira" unicode="&#x20a4;" horiz-adv-x="378" 
d="M351 88v-88h-303v78q26 23 44.5 62t19.5 93h-83v71h75l-20 73h-55v71h41q-7 47 -7 95q0 88 38.5 137.5t106.5 49.5q63 0 101 -45.5t39 -121.5h-98q-1 37 -12 58.5t-30 21.5q-21 0 -33.5 -25.5t-12.5 -65.5q0 -52 10 -104h114v-71h-97q12 -48 16 -73h81v-71h-76
q-1 -41 -17 -78.5t-49 -66.5h207z" />
    <glyph glyph-name="uni20BA" unicode="&#x20ba;" horiz-adv-x="396" 
d="M372 336q0 -103 -26.5 -181.5t-73.5 -121.5t-108 -43q-53 0 -86 15v204l-39 -42h-4v73l43 46v71l-39 -42h-4v73l43 46v286h98v-180l87 93h4v-73l-91 -98v-72l88 93h3v-73l-91 -97v-233q29 0 52 32t36 90t13 134h95z" />
    <glyph glyph-name="uni20BC" unicode="&#x20bc;" horiz-adv-x="496" 
d="M362 0v26q-1 159 -5 264t-18.5 197.5t-43.5 134.5v-493h-94v493q-29 -42 -43.5 -134.5t-18.5 -197.5t-5 -264v-26h-98q2 271 38.5 470.5t126.5 244.5v98h94v-98q90 -45 126.5 -244.5t38.5 -470.5h-98z" />
    <glyph glyph-name="uni20A6" unicode="&#x20a6;" horiz-adv-x="458" 
d="M386 393v-53h33v-71h-33v-269h-102l-66 269h-56v-269h-90v269h-33v71h33v53h-33v71h33v256h104l63 -256h56v256h91v-256h33v-71h-33zM200 340l-38 155v-155h38zM295 393h-39l39 -158v158z" />
    <glyph glyph-name="peseta" unicode="&#x20a7;" horiz-adv-x="433" 
d="M411 471h-24q-6 -92 -50 -141.5t-115 -49.5h-54v-280h-99v471h-29v71h29v178h153q69 0 112 -46t52 -132h25v-71zM168 542h118q-11 92 -70 92h-48v-92zM265 393q18 27 22 78h-119v-105h48q31 0 49 27z" />
    <glyph glyph-name="uni20B1" unicode="&#x20b1;" horiz-adv-x="436" 
d="M410 523h-21q1 -9 1 -27q0 -17 -1 -25h21v-56h-28q-15 -70 -56 -106.5t-102 -36.5h-54v-272h-99v415h-29v56h29v52h-29v56h29v141h153q60 0 101 -36t57 -105h28v-56zM170 579h110q-17 58 -62 58h-48v-58zM289 523h-119v-52h119q1 8 1 25q0 18 -1 27zM281 415h-111v-60h48
q46 0 63 60z" />
    <glyph glyph-name="uni20BD" unicode="&#x20bd;" horiz-adv-x="422" 
d="M173 280v-60h108v-79h-108v-141h-99v141h-29v79h29v60h-29v86h29v354h153q77 0 121.5 -57.5t44.5 -162.5t-44.5 -162.5t-121.5 -57.5h-54zM173 366h48q36 0 54 34t18 100t-18 100t-54 34h-48v-268z" />
    <glyph glyph-name="uni20A8" unicode="&#x20a8;" horiz-adv-x="693" 
d="M284 0l-80 291h-7h-45v-291h-101v720h146q79 0 126 -57t47 -160q0 -65 -19.5 -111.5t-55.5 -71.5l95 -320h-106zM191 375q36 0 55.5 33.5t19.5 96.5q0 61 -19.5 94.5t-55.5 33.5h-39v-258h39zM465 10q-36 19 -56 53l61 59q15 -22 33 -34.5t37 -12.5q23 0 37.5 18t14.5 50
q0 25 -9.5 42.5t-29.5 31.5l-48 35q-85 62 -85 159q0 66 36.5 106t96.5 40q78 0 125 -71l-58 -57q-16 22 -30.5 32.5t-31.5 10.5q-21 0 -33.5 -15t-12.5 -40q0 -46 41 -75l40 -28q46 -32 68.5 -72t22.5 -92q0 -72 -39 -115.5t-102 -43.5q-42 0 -78 19z" />
    <glyph glyph-name="uni20B9" unicode="&#x20b9;" horiz-adv-x="364" 
d="M333 11v-11h-109l-171 295v67h64q68 0 77 98h-161v79h161q-5 51 -23.5 76.5t-53.5 25.5h-84v79h297v-79h-94q50 -31 60 -102h34v-79h-33q-8 -70 -42 -115t-92 -54z" />
    <glyph glyph-name="uni20AA" unicode="&#x20aa;" horiz-adv-x="596" 
d="M145 629v-629h-94v720h226q62 0 96.5 -38.5t34.5 -106.5v-371h-89v371q0 26 -12 40t-34 14h-128zM545 720v-575q0 -145 -137 -145h-220v516h89v-425h127q47 0 47 54v575h94z" />
    <glyph glyph-name="sterling" unicode="&#xa3;" horiz-adv-x="378" 
d="M351 88v-88h-303v78q27 24 45.5 64t18.5 96q0 32 -11 78h-72v80h51q-17 66 -17 147q0 88 38.5 137.5t106.5 49.5q63 0 101 -45.5t39 -121.5h-98q-1 37 -12 58.5t-30 21.5q-21 0 -33.5 -25.5t-12.5 -65.5q0 -41 5.5 -76t16.5 -80h104v-80h-86q8 -38 8 -77q0 -43 -16 -82.5
t-50 -68.5h207z" />
    <glyph glyph-name="uni20B8" unicode="&#x20b8;" horiz-adv-x="331" 
d="M326 720v-90h-321v90h321zM326 495h-110v-495h-101v495h-110v90h321v-90z" />
    <glyph glyph-name="uni20AE" unicode="&#x20ae;" horiz-adv-x="331" 
d="M216 630v-154l70 53h5v-73l-75 -57v-70l71 54h4v-73l-75 -57v-253h-101v175l-71 -54h-4v73l75 57v70l-71 -54h-4v74l75 57v232h-110v90h321v-90h-110z" />
    <glyph glyph-name="uni20A9" unicode="&#x20a9;" horiz-adv-x="579" 
d="M506 414h38v-66h-47l-48 -348h-108l-35 349h-34l-37 -349h-107l-46 348h-46v66h37l-41 306h96l29 -306h60l30 303h90l30 -303h58l30 306h93zM278 413h22l-11 195zM210 348h-46l22 -236zM419 348h-46l23 -235z" />
    <glyph glyph-name="yen" unicode="&#xa5;" horiz-adv-x="401" 
d="M278 387h69v-71h-91l-6 -20v-64h97v-71h-97v-161h-99v161h-95v71h95v60l-7 24h-88v71h66l-101 333h110l69 -330l70 330h109z" />
    <glyph glyph-name="uni2219" unicode="&#x2219;" horiz-adv-x="210" 
d="M62.5 314q-16.5 18 -16.5 47t16.5 47t42.5 18t42.5 -18t16.5 -47t-16.5 -47t-42.5 -18t-42.5 18z" />
    <glyph glyph-name="uni2215" unicode="&#x2215;" horiz-adv-x="124" 
d="M226 720l-263 -720h-65l263 720h65z" />
    <glyph glyph-name="plus" unicode="+" horiz-adv-x="349" 
d="M322 319h-105v-136h-85v136h-105v83h105v136h85v-136h105v-83z" />
    <glyph glyph-name="minus" unicode="&#x2212;" horiz-adv-x="417" 
d="M356 402v-83h-295v83h295z" />
    <glyph glyph-name="multiply" unicode="&#xd7;" horiz-adv-x="360" 
d="M239 361l95 -97l-60 -60l-94 96l-94 -96l-60 60l95 97l-95 96l60 60l94 -96l94 96l60 -60z" />
    <glyph glyph-name="divide" unicode="&#xf7;" horiz-adv-x="341" 
d="M212 558q-16 18 -41 18t-41 -18t-16 -44t16 -44t41 -18t41 18t16 44t-16 44zM318 402v-83h-295v83h295zM212 251q-16 18 -41 18t-41 -18t-16 -44t16 -44t41 -18t41 18t16 44t-16 44z" />
    <glyph glyph-name="equal" unicode="=" horiz-adv-x="402" 
d="M61 486h280v-83h-280v83zM61 315h280v-83h-280v83z" />
    <glyph glyph-name="notequal" unicode="&#x2260;" horiz-adv-x="402" 
d="M249 403l-23 -88h115v-83h-137l-38 -142l-67 20l33 122h-71v83h93l23 88h-116v83h138l38 142l67 -20l-33 -122h70v-83h-92z" />
    <glyph glyph-name="greater" unicode="&#x3e;" horiz-adv-x="294" 
d="M32 460l150 -102l-150 -102v-106l236 177v62l-236 177v-106z" />
    <glyph glyph-name="less" unicode="&#x3c;" horiz-adv-x="294" 
d="M262 460l-150 -102l150 -102v-106l-236 177v62l236 177v-106z" />
    <glyph glyph-name="greaterequal" unicode="&#x2265;" horiz-adv-x="315" 
d="M285 452v-62l-236 -157v102l146 86l-146 86v102zM45 183h240v-84h-240v84z" />
    <glyph glyph-name="lessequal" unicode="&#x2264;" horiz-adv-x="315" 
d="M30 452v-62l236 -157v102l-146 86l146 86v102zM270 183h-240v-84h240v84z" />
    <glyph glyph-name="plusminus" unicode="&#xb1;" horiz-adv-x="363" 
d="M329 462v-83h-105v-128h-85v128h-105v83h105v128h85v-128h105zM34 183h295v-84h-295v84z" />
    <glyph glyph-name="approxequal" unicode="&#x2248;" horiz-adv-x="419" 
d="M296 506q-1 -27 -9.5 -38t-19.5 -11q-7 0 -16.5 5.5t-19.5 12.5q-23 16 -41.5 25t-44.5 9q-48 0 -74.5 -35.5t-27.5 -92.5h81q1 27 9.5 38t19.5 11q7 0 16.5 -5.5t19.5 -12.5q23 -16 41.5 -25t44.5 -9q48 0 74.5 35.5t27.5 92.5h-81zM296 335q-1 -27 -9.5 -38t-19.5 -11
q-7 0 -16.5 5.5t-19.5 12.5q-23 16 -41.5 25t-44.5 9q-48 0 -74.5 -35.5t-27.5 -92.5h81q1 27 9.5 38t19.5 11q7 0 16.5 -5.5t19.5 -12.5q23 -16 41.5 -25t44.5 -9q48 0 74.5 35.5t27.5 92.5h-81z" />
    <glyph glyph-name="asciitilde" unicode="~" horiz-adv-x="420" 
d="M296 421q-1 -27 -9.5 -38t-19.5 -11q-7 0 -16.5 5.5t-19.5 12.5q-23 16 -41.5 25t-44.5 9q-48 0 -74.5 -35.5t-27.5 -92.5h81q1 27 9.5 38t19.5 11q7 0 16.5 -5.5t19.5 -12.5q23 -16 41.5 -25t44.5 -9q48 0 74.5 35.5t27.5 92.5h-81z" />
    <glyph glyph-name="logicalnot" unicode="&#xac;" horiz-adv-x="387" 
d="M326 457v-236h-85v153h-210v83h295z" />
    <glyph glyph-name="emptyset" unicode="&#x2205;" horiz-adv-x="437" 
d="M353 636q44 -94 44 -276q0 -370 -178 -370q-44 0 -79 24l-29 -90l-73 22l47 138q-44 89 -44 276q0 370 178 370q45 0 79 -24l29 90l73 -22zM173 607q-21 -33 -33.5 -96.5t-12.5 -150.5q0 -86 12 -146l126 392q-20 34 -46 34q-25 0 -46 -33zM265 113q21 33 33.5 96.5
t12.5 150.5q0 85 -12 145l-126 -391q20 -34 46 -34q25 0 46 33z" />
    <glyph glyph-name="infinity" unicode="&#x221e;" horiz-adv-x="654" 
d="M575.5 460.5q41.5 -39.5 41.5 -101.5t-41.5 -101.5t-105.5 -39.5q-45 0 -79.5 20.5t-67.5 56.5q-29 -36 -62 -56.5t-78 -20.5q-63 0 -104.5 39.5t-41.5 101.5t41.5 101.5t105.5 39.5q45 0 79.5 -20.5t67.5 -56.5q29 36 62 56.5t78 20.5q63 0 104.5 -39.5zM514 319.5
q16 15.5 16 39.5q0 26 -18 43t-47 17q-25 0 -46 -14t-41 -39q25 -30 47 -46t47 -16q26 0 42 15.5zM235 313q21 14 41 39q-25 30 -47 46t-47 16q-26 0 -42 -15.5t-16 -39.5q0 -26 18 -43t47 -17q25 0 46 14z" />
    <glyph glyph-name="integral" unicode="&#x222b;" horiz-adv-x="266" 
d="M82 301q-7 172 -7 283q0 83 33 130.5t88 47.5q37 0 57 -13v-81q-23 8 -37 8q-21 0 -33.5 -22t-12.5 -66q0 -77 3 -172.5t4 -127.5q8 -208 8 -320q0 -70 -31 -114t-84 -44q-37 0 -57 13v81q23 -8 37 -8q19 0 29.5 18.5t10.5 49.5q0 123 -8 337z" />
    <glyph glyph-name="uni2126" unicode="&#x2126;" horiz-adv-x="476" 
d="M452 86v-86h-192v81q23 63 41.5 152.5t18.5 187.5q0 102 -21.5 160t-60.5 58t-60.5 -58t-21.5 -160q0 -98 18.5 -187.5t41.5 -152.5v-81h-192v86h108q-37 70 -58.5 162.5t-21.5 177.5q0 143 49 223.5t137 80.5t137 -80.5t49 -223.5q0 -85 -21.5 -177.5t-58.5 -162.5h108z
" />
    <glyph glyph-name="uni2206" unicode="&#x2206;" horiz-adv-x="402" 
d="M395 0h-388l131 720h125zM277 88l-77 541l-77 -541h154z" />
    <glyph glyph-name="product" unicode="&#x220f;" horiz-adv-x="446" 
d="M395 -180h-98v810h-148v-810h-98v900h344v-900z" />
    <glyph glyph-name="summation" unicode="&#x2211;" horiz-adv-x="366" 
d="M346 -93v-87h-324v78l166 389l-159 354v79h308v-87h-194l156 -344l-167 -382h214z" />
    <glyph glyph-name="radical" unicode="&#x221a;" horiz-adv-x="416" 
d="M409 634h-76l-128 -814h-100l-84 508h97l39 -357l92 749h160v-86z" />
    <glyph glyph-name="uni00B5" unicode="&#xb5;" horiz-adv-x="393" 
d="M344 548v-548h-83v50q-12 -29 -37 -44.5t-58 -15.5q-9 0 -13 1v-171h-96v728h96v-416q0 -25 12 -38t33 -13q50 0 50 62v405h96z" />
    <glyph glyph-name="partialdiff" unicode="&#x2202;" horiz-adv-x="371" 
d="M297.5 610q39.5 -121 39.5 -264q0 -173 -47 -266t-131 -93q-63 0 -97.5 57.5t-34.5 164.5q0 85 18.5 150t51 100.5t73.5 35.5q51 0 70 -56q-4 87 -36 160.5t-77 110.5l45 70q86 -49 125.5 -170zM212.5 132q17.5 57 17.5 146q0 65 -12 100.5t-32 35.5q-28 0 -45.5 -57.5
t-17.5 -150.5q0 -63 11 -97t31 -34q30 0 47.5 57z" />
    <glyph glyph-name="percent" unicode="%" horiz-adv-x="524" 
d="M24 552q0 178 104 178t104 -178t-104 -178t-104 178zM377 720h65l-297 -720h-65zM159 552q0 108 -31 108t-31 -108t31 -108t31 108zM292 168q0 178 104 178t104 -178t-104 -178t-104 178zM427 168q0 108 -31 108t-31 -108t31 -108t31 108z" />
    <glyph glyph-name="perthousand" unicode="&#x2030;" horiz-adv-x="775" 
d="M24 552q0 178 104 178t104 -178t-104 -178t-104 178zM377 720h65l-297 -720h-65zM159 552q0 108 -31 108t-31 -108t31 -108t31 108zM292 168q0 178 104 178t104 -178t-104 -178t-104 178zM543 168q0 178 104 178t104 -178t-104 -178t-104 178zM427 168q0 108 -31 108
t-31 -108t31 -108t31 108zM678 168q0 108 -31 108t-31 -108t31 -108t31 108z" />
    <glyph glyph-name="arrowup" unicode="&#x2191;" horiz-adv-x="416" 
d="M208 695l179 -248v-135l-134 185v-479h-90v479l-134 -185v135z" />
    <glyph glyph-name="uni2197" unicode="&#x2197;" horiz-adv-x="569" 
d="M539.647 605.764l-48.7891 -301.929l-95.457 -95.457l36.0615 225.562l-338.697 -338.697l-63.6387 63.6377l338.697 338.697l-225.562 -36.0615l95.458 95.457z" />
    <glyph glyph-name="arrowright" unicode="&#x2192;" horiz-adv-x="735" 
d="M706 360l-248 -179h-135l185 134h-479v90h479l-185 134h135z" />
    <glyph glyph-name="uni2198" unicode="&#x2198;" horiz-adv-x="569" 
d="M539.765 114.339l-301.929 48.7891l-95.457 95.458l225.562 -36.0625l-338.697 338.697l63.6387 63.6387l338.697 -338.697l-36.0625 225.562l95.458 -95.457z" />
    <glyph glyph-name="arrowdown" unicode="&#x2193;" horiz-adv-x="416" 
d="M208 24l-179 248v135l134 -185v479h90v-479l134 185v-135z" />
    <glyph glyph-name="uni2199" unicode="&#x2199;" horiz-adv-x="569" 
d="M29.3408 114.222l48.7891 301.929l95.457 95.457l-36.0615 -225.562l338.697 338.697l63.6387 -63.6377l-338.697 -338.697l225.562 36.0615l-95.458 -95.458z" />
    <glyph glyph-name="arrowleft" unicode="&#x2190;" horiz-adv-x="735" 
d="M29 360l248 -179h135l-185 134h479v90h-479l185 134h-135z" />
    <glyph glyph-name="uni2196" unicode="&#x2196;" horiz-adv-x="569" 
d="M29.2236 605.646l301.929 -48.7891l95.457 -95.458l-225.562 36.0615l338.697 -338.696l-63.6387 -63.6387l-338.696 338.697l36.0615 -225.562l-95.458 95.457z" />
    <glyph glyph-name="lozenge" unicode="&#x25ca;" horiz-adv-x="366" 
d="M348 360l-123 -360h-83l-124 360l124 360h83zM248 360l-65 248l-65 -248l66 -250z" />
    <glyph glyph-name="filledbox" unicode="&#x25a0;" horiz-adv-x="822" 
d="M771 720v-720h-720v720h720z" />
    <glyph glyph-name="triagup" unicode="&#x25b2;" horiz-adv-x="788" 
d="M781 0h-774l387 724z" />
    <glyph glyph-name="uni25B6" unicode="&#x25b6;" horiz-adv-x="783" 
d="M775 360l-724 -387v774z" />
    <glyph glyph-name="triagdn" unicode="&#x25bc;" horiz-adv-x="788" 
d="M781 720l-387 -724l-387 724h774z" />
    <glyph glyph-name="uni25C0" unicode="&#x25c0;" horiz-adv-x="783" 
d="M732 747v-774l-724 387z" />
    <glyph glyph-name="uni25B3" unicode="&#x25b3;" horiz-adv-x="788" 
d="M781 0h-774l387 724zM394 523l-228 -428h456z" />
    <glyph glyph-name="uni25B7" unicode="&#x25b7;" horiz-adv-x="783" 
d="M775 360l-724 -387v774zM146 588v-456l428 228z" />
    <glyph glyph-name="uni25BD" unicode="&#x25bd;" horiz-adv-x="788" 
d="M781 720h-774l387 -724zM394 197l-228 428h456z" />
    <glyph glyph-name="uni25C1" unicode="&#x25c1;" horiz-adv-x="783" 
d="M732 747v-774l-724 387zM209 360l428 -228v456z" />
    </font>
</defs>
</svg>
